<?xml version="1.0" encoding="UTF-8"?><svg id="uuid-6c71dc1c-688b-46e3-a23c-bc812839885d" xmlns="http://www.w3.org/2000/svg" viewBox="0 0 84.63 84.63"><defs><style>.uuid-b5682c2a-2408-4653-b848-f6afc3876845{fill:#2ea292;stroke-width:0px;}</style></defs><g id="uuid-4d27f453-992d-4a07-9c8d-15c299d7763c"><g id="uuid-0dbe5690-26f6-4eb2-b0d6-d4daaf8d0194"><path class="uuid-b5682c2a-2408-4653-b848-f6afc3876845" d="m42.25,52.62c-2.57,0-5.15,0-7.72,0-1.55,0-2.52-.98-2.52-2.53,0-5.17,0-10.34,0-15.51,0-1.59.97-2.56,2.55-2.56,5.17,0,10.34,0,15.51,0,1.58,0,2.54.97,2.55,2.57,0,5.15-.03,10.3.02,15.45.01,1.59-1.23,2.64-2.6,2.61-2.59-.06-5.19-.02-7.79-.02Zm-1.62-7.52c-.24-1-.17-1.84.27-2.62.76-1.35,1.96-2.02,3.45-2.26.29-.05.59-.07.91-.1-.18-.9-.6-1.58-1.22-2.14-1.63-1.46-4.14-1.79-6.13-.82-.75.37-1.39.86-1.87,1.54-1.18,1.68-.89,3.72.78,5.14.36.31.44.59.29,1-.08.21-.1.45-.14.67l.12.08c.24-.13.5-.24.73-.4.43-.3.86-.38,1.38-.24.42.11.88.1,1.42.15Zm7.25,2.83c.03-.06.05-.07.05-.09,0-.06.02-.13,0-.18-.27-.58-.04-.94.4-1.36,1.25-1.18,1.32-2.96.25-4.25-1.57-1.89-4.83-2.05-6.6-.33-1.52,1.48-1.38,3.67.32,4.94.9.68,1.93,1.04,3.04.91.89-.1,1.72-.18,2.48.38.01,0,.04,0,.08-.02Z"/><path class="uuid-b5682c2a-2408-4653-b848-f6afc3876845" d="m8.05,84.62c-2.06,0-4.13,0-6.19,0-1.22,0-1.86-.63-1.86-1.84,0-4.13,0-8.25,0-12.38,0-1.15.62-1.8,1.76-1.81,4.17,0,8.33,0,12.5,0,1.13,0,1.76.62,1.77,1.75.01,4.21.01,8.41,0,12.62,0,.99-.68,1.64-1.67,1.65-2.1.01-4.21,0-6.31,0Zm-5.73-8.02h0c0,1.55,0,3.1,0,4.66,0,.83.22,1.05,1.06,1.05,3.1,0,6.21,0,9.31,0,.8,0,1.04-.24,1.04-1.01,0-3.1,0-6.21,0-9.31,0-.85-.24-1.08-1.1-1.09-3.08,0-6.17,0-9.25,0-.83,0-1.06.23-1.06,1.05,0,1.55,0,3.1,0,4.66Z"/><path class="uuid-b5682c2a-2408-4653-b848-f6afc3876845" d="m68.6,8.04c0-2.04,0-4.08,0-6.13,0-1.32.6-1.91,1.91-1.91,4.08,0,8.17,0,12.25,0,1.22,0,1.86.62,1.86,1.83,0,4.1,0,8.21,0,12.31,0,1.27-.61,1.89-1.87,1.89-4.06,0-8.13,0-12.19,0-1.39,0-1.96-.59-1.96-1.99,0-2,0-4,0-6Zm2.3,0h0c0,1.57,0,3.14,0,4.72,0,.7.27.97.96.97,3.16,0,6.33,0,9.49,0,.68,0,.95-.25.95-.91,0-3.19,0-6.37,0-9.56,0-.68-.26-.93-.93-.93-3.16,0-6.33,0-9.49,0-.75,0-.98.25-.99,1,0,1.57,0,3.14,0,4.72Z"/><path class="uuid-b5682c2a-2408-4653-b848-f6afc3876845" d="m0,8.01c0-2.06,0-4.13,0-6.19C0,.65.66,0,1.82,0,5.95,0,10.08,0,14.2,0c1.18,0,1.83.63,1.83,1.81,0,4.15,0,8.29,0,12.44,0,1.14-.65,1.78-1.79,1.78-4.15,0-8.29,0-12.44,0-1.17,0-1.8-.65-1.8-1.84,0-2.06,0-4.13,0-6.19ZM8.06,2.32h0c-1.57,0-3.14,0-4.72,0-.8,0-1.03.23-1.03,1.02,0,3.1,0,6.21,0,9.31,0,.87.22,1.08,1.09,1.08,3.06,0,6.13,0,9.19,0,.9,0,1.13-.23,1.13-1.12,0-3.06,0-6.13,0-9.19,0-.89-.22-1.1-1.13-1.1-1.51,0-3.02,0-4.53,0Z"/><path class="uuid-b5682c2a-2408-4653-b848-f6afc3876845" d="m32.02,74.57c0,.83-.09.92-.89.92-.86,0-.95-.09-.95-.93,0-.83.09-.92.97-.92.79,0,.88.09.88.93Z"/><path class="uuid-b5682c2a-2408-4653-b848-f6afc3876845" d="m75.48,67.71c-.01.84-.1.93-.96.92-.8-.01-.91-.13-.89-1,.01-.77.13-.86,1.04-.85.73.01.83.12.82.93Z"/><path class="uuid-b5682c2a-2408-4653-b848-f6afc3876845" d="m75.49,65.41c0,.82-.11.94-.89.94-.86,0-.96-.1-.96-.93,0-.85.07-.93.95-.93.8,0,.9.1.9.91Z"/><path class="uuid-b5682c2a-2408-4653-b848-f6afc3876845" d="m50.77,67.65c0-.79.1-.88,1.01-.87.75,0,.85.12.84.98,0,.76-.13.88-.89.88-.87,0-.97-.1-.97-.99Z"/><path class="uuid-b5682c2a-2408-4653-b848-f6afc3876845" d="m48.06,67.65c.02.84-.1.97-.85.98-.87.01-.99-.08-1-.82-.01-.92.06-1.02.77-1.03.97-.02,1.06.06,1.08.87Z"/><path class="uuid-b5682c2a-2408-4653-b848-f6afc3876845" d="m34.33,56.24c0,.86-.08.94-.87.94-.9,0-.97-.06-.97-.9,0-.86.09-.96.93-.96.8,0,.91.11.92.91Z"/><path class="uuid-b5682c2a-2408-4653-b848-f6afc3876845" d="m70.9,47.12c0,.87-.07.94-.94.94-.8,0-.91-.11-.91-.92,0-.84.09-.93.96-.93.84,0,.9.06.9.91Z"/><path class="uuid-b5682c2a-2408-4653-b848-f6afc3876845" d="m27.9,67.73c0-.86.09-.95.93-.95.84,0,.92.08.91,1.02,0,.71-.13.84-.86.83-.87,0-.98-.1-.98-.91Z"/><path class="uuid-b5682c2a-2408-4653-b848-f6afc3876845" d="m43.46,67.71c0,.85-.08.92-.95.92-.8,0-.9-.11-.89-.99,0-.76.13-.86,1.03-.86.73,0,.82.11.82.93Z"/><path class="uuid-b5682c2a-2408-4653-b848-f6afc3876845" d="m68.63,47.11c0,.82-.1.94-.88.95-.85,0-.97-.09-.97-.85,0-.89.08-.99.81-1,.95,0,1.03.06,1.04.9Z"/><path class="uuid-b5682c2a-2408-4653-b848-f6afc3876845" d="m65.38,66.78c.87,0,.96.09.96.92,0,.85-.09.93-.95.93-.81,0-.9-.09-.89-.92,0-.85.08-.93.88-.93Z"/><path class="uuid-b5682c2a-2408-4653-b848-f6afc3876845" d="m63.15,39.35c.81,0,.89.08.89.86,0,.91-.08,1-.95.99-.79,0-.9-.12-.9-.93,0-.84.08-.92.96-.92Z"/><path class="uuid-b5682c2a-2408-4653-b848-f6afc3876845" d="m56.22,38.89c-.82,0-.9-.1-.89-.99,0-.77.11-.86.97-.86.82,0,.89.09.88,1.06,0,.72-.09.79-.96.78Z"/><path class="uuid-b5682c2a-2408-4653-b848-f6afc3876845" d="m46.21,79.11c0-.83.06-.89.92-.89.83,0,.93.1.93.89,0,.85-.1.96-.93.96-.84,0-.92-.08-.91-.96Z"/><path class="uuid-b5682c2a-2408-4653-b848-f6afc3876845" d="m75.48,33.45c-.01.81-.1.89-.99.88-.76,0-.87-.15-.85-1.04.01-.73.12-.81,1.01-.8.78,0,.85.08.83.96Z"/><path class="uuid-b5682c2a-2408-4653-b848-f6afc3876845" d="m67.71,27.47c-.83,0-.94-.09-.94-.88,0-.89.07-.96.97-.96.77,0,.87.1.88.87,0,.87-.08.97-.91.97Z"/><path class="uuid-b5682c2a-2408-4653-b848-f6afc3876845" d="m57.18,26.53c0,.84-.08.94-.88.94-.87,0-.97-.09-.97-.91,0-.84.09-.93.95-.93.84,0,.9.06.9.9Z"/><path class="uuid-b5682c2a-2408-4653-b848-f6afc3876845" d="m75.48,24.24c0,.82-.07.92-.82.93-.93.01-1.02-.07-1.03-.84,0-.87.09-.99.83-1,.93-.01,1.01.06,1.02.92Z"/><path class="uuid-b5682c2a-2408-4653-b848-f6afc3876845" d="m77.76,44.86c0,.84-.07.9-.97.9-.78,0-.88-.1-.87-.95,0-.82.1-.91.99-.9.79,0,.87.09.86.95Z"/><path class="uuid-b5682c2a-2408-4653-b848-f6afc3876845" d="m83.62,84.62c-.77,0-.85-.09-.84-.98,0-.8.09-.88,1.01-.87.77,0,.85.1.84,1.04,0,.74-.09.81-1.01.81Z"/><path class="uuid-b5682c2a-2408-4653-b848-f6afc3876845" d="m69.95,84.63c-.82,0-.9-.09-.89-.99,0-.77.11-.86.96-.86.82,0,.89.08.89.99,0,.79-.08.86-.95.86Z"/><path class="uuid-b5682c2a-2408-4653-b848-f6afc3876845" d="m58.57,82.77c.78,0,.91.12.92.85,0,.91-.07,1-.88,1-.91,0-.97-.06-.97-.9,0-.86.08-.95.93-.95Z"/><path class="uuid-b5682c2a-2408-4653-b848-f6afc3876845" d="m52.62,83.71c0,.83-.09.91-.97.91-.8,0-.88-.09-.88-.94,0-.84.08-.92.97-.91.8,0,.88.09.88.94Z"/><path class="uuid-b5682c2a-2408-4653-b848-f6afc3876845" d="m38.89,83.72c0,.85-.06.91-.97.91-.79,0-.88-.09-.88-.94,0-.83.09-.91.97-.91.8,0,.87.08.87.94Z"/><path class="uuid-b5682c2a-2408-4653-b848-f6afc3876845" d="m26.51,84.62c-.83,0-.89-.07-.89-.99,0-.79.1-.87,1.01-.87.73,0,.83.12.83.93,0,.84-.08.92-.96.92Z"/><path class="uuid-b5682c2a-2408-4653-b848-f6afc3876845" d="m19.65,84.63c-.83,0-.89-.07-.88-.99,0-.78.1-.87.95-.86.81,0,.89.09.89.93,0,.85-.08.92-.96.92Z"/><path class="uuid-b5682c2a-2408-4653-b848-f6afc3876845" d="m84.62,79.16c0,.82-.1.91-.98.91-.75,0-.87-.13-.87-.89,0-.88.07-.96.92-.96.87,0,.93.06.93.94Z"/><path class="uuid-b5682c2a-2408-4653-b848-f6afc3876845" d="m20.61,79.16c0,.78-.11.91-.85.91-.88,0-.99-.09-.99-.89,0-.88.06-.95.85-.96.94,0,.99.04.99.94Z"/><path class="uuid-b5682c2a-2408-4653-b848-f6afc3876845" d="m76.82,77.76c-.84,0-.91-.08-.9-.97,0-.79.1-.88,1.01-.87.76,0,.84.1.84.98,0,.81-.07.87-.94.87Z"/><path class="uuid-b5682c2a-2408-4653-b848-f6afc3876845" d="m20.61,10.54c0,.82-.07.89-.92.9-.85,0-.93-.07-.93-.88,0-.86.1-.97.85-.97.9,0,.99.08.99.96Z"/><path class="uuid-b5682c2a-2408-4653-b848-f6afc3876845" d="m70,75.91c.82,0,.9.08.9.92,0,.87-.06.93-.94.93-.83,0-.91-.09-.91-.97,0-.78.11-.88.95-.88Z"/><path class="uuid-b5682c2a-2408-4653-b848-f6afc3876845" d="m59.48,76.83c0,.87-.07.93-.94.93-.83,0-.91-.07-.91-.91,0-.86.08-.95.94-.95.8,0,.91.11.91.92Z"/><path class="uuid-b5682c2a-2408-4653-b848-f6afc3876845" d="m37.94,77.76c-.82,0-.9-.08-.9-.91,0-.85.09-.94.95-.94.8,0,.9.1.9.93,0,.87-.06.92-.94.92Z"/><path class="uuid-b5682c2a-2408-4653-b848-f6afc3876845" d="m34.33,76.91c0,.78-.1.86-1.02.85-.76,0-.82-.09-.82-.99,0-.8.09-.87,1.01-.86.74,0,.83.12.83,1Z"/><path class="uuid-b5682c2a-2408-4653-b848-f6afc3876845" d="m31.1,75.91c.84,0,.92.08.92.89,0,.9-.05.96-.91.96-.84,0-.93-.09-.94-.88,0-.86.1-.97.92-.97Z"/><path class="uuid-b5682c2a-2408-4653-b848-f6afc3876845" d="m19.66,77.76c-.82,0-.9-.07-.9-.91,0-.86.08-.94.94-.94.8,0,.9.1.9.92,0,.86-.07.92-.95.92Z"/><path class="uuid-b5682c2a-2408-4653-b848-f6afc3876845" d="m26.56,2.2c-.86,0-.94-.07-.93-.94,0-.83.07-.9.9-.9.88,0,.94.07.94.93,0,.82-.09.91-.91.91Z"/><path class="uuid-b5682c2a-2408-4653-b848-f6afc3876845" d="m79.11,75.48c-.81,0-.89-.09-.89-.98,0-.77.11-.87.95-.87.78,0,.9.13.9.93,0,.82-.1.93-.96.93Z"/><path class="uuid-b5682c2a-2408-4653-b848-f6afc3876845" d="m47.13,73.63c.81,0,.92.11.93.9,0,.85-.09.95-.94.95-.84,0-.91-.08-.91-.96,0-.8.1-.89.92-.89Z"/><path class="uuid-b5682c2a-2408-4653-b848-f6afc3876845" d="m29.75,74.56c0,.83-.09.93-.9.93-.86,0-.94-.08-.94-.95,0-.79.11-.9.93-.9.81,0,.91.1.91.92Z"/><path class="uuid-b5682c2a-2408-4653-b848-f6afc3876845" d="m32.02,1.29c0,.82-.09.92-.9.91-.85,0-.94-.1-.94-.95,0-.84.07-.9.98-.89.81,0,.87.07.87.93Z"/><path class="uuid-b5682c2a-2408-4653-b848-f6afc3876845" d="m77.76,72.31c0,.8-.1.9-.92.9-.84,0-.93-.1-.93-.96,0-.82.08-.89.99-.89.8,0,.87.08.86.95Z"/><path class="uuid-b5682c2a-2408-4653-b848-f6afc3876845" d="m19.68,13.75c-.85,0-.92-.08-.92-.96,0-.82.08-.89.99-.89.76,0,.86.11.86.9,0,.88-.08.95-.93.95Z"/><path class="uuid-b5682c2a-2408-4653-b848-f6afc3876845" d="m25.16,12.84c0,.84-.08.91-.97.9-.78,0-.87-.11-.87-.96,0-.81.1-.9.99-.89.8,0,.86.08.86.95Z"/><path class="uuid-b5682c2a-2408-4653-b848-f6afc3876845" d="m26.54,13.75c-.85,0-.91-.07-.91-.97,0-.81.08-.88.93-.88.84,0,.92.09.92.97,0,.81-.08.88-.93.88Z"/><path class="uuid-b5682c2a-2408-4653-b848-f6afc3876845" d="m74.56,71.36c.85,0,.92.07.92.88,0,.85-.1.97-.85.97-.88,0-.99-.1-.99-.9,0-.87.08-.95.92-.95Z"/><path class="uuid-b5682c2a-2408-4653-b848-f6afc3876845" d="m33.4,11.9c.83,0,.94.1.93.89,0,.89-.08.96-.99.96-.79,0-.86-.08-.86-.95,0-.82.08-.9.91-.89Z"/><path class="uuid-b5682c2a-2408-4653-b848-f6afc3876845" d="m65.41,71.36c.85,0,.93.07.93.88,0,.84-.11.96-.86.96-.91,0-.99-.07-.99-.89,0-.89.06-.95.92-.95Z"/><path class="uuid-b5682c2a-2408-4653-b848-f6afc3876845" d="m38.89,12.84c0,.83-.08.9-.91.9-.86,0-.94-.08-.93-1.01,0-.75.11-.84.98-.84.8,0,.87.07.86.95Z"/><path class="uuid-b5682c2a-2408-4653-b848-f6afc3876845" d="m39.35,12.74c0-.78.08-.84.97-.84.8,0,.89.1.88.94,0,.84-.09.91-.98.91-.81,0-.87-.08-.87-1.01Z"/><path class="uuid-b5682c2a-2408-4653-b848-f6afc3876845" d="m48.06,72.28c0,.84-.1.93-.96.93-.82,0-.89-.09-.89-1.06,0-.73.08-.79.95-.79.82,0,.9.09.9.92Z"/><path class="uuid-b5682c2a-2408-4653-b848-f6afc3876845" d="m45.75,72.33c0,.79-.11.89-.94.88-.81,0-.92-.11-.91-.98,0-.81.09-.88,1-.87.78,0,.85.08.85.96Z"/><path class="uuid-b5682c2a-2408-4653-b848-f6afc3876845" d="m58.55,13.74c-.85,0-.92-.08-.92-.96,0-.82.08-.89.99-.89.77,0,.86.11.86.96,0,.81-.09.89-.93.89Z"/><path class="uuid-b5682c2a-2408-4653-b848-f6afc3876845" d="m18.76,72.29c0-.87.06-.93.87-.93.9,0,.97.06.97.9,0,.85-.09.95-.94.95-.8,0-.91-.1-.91-.91Z"/><path class="uuid-b5682c2a-2408-4653-b848-f6afc3876845" d="m64.04,12.86c0,.81-.08.89-.93.88-.83,0-.93-.1-.92-.97,0-.8.1-.89,1-.88.78,0,.85.09.85.96Z"/><path class="uuid-b5682c2a-2408-4653-b848-f6afc3876845" d="m64.5,12.78c0-.83.07-.89.99-.89.77,0,.87.11.87.96,0,.82-.09.9-1,.89-.78,0-.86-.09-.86-.96Z"/><path class="uuid-b5682c2a-2408-4653-b848-f6afc3876845" d="m84.63,70.06c0,.78-.08.84-.97.84-.81,0-.88-.08-.87-1,0-.76.11-.85.98-.84.8,0,.88.1.87,1.01Z"/><path class="uuid-b5682c2a-2408-4653-b848-f6afc3876845" d="m70.9,69.99c0,.85-.06.91-.96.91-.8,0-.89-.09-.89-.93,0-.82.11-.92.97-.92.8,0,.88.09.88.94Z"/><path class="uuid-b5682c2a-2408-4653-b848-f6afc3876845" d="m64.5,69.89c0-.76.11-.84.98-.84.79,0,.87.11.86,1.02,0,.76-.11.84-1.05.83-.73,0-.81-.11-.8-1.02Z"/><path class="uuid-b5682c2a-2408-4653-b848-f6afc3876845" d="m52.62,69.98c0,.86-.06.92-1.02.92-.75,0-.83-.1-.83-.92,0-.84.09-.93.96-.93.79,0,.89.11.89.93Z"/><path class="uuid-b5682c2a-2408-4653-b848-f6afc3876845" d="m48.06,70.04c0,.78-.11.86-1.02.86-.76,0-.83-.09-.83-.98,0-.78.1-.87.95-.87.81,0,.9.11.9.99Z"/><path class="uuid-b5682c2a-2408-4653-b848-f6afc3876845" d="m37.95,70.9c-.82,0-.9-.09-.91-.91,0-.83.11-.94.89-.94.88,0,.96.07.96.92,0,.87-.05.92-.94.92Z"/><path class="uuid-b5682c2a-2408-4653-b848-f6afc3876845" d="m32.02,69.97c0,.88-.06.93-.94.93-.82,0-.91-.09-.91-.91,0-.85.1-.94.95-.94.81,0,.9.1.9.92Z"/><path class="uuid-b5682c2a-2408-4653-b848-f6afc3876845" d="m24.22,4.58c-.81,0-.9-.09-.9-.91,0-.81.11-.93.89-.93.88,0,.95.07.95.99,0,.8-.07.86-.94.86Z"/><path class="uuid-b5682c2a-2408-4653-b848-f6afc3876845" d="m38.89,67.78c0,.73-.12.85-.85.85-.92,0-1.01-.09-1-1.01,0-.75.12-.85.92-.84.87,0,.94.08.93,1Z"/><path class="uuid-b5682c2a-2408-4653-b848-f6afc3876845" d="m33.41,66.78c.82,0,.92.1.92.9,0,.85-.1.95-.94.95-.82,0-.91-.08-.91-.91,0-.88.06-.95.92-.95Z"/><path class="uuid-b5682c2a-2408-4653-b848-f6afc3876845" d="m24.28,66.78c.79,0,.88.08.88.86,0,.85-.1.98-.77.99-.98,0-1.07-.07-1.08-.93,0-.84.08-.91.96-.92Z"/><path class="uuid-b5682c2a-2408-4653-b848-f6afc3876845" d="m19.65,18.3c-.85,0-.9-.06-.89-.97,0-.78.12-.88,1.01-.87.74,0,.84.12.84.99,0,.78-.1.86-.95.86Z"/><path class="uuid-b5682c2a-2408-4653-b848-f6afc3876845" d="m20.61,67.7c0,.84-.1.93-.95.93-.81,0-.89-.1-.89-.99,0-.78.09-.86.95-.86.81,0,.9.09.9.92Z"/><path class="uuid-b5682c2a-2408-4653-b848-f6afc3876845" d="m77.76,65.46c0,.83-.08.9-.99.89-.76,0-.86-.13-.86-.97,0-.81.09-.89,1-.88.79,0,.86.08.85.96Z"/><path class="uuid-b5682c2a-2408-4653-b848-f6afc3876845" d="m70.9,65.44c0,.82-.09.91-.91.91-.83,0-.94-.1-.94-.88,0-.89.08-.97.98-.96.8,0,.87.08.87.94Z"/><path class="uuid-b5682c2a-2408-4653-b848-f6afc3876845" d="m68.63,65.43c0,.77-.12.91-.85.92-.91,0-.99-.06-1-.88,0-.88.07-.96.84-.97.92,0,1.01.07,1.01.93Z"/><path class="uuid-b5682c2a-2408-4653-b848-f6afc3876845" d="m64.5,65.41c0-.86.06-.92,1.02-.91.74,0,.83.12.83.99,0,.74-.13.86-.9.86-.86,0-.95-.09-.94-.94Z"/><path class="uuid-b5682c2a-2408-4653-b848-f6afc3876845" d="m58.53,64.5c.89,0,.95.06.95.99,0,.75-.12.86-.9.86-.85,0-.95-.09-.95-.94,0-.84.07-.91.9-.91Z"/><path class="uuid-b5682c2a-2408-4653-b848-f6afc3876845" d="m52.62,17.46c0,.78-.1.85-1.03.84-.76,0-.83-.09-.82-.99,0-.77.12-.86,1.03-.85.73,0,.83.12.82,1Z"/><path class="uuid-b5682c2a-2408-4653-b848-f6afc3876845" d="m57.18,65.44c0,.82-.09.9-.91.9-.83,0-.93-.1-.93-.89,0-.87.08-.96.92-.96.86,0,.92.07.92.95Z"/><path class="uuid-b5682c2a-2408-4653-b848-f6afc3876845" d="m57.18,17.37c0,.85-.06.92-.88.93-.86,0-.97-.09-.98-.84,0-.89.09-1,.89-1,.87,0,.96.08.96.92Z"/><path class="uuid-b5682c2a-2408-4653-b848-f6afc3876845" d="m51.7,64.5c.85,0,.92.07.92.95,0,.8-.1.9-.93.89-.83,0-.92-.1-.92-.97,0-.81.08-.88.93-.88Z"/><path class="uuid-b5682c2a-2408-4653-b848-f6afc3876845" d="m43.91,65.43c0-.86.07-.94.94-.93.84,0,.9.07.91.9,0,.86-.08.95-.94.95-.8,0-.91-.11-.91-.91Z"/><path class="uuid-b5682c2a-2408-4653-b848-f6afc3876845" d="m1.29,18.76c.83,0,.92.09.91.96,0,.79-.11.88-.94.88-.84,0-.9-.06-.9-.97,0-.82.06-.88.93-.87Z"/><path class="uuid-b5682c2a-2408-4653-b848-f6afc3876845" d="m5.94,18.76c.87,0,.94.07.94.94,0,.82-.09.9-.91.9-.86,0-.94-.08-.94-.94,0-.81.1-.9.92-.9Z"/><path class="uuid-b5682c2a-2408-4653-b848-f6afc3876845" d="m40.32,64.5c.81,0,.88.08.88,1,0,.74-.12.85-.98.84-.79,0-.87-.1-.87-.95,0-.83.07-.9.98-.9Z"/><path class="uuid-b5682c2a-2408-4653-b848-f6afc3876845" d="m34.33,65.43c0,.82-.1.92-.9.92-.86,0-.94-.08-.94-.94,0-.86.06-.91.96-.91.8,0,.89.1.89.93Z"/><path class="uuid-b5682c2a-2408-4653-b848-f6afc3876845" d="m12.79,18.76c.88,0,.95.06.95.92,0,.83-.09.92-.9.92-.86,0-.95-.08-.95-.87,0-.89.08-.98.9-.98Z"/><path class="uuid-b5682c2a-2408-4653-b848-f6afc3876845" d="m32.02,65.44c0,.82-.09.91-.91.91-.82,0-.94-.11-.94-.89,0-.87.08-.96.92-.96.86,0,.93.06.93.94Z"/><path class="uuid-b5682c2a-2408-4653-b848-f6afc3876845" d="m26.54,64.5c.86,0,.93.07.93.95,0,.8-.1.9-.92.9-.84,0-.92-.08-.92-.89,0-.9.05-.95.91-.95Z"/><path class="uuid-b5682c2a-2408-4653-b848-f6afc3876845" d="m25.16,19.71c0,.83-.08.9-.91.9-.86,0-.94-.08-.93-1.01,0-.75.1-.84.98-.83.8,0,.86.07.86.94Z"/><path class="uuid-b5682c2a-2408-4653-b848-f6afc3876845" d="m18.76,65.38c0-.83.07-.89.99-.88.79,0,.86.08.86.96,0,.8-.1.89-.93.89-.84,0-.91-.08-.91-.96Z"/><path class="uuid-b5682c2a-2408-4653-b848-f6afc3876845" d="m84.62,63.1c0,.88-.06.94-.93.94-.83,0-.91-.08-.91-.9,0-.84.1-.95.88-.95.87,0,.97.09.97.91Z"/><path class="uuid-b5682c2a-2408-4653-b848-f6afc3876845" d="m37.99,18.76c.82,0,.89.07.89.91,0,.87-.06.94-.94.93-.79,0-.9-.11-.9-.86,0-.91.08-.99.95-.99Z"/><path class="uuid-b5682c2a-2408-4653-b848-f6afc3876845" d="m65.43,64.04c-.86,0-.93-.07-.93-.94,0-.82.09-.91.98-.91.77,0,.87.11.87.95,0,.81-.09.9-.92.9Z"/><path class="uuid-b5682c2a-2408-4653-b848-f6afc3876845" d="m51.69,64.04c-.85,0-.92-.07-.92-.89,0-.86.09-.96.93-.96.81,0,.92.11.92.9,0,.88-.06.94-.93.95Z"/><path class="uuid-b5682c2a-2408-4653-b848-f6afc3876845" d="m64.04,19.72c0,.82-.09.89-.99.89-.77,0-.87-.11-.86-.96,0-.81.1-.89.99-.88.79,0,.86.09.86.95Z"/><path class="uuid-b5682c2a-2408-4653-b848-f6afc3876845" d="m70.9,19.7c0,.85-.07.91-.97.91-.8,0-.89-.1-.88-1,0-.76.11-.85,1.04-.84.74,0,.82.1.81.94Z"/><path class="uuid-b5682c2a-2408-4653-b848-f6afc3876845" d="m71.36,19.67c0-.84.07-.9.9-.9.86,0,.95.09.95.93,0,.82-.1.91-.98.91-.79,0-.87-.09-.87-.94Z"/><path class="uuid-b5682c2a-2408-4653-b848-f6afc3876845" d="m47.1,64.04c-.83,0-.89-.06-.89-.91,0-.86.08-.94.94-.94.8,0,.91.11.9.93,0,.85-.08.92-.95.92Z"/><path class="uuid-b5682c2a-2408-4653-b848-f6afc3876845" d="m76.88,18.76c.83,0,.89.08.88.99,0,.76-.11.86-.9.86-.87,0-.96-.09-.95-1,0-.77.1-.85.97-.85Z"/><path class="uuid-b5682c2a-2408-4653-b848-f6afc3876845" d="m78.22,19.64c0-.84.06-.89.98-.88.77,0,.87.11.86.96,0,.8-.1.89-.94.89-.85,0-.91-.07-.91-.96Z"/><path class="uuid-b5682c2a-2408-4653-b848-f6afc3876845" d="m45.75,63.16c0,.82-.07.89-.99.88-.78,0-.86-.1-.86-.96,0-.8.1-.89,1-.89.76,0,.85.11.85.97Z"/><path class="uuid-b5682c2a-2408-4653-b848-f6afc3876845" d="m5.94,64.04c-.84,0-.91-.08-.91-.9,0-.83.1-.95.88-.95.87,0,.97.09.97.91,0,.88-.06.94-.94.94Z"/><path class="uuid-b5682c2a-2408-4653-b848-f6afc3876845" d="m79.14,59.48c-.83,0-.92-.08-.92-.9,0-.9.06-.95.98-.95.79,0,.87.1.86,1.02,0,.72-.13.83-.93.83Z"/><path class="uuid-b5682c2a-2408-4653-b848-f6afc3876845" d="m71.36,58.52c0-.83.07-.89.98-.89.79,0,.86.09.86.95,0,.8-.1.9-.93.89-.85,0-.92-.08-.92-.96Z"/><path class="uuid-b5682c2a-2408-4653-b848-f6afc3876845" d="m69.97,59.48c-.83,0-.92-.1-.92-.97,0-.8.1-.89,1-.88.78,0,.85.08.84.97,0,.8-.09.89-.93.88Z"/><path class="uuid-b5682c2a-2408-4653-b848-f6afc3876845" d="m65.43,59.48c-.84,0-.93-.08-.93-.89,0-.91.06-.97.98-.96.8,0,.88.1.87,1.01,0,.73-.13.84-.92.84Z"/><path class="uuid-b5682c2a-2408-4653-b848-f6afc3876845" d="m59.48,58.55c0,.83-.09.93-.89.94-.84,0-.96-.1-.96-.86,0-.91.07-.98.89-.99.88,0,.96.07.96.91Z"/><path class="uuid-b5682c2a-2408-4653-b848-f6afc3876845" d="m50.77,58.56c0-.84.08-.93.89-.93.89,0,.96.07.96.91,0,.85-.09.94-.95.94-.8,0-.9-.11-.9-.92Z"/><path class="uuid-b5682c2a-2408-4653-b848-f6afc3876845" d="m32.02,58.56c0,.86-.07.93-.95.92-.81,0-.9-.1-.9-.99,0-.78.1-.86.96-.86.82,0,.89.07.88.93Z"/><path class="uuid-b5682c2a-2408-4653-b848-f6afc3876845" d="m25.16,58.58c0,.81-.09.9-.91.9-.83,0-.93-.1-.93-.96,0-.82.1-.9.99-.9.8,0,.86.07.86.95Z"/><path class="uuid-b5682c2a-2408-4653-b848-f6afc3876845" d="m20.61,58.51c0,.85-.1.97-.85.97-.88,0-.99-.08-.99-.82,0-.94.06-1.02.85-1.02.91,0,.99.07,1,.88Z"/><path class="uuid-b5682c2a-2408-4653-b848-f6afc3876845" d="m12.84,57.63c.84,0,.91.08.9.97,0,.79-.1.88-.95.88-.8,0-.9-.11-.9-.92,0-.87.07-.93.95-.93Z"/><path class="uuid-b5682c2a-2408-4653-b848-f6afc3876845" d="m5.96,59.48c-.84,0-.94-.1-.93-.95,0-.81.09-.9.92-.9.87,0,.93.07.93.94,0,.81-.1.91-.92.9Z"/><path class="uuid-b5682c2a-2408-4653-b848-f6afc3876845" d="m1.25,59.48c-.83,0-.89-.07-.89-.98,0-.8.07-.87.94-.87.81,0,.9.09.9.92,0,.84-.1.93-.96.93Z"/><path class="uuid-b5682c2a-2408-4653-b848-f6afc3876845" d="m27.47,56.25c0,.85-.07.93-.88.93-.91,0-.97-.06-.97-.9,0-.86.08-.95.94-.94.81,0,.91.1.91.91Z"/><path class="uuid-b5682c2a-2408-4653-b848-f6afc3876845" d="m20.61,56.27c0,.83-.08.91-.91.91-.89,0-.94-.05-.94-.93,0-.82.1-.92.9-.92.87,0,.95.08.95.94Z"/><path class="uuid-b5682c2a-2408-4653-b848-f6afc3876845" d="m13.74,56.28c0,.82-.08.91-.91.9-.88,0-.94-.06-.94-.93,0-.82.1-.91.91-.91.85,0,.94.09.94.94Z"/><path class="uuid-b5682c2a-2408-4653-b848-f6afc3876845" d="m1.28,57.18c-.86,0-.92-.06-.92-.95,0-.81.1-.9.91-.9.84,0,.93.1.93.96,0,.81-.09.89-.93.89Z"/><path class="uuid-b5682c2a-2408-4653-b848-f6afc3876845" d="m18.76,54c0-.87.07-.94.93-.94.84,0,.91.08.91.96,0,.78-.11.89-.93.89-.81,0-.91-.1-.91-.91Z"/><path class="uuid-b5682c2a-2408-4653-b848-f6afc3876845" d="m83.72,50.77c.84,0,.91.08.91.97,0,.8-.09.88-.94.88-.83,0-.92-.09-.91-.97,0-.79.1-.88.94-.88Z"/><path class="uuid-b5682c2a-2408-4653-b848-f6afc3876845" d="m75.91,51.65c0-.82.1-.89,1.07-.88.71,0,.79.11.78.97,0,.83-.09.9-1.06.88-.71,0-.8-.12-.79-.97Z"/><path class="uuid-b5682c2a-2408-4653-b848-f6afc3876845" d="m6.88,24.27c0,.84-.06.89-.98.89-.8,0-.87-.08-.87-.94,0-.81.1-.9.98-.9.78,0,.87.1.87.95Z"/><path class="uuid-b5682c2a-2408-4653-b848-f6afc3876845" d="m11.9,24.18c0-.8.1-.87,1.02-.86.75,0,.84.11.83.99,0,.8-.08.86-1.02.85-.77,0-.83-.09-.83-.98Z"/><path class="uuid-b5682c2a-2408-4653-b848-f6afc3876845" d="m74.58,52.62c-.86,0-.95-.1-.95-1,0-.75.12-.85.97-.85.77,0,.88.11.88.88,0,.89-.08.97-.9.97Z"/><path class="uuid-b5682c2a-2408-4653-b848-f6afc3876845" d="m20.61,24.23c0,.85-.07.93-.94.93-.82,0-.9-.08-.9-.91,0-.83.09-.93.88-.94.87,0,.96.08.97.91Z"/><path class="uuid-b5682c2a-2408-4653-b848-f6afc3876845" d="m26.51,25.16c-.83,0-.89-.06-.89-.91,0-.84.09-.93.88-.93.89,0,.96.08.96.98,0,.78-.1.86-.95.86Z"/><path class="uuid-b5682c2a-2408-4653-b848-f6afc3876845" d="m72.26,50.77c.85,0,.95.09.95.94,0,.81-.1.92-.91.92-.86,0-.94-.07-.94-.87,0-.9.07-.98.9-.98Z"/><path class="uuid-b5682c2a-2408-4653-b848-f6afc3876845" d="m38.89,24.28c0,.82-.06.88-.92.88-.85,0-.92-.08-.92-.95,0-.8.11-.89,1-.89.77,0,.85.1.85.97Z"/><path class="uuid-b5682c2a-2408-4653-b848-f6afc3876845" d="m65.42,50.77c.85,0,.93.08.93.95,0,.79-.1.9-.86.9-.9,0-.99-.08-.99-.89,0-.89.06-.96.92-.96Z"/><path class="uuid-b5682c2a-2408-4653-b848-f6afc3876845" d="m45.75,24.26c0,.84-.07.9-.9.91-.87,0-.95-.07-.94-.93,0-.83.09-.92.97-.92.8,0,.88.09.88.94Z"/><path class="uuid-b5682c2a-2408-4653-b848-f6afc3876845" d="m64.04,51.69c0,.86-.07.93-.95.93-.81,0-.91-.1-.9-.92,0-.84.1-.93.96-.93.81,0,.89.08.89.93Z"/><path class="uuid-b5682c2a-2408-4653-b848-f6afc3876845" d="m58.53,25.16c-.82,0-.89-.07-.89-.92,0-.85.09-.93.95-.93.8,0,.9.11.9.93,0,.85-.07.92-.96.92Z"/><path class="uuid-b5682c2a-2408-4653-b848-f6afc3876845" d="m57.64,51.66c0-.81.08-.89.93-.89.83,0,.92.1.92.96,0,.79-.1.89-.93.89-.85,0-.92-.08-.91-.96Z"/><path class="uuid-b5682c2a-2408-4653-b848-f6afc3876845" d="m67.69,23.32c.83,0,.95.11.95.94,0,.81-.09.9-.98.9-.79,0-.88-.09-.88-.93,0-.81.1-.91.91-.91Z"/><path class="uuid-b5682c2a-2408-4653-b848-f6afc3876845" d="m70.9,24.25c0,.84-.07.91-.89.91-.88,0-.96-.08-.96-.92,0-.81.1-.92.9-.92.87,0,.95.08.95.93Z"/><path class="uuid-b5682c2a-2408-4653-b848-f6afc3876845" d="m26.53,50.77c.86,0,.94.08.94.95,0,.83-.09.91-.98.91-.8,0-.87-.08-.87-.95,0-.83.08-.91.91-.91Z"/><path class="uuid-b5682c2a-2408-4653-b848-f6afc3876845" d="m77.76,24.26c0,.86-.06.91-1.03.9-.75,0-.83-.1-.82-.99,0-.77.12-.86,1.03-.85.72,0,.82.12.82.94Z"/><path class="uuid-b5682c2a-2408-4653-b848-f6afc3876845" d="m79.14,25.16c-.85,0-.92-.06-.92-.89,0-.89.08-.96.99-.96.78,0,.87.1.86,1.02,0,.74-.1.82-.93.82Z"/><path class="uuid-b5682c2a-2408-4653-b848-f6afc3876845" d="m82.33,24.26c0,.84-.07.91-.96.9-.78,0-.89-.1-.88-.87,0-.88.1-.98.98-.98.79,0,.87.09.87.94Z"/><path class="uuid-b5682c2a-2408-4653-b848-f6afc3876845" d="m84.62,24.26c0,.84-.06.9-.97.9-.79,0-.88-.09-.88-.87,0-.89.08-.97.98-.97.79,0,.88.09.87.94Z"/><path class="uuid-b5682c2a-2408-4653-b848-f6afc3876845" d="m2.21,26.6c0,.77-.11.87-.96.87-.83,0-.89-.08-.89-.98,0-.81.07-.87,1-.86.76,0,.85.11.85.97Z"/><path class="uuid-b5682c2a-2408-4653-b848-f6afc3876845" d="m19.66,52.62c-.81,0-.9-.09-.9-.92,0-.87.06-.94.94-.93.83,0,.91.08.9.98,0,.78-.1.87-.95.87Z"/><path class="uuid-b5682c2a-2408-4653-b848-f6afc3876845" d="m26.54,25.63c.84,0,.93.08.93.88,0,.87-.09.96-.93.96-.84,0-.92-.08-.92-.96,0-.82.06-.89.92-.89Z"/><path class="uuid-b5682c2a-2408-4653-b848-f6afc3876845" d="m29.75,26.57c0,.83-.09.9-.98.9-.77,0-.87-.11-.87-.95,0-.79.11-.89.93-.89.85,0,.92.07.92.95Z"/><path class="uuid-b5682c2a-2408-4653-b848-f6afc3876845" d="m32.02,26.54c0,.85-.08.94-.88.93-.87,0-.97-.09-.97-.92,0-.84.09-.93.89-.93.9,0,.96.06.96.91Z"/><path class="uuid-b5682c2a-2408-4653-b848-f6afc3876845" d="m17.37,50.77c.84,0,.93.08.93.89,0,.89-.07.97-.91.97-.82,0-.94-.1-.94-.88,0-.87.09-.97.92-.97Z"/><path class="uuid-b5682c2a-2408-4653-b848-f6afc3876845" d="m45.75,26.51c0,.89-.06.97-.91.97-.84,0-.94-.1-.94-.95,0-.81.09-.9.92-.9.85,0,.93.07.93.88Z"/><path class="uuid-b5682c2a-2408-4653-b848-f6afc3876845" d="m13.74,51.74c0,.8-.08.88-.94.88-.82,0-.91-.09-.91-.91,0-.87.08-.94.94-.94.84,0,.91.08.91.97Z"/><path class="uuid-b5682c2a-2408-4653-b848-f6afc3876845" d="m.36,49.38c0-.82.09-.91.9-.91.84,0,.94.11.94.95,0,.81-.09.9-.92.9-.87,0-.92-.05-.93-.94Z"/><path class="uuid-b5682c2a-2408-4653-b848-f6afc3876845" d="m50.77,26.53c0-.82.08-.9.91-.9.87,0,.94.07.94.94,0,.82-.1.91-.91.91-.85,0-.94-.09-.94-.94Z"/><path class="uuid-b5682c2a-2408-4653-b848-f6afc3876845" d="m19.69,6.88c-.86,0-.93-.07-.92-.95,0-.81.09-.9.92-.9.83,0,.93.09.93.89,0,.87-.08.96-.92.96Z"/><path class="uuid-b5682c2a-2408-4653-b848-f6afc3876845" d="m64.5,26.53c0-.85.07-.91.96-.91.79,0,.89.1.88.93,0,.83-.1.92-.97.92-.8,0-.88-.09-.88-.94Z"/><path class="uuid-b5682c2a-2408-4653-b848-f6afc3876845" d="m20.61,47.13c0,.83-.09.92-.96.92-.77,0-.88-.11-.89-.87,0-.91.06-.97.89-.98.88,0,.95.07.95.93Z"/><path class="uuid-b5682c2a-2408-4653-b848-f6afc3876845" d="m84.62,44.82c0,.85-.08.93-.88.93-.88,0-.97-.08-.97-.92,0-.85.09-.94.95-.93.82,0,.9.08.9.92Z"/><path class="uuid-b5682c2a-2408-4653-b848-f6afc3876845" d="m72.31,25.63c.8,0,.9.11.9.92,0,.82-.1.92-.9.92-.88,0-.95-.07-.95-.99,0-.79.07-.85.95-.85Z"/><path class="uuid-b5682c2a-2408-4653-b848-f6afc3876845" d="m64.04,44.85c0,.85-.06.91-.97.9-.8,0-.88-.09-.88-.94,0-.82.11-.91.98-.91.79,0,.87.09.87.95Z"/><path class="uuid-b5682c2a-2408-4653-b848-f6afc3876845" d="m79.13,27.47c-.83,0-.91-.08-.91-.97,0-.81.07-.88.93-.88.83,0,.93.1.93.96,0,.78-.11.89-.94.89Z"/><path class="uuid-b5682c2a-2408-4653-b848-f6afc3876845" d="m84.62,26.55c0,.85-.08.92-.96.92-.78,0-.89-.11-.89-.87,0-.91.06-.98.9-.98.89,0,.95.06.95.92Z"/><path class="uuid-b5682c2a-2408-4653-b848-f6afc3876845" d="m27.47,44.84c0,.83-.09.91-.97.91-.81,0-.88-.08-.88-.93,0-.84.08-.92.96-.92.78,0,.89.11.89.94Z"/><path class="uuid-b5682c2a-2408-4653-b848-f6afc3876845" d="m24.22,45.75c-.81,0-.9-.09-.9-.91,0-.85.09-.94.95-.94.82,0,.89.08.89.92,0,.87-.06.93-.94.93Z"/><path class="uuid-b5682c2a-2408-4653-b848-f6afc3876845" d="m68.63,40.27c0,.8-.12.93-.9.93-.86,0-.96-.11-.95-1,0-.77.11-.86.96-.85.81,0,.89.09.89.92Z"/><path class="uuid-b5682c2a-2408-4653-b848-f6afc3876845" d="m13.74,40.24c0,.86-.09.96-.93.96-.82,0-.92-.1-.92-.91,0-.88.06-.94.93-.94.84,0,.92.07.92.89Z"/><path class="uuid-b5682c2a-2408-4653-b848-f6afc3876845" d="m6.88,40.24c0,.87-.08.96-.93.96-.83,0-.93-.09-.93-.9,0-.9.06-.95.99-.95.78,0,.86.08.86.89Z"/><path class="uuid-b5682c2a-2408-4653-b848-f6afc3876845" d="m84.62,38c0,.82-.07.88-.93.88-.85,0-.93-.08-.92-.89,0-.87.08-.95.93-.95.84,0,.92.08.92.96Z"/><path class="uuid-b5682c2a-2408-4653-b848-f6afc3876845" d="m65.47,37.04c.79,0,.88.11.87,1.01,0,.76-.1.83-.98.83-.82,0-.87-.07-.86-1,0-.77.09-.85.97-.84Z"/><path class="uuid-b5682c2a-2408-4653-b848-f6afc3876845" d="m20.61,37.96c0,.87-.06.93-.95.92-.83,0-.9-.07-.9-.91,0-.86.08-.94.94-.94.81,0,.9.09.9.92Z"/><path class="uuid-b5682c2a-2408-4653-b848-f6afc3876845" d="m17.37,38.89c-.82,0-.91-.09-.91-.9,0-.85.1-.94.94-.94.82,0,.9.08.9.91,0,.87-.07.93-.93.93Z"/><path class="uuid-b5682c2a-2408-4653-b848-f6afc3876845" d="m6.88,37.95c0,.86-.06.93-.88.93-.91,0-.97-.05-.97-.9,0-.85.09-.95.94-.95.81,0,.91.1.91.91Z"/><path class="uuid-b5682c2a-2408-4653-b848-f6afc3876845" d="m63.11,5.03c.84,0,.93.08.93.89,0,.9-.06.97-.91.97-.83,0-.95-.11-.95-.89,0-.86.11-.97.93-.97Z"/><path class="uuid-b5682c2a-2408-4653-b848-f6afc3876845" d="m26.54,32.49c.87,0,.94.07.94.94,0,.82-.1.91-.98.9-.77,0-.87-.11-.87-.95,0-.83.07-.9.91-.9Z"/><path class="uuid-b5682c2a-2408-4653-b848-f6afc3876845" d="m20.61,33.39c0,.84-.1.94-.88.94-.88,0-.97-.08-.97-.91,0-.89.05-.94.99-.94.77,0,.85.09.86.9Z"/><path class="uuid-b5682c2a-2408-4653-b848-f6afc3876845" d="m3.69,32.49c.82,0,.9.09.89.92,0,.86-.08.93-.95.93-.8,0-.91-.13-.9-.99,0-.77.11-.86.96-.86Z"/><path class="uuid-b5682c2a-2408-4653-b848-f6afc3876845" d="m84.62,31.09c0,.86-.06.93-.87.94-.88,0-.97-.08-.98-.84,0-.9.09-1,.88-1.01.88,0,.97.07.97.91Z"/><path class="uuid-b5682c2a-2408-4653-b848-f6afc3876845" d="m73.21,31.12c0,.81-.09.9-.92.9-.86,0-.93-.07-.93-.87,0-.88.08-.97.91-.97.85,0,.94.09.94.95Z"/><path class="uuid-b5682c2a-2408-4653-b848-f6afc3876845" d="m65.42,32.02c-.86,0-.92-.06-.92-.95,0-.8.09-.89.93-.89.84,0,.92.1.92,1.03,0,.74-.1.82-.93.82Z"/><path class="uuid-b5682c2a-2408-4653-b848-f6afc3876845" d="m26.5,32.02c-.78,0-.87-.08-.88-.8,0-.93.08-1.04.84-1.04.9,0,1,.08,1.01.88,0,.91-.05.97-.97.97Z"/><path class="uuid-b5682c2a-2408-4653-b848-f6afc3876845" d="m1.27,30.18c.82,0,.94.1.94.89,0,.86-.09.95-.93.95-.88,0-.92-.04-.92-.94,0-.82.07-.9.91-.9Z"/><path class="uuid-b5682c2a-2408-4653-b848-f6afc3876845" d="m25.16,31.13c0,.84-.07.9-.97.89-.8,0-.88-.1-.87-1.01,0-.75.13-.85.98-.84.78,0,.86.1.86.95Z"/><path class="uuid-b5682c2a-2408-4653-b848-f6afc3876845" d="m20.61,31.1c0,.83-.08.92-.89.93-.89,0-.95-.05-.96-.84,0-.91.08-1,.88-1,.86,0,.96.09.97.92Z"/><path class="uuid-b5682c2a-2408-4653-b848-f6afc3876845" d="m11.44,31.11c0,.82-.07.91-.83.91-.91,0-1.01-.08-1.01-.86,0-.87.1-.98.9-.99.85,0,.94.08.94.94Z"/><path class="uuid-b5682c2a-2408-4653-b848-f6afc3876845" d="m32.49,60.86c0-.86.07-.93.93-.94.81,0,.91.1.91.91,0,.84-.1.94-.94.94-.81,0-.9-.09-.9-.92Z"/><path class="uuid-b5682c2a-2408-4653-b848-f6afc3876845" d="m44.87,66.78c.82,0,.88.07.88.99,0,.76-.1.86-.9.86-.87,0-.96-.09-.95-.99,0-.77.1-.85.97-.85Z"/><path class="uuid-b5682c2a-2408-4653-b848-f6afc3876845" d="m67.78,82.78c.76,0,.85.12.85.97,0,.8-.09.88-1,.88-.78,0-.85-.08-.84-.97,0-.81.1-.89,1-.88Z"/><path class="uuid-b5682c2a-2408-4653-b848-f6afc3876845" d="m64.04,83.71c0,.85-.07.91-.89.92-.87,0-.95-.09-.95-.93,0-.82.1-.92.97-.92.8,0,.88.08.88.93Z"/><path class="uuid-b5682c2a-2408-4653-b848-f6afc3876845" d="m37.95,4.58c-.82,0-.91-.09-.91-.9,0-.85.1-.95,1.01-.95.74,0,.84.11.84.92,0,.87-.06.93-.93.93Z"/><path class="uuid-b5682c2a-2408-4653-b848-f6afc3876845" d="m.36,33.39c0-.83.07-.9.9-.9.86,0,.94.08.94.93,0,.8-.11.91-.91.91-.87,0-.93-.05-.93-.94Z"/><path class="uuid-b5682c2a-2408-4653-b848-f6afc3876845" d="m56.26,82.78c.84,0,.92.08.92.89,0,.9-.06.96-.92.96-.83,0-.93-.09-.93-.89,0-.86.09-.96.93-.96Z"/><path class="uuid-b5682c2a-2408-4653-b848-f6afc3876845" d="m8.23,32.49c.85,0,.95.09.95.87,0,.88-.09.98-.91.98-.85,0-.93-.07-.93-.87,0-.92.05-.97.89-.97Z"/><path class="uuid-b5682c2a-2408-4653-b848-f6afc3876845" d="m25.63,3.6c0-.77.11-.87.95-.87.8,0,.9.11.89,1,0,.78-.11.86-1.02.86-.75,0-.83-.1-.82-.99Z"/><path class="uuid-b5682c2a-2408-4653-b848-f6afc3876845" d="m53.97,4.58c-.83,0-.9-.07-.91-.96,0-.77.11-.89.87-.89.85,0,.98.12.98.92,0,.85-.09.94-.94.94Z"/><path class="uuid-b5682c2a-2408-4653-b848-f6afc3876845" d="m52.62,15.08c0,.84-.1.95-.87.95-.89,0-.98-.08-.98-.9,0-.86.08-.94.87-.94.91,0,.98.07.98.89Z"/><path class="uuid-b5682c2a-2408-4653-b848-f6afc3876845" d="m31.12,18.3c-.88,0-.95-.07-.94-.99,0-.75.13-.86.97-.85.79,0,.88.1.87.94,0,.83-.07.9-.9.9Z"/><path class="uuid-b5682c2a-2408-4653-b848-f6afc3876845" d="m72.27,66.35c-.85,0-.92-.08-.91-1.03,0-.75.1-.83.99-.82.78,0,.86.1.86.96,0,.78-.13.9-.94.9Z"/><path class="uuid-b5682c2a-2408-4653-b848-f6afc3876845" d="m24.26,32.49c.83,0,.9.07.9.9,0,.84-.09.94-.87.94-.88,0-.97-.09-.97-.91,0-.84.09-.93.95-.93Z"/><path class="uuid-b5682c2a-2408-4653-b848-f6afc3876845" d="m40.27,84.62c-.86,0-.92-.06-.92-.94,0-.83.08-.91.97-.9.77,0,.88.12.88.95,0,.81-.09.89-.93.89Z"/><path class="uuid-b5682c2a-2408-4653-b848-f6afc3876845" d="m58.54,18.3c-.85,0-.91-.07-.9-.97,0-.79.11-.88,1.01-.88.75,0,.85.12.84.98,0,.8-.08.86-.95.86Z"/><path class="uuid-b5682c2a-2408-4653-b848-f6afc3876845" d="m64.04,33.42c0,.83-.09.91-.9.92-.85,0-.95-.1-.95-.94,0-.83.09-.91.97-.91.82,0,.88.07.87.93Z"/><path class="uuid-b5682c2a-2408-4653-b848-f6afc3876845" d="m70.9,33.44c0,.82-.09.9-.98.89-.77,0-.87-.12-.87-.96,0-.81.09-.89.99-.88.79,0,.86.08.85.95Z"/><path class="uuid-b5682c2a-2408-4653-b848-f6afc3876845" d="m72.31,32.49c.8,0,.9.1.9.92,0,.81-.11.93-.9.93-.88,0-.95-.07-.95-.92,0-.86.06-.92.95-.92Z"/><path class="uuid-b5682c2a-2408-4653-b848-f6afc3876845" d="m33.38,84.62c-.83,0-.89-.07-.89-.98,0-.8.09-.88,1.01-.87.74,0,.84.12.83.99,0,.79-.09.86-.95.86Z"/><path class="uuid-b5682c2a-2408-4653-b848-f6afc3876845" d="m77.76,33.4c0,.85-.08.93-.88.93-.87,0-.97-.09-.97-.92,0-.83.09-.92.89-.92.89,0,.96.06.96.91Z"/><path class="uuid-b5682c2a-2408-4653-b848-f6afc3876845" d="m46.21,65.41c0-.85.07-.91.9-.91.86,0,.96.09.95.93,0,.82-.11.92-.97.92-.8,0-.88-.09-.88-.94Z"/><path class="uuid-b5682c2a-2408-4653-b848-f6afc3876845" d="m36.59,65.45c0,.8-.09.9-.85.9-.88,0-.99-.09-.99-.9,0-.87.08-.95.92-.96.86,0,.91.05.91.95Z"/><path class="uuid-b5682c2a-2408-4653-b848-f6afc3876845" d="m11.44,19.73c0,.8-.09.88-.93.88-.82,0-.91-.1-.91-.97,0-.8.1-.88,1-.87.78,0,.84.07.84.96Z"/><path class="uuid-b5682c2a-2408-4653-b848-f6afc3876845" d="m24.25,69.05c.83,0,.91.09.91.97,0,.82-.07.88-.99.88-.77,0-.86-.1-.86-.96,0-.79.11-.89.93-.89Z"/><path class="uuid-b5682c2a-2408-4653-b848-f6afc3876845" d="m24.21,84.62c-.8,0-.89-.1-.89-.93,0-.84.09-.92.96-.92.8,0,.89.09.88.93,0,.86-.06.92-.95.92Z"/><path class="uuid-b5682c2a-2408-4653-b848-f6afc3876845" d="m1.31,64.5c.81,0,.89.08.89.92,0,.83-.1.93-.96.93-.82,0-.88-.07-.88-.99,0-.8.07-.86.95-.86Z"/><path class="uuid-b5682c2a-2408-4653-b848-f6afc3876845" d="m72.28,64.04c-.86,0-.92-.07-.92-.95,0-.81.11-.91.98-.9.76,0,.87.13.87.96,0,.8-.1.89-.93.89Z"/><path class="uuid-b5682c2a-2408-4653-b848-f6afc3876845" d="m77.76,81.41c0,.86-.07.93-.94.93-.83,0-.91-.08-.91-.97,0-.76.13-.88.95-.88.8,0,.9.1.9.92Z"/><path class="uuid-b5682c2a-2408-4653-b848-f6afc3876845" d="m75.48,81.41c0,.86-.08.93-1.01.93-.75,0-.85-.12-.85-.97,0-.77.13-.88.95-.87.8,0,.9.11.9.92Z"/><path class="uuid-b5682c2a-2408-4653-b848-f6afc3876845" d="m57.18,63.15c0,.83-.07.89-.92.89-.86,0-.94-.08-.93-.95,0-.81.11-.91.99-.9.78,0,.86.1.86.96Z"/><path class="uuid-b5682c2a-2408-4653-b848-f6afc3876845" d="m53.98,82.33c-.85,0-.91-.06-.92-.96,0-.76.11-.88.89-.88.85,0,.96.1.96.95,0,.79-.11.9-.94.9Z"/><path class="uuid-b5682c2a-2408-4653-b848-f6afc3876845" d="m49.39,64.04c-.84,0-.92-.09-.92-.96,0-.78.12-.89.94-.89.82,0,.91.09.91.91,0,.88-.06.94-.93.94Z"/><path class="uuid-b5682c2a-2408-4653-b848-f6afc3876845" d="m74.53,18.76c.89,0,.95.05.95.98,0,.76-.11.87-.89.87-.86,0-.96-.1-.96-.93,0-.82.09-.92.9-.92Z"/><path class="uuid-b5682c2a-2408-4653-b848-f6afc3876845" d="m26.55,82.33c-.83,0-.92-.08-.93-.82,0-.92.08-1.03.85-1.04.89,0,.99.09.99.96,0,.81-.09.89-.92.9Z"/><path class="uuid-b5682c2a-2408-4653-b848-f6afc3876845" d="m24.18,82.33c-.79,0-.87-.1-.86-1.01,0-.73.14-.84.99-.84.78,0,.86.11.85,1.03,0,.75-.11.83-.98.82Z"/><path class="uuid-b5682c2a-2408-4653-b848-f6afc3876845" d="m33.38,70.9c-.84,0-.89-.06-.89-.98,0-.79.1-.88,1.01-.87.74,0,.84.13.84.99,0,.78-.1.86-.95.86Z"/><path class="uuid-b5682c2a-2408-4653-b848-f6afc3876845" d="m53.99,6.88c-.85,0-.93-.08-.92-.95,0-.82.09-.9.92-.9.84,0,.94.1.93.96,0,.81-.09.9-.93.9Z"/><path class="uuid-b5682c2a-2408-4653-b848-f6afc3876845" d="m26.55,64.04c-.86,0-.92-.06-.92-.95,0-.82.1-.91.98-.9.76,0,.87.12.86.96,0,.82-.08.89-.92.89Z"/><path class="uuid-b5682c2a-2408-4653-b848-f6afc3876845" d="m25.16,63.11c0,.86-.06.93-.87.93-.89,0-.97-.08-.97-.91,0-.82.11-.94.88-.94.88,0,.96.07.96.92Z"/><path class="uuid-b5682c2a-2408-4653-b848-f6afc3876845" d="m15.09,38.89c-.83,0-.89-.06-.89-.91,0-.87.07-.94.93-.94.8,0,.91.1.91.91,0,.84-.09.93-.94.93Z"/><path class="uuid-b5682c2a-2408-4653-b848-f6afc3876845" d="m57.18,79.15c0,.84-.09.92-.97.92-.77,0-.89-.13-.89-.94,0-.84.09-.91.98-.91.81,0,.88.08.87.93Z"/><path class="uuid-b5682c2a-2408-4653-b848-f6afc3876845" d="m53.07,79.13c0-.82.08-.91.83-.91.91,0,1.01.08,1.02.86,0,.87-.1.98-.91.99-.85,0-.94-.09-.95-.94Z"/><path class="uuid-b5682c2a-2408-4653-b848-f6afc3876845" d="m18.76,63.09c0-.79.12-.9.93-.9.82,0,.92.11.92.97,0,.82-.08.89-.99.88-.79,0-.86-.08-.86-.95Z"/><path class="uuid-b5682c2a-2408-4653-b848-f6afc3876845" d="m42.6,14.19c.81,0,.88.09.87,1.02,0,.73-.12.83-.94.83-.81,0-.92-.12-.91-1,0-.76.12-.85.99-.85Z"/><path class="uuid-b5682c2a-2408-4653-b848-f6afc3876845" d="m78.22,69.98c0-.85.08-.93.95-.93.79,0,.9.11.9.93,0,.84-.09.92-.96.92-.81,0-.89-.08-.89-.92Z"/><path class="uuid-b5682c2a-2408-4653-b848-f6afc3876845" d="m70.9,38c0,.84-.06.89-.98.89-.79,0-.87-.09-.87-.94,0-.81.11-.91.99-.9.78,0,.86.1.86.96Z"/><path class="uuid-b5682c2a-2408-4653-b848-f6afc3876845" d="m72.25,38.89c-.83,0-.9-.07-.9-.91,0-.87.07-.93.95-.93.81,0,.91.11.9.98,0,.77-.1.86-.95.86Z"/><path class="uuid-b5682c2a-2408-4653-b848-f6afc3876845" d="m78.22,37.95c0-.82.08-.9.91-.91.84,0,.94.1.94.95,0,.8-.1.9-.92.9-.87,0-.93-.05-.92-.94Z"/><path class="uuid-b5682c2a-2408-4653-b848-f6afc3876845" d="m81.34,70.9c-.78,0-.87-.11-.86-1.02,0-.71.15-.83,1-.82.77,0,.85.11.84,1.03,0,.75-.1.82-.99.82Z"/><path class="uuid-b5682c2a-2408-4653-b848-f6afc3876845" d="m26.53,78.22c.86,0,.93.07.94.94,0,.8-.11.91-.91.91-.84,0-.93-.09-.93-.95,0-.83.07-.9.91-.9Z"/><path class="uuid-b5682c2a-2408-4653-b848-f6afc3876845" d="m25.16,79.12c0,.85-.08.94-.87.95-.87,0-.98-.09-.98-.91,0-.86.08-.94.94-.94.83,0,.9.07.9.9Z"/><path class="uuid-b5682c2a-2408-4653-b848-f6afc3876845" d="m14.19,60.82c0-.82.08-.9.93-.89.83,0,.92.1.91.98,0,.75-.13.87-.91.87-.87,0-.94-.07-.93-.96Z"/><path class="uuid-b5682c2a-2408-4653-b848-f6afc3876845" d="m32.49,28.8c0-.83.08-.91.97-.9.79,0,.88.1.87,1.01,0,.75-.1.83-.98.83-.8,0-.87-.08-.86-.94Z"/><path class="uuid-b5682c2a-2408-4653-b848-f6afc3876845" d="m7.34,60.83c0-.83.07-.91.91-.91.82,0,.93.1.93.9,0,.83-.11.94-.89.95-.87,0-.94-.07-.95-.94Z"/><path class="uuid-b5682c2a-2408-4653-b848-f6afc3876845" d="m11.44,40.28c0,.85-.08.92-.96.92-.78,0-.89-.12-.88-.94,0-.83.08-.91.97-.91.8,0,.88.08.87.93Z"/><path class="uuid-b5682c2a-2408-4653-b848-f6afc3876845" d="m63.13,7.34c.85,0,.91.06.91.89,0,.86-.09.95-.93.95-.81,0-.92-.12-.92-.97,0-.79.09-.87.94-.87Z"/><path class="uuid-b5682c2a-2408-4653-b848-f6afc3876845" d="m60.85,39.35c.82,0,.92.09.92.9,0,.84-.1.95-.88.95-.87,0-.97-.09-.97-.91,0-.87.06-.94.93-.94Z"/><path class="uuid-b5682c2a-2408-4653-b848-f6afc3876845" d="m74.56,57.64c.85,0,.93.08.93.95,0,.78-.11.9-.86.9-.91,0-.99-.07-.99-1.02,0-.73.11-.83.92-.83Z"/><path class="uuid-b5682c2a-2408-4653-b848-f6afc3876845" d="m31.13,21.05c.83,0,.9.08.9.98,0,.77-.11.86-.97.86-.77,0-.88-.12-.88-.9,0-.86.09-.95.95-.95Z"/><path class="uuid-b5682c2a-2408-4653-b848-f6afc3876845" d="m70.9,40.26c0,.86-.08.94-.94.94-.8,0-.9-.11-.91-.99,0-.77.1-.87.95-.86.82,0,.9.08.89.91Z"/><path class="uuid-b5682c2a-2408-4653-b848-f6afc3876845" d="m75.91,40.21c0-.77.1-.86.96-.86.83,0,.9.07.89.98,0,.79-.1.88-.95.87-.8,0-.9-.12-.9-.99Z"/><path class="uuid-b5682c2a-2408-4653-b848-f6afc3876845" d="m63.12,57.63c.84,0,.92.08.92.89,0,.89-.07.96-.91.96-.82,0-.93-.11-.94-.89,0-.86.09-.96.93-.96Z"/><path class="uuid-b5682c2a-2408-4653-b848-f6afc3876845" d="m25.16,10.55c0,.83-.07.89-.98.89-.77,0-.86-.1-.86-.89,0-.87.1-.96.99-.96.78,0,.85.09.85.96Z"/><path class="uuid-b5682c2a-2408-4653-b848-f6afc3876845" d="m56.26,59.48c-.85,0-.94-.09-.93-1.01,0-.73.12-.83.93-.83.85,0,.93.07.92.95,0,.81-.09.9-.92.9Z"/><path class="uuid-b5682c2a-2408-4653-b848-f6afc3876845" d="m48.06,12.83c0,.84-.09.92-.97.92-.81,0-.88-.08-.88-.93,0-.85.07-.92.9-.92.86,0,.95.09.95.93Z"/><path class="uuid-b5682c2a-2408-4653-b848-f6afc3876845" d="m8.24,43.46c-.85,0-.91-.06-.9-.97,0-.77.11-.87.9-.87.83,0,.94.11.94.96,0,.8-.09.89-.94.89Z"/><path class="uuid-b5682c2a-2408-4653-b848-f6afc3876845" d="m83.69,57.18c-.83,0-.91-.08-.91-.9,0-.85.1-.95.94-.95.81,0,.91.1.91.91,0,.86-.07.94-.94.94Z"/><path class="uuid-b5682c2a-2408-4653-b848-f6afc3876845" d="m79.14,57.18c-.85,0-.92-.07-.92-.96,0-.79.12-.9.93-.9.81,0,.93.12.92.97,0,.8-.1.89-.93.89Z"/><path class="uuid-b5682c2a-2408-4653-b848-f6afc3876845" d="m16.03,42.53c0,.84-.08.93-.9.93-.88,0-.94-.05-.94-.87,0-.89.08-.98.91-.98.82,0,.92.11.93.91Z"/><path class="uuid-b5682c2a-2408-4653-b848-f6afc3876845" d="m58.55,11.44c-.84,0-.92-.07-.92-.89,0-.86.09-.96.93-.96.83,0,.92.1.92.97,0,.8-.09.88-.93.88Z"/><path class="uuid-b5682c2a-2408-4653-b848-f6afc3876845" d="m63.08,57.18c-.8,0-.89-.09-.89-.92,0-.83.11-.93.97-.92.8,0,.89.1.88.93,0,.85-.06.91-.96.91Z"/><path class="uuid-b5682c2a-2408-4653-b848-f6afc3876845" d="m50.32,56.25c0,.87-.06.93-.93.93-.83,0-.92-.09-.92-.97,0-.76.13-.88.88-.89.86,0,.97.09.97.92Z"/><path class="uuid-b5682c2a-2408-4653-b848-f6afc3876845" d="m37.04,56.19c0-.77.13-.88,1.03-.87.73,0,.82.12.82,1,0,.79-.09.86-1.02.85-.75,0-.83-.11-.83-.99Z"/><path class="uuid-b5682c2a-2408-4653-b848-f6afc3876845" d="m66.35,21.95c0,.82-.1.94-.88.94-.86,0-.96-.08-.97-.85,0-.91.06-.99.88-.99.89,0,.97.07.97.9Z"/><path class="uuid-b5682c2a-2408-4653-b848-f6afc3876845" d="m25.16,56.3c0,.81-.08.88-.92.88-.82,0-.92-.1-.92-.9,0-.84.11-.96.94-.96.82,0,.91.09.91.97Z"/><path class="uuid-b5682c2a-2408-4653-b848-f6afc3876845" d="m27.47,10.52c0,.85-.07.92-.95.93-.8,0-.9-.09-.9-.85,0-.9.08-1,.88-1,.86,0,.96.1.96.93Z"/><path class="uuid-b5682c2a-2408-4653-b848-f6afc3876845" d="m70.9,21.97c0,.82-.1.92-.91.92-.84,0-.94-.1-.94-.96,0-.78.1-.88.88-.88.89,0,.96.07.96.92Z"/><path class="uuid-b5682c2a-2408-4653-b848-f6afc3876845" d="m17.36,57.18c-.81,0-.91-.09-.91-.91,0-.83.11-.94.95-.94.79,0,.89.1.89.93,0,.88-.05.93-.94.92Z"/><path class="uuid-b5682c2a-2408-4653-b848-f6afc3876845" d="m40.19,77.76c-.78,0-.84-.07-.84-.97,0-.81.09-.89.99-.88.75,0,.86.13.85.98,0,.8-.1.88-1.01.87Z"/><path class="uuid-b5682c2a-2408-4653-b848-f6afc3876845" d="m71.36,21.96c0-.84.08-.91.96-.91.8,0,.89.09.89.92,0,.82-.1.92-.9.92-.86,0-.95-.09-.95-.93Z"/><path class="uuid-b5682c2a-2408-4653-b848-f6afc3876845" d="m33.39,11.44c-.82,0-.9-.07-.9-.9,0-.85.09-.94.87-.95.88,0,.97.09.97.98,0,.78-.09.87-.94.87Z"/><path class="uuid-b5682c2a-2408-4653-b848-f6afc3876845" d="m53.07,10.52c0-.83.1-.93.89-.93.86,0,.96.1.96.99,0,.74-.11.86-.9.86-.87,0-.95-.07-.95-.92Z"/><path class="uuid-b5682c2a-2408-4653-b848-f6afc3876845" d="m72.31,53.07c.82,0,.9.08.9.91,0,.82-.11.94-.89.94-.86,0-.95-.09-.96-.93,0-.86.05-.92.95-.92Z"/><path class="uuid-b5682c2a-2408-4653-b848-f6afc3876845" d="m41.2,10.53c0,.83-.08.91-.96.91-.81,0-.89-.08-.89-.92,0-.84.09-.93.96-.93.78,0,.89.12.89.94Z"/><path class="uuid-b5682c2a-2408-4653-b848-f6afc3876845" d="m18.3,54.01c0,.83-.09.91-.97.91-.76,0-.88-.13-.87-.96,0-.82.09-.9.98-.89.79,0,.87.08.86.94Z"/><path class="uuid-b5682c2a-2408-4653-b848-f6afc3876845" d="m47.12,11.44c-.86,0-.91-.06-.91-.95,0-.8.1-.9.92-.9.81,0,.93.12.93.97,0,.79-.1.88-.94.88Z"/><path class="uuid-b5682c2a-2408-4653-b848-f6afc3876845" d="m.36,53.91c0-.78.09-.85,1.03-.84.72,0,.82.12.82.93,0,.81-.12.92-.98.91-.78,0-.87-.11-.87-1.01Z"/><path class="uuid-b5682c2a-2408-4653-b848-f6afc3876845" d="m60.8,45.75c-.79,0-.88-.1-.88-.94,0-.83.08-.91.97-.91.78,0,.89.12.88.94,0,.83-.09.91-.97.91Z"/><path class="uuid-b5682c2a-2408-4653-b848-f6afc3876845" d="m50.32,10.51c0,.88-.06.94-.93.93-.84,0-.92-.09-.91-.96,0-.79.12-.9,1-.89.74,0,.85.13.85.92Z"/><path class="uuid-b5682c2a-2408-4653-b848-f6afc3876845" d="m70.9,74.59c0,.82-.07.89-.92.89-.84,0-.93-.09-.93-.95,0-.79.11-.89.93-.89.85,0,.92.08.92.96Z"/><path class="uuid-b5682c2a-2408-4653-b848-f6afc3876845" d="m70,25.63c.83,0,.9.07.9.91,0,.86-.08.94-.94.93-.83,0-.91-.09-.91-.98,0-.78.1-.87.95-.86Z"/><path class="uuid-b5682c2a-2408-4653-b848-f6afc3876845" d="m4.58,47.12c0,.84-.1.95-.87.94-.85,0-.97-.12-.97-.92,0-.83.09-.93.89-.93.9,0,.96.06.96.9Z"/><path class="uuid-b5682c2a-2408-4653-b848-f6afc3876845" d="m13.75,47.14c0,.85-.1.93-1.03.92-.72,0-.83-.13-.82-1,0-.77.1-.85.96-.85.82,0,.89.09.89.93Z"/><path class="uuid-b5682c2a-2408-4653-b848-f6afc3876845" d="m50.32,74.59c0,.82-.08.89-.91.89-.83,0-.93-.1-.93-.89,0-.87.09-.96.99-.96.78,0,.86.09.86.96Z"/><path class="uuid-b5682c2a-2408-4653-b848-f6afc3876845" d="m15.08,25.16c-.83,0-.89-.07-.89-.93,0-.84.08-.91.97-.91.76,0,.87.12.87.97,0,.79-.1.88-.95.87Z"/><path class="uuid-b5682c2a-2408-4653-b848-f6afc3876845" d="m36.59,24.25c0,.86-.05.91-.9.92-.85,0-.94-.09-.94-.95,0-.79.11-.89.94-.89.81,0,.89.09.89.93Z"/><path class="uuid-b5682c2a-2408-4653-b848-f6afc3876845" d="m57.18,47.15c0,.84-.09.91-.97.91-.77,0-.89-.14-.88-.95,0-.82.1-.9.98-.9.8,0,.87.08.87.94Z"/><path class="uuid-b5682c2a-2408-4653-b848-f6afc3876845" d="m66.78,51.68c0-.85.08-.92.96-.92.79,0,.9.12.89,1,0,.76-.12.86-.97.86-.8,0-.88-.09-.87-.94Z"/><path class="uuid-b5682c2a-2408-4653-b848-f6afc3876845" d="m43.46,24.24c0,.86-.07.93-.94.93-.81,0-.91-.1-.91-.91,0-.84.1-.94.95-.93.8,0,.9.11.9.92Z"/><path class="uuid-b5682c2a-2408-4653-b848-f6afc3876845" d="m64.04,47.2c-.01.8-.1.87-1.02.86-.75,0-.84-.13-.83-1.06.01-.71.12-.79,1.03-.78.76,0,.83.09.82.99Z"/><path class="uuid-b5682c2a-2408-4653-b848-f6afc3876845" d="m50.32,24.28c0,.84-.07.89-.98.89-.79,0-.87-.1-.87-.95,0-.8.11-.91.99-.9.77,0,.87.12.86.96Z"/><path class="uuid-b5682c2a-2408-4653-b848-f6afc3876845" d="m60.82,25.16c-.82,0-.9-.08-.9-.91,0-.85.08-.94.94-.93.81,0,.91.11.91.98,0,.77-.11.86-.96.86Z"/><path class="uuid-b5682c2a-2408-4653-b848-f6afc3876845" d="m25.63,8.21c0-.82.06-.88.99-.87.79,0,.86.09.86.95,0,.79-.11.89-.94.89-.82,0-.91-.09-.91-.97Z"/><path class="uuid-b5682c2a-2408-4653-b848-f6afc3876845" d="m62.19,3.68c0-.85.09-.94.95-.94.81,0,.9.1.9.92,0,.87-.06.93-.94.93-.82,0-.91-.09-.91-.9Z"/><path class="uuid-b5682c2a-2408-4653-b848-f6afc3876845" d="m4.58,26.6c0,.78-.1.87-.88.87-.87,0-.96-.09-.96-.92,0-.84.09-.92.96-.92.83,0,.89.06.89.98Z"/><path class="uuid-b5682c2a-2408-4653-b848-f6afc3876845" d="m33.43,7.34c.83,0,.9.07.91.9,0,.83-.1.94-.88.94-.86,0-.96-.08-.96-.86,0-.94.03-.98.94-.98Z"/><path class="uuid-b5682c2a-2408-4653-b848-f6afc3876845" d="m46.21,26.52c0-.81.07-.89.92-.89.83,0,.93.1.93.89,0,.85-.09.95-.87.95-.91,0-.98-.06-.98-.95Z"/><path class="uuid-b5682c2a-2408-4653-b848-f6afc3876845" d="m84.63,49.38c0,.87-.07.94-.93.94-.83,0-.91-.08-.91-.9,0-.84.1-.95.87-.95.86,0,.97.1.98.91Z"/><path class="uuid-b5682c2a-2408-4653-b848-f6afc3876845" d="m76.86,50.32c-.87,0-.94-.08-.94-.93,0-.81.11-.92.91-.92.85,0,.94.09.94.95,0,.83-.08.9-.91.9Z"/><path class="uuid-b5682c2a-2408-4653-b848-f6afc3876845" d="m66.35,49.41c0,.8-.1.91-.84.91-.94,0-1-.05-1-.93,0-.83.09-.92.9-.92.85,0,.95.09.95.94Z"/><path class="uuid-b5682c2a-2408-4653-b848-f6afc3876845" d="m59.48,49.39c0,.83-.08.93-.82.93-.97,0-1.03-.05-1.03-.9,0-.86.09-.95.94-.95.8,0,.91.11.91.92Z"/><path class="uuid-b5682c2a-2408-4653-b848-f6afc3876845" d="m67.65,50.32c-.79,0-.87-.09-.86-.96,0-.79.12-.9.94-.9.78,0,.9.13.9.95,0,.84-.09.92-.98.91Z"/><path class="uuid-b5682c2a-2408-4653-b848-f6afc3876845" d="m57.18,74.62c0,.79-.09.86-1.01.85-.74,0-.84-.12-.83-.98,0-.76.12-.86.96-.86.81,0,.89.09.88.99Z"/><path class="uuid-b5682c2a-2408-4653-b848-f6afc3876845" d="m21.91,50.32c-.78,0-.86-.09-.86-.97,0-.8.1-.89.94-.89.79,0,.9.12.9.94,0,.83-.09.92-.98.91Z"/><path class="uuid-b5682c2a-2408-4653-b848-f6afc3876845" d="m8.22,52.62c-.82,0-.89-.07-.88-.92,0-.87.07-.93.94-.93.79,0,.9.12.9.92,0,.83-.1.93-.96.93Z"/><path class="uuid-b5682c2a-2408-4653-b848-f6afc3876845" d="m18.3,49.39c0,.84-.07.92-.83.93-.91,0-1.01-.08-1.02-.87,0-.84.11-.97.87-.98.87,0,.97.09.98.92Z"/><path class="uuid-b5682c2a-2408-4653-b848-f6afc3876845" d="m15.1,52.62c-.81,0-.91-.09-.91-.84,0-.94.06-1.01.92-1.01.82,0,.91.1.91.9,0,.86-.08.95-.93.95Z"/><path class="uuid-b5682c2a-2408-4653-b848-f6afc3876845" d="m36.6,26.54c0,.86-.07.92-.95.92-.77,0-.89-.12-.9-.86,0-.91.07-.98.96-.98.81,0,.89.08.88.92Z"/><path class="uuid-b5682c2a-2408-4653-b848-f6afc3876845" d="m48.47,26.48c0-.78.1-.86,1.02-.85.76,0,.83.09.83.98,0,.79-.1.87-.95.86-.8,0-.91-.12-.9-.99Z"/><path class="uuid-b5682c2a-2408-4653-b848-f6afc3876845" d="m74.59,46.21c.8,0,.89.08.89.92,0,.82-.1.92-.89.93-.85,0-.96-.11-.96-.93,0-.83.09-.91.96-.92Z"/><path class="uuid-b5682c2a-2408-4653-b848-f6afc3876845" d="m63.12,73.63c.85,0,.92.07.92.95,0,.82-.08.9-.98.89-.77,0-.87-.11-.87-.95,0-.79.12-.9.93-.9Z"/><path class="uuid-b5682c2a-2408-4653-b848-f6afc3876845" d="m60.85,50.77c.83,0,.93.1.93.96,0,.79-.11.89-.93.89-.82,0-.92-.1-.92-.9,0-.87.08-.95.92-.96Z"/><path class="uuid-b5682c2a-2408-4653-b848-f6afc3876845" d="m21.99,7.34c.82,0,.9.09.9.92,0,.82-.12.92-.98.92-.77,0-.86-.11-.86-.97,0-.81.07-.87.94-.87Z"/><path class="uuid-b5682c2a-2408-4653-b848-f6afc3876845" d="m59.92,47.05c0-.78.1-.85,1.03-.84.74.01.83.12.82,1,0,.76-.14.87-1.04.85-.73-.01-.82-.13-.81-1.01Z"/><path class="uuid-b5682c2a-2408-4653-b848-f6afc3876845" d="m57.63,47.09c0-.82.07-.89.92-.88.86,0,.93.07.92.95,0,.79-.11.9-.93.89-.84,0-.92-.09-.92-.96Z"/><path class="uuid-b5682c2a-2408-4653-b848-f6afc3876845" d="m67.7,75.48c-.79,0-.92-.1-.92-.78,0-.95.09-1.06.83-1.07.88-.01,1.01.1,1.01.89,0,.87-.08.95-.93.96Z"/><path class="uuid-b5682c2a-2408-4653-b848-f6afc3876845" d="m20.61,8.24c0,.85-.09.93-.95.94-.81,0-.9-.09-.89-.98,0-.78.09-.86.88-.86.89,0,.96.07.96.91Z"/><path class="uuid-b5682c2a-2408-4653-b848-f6afc3876845" d="m1.26,23.32c.82,0,.94.11.95.88,0,.85-.09.96-.85.96-.93,0-.99-.05-.99-.87,0-.9.06-.97.9-.97Z"/><path class="uuid-b5682c2a-2408-4653-b848-f6afc3876845" d="m15.11,46.21c.83,0,.92.09.93.89,0,.86-.09.96-.92.96-.82,0-.91-.09-.91-.9,0-.9.05-.95.91-.95Z"/><path class="uuid-b5682c2a-2408-4653-b848-f6afc3876845" d="m75.48,26.5c0,.85-.09.96-.85.97-.88,0-.99-.09-1-.89,0-.83.09-.95.8-.96.96-.01,1.05.05,1.05.88Z"/><path class="uuid-b5682c2a-2408-4653-b848-f6afc3876845" d="m74.61,73.63c.8.01.88.12.87,1.1-.01.68-.15.78-1.07.76-.69-.02-.8-.16-.78-1.06.01-.69.16-.81.99-.8Z"/><path class="uuid-b5682c2a-2408-4653-b848-f6afc3876845" d="m7.34,53.95c0-.83.08-.89.98-.88.76,0,.87.12.86.96,0,.78-.13.9-.94.89-.84,0-.91-.08-.9-.97Z"/><path class="uuid-b5682c2a-2408-4653-b848-f6afc3876845" d="m43.46,10.53c0,.86-.08.93-1.02.92-.74,0-.84-.13-.84-.99,0-.77.14-.88,1.03-.87.72.01.83.14.82.94Z"/><path class="uuid-b5682c2a-2408-4653-b848-f6afc3876845" d="m80.07,21.97c0,.82-.1.92-.96.92-.78,0-.88-.1-.88-.87,0-.9.06-.97.89-.97.87,0,.95.08.95.92Z"/><path class="uuid-b5682c2a-2408-4653-b848-f6afc3876845" d="m36.59,74.56c0,.83-.08.92-.82.92-.94,0-1.01-.07-1.01-.99,0-.77.1-.86.96-.86.8,0,.87.08.88.93Z"/><path class="uuid-b5682c2a-2408-4653-b848-f6afc3876845" d="m58.55,54.91c-.83,0-.92-.09-.91-.97,0-.82.07-.88.99-.88.76,0,.86.1.86.89,0,.85-.1.95-.93.95Z"/><path class="uuid-b5682c2a-2408-4653-b848-f6afc3876845" d="m7.34,44.83c0-.87.07-.93.94-.93.8,0,.91.12.9.99,0,.77-.11.86-.96.86-.82,0-.89-.07-.88-.92Z"/><path class="uuid-b5682c2a-2408-4653-b848-f6afc3876845" d="m32.49,74.52c0-.81.08-.89.92-.89.81,0,.92.11.92.9,0,.88-.07.95-1.06.94-.71,0-.79-.1-.79-.96Z"/><path class="uuid-b5682c2a-2408-4653-b848-f6afc3876845" d="m38.89,10.53c0,.84-.07.91-.89.91-.87,0-.95-.08-.95-.93,0-.81.1-.92.91-.92.86,0,.94.08.94.94Z"/><path class="uuid-b5682c2a-2408-4653-b848-f6afc3876845" d="m35.66,77.76c-.82,0-.9-.09-.9-.91,0-.85.09-.94.94-.94.83,0,.9.08.9.98,0,.8-.08.87-.94.87Z"/><path class="uuid-b5682c2a-2408-4653-b848-f6afc3876845" d="m14.2,56.24c0-.84.08-.91.97-.91.77,0,.88.13.88.95,0,.82-.09.9-.98.9-.8,0-.86-.08-.86-.94Z"/><path class="uuid-b5682c2a-2408-4653-b848-f6afc3876845" d="m50.32,76.82c0,.88-.06.94-.93.94-.82,0-.92-.1-.92-.9,0-.85.09-.95.94-.95.83,0,.91.08.91.91Z"/><path class="uuid-b5682c2a-2408-4653-b848-f6afc3876845" d="m72.27,43.45c-.85,0-.91-.06-.91-.89,0-.86.08-.95.93-.95.8,0,.92.12.92.91,0,.86-.06.93-.94.93Z"/><path class="uuid-b5682c2a-2408-4653-b848-f6afc3876845" d="m21.96,57.18c-.83,0-.9-.08-.9-.92,0-.84.1-.93.9-.94.84,0,.94.1.94.96,0,.81-.09.89-.93.89Z"/><path class="uuid-b5682c2a-2408-4653-b848-f6afc3876845" d="m60.81,77.76c-.8,0-.89-.09-.89-.93,0-.84.09-.93.95-.93.78,0,.9.13.9.93,0,.83-.1.92-.96.92Z"/><path class="uuid-b5682c2a-2408-4653-b848-f6afc3876845" d="m64.04,42.52c0,.88-.06.94-.93.94-.84,0-.92-.08-.92-.89,0-.83.1-.94.88-.95.89,0,.97.07.97.9Z"/><path class="uuid-b5682c2a-2408-4653-b848-f6afc3876845" d="m19.69,75.48c-.79.02-.92-.09-.93-.75-.02-.95.07-1.08.79-1.09.91-.02,1.04.08,1.06.76.02.99-.04,1.06-.92,1.08Z"/><path class="uuid-b5682c2a-2408-4653-b848-f6afc3876845" d="m59.93,3.69c0-.84.09-.95.86-.95.85,0,.98.11.98.85,0,.92-.07,1-.94,1.01-.82,0-.9-.08-.91-.9Z"/><path class="uuid-b5682c2a-2408-4653-b848-f6afc3876845" d="m36.59,56.25c0,.87-.06.93-.93.93-.84,0-.91-.08-.91-.96,0-.78.11-.89.94-.89.81,0,.9.09.9.91Z"/><path class="uuid-b5682c2a-2408-4653-b848-f6afc3876845" d="m58.57,43.45c-.87,0-.93-.06-.93-.87,0-.88.09-.97.91-.97.83,0,.94.11.94.95,0,.82-.07.89-.92.89Z"/><path class="uuid-b5682c2a-2408-4653-b848-f6afc3876845" d="m57.18,42.54c0,.86-.06.92-.94.92-.82,0-.91-.09-.91-.9,0-.81.12-.94.89-.94.86,0,.96.09.96.92Z"/><path class="uuid-b5682c2a-2408-4653-b848-f6afc3876845" d="m60.84,57.18c-.85,0-.91-.07-.91-.96,0-.8.1-.89.93-.89.82,0,.93.11.92.97,0,.78-.11.88-.94.88Z"/><path class="uuid-b5682c2a-2408-4653-b848-f6afc3876845" d="m25.16,42.57c0,.83-.06.88-.98.88-.79,0-.87-.09-.86-.95,0-.78.13-.9.93-.9.82,0,.91.1.91.97Z"/><path class="uuid-b5682c2a-2408-4653-b848-f6afc3876845" d="m21.93,43.46c-.81,0-.87-.06-.87-.93,0-.82.09-.9.92-.91.8,0,.91.11.91.92,0,.85-.07.92-.96.92Z"/><path class="uuid-b5682c2a-2408-4653-b848-f6afc3876845" d="m12.82,43.46c-.84,0-.93-.08-.93-.88,0-.89.08-.96,1.04-.96.69,0,.81.13.81.89,0,.88-.07.95-.92.95Z"/><path class="uuid-b5682c2a-2408-4653-b848-f6afc3876845" d="m82.33,56.24c0,.86-.07.94-.86.94-.89,0-.98-.09-.99-.89,0-.84.12-.96.94-.96.81,0,.91.1.91.91Z"/><path class="uuid-b5682c2a-2408-4653-b848-f6afc3876845" d="m10.49,43.45c-.82,0-.9-.08-.89-.93,0-.82.11-.91.99-.91.76,0,.85.11.85.98,0,.8-.07.86-.95.86Z"/><path class="uuid-b5682c2a-2408-4653-b848-f6afc3876845" d="m81.4,71.36c.85,0,.93.08.93.88,0,.88-.08.97-.91.97-.82,0-.94-.12-.94-.89,0-.88.08-.96.92-.96Z"/><path class="uuid-b5682c2a-2408-4653-b848-f6afc3876845" d="m59.49,21.96c0,.82-.1.93-.89.93-.85,0-.95-.09-.96-.86,0-.91.06-.98.89-.98.88,0,.96.07.96.91Z"/><path class="uuid-b5682c2a-2408-4653-b848-f6afc3876845" d="m57.18,22c0,.82-.09.9-.98.89-.78,0-.88-.12-.87-1.02,0-.73.12-.82,1-.82.78,0,.86.09.85.95Z"/><path class="uuid-b5682c2a-2408-4653-b848-f6afc3876845" d="m66.35,10.54c0,.8-.09.9-.85.9-.93,0-.99-.05-1-.87,0-.86.09-.97.84-.98.91,0,1,.08,1.01.95Z"/><path class="uuid-b5682c2a-2408-4653-b848-f6afc3876845" d="m50.32,21.97c0,.84-.08.92-.95.92-.79,0-.9-.11-.9-.92,0-.82.1-.92.9-.92.87,0,.95.08.95.92Z"/><path class="uuid-b5682c2a-2408-4653-b848-f6afc3876845" d="m59.92,72.26c0-.85.07-.91.97-.9.79,0,.9.12.88,1,0,.75-.13.86-.98.85-.78,0-.88-.11-.87-.95Z"/><path class="uuid-b5682c2a-2408-4653-b848-f6afc3876845" d="m53.07,72.26c0-.84.06-.9.9-.9.86,0,.94.09.94.94,0,.79-.12.91-.92.91-.84,0-.93-.09-.93-.95Z"/><path class="uuid-b5682c2a-2408-4653-b848-f6afc3876845" d="m67.67,77.76c-.81,0-.89-.08-.89-.92,0-.84.09-.93.95-.93.78,0,.89.12.89.93,0,.85-.07.92-.96.92Z"/><path class="uuid-b5682c2a-2408-4653-b848-f6afc3876845" d="m43.46,58.58c0,.84-.08.9-.98.9-.78,0-.88-.11-.87-.95,0-.82.09-.9.99-.89.79,0,.86.08.86.95Z"/><path class="uuid-b5682c2a-2408-4653-b848-f6afc3876845" d="m47.15,59.48c-.85,0-.94-.08-.94-.87,0-.91.06-.98.89-.98.88,0,.96.08.96.92,0,.8-.11.92-.91.93Z"/><path class="uuid-b5682c2a-2408-4653-b848-f6afc3876845" d="m43.46,21.98c0,.81-.1.91-.92.91-.84,0-.94-.1-.93-.96,0-.79.1-.87.96-.87.82,0,.9.08.9.92Z"/><path class="uuid-b5682c2a-2408-4653-b848-f6afc3876845" d="m3.65,43.45c-.82,0-.91-.09-.91-.91,0-.82.11-.92.98-.93.75,0,.87.12.87.9,0,.88-.06.94-.94.94Z"/><path class="uuid-b5682c2a-2408-4653-b848-f6afc3876845" d="m36.6,72.29c0,.82-.09.92-.9.92-.83,0-.94-.1-.94-.88,0-.89.07-.97.9-.97.86,0,.93.07.94.93Z"/><path class="uuid-b5682c2a-2408-4653-b848-f6afc3876845" d="m82.33,40.26c0,.85-.09.94-.95.93-.78,0-.91-.13-.91-.93,0-.83.1-.92.96-.92.82,0,.89.08.89.91Z"/><path class="uuid-b5682c2a-2408-4653-b848-f6afc3876845" d="m32.49,72.29c0-.87.06-.93.94-.93.8,0,.91.1.91.84,0,.92-.08,1.01-.94,1-.8,0-.9-.1-.9-.92Z"/><path class="uuid-b5682c2a-2408-4653-b848-f6afc3876845" d="m74.56,75.91c.82,0,.92.09.92.9,0,.85-.08.94-.86.95-.89,0-.98-.08-.98-.89,0-.86.09-.95.93-.96Z"/><path class="uuid-b5682c2a-2408-4653-b848-f6afc3876845" d="m24.23,71.36c.87,0,.94.06.94.87,0,.9-.07.98-.9.98-.85,0-.95-.1-.95-.94,0-.81.09-.91.91-.91Z"/><path class="uuid-b5682c2a-2408-4653-b848-f6afc3876845" d="m65.46,7.34c.81,0,.88.08.88.93,0,.82-.11.92-.97.92-.78,0-.88-.1-.88-.94,0-.85.05-.9.97-.9Z"/><path class="uuid-b5682c2a-2408-4653-b848-f6afc3876845" d="m20.61,21.97c0,.85-.08.92-.96.92-.8,0-.89-.09-.88-.99,0-.78.08-.85.95-.85.8,0,.89.1.89.92Z"/><path class="uuid-b5682c2a-2408-4653-b848-f6afc3876845" d="m.36,60.83c0-.83.07-.9.92-.9.83,0,.92.09.93.91,0,.84-.11.95-.96.94-.79,0-.88-.1-.88-.95Z"/><path class="uuid-b5682c2a-2408-4653-b848-f6afc3876845" d="m8.25,39.35c.84,0,.93.09.93.88,0,.87-.09.97-.92.96-.85,0-.92-.07-.92-.95,0-.82.07-.9.91-.9Z"/><path class="uuid-b5682c2a-2408-4653-b848-f6afc3876845" d="m11.44,60.85c0,.82-.09.92-.84.93-.88,0-1-.1-1-.9,0-.82.11-.94.82-.95.95,0,1.01.05,1.02.92Z"/><path class="uuid-b5682c2a-2408-4653-b848-f6afc3876845" d="m21.95,78.22c.84,0,.94.09.94.87,0,.88-.1.98-.91.98-.86,0-.93-.09-.93-1,0-.75.11-.85.9-.85Z"/><path class="uuid-b5682c2a-2408-4653-b848-f6afc3876845" d="m18.3,60.83c0,.83-.11.95-.94.94-.78,0-.9-.12-.9-.93,0-.8.11-.93.83-.93.94,0,1.01.06,1.01.91Z"/><path class="uuid-b5682c2a-2408-4653-b848-f6afc3876845" d="m22.89,72.28c0,.85-.08.93-.95.93-.79,0-.89-.1-.88-.93,0-.86.07-.92.95-.92.81,0,.89.08.89.92Z"/><path class="uuid-b5682c2a-2408-4653-b848-f6afc3876845" d="m25.63,60.82c0-.82.07-.89.91-.89.84,0,.93.09.93.95,0,.76-.14.9-.86.91-.89,0-.98-.09-.98-.97Z"/><path class="uuid-b5682c2a-2408-4653-b848-f6afc3876845" d="m59.93,1.28c0-.85.07-.92.95-.92.81,0,.9.09.9.91,0,.82-.11.93-.96.93-.79,0-.89-.1-.89-.93Z"/><path class="uuid-b5682c2a-2408-4653-b848-f6afc3876845" d="m32.02,60.83c0,.82-.11.94-.88.95-.86,0-.97-.1-.97-.92,0-.86.07-.93.94-.93.82,0,.9.07.9.9Z"/><path class="uuid-b5682c2a-2408-4653-b848-f6afc3876845" d="m82.34,37.96c0,.86-.07.93-.94.93-.81,0-.91-.1-.91-.91,0-.83.11-.94.95-.94.81,0,.9.1.9.92Z"/><path class="uuid-b5682c2a-2408-4653-b848-f6afc3876845" d="m21.05,1.3c0-.88.06-.94.94-.94.82,0,.9.08.9.92,0,.82-.11.92-.92.92-.83,0-.92-.09-.92-.91Z"/><path class="uuid-b5682c2a-2408-4653-b848-f6afc3876845" d="m37.04,60.83c0-.84.08-.91.97-.9.8,0,.88.08.88.93,0,.82-.1.93-.9.92-.84,0-.95-.12-.95-.95Z"/><path class="uuid-b5682c2a-2408-4653-b848-f6afc3876845" d="m45.75,60.83c0,.85-.09.94-.94.94-.81,0-.91-.11-.91-.98,0-.76.11-.87.89-.87.89,0,.96.07.96.91Z"/><path class="uuid-b5682c2a-2408-4653-b848-f6afc3876845" d="m49.43,59.93c.82,0,.9.08.89.91,0,.85-.09.94-.95.93-.81,0-.9-.11-.9-.99,0-.77.11-.86.96-.86Z"/><path class="uuid-b5682c2a-2408-4653-b848-f6afc3876845" d="m52.62,60.83c0,.85-.1.95-.94.95-.8,0-.91-.11-.91-.92,0-.86.07-.93.94-.93.82,0,.91.09.91.9Z"/><path class="uuid-b5682c2a-2408-4653-b848-f6afc3876845" d="m57.63,60.86c0-.86.06-.93.94-.93.8,0,.91.1.91.84,0,.89-.1,1.01-.88,1.01-.87,0-.96-.09-.96-.92Z"/><path class="uuid-b5682c2a-2408-4653-b848-f6afc3876845" d="m74.55,70.9c-.85,0-.92-.08-.92-.95,0-.79.11-.9.93-.9.81,0,.92.1.92.9,0,.87-.08.95-.92.95Z"/><path class="uuid-b5682c2a-2408-4653-b848-f6afc3876845" d="m33.41,14.19c.86,0,.92.07.92.97,0,.78-.11.88-.96.87-.81,0-.89-.09-.88-1.01,0-.76.09-.83.92-.83Z"/><path class="uuid-b5682c2a-2408-4653-b848-f6afc3876845" d="m69.96,59.93c.85,0,.94.08.94.87,0,.88-.08.97-.9.98-.82,0-.94-.11-.95-.88,0-.88.08-.96.91-.97Z"/><path class="uuid-b5682c2a-2408-4653-b848-f6afc3876845" d="m37.04,15.05c0-.77.1-.86.96-.86.83,0,.89.07.89.97,0,.79-.1.87-.94.87-.81,0-.9-.1-.9-.98Z"/><path class="uuid-b5682c2a-2408-4653-b848-f6afc3876845" d="m43.46,70c0,.82-.08.9-.91.9-.85,0-.94-.09-.94-.94,0-.82.1-.91.97-.91.79,0,.87.1.87.95Z"/><path class="uuid-b5682c2a-2408-4653-b848-f6afc3876845" d="m79.2,59.93c.78,0,.88.11.87.94,0,.8-.13.91-.99.91-.78,0-.87-.12-.86-1.02,0-.76.09-.83.98-.83Z"/><path class="uuid-b5682c2a-2408-4653-b848-f6afc3876845" d="m49.4,80.07c-.83,0-.93-.11-.93-.96,0-.81.1-.89.99-.89.78,0,.86.09.86.95,0,.8-.1.9-.92.9Z"/><path class="uuid-b5682c2a-2408-4653-b848-f6afc3876845" d="m36.6,70.01c0,.82-.07.89-.91.89-.85,0-.93-.08-.93-.95,0-.81.11-.9.98-.9.78,0,.85.09.85.96Z"/><path class="uuid-b5682c2a-2408-4653-b848-f6afc3876845" d="m1.26,64.04c-.84,0-.9-.06-.9-.97,0-.79.1-.88.94-.88.81,0,.91.11.9.98,0,.79-.09.87-.95.87Z"/><path class="uuid-b5682c2a-2408-4653-b848-f6afc3876845" d="m11.44,21.98c0,.82-.1.91-.92.91-.82,0-.93-.11-.93-.91,0-.84.09-.93.89-.93.88,0,.95.07.95.93Z"/><path class="uuid-b5682c2a-2408-4653-b848-f6afc3876845" d="m10.5,64.04c-.82,0-.91-.1-.9-.91,0-.85.09-.94,1.01-.93.75,0,.83.11.83.98,0,.81-.07.87-.94.86Z"/><path class="uuid-b5682c2a-2408-4653-b848-f6afc3876845" d="m18.3,63.13c0,.84-.07.91-.9.91-.87,0-.95-.08-.94-.93,0-.83.1-.92.97-.92.78,0,.88.11.87.94Z"/><path class="uuid-b5682c2a-2408-4653-b848-f6afc3876845" d="m21.97,38.89c-.81,0-.92-.1-.92-.84,0-.93.07-1,.95-1,.8,0,.9.1.89.94,0,.81-.09.9-.92.9Z"/><path class="uuid-b5682c2a-2408-4653-b848-f6afc3876845" d="m21.97,62.19c.81,0,.93.11.93.9,0,.86-.08.95-.86.95-.9,0-.98-.07-.98-.89,0-.87.08-.96.91-.96Z"/><path class="uuid-b5682c2a-2408-4653-b848-f6afc3876845" d="m60.85,78.22c.85,0,.93.08.93.95,0,.79-.11.9-.99.9-.75,0-.86-.12-.86-.9,0-.88.07-.95.92-.95Z"/><path class="uuid-b5682c2a-2408-4653-b848-f6afc3876845" d="m4.58,37.96c0,.86-.06.93-.87.93-.88,0-.98-.09-.98-.91,0-.84.11-.94.95-.94.82,0,.9.09.9.92Z"/><path class="uuid-b5682c2a-2408-4653-b848-f6afc3876845" d="m57.63,8.22c0-.83.06-.88.98-.88.79,0,.87.08.87.94,0,.79-.14.91-.99.9-.76,0-.86-.12-.86-.96Z"/><path class="uuid-b5682c2a-2408-4653-b848-f6afc3876845" d="m32.02,63.13c0,.84-.07.91-.9.9-.87,0-.94-.07-.94-.93,0-.81.12-.93.97-.92.78,0,.87.11.87.95Z"/><path class="uuid-b5682c2a-2408-4653-b848-f6afc3876845" d="m36.59,63.12c0,.86-.06.92-.87.92-.87,0-.96-.08-.96-.91,0-.84.1-.94.95-.94.8,0,.88.09.88.93Z"/><path class="uuid-b5682c2a-2408-4653-b848-f6afc3876845" d="m48.06,15.05c0,.86-.09.97-.86.98-.88,0-.99-.08-.99-.84,0-.93.05-1,.88-1,.86,0,.96.08.97.86Z"/><path class="uuid-b5682c2a-2408-4653-b848-f6afc3876845" d="m72.3,36.6c-.86,0-.94-.07-.94-.86,0-.89.07-.97.9-.97.85,0,.95.09.95.93,0,.82-.08.9-.91.9Z"/><path class="uuid-b5682c2a-2408-4653-b848-f6afc3876845" d="m50.32,81.44c0,.84-.07.9-.97.89-.78,0-.88-.11-.88-.94,0-.81.11-.91.99-.9.77,0,.87.1.86.95Z"/><path class="uuid-b5682c2a-2408-4653-b848-f6afc3876845" d="m59.92,19.63c0-.79.09-.87.94-.87.81,0,.92.11.92.9,0,.84-.11.94-.95.94-.83,0-.9-.08-.9-.97Z"/><path class="uuid-b5682c2a-2408-4653-b848-f6afc3876845" d="m69.97,82.33c-.83,0-.92-.09-.92-.9,0-.84.1-.95.87-.95.87,0,.97.08.98.84,0,.94-.06,1-.93,1Z"/><path class="uuid-b5682c2a-2408-4653-b848-f6afc3876845" d="m60.87,64.04c-.83,0-.93-.08-.94-.8-.01-.94.07-1.04.89-1.05.82,0,.95.11.95.88,0,.87-.08.97-.91.97Z"/><path class="uuid-b5682c2a-2408-4653-b848-f6afc3876845" d="m50.32,19.67c0,.86-.08.94-.94.94-.81,0-.91-.11-.92-.91,0-.84.09-.93.95-.93.82,0,.9.07.9.91Z"/><path class="uuid-b5682c2a-2408-4653-b848-f6afc3876845" d="m67.72,64.04c-.85,0-.93-.08-.94-.87,0-.87.09-.98.91-.98.82,0,.94.1.94.89,0,.89-.07.96-.91.96Z"/><path class="uuid-b5682c2a-2408-4653-b848-f6afc3876845" d="m53.07,8.24c0-.84.07-.91.91-.91.87,0,.94.07.94.95,0,.77-.13.89-.89.89-.87,0-.96-.09-.96-.93Z"/><path class="uuid-b5682c2a-2408-4653-b848-f6afc3876845" d="m75.48,63.13c0,.84-.08.92-.98.91-.79,0-.87-.1-.87-.96,0-.8.1-.89.95-.89.8,0,.9.1.89.94Z"/><path class="uuid-b5682c2a-2408-4653-b848-f6afc3876845" d="m80.07,63.11c0,.85-.09.93-.95.93-.84,0-.9-.07-.89-.97,0-.78.1-.87.94-.87.79,0,.9.11.9.92Z"/><path class="uuid-b5682c2a-2408-4653-b848-f6afc3876845" d="m29.75,70.01c0,.81-.09.89-.92.89-.85,0-.92-.08-.92-.95,0-.84.07-.9.98-.9.77,0,.86.11.86.96Z"/><path class="uuid-b5682c2a-2408-4653-b848-f6afc3876845" d="m21.98,84.63c-.86,0-.92-.07-.92-.94,0-.82.09-.91.9-.91.82,0,.93.1.93.89,0,.87-.08.96-.91.96Z"/><path class="uuid-b5682c2a-2408-4653-b848-f6afc3876845" d="m14.19,65.39c0-.81.08-.89.92-.89.84,0,.92.08.92.95,0,.79-.11.89-.93.89-.84,0-.91-.08-.91-.96Z"/><path class="uuid-b5682c2a-2408-4653-b848-f6afc3876845" d="m7.34,35.65c0-.81.09-.89.93-.9.79,0,.91.12.91.93,0,.8-.1.91-.85.91-.95,0-.99-.04-.99-.94Z"/><path class="uuid-b5682c2a-2408-4653-b848-f6afc3876845" d="m21.94,70.9c-.82,0-.89-.07-.89-.93,0-.85.08-.92.97-.92.78,0,.87.1.86.97,0,.81-.08.88-.94.88Z"/><path class="uuid-b5682c2a-2408-4653-b848-f6afc3876845" d="m64.04,1.3c0,.81-.09.9-.91.9-.84,0-.94-.1-.94-.95,0-.83.07-.89.99-.89.81,0,.87.06.86.94Z"/><path class="uuid-b5682c2a-2408-4653-b848-f6afc3876845" d="m84.63,67.69c0,.84-.09.94-.88.94-.87,0-.97-.09-.97-.92,0-.83.09-.93.88-.93.89,0,.96.06.97.91Z"/><path class="uuid-b5682c2a-2408-4653-b848-f6afc3876845" d="m5.93,36.6c-.82,0-.9-.08-.9-.91,0-.83.11-.93.96-.93.81,0,.9.09.89.99,0,.79-.07.85-.95.85Z"/><path class="uuid-b5682c2a-2408-4653-b848-f6afc3876845" d="m52.62,8.23c0,.84-.1.94-.94.95-.8,0-.91-.1-.91-.91,0-.86.06-.93.94-.93.84,0,.91.06.91.89Z"/><path class="uuid-b5682c2a-2408-4653-b848-f6afc3876845" d="m8.24,20.61c-.83,0-.9-.08-.9-.97,0-.8.08-.87.93-.87.83,0,.91.09.91.97,0,.78-.11.88-.94.88Z"/><path class="uuid-b5682c2a-2408-4653-b848-f6afc3876845" d="m63.09,18.3c-.81,0-.91-.1-.9-.91,0-.84.1-.94,1.02-.93.74,0,.84.12.83.98,0,.8-.08.86-.95.86Z"/><path class="uuid-b5682c2a-2408-4653-b848-f6afc3876845" d="m83.69,32.49c.87,0,.93.06.93.93,0,.83-.09.91-.97.91-.78,0-.88-.11-.88-.95,0-.81.09-.9.92-.9Z"/><path class="uuid-b5682c2a-2408-4653-b848-f6afc3876845" d="m46.21,8.26c0-.87.05-.92.94-.92.84,0,.91.07.91.96,0,.76-.13.88-.95.88-.8,0-.9-.1-.9-.92Z"/><path class="uuid-b5682c2a-2408-4653-b848-f6afc3876845" d="m53.07,17.35c0-.81.09-.9.93-.9.82,0,.92.11.92.98,0,.75-.12.86-.91.86-.88,0-.94-.06-.94-.95Z"/><path class="uuid-b5682c2a-2408-4653-b848-f6afc3876845" d="m50.32,17.39c0,.86-.06.92-.97.91-.78,0-.88-.11-.88-.95,0-.79.11-.89.95-.89.8,0,.9.1.9.93Z"/><path class="uuid-b5682c2a-2408-4653-b848-f6afc3876845" d="m61.77,65.47c0,.76-.11.87-.89.87-.88,0-.96-.08-.96-.92,0-.85.07-.93.88-.93.9,0,.97.07.97.97Z"/><path class="uuid-b5682c2a-2408-4653-b848-f6afc3876845" d="m41.62,17.34c0-.79.13-.9,1.02-.88.74.01.84.13.83,1.01,0,.76-.1.85-.98.84-.79,0-.87-.1-.87-.96Z"/><path class="uuid-b5682c2a-2408-4653-b848-f6afc3876845" d="m40.26,18.3c-.85,0-.91-.06-.91-.96,0-.8.1-.89.93-.88.81,0,.92.12.92.91,0,.86-.08.94-.94.93Z"/><path class="uuid-b5682c2a-2408-4653-b848-f6afc3876845" d="m64.04,67.69c0,.85-.08.94-.94.94-.8,0-.91-.11-.91-.91,0-.84.09-.93.95-.93.83,0,.9.08.9.91Z"/><path class="uuid-b5682c2a-2408-4653-b848-f6afc3876845" d="m40.29,7.34c.83,0,.91.08.9.97,0,.76-.13.88-.95.87-.8,0-.89-.1-.89-.93,0-.87.05-.92.94-.91Z"/><path class="uuid-b5682c2a-2408-4653-b848-f6afc3876845" d="m57.18,3.7c0,.81-.08.89-.92.89-.83,0-.93-.09-.93-.89,0-.86.1-.96.99-.96.76,0,.86.12.86.96Z"/><path class="uuid-b5682c2a-2408-4653-b848-f6afc3876845" d="m53.91,84.62c-.78,0-.85-.08-.84-.97,0-.81.09-.89.99-.88.76,0,.86.12.85.97,0,.8-.1.88-1,.88Z"/><path class="uuid-b5682c2a-2408-4653-b848-f6afc3876845" d="m81.44,64.5c.82,0,.9.08.9.91,0,.83-.1.94-.88.94-.87,0-.97-.1-.97-.92,0-.84.09-.93.95-.93Z"/><path class="uuid-b5682c2a-2408-4653-b848-f6afc3876845" d="m21.96,18.3c-.83,0-.91-.08-.91-.91,0-.85.09-.94.95-.94.77,0,.89.13.89.95,0,.8-.1.89-.93.9Z"/><path class="uuid-b5682c2a-2408-4653-b848-f6afc3876845" d="m18.3,33.39c0,.83-.1.94-.88.94-.88,0-.97-.09-.97-.98,0-.77.11-.87.89-.87.9,0,.96.06.96.91Z"/><path class="uuid-b5682c2a-2408-4653-b848-f6afc3876845" d="m15.19,32.49c.76,0,.85.11.84.97,0,.78-.11.87-.95.87-.83,0-.9-.08-.89-.98,0-.81.08-.87,1-.87Z"/><path class="uuid-b5682c2a-2408-4653-b848-f6afc3876845" d="m10.52,32.49c.87,0,.92.06.92.94,0,.82-.09.91-.97.9-.79,0-.88-.11-.87-1.01,0-.73.12-.83.92-.83Z"/><path class="uuid-b5682c2a-2408-4653-b848-f6afc3876845" d="m38.89,8.28c0,.81-.1.89-.98.89-.76,0-.86-.12-.86-.96,0-.82.08-.88.99-.88.79,0,.85.07.85.94Z"/><path class="uuid-b5682c2a-2408-4653-b848-f6afc3876845" d="m57.18,15.1c0,.84-.09.93-.88.93-.87,0-.97-.09-.97-.92,0-.84.09-.92.95-.92.82,0,.9.08.9.9Z"/><path class="uuid-b5682c2a-2408-4653-b848-f6afc3876845" d="m47.14,4.58c-.85,0-.93-.07-.93-.88,0-.88.08-.97.9-.97.83,0,.94.11.95.89,0,.87-.08.96-.92.96Z"/><path class="uuid-b5682c2a-2408-4653-b848-f6afc3876845" d="m74.55,84.62c-.82,0-.92-.09-.92-.9,0-.85.1-.95.93-.95.82,0,.91.1.91.9,0,.86-.08.94-.93.94Z"/><path class="uuid-b5682c2a-2408-4653-b848-f6afc3876845" d="m43.47,3.65c0,.84-.08.93-.88.93-.88,0-.98-.09-.98-.9,0-.83.11-.94.95-.95.79,0,.91.11.91.92Z"/><path class="uuid-b5682c2a-2408-4653-b848-f6afc3876845" d="m36.6,67.69c0,.85-.08.94-.88.95-.87,0-.96-.1-.96-1,0-.77.1-.85,1.05-.84.7,0,.79.11.79.9Z"/><path class="uuid-b5682c2a-2408-4653-b848-f6afc3876845" d="m59.92,15.05c0-.79.09-.87.96-.86.81,0,.89.09.89.94,0,.8-.12.91-1,.9-.76,0-.86-.12-.85-.98Z"/><path class="uuid-b5682c2a-2408-4653-b848-f6afc3876845" d="m65.39,14.19c.87,0,.95.08.95.92,0,.81-.11.92-.9.92-.85,0-.94-.09-.95-.87,0-.89.07-.97.9-.97Z"/><path class="uuid-b5682c2a-2408-4653-b848-f6afc3876845" d="m77.76,67.68c0,.86-.07.94-.93.94-.82,0-.91-.09-.91-.91,0-.85.09-.94.94-.94.82,0,.91.08.91.9Z"/><path class="uuid-b5682c2a-2408-4653-b848-f6afc3876845" d="m32.02,67.7c0,.82-.1.93-.84.93-.9,0-1.01-.1-1.01-.9,0-.84.09-.95.88-.95.88,0,.96.07.96.92Z"/><path class="uuid-b5682c2a-2408-4653-b848-f6afc3876845" d="m84.62,81.39c0,.87-.07.94-.93.94-.84,0-.92-.08-.92-.96,0-.77.11-.89.87-.89.88,0,.98.08.98.9Z"/><path class="uuid-b5682c2a-2408-4653-b848-f6afc3876845" d="m15.11,18.76c.84,0,.93.09.93.95,0,.8-.1.9-.92.9-.83,0-.93-.09-.92-.95,0-.81.09-.9.92-.9Z"/><path class="uuid-b5682c2a-2408-4653-b848-f6afc3876845" d="m26.51,36.6c-.8,0-.88-.08-.88-.86,0-.92.05-.98.95-.98.81,0,.89.09.89.92,0,.84-.08.91-.96.92Z"/><path class="uuid-b5682c2a-2408-4653-b848-f6afc3876845" d="m21.96,18.76c.86,0,.93.07.93.96,0,.79-.1.89-.94.89-.81,0-.9-.1-.89-.94,0-.83.09-.91.91-.91Z"/><path class="uuid-b5682c2a-2408-4653-b848-f6afc3876845" d="m27.91,19.67c0-.85.06-.91.96-.91.81,0,.87.07.87.93,0,.84-.08.92-.96.91-.79,0-.88-.09-.88-.94Z"/><path class="uuid-b5682c2a-2408-4653-b848-f6afc3876845" d="m61.77,35.64c0,.86-.08.95-.87.95-.89,0-.97-.06-.98-.84,0-.91.07-.99.96-.99.77,0,.89.11.89.88Z"/><path class="uuid-b5682c2a-2408-4653-b848-f6afc3876845" d="m7.34,21.92c0-.82.08-.88,1.01-.87.74,0,.84.12.84.93,0,.83-.1.92-.99.91-.78,0-.86-.09-.85-.97Z"/><path class="uuid-b5682c2a-2408-4653-b848-f6afc3876845" d="m82.34,83.69c0,.86-.07.94-.94.93-.81,0-.91-.1-.91-.91,0-.82.11-.94.89-.94.88,0,.96.08.96.91Z"/><path class="uuid-b5682c2a-2408-4653-b848-f6afc3876845" d="m82.78,60.8c0-.78.1-.88.94-.88.84,0,.91.07.91.96,0,.8-.1.89-.93.88-.82,0-.92-.1-.91-.97Z"/><path class="uuid-b5682c2a-2408-4653-b848-f6afc3876845" d="m63.1,36.6c-.84,0-.92-.09-.91-.96,0-.78.11-.88.95-.88.84,0,.91.08.9,1.03,0,.73-.1.81-.93.81Z"/><path class="uuid-b5682c2a-2408-4653-b848-f6afc3876845" d="m76.85,61.77c-.83,0-.93-.1-.93-.89,0-.88.07-.95.92-.96.86,0,.93.07.93.94,0,.81-.09.9-.92.9Z"/><path class="uuid-b5682c2a-2408-4653-b848-f6afc3876845" d="m51.69,82.33c-.85,0-.93-.08-.93-.95,0-.8.12-.91.99-.91.75,0,.87.13.87.96,0,.8-.1.89-.93.89Z"/><path class="uuid-b5682c2a-2408-4653-b848-f6afc3876845" d="m69.99,36.59c-.86,0-.94-.08-.94-.93,0-.81.1-.9.91-.9.84,0,.94.1.94.94,0,.82-.07.89-.91.89Z"/><path class="uuid-b5682c2a-2408-4653-b848-f6afc3876845" d="m38.89,81.45c0,.82-.07.88-.98.89-.78,0-.87-.1-.86-.95,0-.76.13-.9.87-.9.9,0,.98.07.98.96Z"/><path class="uuid-b5682c2a-2408-4653-b848-f6afc3876845" d="m25.16,15.18c0,.78-.1.86-.97.85-.77,0-.88-.12-.87-.97,0-.81.08-.88,1.01-.87.77,0,.83.08.83.98Z"/><path class="uuid-b5682c2a-2408-4653-b848-f6afc3876845" d="m81.39,36.59c-.83,0-.9-.08-.9-.92,0-.8.12-.91.93-.91.84,0,.93.09.92.97,0,.81-.07.87-.94.87Z"/><path class="uuid-b5682c2a-2408-4653-b848-f6afc3876845" d="m49.4,6.88c-.86,0-.93-.08-.93-1.02,0-.73.13-.84.99-.83.78,0,.86.1.86.96,0,.82-.08.9-.92.89Z"/><path class="uuid-b5682c2a-2408-4653-b848-f6afc3876845" d="m5.03,49.37c0-.81.11-.9.99-.9.76,0,.86.12.86.96,0,.82-.09.9-.99.89-.78,0-.87-.1-.86-.95Z"/><path class="uuid-b5682c2a-2408-4653-b848-f6afc3876845" d="m20.61,15.1c0,.82-.1.93-.89.93-.85,0-.95-.09-.96-.86,0-.89.07-.98.82-.98.96,0,1.02.05,1.02.91Z"/><path class="uuid-b5682c2a-2408-4653-b848-f6afc3876845" d="m40.28,29.74c-.86,0-.94-.07-.93-.93,0-.83.08-.91.9-.91.85,0,.95.1.95.93,0,.81-.09.9-.91.9Z"/><path class="uuid-b5682c2a-2408-4653-b848-f6afc3876845" d="m60.82,13.74c-.82,0-.9-.09-.9-.98,0-.78.1-.87.95-.87.8,0,.91.1.91.92,0,.83-.1.93-.96.93Z"/><path class="uuid-b5682c2a-2408-4653-b848-f6afc3876845" d="m21.98,59.92c.81,0,.91.1.91.92,0,.81-.11.93-.9.93-.85,0-.93-.08-.94-.96,0-.8.09-.89.93-.89Z"/><path class="uuid-b5682c2a-2408-4653-b848-f6afc3876845" d="m36.6,28.85c0,.82-.08.89-.93.89-.81,0-.91-.1-.91-.92,0-.82.1-.92.91-.92.87,0,.93.07.93.95Z"/><path class="uuid-b5682c2a-2408-4653-b848-f6afc3876845" d="m32.49,21.93c0-.82.07-.88.98-.87.78,0,.86.09.86.95,0,.8-.1.89-1,.88-.78,0-.85-.09-.85-.96Z"/><path class="uuid-b5682c2a-2408-4653-b848-f6afc3876845" d="m28.82,6.88c-.82,0-.91-.09-.91-.9,0-.86.09-.95.93-.95.83,0,.92.1.91.96,0,.82-.08.89-.93.89Z"/><path class="uuid-b5682c2a-2408-4653-b848-f6afc3876845" d="m49.38,11.9c.85,0,.93.08.94.87,0,.88-.08.97-.84.98-.89,0-1.01-.1-1.01-.88,0-.87.08-.96.91-.97Z"/><path class="uuid-b5682c2a-2408-4653-b848-f6afc3876845" d="m35.71,57.63c.82,0,.89.07.88.98,0,.8-.08.87-.94.87-.8,0-.9-.11-.9-.99,0-.77.11-.86.95-.86Z"/><path class="uuid-b5682c2a-2408-4653-b848-f6afc3876845" d="m47.13,22.89c-.83,0-.92-.09-.92-.89,0-.88.06-.95.92-.95.84,0,.93.09.93.88,0,.85-.1.96-.93.96Z"/><path class="uuid-b5682c2a-2408-4653-b848-f6afc3876845" d="m35.66,7.34c.86,0,.93.06.93.88,0,.86-.09.96-.86.96-.86,0-.97-.11-.98-.92,0-.82.09-.91.91-.92Z"/><path class="uuid-b5682c2a-2408-4653-b848-f6afc3876845" d="m35.72,13.75c-.88,0-.96-.07-.96-.92,0-.84.09-.93.95-.93.81,0,.89.08.89.92,0,.84-.08.93-.88.94Z"/><path class="uuid-b5682c2a-2408-4653-b848-f6afc3876845" d="m21.05,5.95c0-.8.11-.92.89-.92.83,0,.94.09.95.81.01.92-.09,1.04-.83,1.05-.92,0-1-.07-1.01-.93Z"/><path class="uuid-b5682c2a-2408-4653-b848-f6afc3876845" d="m51.7,21.05c.81,0,.92.09.92.82,0,.89-.09,1.01-.81,1.02-.89.01-1.04-.09-1.05-.78-.01-1,.04-1.05.93-1.06Z"/><path class="uuid-b5682c2a-2408-4653-b848-f6afc3876845" d="m64.04,22.01c0,.79-.1.88-.93.88-.82,0-.92-.1-.92-.96,0-.79.09-.88.94-.87.85,0,.92.07.91.95Z"/><path class="uuid-b5682c2a-2408-4653-b848-f6afc3876845" d="m67.72,57.18c-.85,0-.93-.07-.93-.89,0-.85.09-.96.87-.96.84,0,.97.11.97.87,0,.9-.06.97-.91.98Z"/><path class="uuid-b5682c2a-2408-4653-b848-f6afc3876845" d="m5.93,43.45c-.85,0-.9-.06-.9-.97,0-.77.12-.87.95-.87.81,0,.9.11.9.99,0,.79-.08.86-.95.85Z"/><path class="uuid-b5682c2a-2408-4653-b848-f6afc3876845" d="m21.98,75.48c-.84,0-.93-.09-.93-.89,0-.88.09-.96,1-.95.75,0,.84.12.84.99,0,.75-.12.86-.91.85Z"/><path class="uuid-b5682c2a-2408-4653-b848-f6afc3876845" d="m25.63,74.56c0-.85.08-.93.95-.92.81,0,.9.1.89.99,0,.77-.11.87-.96.86-.81,0-.89-.09-.88-.92Z"/><path class="uuid-b5682c2a-2408-4653-b848-f6afc3876845" d="m65.37,43.45c-.81,0-.88-.07-.88-.92,0-.83.1-.92.97-.92.79,0,.89.12.88,1.01,0,.77-.09.84-.97.83Z"/><path class="uuid-b5682c2a-2408-4653-b848-f6afc3876845" d="m82.33,42.54c0,.85-.06.92-.95.92-.81,0-.9-.09-.9-.92,0-.82.11-.93.96-.93.79,0,.89.1.89.93Z"/><path class="uuid-b5682c2a-2408-4653-b848-f6afc3876845" d="m84.63,42.52c0,.86-.07.93-.87.93-.91,0-.98-.06-.98-.89,0-.83.1-.95.87-.95.87,0,.98.09.98.91Z"/><path class="uuid-b5682c2a-2408-4653-b848-f6afc3876845" d="m50.32,83.7c0,.85-.08.92-.95.92-.8,0-.89-.1-.89-.93,0-.83.1-.92.96-.92.81,0,.89.08.89.93Z"/><path class="uuid-b5682c2a-2408-4653-b848-f6afc3876845" d="m43.47,74.52c0,.86-.08.95-.86.95-.91,0-.99-.07-1-.94,0-.78.11-.89.93-.9.83,0,.92.09.93.89Z"/><path class="uuid-b5682c2a-2408-4653-b848-f6afc3876845" d="m21.97,32.49c.83,0,.92.09.92.91,0,.84-.1.94-.9.94-.86,0-.95-.09-.94-.95,0-.82.08-.9.92-.9Z"/><path class="uuid-b5682c2a-2408-4653-b848-f6afc3876845" d="m82.34,22c0,.79-.11.9-.92.89-.81,0-.93-.12-.93-.9,0-.85.09-.94.87-.94.93,0,.98.05.98.95Z"/><path class="uuid-b5682c2a-2408-4653-b848-f6afc3876845" d="m81.48,50.77c.77,0,.86.12.86,1.02,0,.75-.11.83-.99.83-.76,0-.87-.13-.86-.97,0-.8.11-.89,1-.89Z"/><path class="uuid-b5682c2a-2408-4653-b848-f6afc3876845" d="m2.73,44.83c0-.81.11-.93.9-.93.87,0,.95.08.95.93,0,.84-.07.92-.89.92-.87,0-.96-.09-.96-.92Z"/><path class="uuid-b5682c2a-2408-4653-b848-f6afc3876845" d="m53.07,74.54c0-.8.09-.9.86-.91.89,0,.99.09.99.91,0,.83-.1.93-.9.93-.87,0-.95-.07-.95-.93Z"/><path class="uuid-b5682c2a-2408-4653-b848-f6afc3876845" d="m21.94,77.76c-.82,0-.89-.07-.89-.92,0-.86.08-.93.94-.93.8,0,.9.1.9.92,0,.84-.09.93-.95.93Z"/><path class="uuid-b5682c2a-2408-4653-b848-f6afc3876845" d="m64.5,3.63c0-.82.1-.9.99-.9.77,0,.87.12.86,1.02,0,.74-.11.83-.99.82-.79,0-.86-.09-.86-.95Z"/><path class="uuid-b5682c2a-2408-4653-b848-f6afc3876845" d="m64.5,74.52c0-.82.1-.9,1.04-.89.69,0,.81.14.8.96,0,.81-.1.89-.99.89-.78,0-.86-.09-.86-.95Z"/><path class="uuid-b5682c2a-2408-4653-b848-f6afc3876845" d="m22.89,47.11c0,.85-.11.95-.96.95-.81,0-.89-.1-.88-1.01,0-.77.1-.85.98-.84.77,0,.86.1.86.9Z"/><path class="uuid-b5682c2a-2408-4653-b848-f6afc3876845" d="m32.02,8.27c0,.81-.1.91-.91.91-.82,0-.93-.11-.93-.89,0-.9.05-.95.98-.95.81,0,.86.06.86.93Z"/><path class="uuid-b5682c2a-2408-4653-b848-f6afc3876845" d="m71.36,74.57c0-.86.07-.94.93-.94.81,0,.92.1.92.9,0,.86-.08.94-.94.94-.82,0-.91-.08-.91-.9Z"/><path class="uuid-b5682c2a-2408-4653-b848-f6afc3876845" d="m11.44,44.83c0,.86-.06.93-.94.92-.8,0-.9-.11-.9-.98,0-.74.13-.87.9-.87.88,0,.94.07.94.93Z"/><path class="uuid-b5682c2a-2408-4653-b848-f6afc3876845" d="m83.7,73.63c.85,0,.93.08.93.95,0,.81-.09.89-.92.89-.85,0-.93-.08-.93-.95,0-.79.11-.9.92-.9Z"/><path class="uuid-b5682c2a-2408-4653-b848-f6afc3876845" d="m82.33,74.57c0,.85-.09.92-1.04.91-.72-.01-.82-.14-.81-1.02,0-.7.16-.83.96-.83.8,0,.9.12.89.94Z"/><path class="uuid-b5682c2a-2408-4653-b848-f6afc3876845" d="m11.44,35.7c0,.81-.08.9-.85.9-.91,0-.99-.08-.99-.89,0-.85.11-.95,1.02-.95.72,0,.83.13.83.94Z"/><path class="uuid-b5682c2a-2408-4653-b848-f6afc3876845" d="m17.36,36.59c-.82,0-.9-.09-.9-.92,0-.82.12-.92,1.05-.91.72,0,.8.12.79,1.03,0,.74-.08.81-.94.8Z"/><path class="uuid-b5682c2a-2408-4653-b848-f6afc3876845" d="m35.69,18.3c-.84,0-.93-.09-.93-.89,0-.85.1-.95.94-.95.8,0,.89.09.89.93,0,.83-.07.91-.9.91Z"/><path class="uuid-b5682c2a-2408-4653-b848-f6afc3876845" d="m82.34,60.84c0,.83-.11.94-.9.93-.83,0-.95-.12-.95-.96,0-.79.12-.89.95-.89.83,0,.91.09.9.92Z"/><path class="uuid-b5682c2a-2408-4653-b848-f6afc3876845" d="m60.8,82.34c-.8,0-.88-.09-.88-.94,0-.8.11-.91.93-.91.77,0,.92.14.93.87,0,.88-.1.99-.98.99Z"/><path class="uuid-b5682c2a-2408-4653-b848-f6afc3876845" d="m45.75,74.54c0,.84-.09.93-.88.94-.88,0-.97-.08-.97-.91,0-.84.08-.93.88-.93.88,0,.96.08.97.91Z"/><path class="uuid-b5682c2a-2408-4653-b848-f6afc3876845" d="m67.69,36.59c-.83,0-.91-.08-.91-.91,0-.85.09-.93.97-.92.79,0,.89.12.88,1.02,0,.74-.1.82-.94.82Z"/><path class="uuid-b5682c2a-2408-4653-b848-f6afc3876845" d="m75.48,60.84c0,.82-.11.94-.9.93-.83,0-.95-.12-.95-.9,0-.85.1-.96.94-.95.83,0,.91.08.91.92Z"/><path class="uuid-b5682c2a-2408-4653-b848-f6afc3876845" d="m75.48,54.03c0,.76-.13.88-.89.88-.84,0-.96-.12-.96-.95,0-.83.09-.91,1.05-.9.71,0,.8.11.8.96Z"/><path class="uuid-b5682c2a-2408-4653-b848-f6afc3876845" d="m29.74,1.28c0,.82-.1.92-.9.92-.85,0-.94-.09-.94-.94,0-.84.08-.91.96-.91.81,0,.88.08.88.93Z"/><path class="uuid-b5682c2a-2408-4653-b848-f6afc3876845" d="m66.78,60.83c0-.82.09-.91.92-.9.84,0,.93.09.93.97,0,.76-.14.89-.96.89-.78,0-.89-.12-.89-.95Z"/><path class="uuid-b5682c2a-2408-4653-b848-f6afc3876845" d="m75.48,21.97c0,.82-.11.93-.9.93-.83,0-.94-.11-.94-.9,0-.87.07-.94.94-.94.83,0,.91.07.91.91Z"/><path class="uuid-b5682c2a-2408-4653-b848-f6afc3876845" d="m28.82,57.18c-.83,0-.92-.09-.92-.91,0-.84.1-.94.89-.94.85,0,.95.09.95.95,0,.82-.08.9-.92.9Z"/><path class="uuid-b5682c2a-2408-4653-b848-f6afc3876845" d="m74.56,36.6c-.83,0-.93-.09-.93-.9,0-.81.13-.95.89-.95.86,0,.96.11.95,1.01,0,.76-.1.84-.92.84Z"/><path class="uuid-b5682c2a-2408-4653-b848-f6afc3876845" d="m60.86,59.93c.82,0,.92.1.91.92,0,.8-.13.93-.92.93-.84,0-.94-.1-.93-.96,0-.81.09-.89.94-.89Z"/><path class="uuid-b5682c2a-2408-4653-b848-f6afc3876845" d="m36.6,21.98c0,.82-.09.91-.91.91-.82,0-.92-.1-.93-.9,0-.84.09-.94.89-.94.89,0,.94.06.95.93Z"/><path class="uuid-b5682c2a-2408-4653-b848-f6afc3876845" d="m84.62,35.7c0,.8-.09.89-.85.89-.93,0-1-.06-1-.93,0-.81.1-.9.92-.9.85,0,.93.08.93.94Z"/><path class="uuid-b5682c2a-2408-4653-b848-f6afc3876845" d="m28.85,84.63c-.86,0-.94-.08-.94-.93,0-.81.1-.91.9-.92.84,0,.94.09.94.88,0,.89-.07.97-.9.97Z"/><path class="uuid-b5682c2a-2408-4653-b848-f6afc3876845" d="m35.68,59.92c.84,0,.93.09.92.9,0,.86-.09.95-.95.95-.8,0-.9-.11-.9-1,0-.74.12-.85.92-.85Z"/><path class="uuid-b5682c2a-2408-4653-b848-f6afc3876845" d="m28.78,32.02c-.78,0-.87-.1-.87-.87,0-.92.06-.97.96-.97.78,0,.88.11.87.94,0,.84-.07.9-.96.9Z"/><path class="uuid-b5682c2a-2408-4653-b848-f6afc3876845" d="m4.58,35.67c0,.85-.07.93-.89.93-.85,0-.96-.09-.96-.87,0-.85.1-.96.87-.97.89,0,.98.08.98.91Z"/><path class="uuid-b5682c2a-2408-4653-b848-f6afc3876845" d="m60.77,29.74c-.75,0-.85-.1-.84-.92,0-.83.09-.92.91-.92.87,0,.95.08.94.94,0,.81-.1.89-1.01.89Z"/><path class="uuid-b5682c2a-2408-4653-b848-f6afc3876845" d="m72.3,27.91c.84,0,.91.08.91.96,0,.8-.1.87-1.08.86-.7,0-.78-.1-.77-.97,0-.79.08-.87.94-.86Z"/><path class="uuid-b5682c2a-2408-4653-b848-f6afc3876845" d="m67.67,43.45c-.82,0-.89-.08-.89-.93,0-.82.12-.92.98-.92.75,0,.87.13.86.98,0,.78-.1.87-.96.87Z"/><path class="uuid-b5682c2a-2408-4653-b848-f6afc3876845" d="m28.84,53.07c.81,0,.91.08.9.84,0,.94-.07,1.02-.93,1.01-.82,0-.91-.1-.91-.97,0-.8.09-.88.93-.88Z"/><path class="uuid-b5682c2a-2408-4653-b848-f6afc3876845" d="m51.7,75.48c-.85,0-.94-.09-.93-.95,0-.81.1-.9.98-.9.78,0,.87.11.87.95,0,.8-.1.9-.92.9Z"/><path class="uuid-b5682c2a-2408-4653-b848-f6afc3876845" d="m36.6,19.68c0,.84-.07.92-.88.93-.84,0-.95-.09-.95-.87,0-.89.07-.98.89-.98.89,0,.94.04.94.92Z"/><path class="uuid-b5682c2a-2408-4653-b848-f6afc3876845" d="m28.82,64.5c.82,0,.92.09.92.82,0,.93-.08,1.02-.85,1.03-.88,0-.98-.08-.98-.9,0-.88.07-.95.91-.95Z"/><path class="uuid-b5682c2a-2408-4653-b848-f6afc3876845" d="m29.74,44.8c0,.88-.08.95-.99.95-.75,0-.85-.1-.85-.84,0-.98.05-1.02.98-1.01.76,0,.86.11.85.9Z"/><path class="uuid-b5682c2a-2408-4653-b848-f6afc3876845" d="m13.74,35.67c0,.84-.07.92-.88.93-.9,0-.97-.06-.97-.9,0-.85.09-.94.94-.94.8,0,.91.1.91.91Z"/><path class="uuid-b5682c2a-2408-4653-b848-f6afc3876845" d="m13.74,28.83c0,.83-.08.91-.97.91-.81,0-.88-.08-.88-.92,0-.86.05-.91.96-.91.81,0,.89.09.89.92Z"/><path class="uuid-b5682c2a-2408-4653-b848-f6afc3876845" d="m29.74,12.81c0,.84-.08.93-.88.93-.86,0-.96-.08-.96-.86,0-.9.07-.99.88-.99.88,0,.95.06.96.92Z"/><path class="uuid-b5682c2a-2408-4653-b848-f6afc3876845" d="m29.75,15.09c0,.84-.1.94-.95.94-.77,0-.88-.11-.89-.88,0-.88.07-.96.92-.96.84,0,.92.07.92.9Z"/><path class="uuid-b5682c2a-2408-4653-b848-f6afc3876845" d="m82.33,28.85c0,.83-.07.89-.99.89-.76,0-.87-.12-.86-.98,0-.77.11-.86.98-.86.8,0,.88.09.87.95Z"/><path class="uuid-b5682c2a-2408-4653-b848-f6afc3876845" d="m28.85,32.49c.83,0,.89.07.89.92,0,.83-.1.93-.91.92-.84,0-.93-.1-.93-.96,0-.8.09-.88.94-.88Z"/><path class="uuid-b5682c2a-2408-4653-b848-f6afc3876845" d="m10.53,27.91c.84,0,.91.07.91.91,0,.84-.08.92-.89.92-.84,0-.95-.1-.95-.88,0-.88.07-.95.93-.95Z"/><path class="uuid-b5682c2a-2408-4653-b848-f6afc3876845" d="m75.48,28.82c0,.84-.08.92-.9.92-.85,0-.95-.08-.95-.88,0-.84.11-.96.87-.96.87,0,.97.09.97.92Z"/><path class="uuid-b5682c2a-2408-4653-b848-f6afc3876845" d="m44.76,29.74c-.78,0-.86-.11-.85-1.02,0-.73.13-.83,1-.82.78,0,.86.11.85,1.03,0,.74-.11.82-1,.81Z"/><path class="uuid-b5682c2a-2408-4653-b848-f6afc3876845" d="m59.48,28.84c0,.82-.08.9-.97.9-.79,0-.88-.09-.88-.93,0-.82.09-.91.91-.9.87,0,.94.07.94.93Z"/><path class="uuid-b5682c2a-2408-4653-b848-f6afc3876845" d="m29.74,10.51c0,.86-.07.93-.94.93-.79,0-.9-.1-.9-.85,0-.91.08-1,.94-1,.8,0,.89.1.89.92Z"/><path class="uuid-b5682c2a-2408-4653-b848-f6afc3876845" d="m29.74,60.86c0,.81-.11.91-.92.91-.81,0-.92-.12-.92-.98,0-.79.1-.87,1.02-.87.74,0,.82.1.82.94Z"/><path class="uuid-b5682c2a-2408-4653-b848-f6afc3876845" d="m4.58,28.81c0,.84-.08.93-.89.93-.85,0-.96-.1-.96-.87,0-.85.09-.96.87-.96.9,0,.97.06.98.9Z"/><path class="uuid-b5682c2a-2408-4653-b848-f6afc3876845" d="m18.3,28.85c0,.84-.06.89-.99.89-.76,0-.86-.11-.86-.91,0-.85.08-.92.97-.92.8,0,.88.08.87.94Z"/><path class="uuid-b5682c2a-2408-4653-b848-f6afc3876845" d="m28.84,59.48c-.84,0-.93-.09-.93-.89,0-.89.07-.96.91-.96.83,0,.93.1.93.88,0,.87-.09.97-.91.96Z"/><path class="uuid-b5682c2a-2408-4653-b848-f6afc3876845" d="m14.2,28.77c0-.78.09-.87.89-.86.87,0,.96.09.95.94,0,.8-.1.89-.94.89-.84,0-.91-.07-.91-.97Z"/><path class="uuid-b5682c2a-2408-4653-b848-f6afc3876845" d="m51.69,27.9c.83,0,.93.1.93.88,0,.89-.07.95-.98.95-.78,0-.87-.1-.87-.94,0-.81.09-.89.92-.89Z"/><path class="uuid-b5682c2a-2408-4653-b848-f6afc3876845" d="m28.83,50.32c-.84,0-.92-.08-.92-.9,0-.85.09-.95.88-.95.86,0,.96.09.95.94,0,.83-.08.91-.91.91Z"/><path class="uuid-b5682c2a-2408-4653-b848-f6afc3876845" d="m70.9,28.84c0,.83-.07.9-.92.9-.83,0-.93-.1-.93-.9,0-.83.09-.93.9-.93.87,0,.95.08.95.93Z"/><path class="uuid-b5682c2a-2408-4653-b848-f6afc3876845" d="m77.76,28.81c0,.84-.08.93-.89.93-.87,0-.95-.09-.95-.94,0-.81.09-.89.93-.89.84,0,.92.08.92.9Z"/><path class="uuid-b5682c2a-2408-4653-b848-f6afc3876845" d="m28.82,64.04c-.82,0-.91-.09-.91-.91,0-.84.09-.94.96-.93.78,0,.88.1.87.96,0,.82-.07.89-.92.89Z"/><path class="uuid-b5682c2a-2408-4653-b848-f6afc3876845" d="m83.7,29.74c-.85,0-.93-.08-.92-.97,0-.77.12-.87.97-.86.82,0,.89.08.88,1,0,.74-.11.84-.93.83Z"/><path class="uuid-b5682c2a-2408-4653-b848-f6afc3876845" d="m27.91,21.96c0-.83.09-.91.91-.91.86,0,.93.08.92.96,0,.8-.09.88-.94.88-.8,0-.9-.1-.89-.93Z"/><path class="uuid-b5682c2a-2408-4653-b848-f6afc3876845" d="m38.72,38.88c.32.02.53.21.58.56.04.32-.25.65-.58.64-.35,0-.57-.2-.61-.55-.04-.34.24-.64.6-.65Z"/><path class="uuid-b5682c2a-2408-4653-b848-f6afc3876845" d="m42.69,39.49c-.05.36-.24.57-.6.59-.33.02-.62-.29-.61-.62.01-.33.33-.62.65-.58.35.05.52.28.56.61Z"/><path class="uuid-b5682c2a-2408-4653-b848-f6afc3876845" d="m8.04,80.07c-.86,0-1.71,0-2.57,0-.64,0-.9-.26-.9-.89,0-1.69,0-3.38,0-5.08,0-.69.23-.9.93-.91,1.67,0,3.34,0,5.02,0,.71,0,.92.21.92.91,0,1.69,0,3.38,0,5.08,0,.65-.24.88-.89.89-.84.01-1.67,0-2.51,0Z"/><path class="uuid-b5682c2a-2408-4653-b848-f6afc3876845" d="m80.07,8.05c0,.84,0,1.67,0,2.51,0,.65-.24.88-.89.89-1.71,0-3.43,0-5.14,0-.62,0-.83-.23-.84-.86-.01-1.71-.01-3.43,0-5.14,0-.61.25-.86.85-.87,1.71-.01,3.43-.01,5.14,0,.62,0,.88.27.88.91,0,.86,0,1.71,0,2.57h0Z"/><path class="uuid-b5682c2a-2408-4653-b848-f6afc3876845" d="m11.44,8.06c0,.84,0,1.67,0,2.51,0,.63-.22.86-.84.87-1.73.01-3.47.01-5.2,0-.58,0-.83-.24-.83-.82-.01-1.73-.01-3.47,0-5.2,0-.6.26-.85.88-.85,1.71-.01,3.43-.01,5.14,0,.61,0,.85.25.85.86.01.88,0,1.75,0,2.63Z"/><path class="uuid-b5682c2a-2408-4653-b848-f6afc3876845" d="m43.74,42.23c.32.02.53.21.58.56.04.32-.25.65-.58.64-.35,0-.57-.2-.61-.55-.04-.34.24-.64.6-.65Z"/><path class="uuid-b5682c2a-2408-4653-b848-f6afc3876845" d="m46.61,42.23c.32.02.53.21.58.56.04.32-.25.65-.58.64-.35,0-.57-.2-.61-.55-.04-.34.24-.64.6-.65Z"/></g></g></svg>