<?xml version="1.0" encoding="UTF-8"?><svg id="uuid-d6e175d8-a3b0-40aa-b192-c090b32c06fb" xmlns="http://www.w3.org/2000/svg" xmlns:xlink="http://www.w3.org/1999/xlink" viewBox="0 0 162.36 48"><defs><style>.uuid-a96eab08-8936-4c47-9f0f-2634ce2ead1b{fill:url(#uuid-151b249c-3e83-4c63-8cea-fc282d38303a);}.uuid-a96eab08-8936-4c47-9f0f-2634ce2ead1b,.uuid-44942d8d-fbde-4223-9d46-9ffbcb9a462e,.uuid-e593317b-9c1a-48e3-bb42-bc5a0afea3ac,.uuid-800d63e7-8582-4e15-b2b3-b3553449c74a{stroke-width:0px;}.uuid-44942d8d-fbde-4223-9d46-9ffbcb9a462e{fill:url(#uuid-e98596e0-470a-486b-8ce7-648c53b1ca6e);}.uuid-e593317b-9c1a-48e3-bb42-bc5a0afea3ac{fill:#005c6a;}.uuid-800d63e7-8582-4e15-b2b3-b3553449c74a{fill:url(#uuid-3e4a790e-5664-445c-b16b-b21ae8d1ab33);}</style><linearGradient id="uuid-e98596e0-470a-486b-8ce7-648c53b1ca6e" x1="4.38" y1="23.6" x2="34.84" y2="43.76" gradientTransform="translate(0 49.58) scale(1 -1)" gradientUnits="userSpaceOnUse"><stop offset="0" stop-color="#006a63"/><stop offset=".69" stop-color="#00b6a1"/><stop offset="1" stop-color="#85e6d5"/></linearGradient><linearGradient id="uuid-151b249c-3e83-4c63-8cea-fc282d38303a" x1="33.52" y1="21.2" x2="42.96" y2="32.8" xlink:href="#uuid-e98596e0-470a-486b-8ce7-648c53b1ca6e"/><linearGradient id="uuid-3e4a790e-5664-445c-b16b-b21ae8d1ab33" x1="19.32" y1="9.5" x2="35.81" y2="35.04" xlink:href="#uuid-e98596e0-470a-486b-8ce7-648c53b1ca6e"/></defs><g id="uuid-003c2494-beea-4d09-9851-01b1c4d86d6e"><path class="uuid-e593317b-9c1a-48e3-bb42-bc5a0afea3ac" d="m63.7,39.91l.45-1.11h-4.25l3.57-2.56c.91-.66,1.62-1.55,2.06-2.58h-14.78l-.65,1.54h11.24l-4.65,3.56h-.41l-.17-2.14h-3.32l.17,2.14h-5.01l-.69,1.61h6.29l-1.54,3.63c-.65,1.53-1.67,2.87-2.96,3.91h3.63c.38,0,.75-.13,1.05-.35.33-.22.6-.53.75-.9l2.68-6.29h3.06l-1.53,1.97h3.26l1.11-1.37c.26-.32.48-.67.64-1.05Z"/><path class="uuid-e593317b-9c1a-48e3-bb42-bc5a0afea3ac" d="m79.76,39.66c.91,0,1.73-.54,2.07-1.37l1.94-4.55h-14.68l-.23.55-2.29,5.37h5.54l-.55,1.25h-6.38l-.65,1.54h3.32l-5.67,5.19h3.32l4.52-4.13.37.25-1.8,4.24h3.49l2.15-5.04,1.11,4.68h3.52l-1.24-5.19h2.01c.73,0,1.39-.44,1.67-1.11l.18-.43h-6.39l.55-1.25h4.13Zm-2.05-4.81h2.46l-.57,1.25h-2.49l.6-1.25Zm-1.02,2.39h2.47l-.53,1.25h-2.5l.57-1.25Zm-4.06,1.25h-2.44l.52-1.25h2.53l-.61,1.25Zm1.03-2.39h-2.5l.57-1.25h2.49l-.55,1.25Z"/><path class="uuid-e593317b-9c1a-48e3-bb42-bc5a0afea3ac" d="m99.86,38.85h-4.24l3.56-2.56c.9-.65,1.6-1.53,2.05-2.55h-14.77l-.64,1.54h11.19l-4.65,3.56h-.42l-.16-2.14h-3.32l.16,2.14h-5.01l-.69,1.61h6.3l-1.55,3.63c-.65,1.53-1.67,2.87-2.96,3.91h3.63c.38,0,.75-.13,1.05-.35.34-.22.6-.53.75-.9l2.69-6.29h3.07l-1.53,1.97h3.27l1.53-1.89.69-1.67Z"/><path class="uuid-e593317b-9c1a-48e3-bb42-bc5a0afea3ac" d="m113.41,37.3h-3.43l-2.11,5h-7.98l-.64,1.5h5.81l-7.08,4.19h4.08l5.43-3.19,1.88,3.19h4.04l-2.29-4.19h3.24c.73,0,1.39-.44,1.67-1.11l.17-.4h-4.89l2.11-4.99Z"/><polygon class="uuid-e593317b-9c1a-48e3-bb42-bc5a0afea3ac" points="103.19 41.37 106.38 41.37 106.18 39.37 102.98 39.37 103.19 41.37"/><polygon class="uuid-e593317b-9c1a-48e3-bb42-bc5a0afea3ac" points="108.6 37.3 105.36 37.3 105.5 39.37 108.72 39.37 108.6 37.3"/><path class="uuid-e593317b-9c1a-48e3-bb42-bc5a0afea3ac" d="m113.89,33.33h-4.01l-.19.51-.29.69h-6.18l-1.17,2.74h3.07l.53-1.31h10.08l-.55,1.26h1.86c.73,0,1.38-.44,1.66-1.11l.71-1.64h-6.01l.49-1.14Z"/><path class="uuid-e593317b-9c1a-48e3-bb42-bc5a0afea3ac" d="m52.85,30.93c.97.14,1.95.21,2.94.2h4.21l.86-2.7h-4.04c-1.09.13-2.18-.14-3.08-.76-.54-.8-.64-1.82-.29-2.71l.88-2.71c.21-.53.44-1.04.71-1.54.2-.4.45-.77.74-1.11.43-.41.96-.72,1.53-.89.8-.14,1.61-.19,2.42-.14l2.22.09c1.23,0,2.32-.8,2.7-1.97l.23-.74h-5.43c-.89-.02-1.78.08-2.64.3-.77.25-1.49.62-2.13,1.11-2.09,1.46-2.84,3.6-3.69,6.24-.76,2.38-1.52,4.2-.82,5.54.54,1.01,1.54,1.69,2.68,1.82Z"/><polygon class="uuid-e593317b-9c1a-48e3-bb42-bc5a0afea3ac" points="55.33 24.98 61.23 24.9 62.09 22.18 56.46 22.02 55.33 24.98"/><path class="uuid-e593317b-9c1a-48e3-bb42-bc5a0afea3ac" d="m67.87,31.12c1.07.03,2.15-.04,3.21-.19.75-.14,1.47-.39,2.14-.74,1.17-.66,2.14-1.6,2.84-2.75.78-1.21,1.4-2.51,1.84-3.88.42-1.25.64-2.57.64-3.89.05-1.45-.84-2.77-2.22-3.26-1.16-.37-2.37-.53-3.58-.48h-6.44l-4.89,15.18h6.45Zm.8-12.47h3.21c.9-.12,1.81.16,2.48.78.32.49.46,1.07.42,1.65-.01.84-.16,1.67-.43,2.46-.25.8-.6,1.57-1.03,2.28-.36.62-.82,1.18-1.35,1.66-.94.68-2.08,1.01-3.24.93h-3.2l3.14-9.76Z"/><path class="uuid-e593317b-9c1a-48e3-bb42-bc5a0afea3ac" d="m77.65,27.91c0,.64.2,1.27.59,1.78.75,1.03,2.29,1.55,4.65,1.55,1.98.06,3.93-.49,5.6-1.57.7-.5,1.29-1.13,1.75-1.86.56-.91,1-1.89,1.32-2.91l2.87-8.95h-3.18l-2.94,9.11c-.22.79-.57,1.54-1.04,2.22-.39.46-.9.81-1.46,1.02-.64.25-1.33.38-2.02.38-.9.11-1.78-.25-2.36-.94-.2-.31-.3-.67-.29-1.03.05-.58.17-1.15.37-1.7l2.93-9.11h-3.2l-2.95,9.17c-.35.91-.56,1.87-.63,2.85Z"/><path class="uuid-e593317b-9c1a-48e3-bb42-bc5a0afea3ac" d="m93.16,29.95c.44.44.98.76,1.58.92.89.19,1.8.28,2.7.25h6.78l2.04-6.35c.35-1.08-.25-2.24-1.33-2.59-.19-.06-.39-.1-.6-.1h-4.63l-.93,2.91,4.27-.12-1.11,3.6h-2.94c-.61.02-1.22-.06-1.81-.23-.4-.1-.74-.36-.95-.72-.25-.52-.34-1.1-.25-1.66.07-.85.24-1.69.52-2.5.3-1.45,1.03-2.76,2.11-3.78.91-.66,2.01-1,3.14-.95l3.69.09c1.7,0,3.2-1.1,3.72-2.71h-6.65c-1.36-.03-2.71.19-3.99.66-1.14.46-2.16,1.18-2.97,2.09-1.24,1.42-2.17,3.08-2.71,4.89-.98,2.98-.87,5.08.32,6.3Z"/><path class="uuid-e593317b-9c1a-48e3-bb42-bc5a0afea3ac" d="m123.14,18.23c-.1-.57-.41-1.09-.86-1.45-.66-.54-2.05-.82-4.18-.82h-7.42l-4.88,15.18h3.18l1.85-5.75h2.6c.84-.08,1.68.08,2.43.45.37.26.62.66.7,1.11.07.68,0,1.37-.19,2.03-.18.73-.3,1.47-.35,2.22h3.62c.04-.78.16-1.54.37-2.29.14-.49.23-.98.29-1.48.02-.35,0-.7-.07-1.04-.06-.39-.23-.75-.49-1.04-.32-.29-.7-.52-1.11-.66.78-.23,1.5-.61,2.14-1.11,1.05-.86,1.83-2.02,2.22-3.32.23-.64.28-1.34.16-2.01Zm-3.84,2.35c-.18.73-.65,1.36-1.29,1.75-.54.26-1.13.38-1.73.34h-4.53l1.29-4h4.53c.41-.02.81.02,1.21.13.64.24.82.84.52,1.76h0Z"/><path class="uuid-e593317b-9c1a-48e3-bb42-bc5a0afea3ac" d="m136.04,16.63c-1.17-.56-2.46-.83-3.76-.78-2.06-.07-4.08.48-5.83,1.57-2.05,1.53-3.52,3.72-4.16,6.19-.49,1.32-.66,2.74-.49,4.13.12,1.04.73,1.97,1.63,2.5,1.27.69,2.7,1.03,4.14.96,1.24.01,2.48-.19,3.66-.6,1.55-.56,2.91-1.55,3.92-2.85.91-1.21,1.61-2.57,2.06-4.01.46-1.29.68-2.65.65-4.01.02-1.3-.69-2.51-1.84-3.12Zm-2.29,6.91c-.4,1.46-1.16,2.79-2.22,3.88-.9.83-2.1,1.28-3.32,1.25-1.39,0-2.22-.42-2.63-1.23-.36-1.3-.25-2.69.3-3.92.36-1.35,1.03-2.6,1.95-3.66.96-.98,2.29-1.51,3.66-1.46,1.5,0,2.38.52,2.66,1.51.21,1.22.07,2.48-.4,3.63Z"/><polygon class="uuid-e593317b-9c1a-48e3-bb42-bc5a0afea3ac" points="159.04 15.94 151.94 27.37 152.43 15.94 148.84 15.94 141.98 27.37 142.24 15.94 138.89 15.94 138.92 31.12 142.61 31.12 149.27 20.18 148.9 31.12 152.59 31.12 162.36 15.94 159.04 15.94"/><path class="uuid-44942d8d-fbde-4223-9d46-9ffbcb9a462e" d="m23.18,30.6H5.81c-3.99,0-6.78-2.83-5.48-5.54L8.74,7.48c1.71-3.58,6.38-5.98,11.63-5.98l20.52-1.5c-.4,1.53-1.05,2.99-1.92,4.31-1.2,1.51-3.71,2.33-5.93,2.33l-10.5-.49c-3.79,0-7.16,1.74-8.39,4.32l-6.53,13.62c-.43.91.5,1.85,1.83,1.85l15.79-.59-2.07,5.25Z"/><path class="uuid-a96eab08-8936-4c47-9f0f-2634ce2ead1b" d="m38.7,16.33h0c1.41-2.95,4.19-4.18,7.82-4.02l4.1.29c-7.49,4.33-13.01,11.4-15.4,19.71"/><path class="uuid-800d63e7-8582-4e15-b2b3-b3553449c74a" d="m31.18,47.2l-5.02-8.04,5.54-17.42c.31-.87-.15-1.82-1.01-2.12-.18-.06-.38-.1-.57-.09l-13.71.47,4.25-7.47,13.48.54c2.67,0,4.83,2.16,4.84,4.83,0,.49-.07.97-.22,1.44l-7.59,27.88Z"/></g></svg>