<?xml version="1.0" encoding="UTF-8"?><svg id="uuid-7ae55f22-fe12-4d9f-91e5-946dfdc984a4" xmlns="http://www.w3.org/2000/svg" viewBox="0 0 42.94 42.91"><defs><style>.uuid-b00cda4b-9d43-47b8-9716-8783883a4d4b{fill:#2ea292;stroke-width:0px;}</style></defs><g id="uuid-da41a8c9-29fb-449c-baae-30aa3b80d7dd"><path class="uuid-b00cda4b-9d43-47b8-9716-8783883a4d4b" d="m41.76,24.35c.38,0,.74,0,1.11,0,.17,1.09,0,2.3.06,3.46h-1.14c-.02-.36-.02-.74-.02-1.12h-3.46c-.05-.78,0-1.54-.03-2.32h-1.13c-.02.37-.02.73-.02,1.14h-1.16v-1.16c-.79-.06-1.63.12-2.34-.07v-1.07c-.39-.04-.77.02-1.16-.04v-1.12h-1.14v3.47h-1.17v-1.17h-1.15v-1.15h1.16c0-.42,0-.76-.02-1.16h-1.14v-1.14c-.41-.04-.79.02-1.16-.04v-1.13h1.16c0-.41,0-.78,0-1.17.37,0,.75,0,1.13,0v-1.13h-1.12c0,.39,0,.77,0,1.14-.39,0-.78,0-1.17,0,0-.77,0-1.55,0-2.33.37,0,.75,0,1.13,0v-1.13h-1.12c0,.39,0,.77,0,1.14-.41,0-.82,0-1.23,0-.63-.59-1.44-.46-2.24-.46v-.7h2.27v-1.16h-2.27v-1.16h1.12c.04-.39-.02-.77.04-1.14h1.14v1.14c.41.04.79-.02,1.18.04v1.13c.78-.01,1.54.02,2.28-.02v-1.13c-.39-.04-.77.02-1.14-.04v-1.13h2.32v-1.16h1.16v1.16h1.14v1.16h-1.11v2.32h2.3c.06,1.14-.12,2.39.07,3.48h1.09c0,.39,0,.77,0,1.17-.76,0-1.52,0-2.29,0v1.13h2.28c0-.39,0-.77,0-1.14.4,0,.78,0,1.17,0v1.16h1.16c0,.39,0,.77,0,1.17-.76,0-1.52,0-2.29,0v1.13h2.28c0-.39,0-.77,0-1.14.39,0,.77,0,1.16,0v1.15h2.32c0,.41,0,.79,0,1.18-.76,0-1.52,0-2.29,0v1.13h2.28c0-.39,0-.77,0-1.14Zm-9.29-3.5v-1.15c-.78.01-1.54-.02-2.28.02v1.13h2.28Zm.04-4.62v1.15c.38,0,.76,0,1.12-.02v-1.13h-1.12Zm-2.32-1.16v1.15c.38,0,.76,0,1.12-.02v-1.13h-1.12Z"/><path class="uuid-b00cda4b-9d43-47b8-9716-8783883a4d4b" d="m9.3,33.62h-2.3v-1.14h1.14v-1.17h1.16c0-.42,0-.76-.02-1.16h-1.14v-1.16h1.16v-1.16h1.16c0-.42,0-.76-.02-1.16h-1.14v-1.16h1.14c.04-.41-.02-.79.04-1.18h1.13c-.02-.78.02-1.54-.03-2.32h-1.14v-1.14h-2.32v-1.16c-.42,0-.76,0-1.16.02v1.14h-1.16v-3.48h1.16v1.16c.79,0,1.56,0,2.33,0,0,.37,0,.75,0,1.13h1.13v-1.12c-.39,0-.77,0-1.14,0,0-.78,0-1.55,0-2.33h3.47v-1.15h1.16v-1.16h2.33v-1.17h1.14c.05.41-.02.79.04,1.16h2.29v1.16c.8-.02,1.56.02,2.32-.02v-1.14h1.16c-.01.64.03,1.23-.02,1.84h-5.8v-.66h-2.28v2.32h.64v2.32h-1.81c-.04.39.02.77-.04,1.14h-1.14c0-1.15,0-2.3,0-3.45h-1.14c.06,1.15-.11,2.37.06,3.45h1.09c0,.38,0,.76,0,1.14.41.04.79-.02,1.16.04,0,.4,0,.77,0,1.14-.37,0-.75,0-1.13,0v2.29h1.12c0-.78,0-1.54,0-2.3.39,0,.77,0,1.18,0v-1.14h.66v2.31h-.67v2.31h-1.16v1.17h-1.17v2.28h-1.17v-1.13c-.38,0-.76,0-1.12.02v2.31h1.15v1.14h1.17v-1.14h1.14v2.32h-1.16v1.16h-1.16v-1.16h-1.16v-1.16c-.42,0-.76,0-1.16.02v1.14Z"/><path class="uuid-b00cda4b-9d43-47b8-9716-8783883a4d4b" d="m31.33,33.62h1.1c.16-.71,0-1.53.06-2.3h1.14v1.14h5.81v1.13c-.37.06-.75,0-1.14.04v1.13h1.12v1.16h-1.14v3.49h-1.13c-.06-.37,0-.75-.04-1.14h-1.12c-.06.35,0,.73-.04,1.12h-1.12c-.05-.35,0-.73-.03-1.12h-1.13c-.02.37-.02.73-.02,1.14h-1.16v-1.16c-.42,0-.76,0-1.16.02v1.14c-.39,0-.77,0-1.17,0,0-.39,0-.77,0-1.14h-4.61v3.43h1.15v-2.28c1.17,0,2.32,0,3.46,0,0,.37,0,.75,0,1.15-.8,0-1.56,0-2.3,0v1.16c1.15-.06,2.37.11,3.46-.06v-2.26h1.16v1.15h2.3v1.17h1.17v1.1c-.72.15-1.53,0-2.3.05v-1.13h-1.16v1.11h-9.27v-1.13h1.13v-1.15h-1.12c-.02-.41-.03-.75-.02-1.16h1.13v-1.16h-1.1v-1.16h4.6v-1.16h1.15v1.12c.43.02.74.03,1.18.02v-2.32c.39,0,.77,0,1.17,0,0,.76,0,1.52,0,2.29h1.13v-2.28c-.39,0-.77,0-1.14,0,0-.4,0-.78,0-1.17Zm5.78,3.47v-3.47c-1.15.04-2.36-.07-3.44.04v3.43h3.44Z"/><path class="uuid-b00cda4b-9d43-47b8-9716-8783883a4d4b" d="m22.05,1.16c1.16,0,2.31,0,3.48,0v1.14h1.14c.05-.35,0-.73.04-1.14h2.3v1.13c-.37.06-.75,0-1.14.04v1.12c.35.05.73,0,1.14.04v1.14c-1.16,0-2.32,0-3.49,0,0-.37,0-.75,0-1.13h-2.29v1.12c.78,0,1.54,0,2.3,0,0,.39,0,.77,0,1.18h-1.15v2.3h1.15v1.16h1.16v1.16h-2.33v1.17h-2.31v2.31h-2.32v-1.16h1.16v-3.48h1.14c.05.41-.02.79.04,1.14h1.12v-4.63h-1.16v-2.31c-.78.02-1.54-.02-2.3.02v2.3h-1.16v1.16h-1.16v1.16h-1.16v-2.32h-1.14v-1.13c1.08-.1,2.29,0,3.44-.04v-2.29c.39-.07.77,0,1.16-.05v-1.13c-.36-.02-.74-.02-1.12-.02V.02h3.46c0,.37,0,.75,0,1.14-.37,0-.75,0-1.13,0v1.13h1.12c0-.39,0-.77,0-1.14Z"/><path class="uuid-b00cda4b-9d43-47b8-9716-8783883a4d4b" d="m41.76,10.43v1.16h1.14v3.48h-1.14v-1.17h-1.17v-1.15c-.39,0-.77,0-1.16,0,0-.37,0-.75,0-1.13h-1.13v1.12c.39,0,.77,0,1.14,0,0,.77,0,1.54,0,2.33h2.32v1.16h1.14v3.47h-1.12v-1.14h-1.18v-2.3h-1.17v1.14h-1.15v-3.48c-.8.02-1.56-.02-2.32.02v1.14h-1.16v-4.63h1.15v-1.16h2.32v1.15h3.49Zm-4.65,1.18h-1.15c0,.38,0,.76.02,1.12h1.13v-1.12Z"/><path class="uuid-b00cda4b-9d43-47b8-9716-8783883a4d4b" d="m23.2,32.45c0,.37,0,.74,0,1.14-.37.06-.75,0-1.14.04v1.12h-1.16v-3.42h-1.16v1.12h-1.16v1.15h-1.16v-2.27h-1.16v1.11h-1.16v-1.14h-1.16v-1.18h3.46v-1.16h-1.16v-1.13c-.39-.04-.77.02-1.14-.04v-1.13c1.08-.12,1.41.19,2.33.52v.64h1.15v2.3h3.47c.03-.78-.02-1.54.03-2.3h1.14v2.31h2.31v1.16h1.14v1.17c-1.15,0-2.3,0-3.46,0,0-.37,0-.75,0-1.13h-1.13v1.12c.39,0,.77,0,1.14,0Z"/><path class="uuid-b00cda4b-9d43-47b8-9716-8783883a4d4b" d="m42.91,0v8.08h-8.08V0h8.08Zm-6.93,1.15v5.77c1.84.07,5.3.05,5.76-.04V1.16h-5.76Z"/><path class="uuid-b00cda4b-9d43-47b8-9716-8783883a4d4b" d="m8.13,34.79v8.08H.08c-.08-.47-.11-6.4-.03-8.08h8.09Zm-6.93,1.15v5.77c1.73.07,5.3.05,5.76-.04v-5.73H1.2Z"/><path class="uuid-b00cda4b-9d43-47b8-9716-8783883a4d4b" d="m.04,0h8.08v8.05c-.47.09-6.07.12-8.08.04V0Zm6.92,6.94V1.17c-1.76-.07-5.3-.05-5.76.04v5.73h5.76Z"/><path class="uuid-b00cda4b-9d43-47b8-9716-8783883a4d4b" d="m8.14,31.3h-2.3c-.04.76,0,1.52-.02,2.3h-1.12c-.1-.7,0-1.52-.04-2.28h-2.3v-1.16h-1.16v3.44H.05v-5.78h2.29v1.16c.42,0,.76,0,1.16-.02v-1.14h1.14c.04.41-.02.79.04,1.14h1.12c.05-.39-.02-.77.04-1.14h2.29v1.16h-1.16c0,.42,0,.76.02,1.16h1.14v1.16Z"/><path class="uuid-b00cda4b-9d43-47b8-9716-8783883a4d4b" d="m35.97,30.14h-4.64v3.48h-1.16v1.16h-1.16v-2.32h1.16c.06-1.18-.13-2.41.07-3.5h4.54v-1.16h-2.28c-.04-.39.02-.77-.04-1.14h-1.14v-1.16h2.34v1.14h1.13c.04-.39-.02-.77.04-1.14h1.13v1.13c.37.06.75,0,1.14.04v2.28c-.35.06-.73,0-1.14.04v1.14Z"/><path class="uuid-b00cda4b-9d43-47b8-9716-8783883a4d4b" d="m10.46,41.73h-1.1c-.18-2.65,0-5.43-.06-8.12h1.16v1.16h1.16v1.16c.42,0,.76,0,1.16-.02v-1.14h1.16v3.48h-1.14c-.06.75,0,1.51-.03,2.29h-1.14v-1.11h-1.17v2.29Zm0-3.5h1.15c0-.38,0-.76-.02-1.12h-1.13v1.12Z"/><path class="uuid-b00cda4b-9d43-47b8-9716-8783883a4d4b" d="m31.33,2.31v1.15c.76.02,1.52,0,2.3.01v6.95h-1.14v-3.46h-1.16v1.14h-1.16v-1.16c-.42,0-.76,0-1.16.02v1.14h-1.16v-2.3c.41-.04.79.02,1.16-.04v-1.14c.39,0,.77,0,1.17,0,0,.37,0,.75,0,1.13h2.29v-1.12c-.78,0-1.54,0-2.3,0,0-.77,0-1.53,0-2.33h1.16Z"/><path class="uuid-b00cda4b-9d43-47b8-9716-8783883a4d4b" d="m1.18,12.74v-1.16h1.16c0-.42,0-.76-.02-1.16h-1.14v-1.1c.52-.09,5.78-.12,8.12-.04v1.12c-.76.05-1.52,0-2.32.03v1.15h-1.14c-.05-.41.02-.79-.04-1.14h-2.28v2.3h3.47v1.16h-2.3c-.04.41.02.79-.04,1.16h-1.14v-1.16h-1.16v-1.16h-1.16Z"/><path class="uuid-b00cda4b-9d43-47b8-9716-8783883a4d4b" d="m2.34,26.66h-1.1c-.18-1.08,0-2.3-.06-3.47h1.16v-2.33h1.16v2.29h1.17v-1.1h1.13v4.61h-2.31v-1.16c-.42,0-.76,0-1.16.02v1.14Z"/><path class="uuid-b00cda4b-9d43-47b8-9716-8783883a4d4b" d="m19.73,38.25v1.14h-1.14v2.33h1.13v1.15h-4.61v-1.12h2.23c.21-1.09,0-2.32.08-3.48h-1.15v1.13h-1.17v1.16h-1.17v-2.31h1.16c0-.42,0-.76.02-1.16h3.46v1.16h1.16Z"/><path class="uuid-b00cda4b-9d43-47b8-9716-8783883a4d4b" d="m1.18,17.38v-1.16H.04v-3.48h1.14v1.16h1.16v1.16h1.16v1.16h2.32v1.16h-1.14c-.04.41.02.79-.04,1.16h-1.13v-1.16H1.18Z"/><path class="uuid-b00cda4b-9d43-47b8-9716-8783883a4d4b" d="m10.46,1.15h1.14c.05-.37,0-.75.03-1.14h3.45v1.13h2.31v2.32h-1.13v-1.14h-2.3v-1.14c-.43-.02-.74-.03-1.18-.02v2.32h-1.16v-1.13c-.37-.06-.75,0-1.16-.04v-1.14Z"/><path class="uuid-b00cda4b-9d43-47b8-9716-8783883a4d4b" d="m12.78,11.59v-2.32h-1.16v-2.3h1.14v1.14h1.17v2.32h2.32v2.32h-1.14c-.06-.37,0-.75-.04-1.16h-2.3Z"/><path class="uuid-b00cda4b-9d43-47b8-9716-8783883a4d4b" d="m16.26,34.78h3.47v1.14h1.13c.07.39,0,.77.04,1.16h1.13c.02.42.02.75.02,1.18h-2.32v-1.16h-1.16v-1.16c-.79-.05-1.61.1-2.32-.06v-1.1Z"/><path class="uuid-b00cda4b-9d43-47b8-9716-8783883a4d4b" d="m29.01,32.46h-1.14c-.05-.75,0-1.51-.03-2.3h-1.15v-1.17h1.16c0-.42,0-.76-.02-1.16h-1.14v-1.15h2.32v5.79Z"/><path class="uuid-b00cda4b-9d43-47b8-9716-8783883a4d4b" d="m37.15,41.72h4.61v-2.28h1.15v3.43h-5.76v-1.15Z"/><path class="uuid-b00cda4b-9d43-47b8-9716-8783883a4d4b" d="m6.98,11.59h2.32v4.64h-1.16v-1.16h-1.16v-1.16h1.16c0-.42,0-.76-.02-1.16h-1.14v-1.16Z"/><path class="uuid-b00cda4b-9d43-47b8-9716-8783883a4d4b" d="m39.45,32.46v-1.13c-.37-.06-.75,0-1.14-.04v-1.13c.36-.02.74-.02,1.12-.02v-1.13h2.34v1.13h-1.16c0,.42,0,.76.02,1.16h1.14v1.16h-2.32Z"/><path class="uuid-b00cda4b-9d43-47b8-9716-8783883a4d4b" d="m2.34,20.86h-1.13c-.06-.37,0-.75-.04-1.14H.05v-2.34h1.13v1.16h2.32v1.16h-1.16v1.16Z"/><path class="uuid-b00cda4b-9d43-47b8-9716-8783883a4d4b" d="m38.31,39.41h1.13c.02-.77.01-1.52.01-2.3h2.29v1.13h-1.13v2.32h-2.3v-1.15Z"/><path class="uuid-b00cda4b-9d43-47b8-9716-8783883a4d4b" d="m26.69,28.98h-2.29c-.06-.37,0-.75-.04-1.16h-1.14v-.67h2.33v.67h1.15v1.16Z"/><path class="uuid-b00cda4b-9d43-47b8-9716-8783883a4d4b" d="m12.76,11.6v2.29h-2.28v-1.13h1.12v-1.16h1.16Z"/><path class="uuid-b00cda4b-9d43-47b8-9716-8783883a4d4b" d="m41.78,33.63v1.14h1.12v1.15h-2.27v-2.29h1.15Z"/><path class="uuid-b00cda4b-9d43-47b8-9716-8783883a4d4b" d="m10.48,41.75h3.45v1.12h-3.45v-1.12Z"/><path class="uuid-b00cda4b-9d43-47b8-9716-8783883a4d4b" d="m10.44,4.65v3.45h-1.12v-3.45h1.12Z"/><path class="uuid-b00cda4b-9d43-47b8-9716-8783883a4d4b" d="m12.78,3.47h1.15v2.29h-2.31v-1.13h1.16v-1.16Z"/><path class="uuid-b00cda4b-9d43-47b8-9716-8783883a4d4b" d="m26.67,35.93h-1.12c-.05-.76,0-1.52-.03-2.3h2.31v1.14h-1.17v1.16Z"/><path class="uuid-b00cda4b-9d43-47b8-9716-8783883a4d4b" d="m42.9,22.01h-2.28v-1.13c.74-.04,1.5,0,2.28-.02v1.15Z"/><path class="uuid-b00cda4b-9d43-47b8-9716-8783883a4d4b" d="m13.94,33.62h2.32v1.16h-2.32v-1.16Z"/><path class="uuid-b00cda4b-9d43-47b8-9716-8783883a4d4b" d="m20.9,42.87v-1.12h1.13c.02.36.02.74.02,1.12h-1.15Z"/><path class="uuid-b00cda4b-9d43-47b8-9716-8783883a4d4b" d="m40.61,18.54v1.16h-1.16v-1.16h1.16Z"/><path class="uuid-b00cda4b-9d43-47b8-9716-8783883a4d4b" d="m39.45,19.7v1.16h-1.16v-1.16h1.16Z"/><path class="uuid-b00cda4b-9d43-47b8-9716-8783883a4d4b" d="m10.44,1.13h-1.13V.01h1.13v1.12Z"/><path class="uuid-b00cda4b-9d43-47b8-9716-8783883a4d4b" d="m37.13,41.73h-1.16v-1.14c.4-.02.74-.02,1.16-.02v1.16Z"/><path class="uuid-b00cda4b-9d43-47b8-9716-8783883a4d4b" d="m29.03,1.13V0h1.12v1.13h-1.12Z"/><path class="uuid-b00cda4b-9d43-47b8-9716-8783883a4d4b" d="m2.34,27.82v-1.16h1.16v1.16h-1.16Z"/><path class="uuid-b00cda4b-9d43-47b8-9716-8783883a4d4b" d="m1.18,11.59H.04c-.02-.4-.02-.74-.02-1.16h1.16v1.16Z"/><path class="uuid-b00cda4b-9d43-47b8-9716-8783883a4d4b" d="m41.78,10.41v-1.13h1.12v1.13h-1.12Z"/><path class="uuid-b00cda4b-9d43-47b8-9716-8783883a4d4b" d="m31.35,2.29v-1.13h1.12v1.13h-1.12Z"/><path class="uuid-b00cda4b-9d43-47b8-9716-8783883a4d4b" d="m11.6,9.28v1.13h-1.12v-1.13h1.12Z"/><path class="uuid-b00cda4b-9d43-47b8-9716-8783883a4d4b" d="m35.98,30.15h1.13v1.12h-1.13v-1.12Z"/><path class="uuid-b00cda4b-9d43-47b8-9716-8783883a4d4b" d="m41.76,30.14h1.14c.02.4.02.74.02,1.16h-1.16v-1.16Z"/><path class="uuid-b00cda4b-9d43-47b8-9716-8783883a4d4b" d="m3.49,32.48v1.12h-1.13c-.02-.36-.02-.74-.02-1.12h1.15Z"/><path class="uuid-b00cda4b-9d43-47b8-9716-8783883a4d4b" d="m41.76,33.62v-1.16h1.14c.02.4.02.74.02,1.16h-1.16Z"/><path class="uuid-b00cda4b-9d43-47b8-9716-8783883a4d4b" d="m15.1,8.11h1.16v1.16h-1.16v-1.16Z"/><path class="uuid-b00cda4b-9d43-47b8-9716-8783883a4d4b" d="m13.94,8.11v-1.14c.4-.02.74-.02,1.16-.02v1.16h-1.16Z"/><path class="uuid-b00cda4b-9d43-47b8-9716-8783883a4d4b" d="m11.62,4.63h-1.16v-1.16h1.16v1.16Z"/><path class="uuid-b00cda4b-9d43-47b8-9716-8783883a4d4b" d="m29.01,11.59h-2.32v-1.16h2.32v1.16Z"/><path class="uuid-b00cda4b-9d43-47b8-9716-8783883a4d4b" d="m29.01,22.02v1.16h-1.14c-.02-.4-.02-.74-.02-1.16h1.16Z"/><path class="uuid-b00cda4b-9d43-47b8-9716-8783883a4d4b" d="m31.31,26.68v1.13h-1.12v-1.13h1.12Z"/><path class="uuid-b00cda4b-9d43-47b8-9716-8783883a4d4b" d="m18.59,27.8v-.67h1.12v.67h-1.12Z"/><path class="uuid-b00cda4b-9d43-47b8-9716-8783883a4d4b" d="m27.83,25.49h-.66v-1.12h.66v1.12Z"/><path class="uuid-b00cda4b-9d43-47b8-9716-8783883a4d4b" d="m27.85,18.54v1.16h-.68c-.02-.4-.02-.74-.02-1.16h.7Z"/><path class="uuid-b00cda4b-9d43-47b8-9716-8783883a4d4b" d="m30.17,9.27h1.16v1.16h-1.16v-1.16Z"/><path class="uuid-b00cda4b-9d43-47b8-9716-8783883a4d4b" d="m29.01,8.11h1.16v1.16h-1.16v-1.16Z"/><path class="uuid-b00cda4b-9d43-47b8-9716-8783883a4d4b" d="m26.69,9.27v-1.16h1.16v1.16h-1.16Z"/><path class="uuid-b00cda4b-9d43-47b8-9716-8783883a4d4b" d="m35.97,15.06h1.1c.16.71,0,1.53.06,2.32h1.16v2.32h-1.16v-1.16h-1.16v-3.48Z"/><path class="uuid-b00cda4b-9d43-47b8-9716-8783883a4d4b" d="m3.5,20.86v-1.16h1.14c.02.4.02.74.02,1.16h-1.16Z"/><path class="uuid-b00cda4b-9d43-47b8-9716-8783883a4d4b" d="m6.98,20.86h1.16v1.14c-.4.02-.74.02-1.16.02v-1.16Z"/><path class="uuid-b00cda4b-9d43-47b8-9716-8783883a4d4b" d="m8.12,24.32h-1.13v-1.12h1.13v1.12Z"/><path class="uuid-b00cda4b-9d43-47b8-9716-8783883a4d4b" d="m9.3,25.5h-1.16v-1.16h1.16v1.16Z"/><path class="uuid-b00cda4b-9d43-47b8-9716-8783883a4d4b" d="m8.14,25.5v1.16h-1.14c-.02-.4-.02-.74-.02-1.16h1.16Z"/><path class="uuid-b00cda4b-9d43-47b8-9716-8783883a4d4b" d="m9.3,27.82h-1.16v-1.16h1.16v1.16Z"/><path class="uuid-b00cda4b-9d43-47b8-9716-8783883a4d4b" d="m17.42,10.43h2.32v2.32h-1.15v-1.15h-1.17v-1.17Z"/><path class="uuid-b00cda4b-9d43-47b8-9716-8783883a4d4b" d="m16.26,10.43v-1.16h1.16v1.16h-1.16Z"/><path class="uuid-b00cda4b-9d43-47b8-9716-8783883a4d4b" d="m6.98,16.22h1.16v1.16h-1.16v-1.16Z"/><path class="uuid-b00cda4b-9d43-47b8-9716-8783883a4d4b" d="m6.98,15.06v1.16h-1.16v-1.16h1.16Z"/><path class="uuid-b00cda4b-9d43-47b8-9716-8783883a4d4b" d="m34.81,34.78h1.14c.02.38.02.74.02,1.14h-1.15c-.01-.37,0-.75,0-1.14Z"/><path class="uuid-b00cda4b-9d43-47b8-9716-8783883a4d4b" d="m18.57,6.95h1.16v1.16h1.16v1.16h-3.48v-1.16h1.16v-1.16Z"/><path class="uuid-b00cda4b-9d43-47b8-9716-8783883a4d4b" d="m20.89,6.95h1.14c.02.4.02.74.02,1.16h-1.16v-1.16Z"/><path class="uuid-b00cda4b-9d43-47b8-9716-8783883a4d4b" d="m19.73,6.95v-1.16h1.16v1.16h-1.16Z"/><path class="uuid-b00cda4b-9d43-47b8-9716-8783883a4d4b" d="m26.69,8.11h-1.16v-1.14c.4-.02.74-.02,1.16-.02v1.16Z"/><path class="uuid-b00cda4b-9d43-47b8-9716-8783883a4d4b" d="m37.15,2.32h3.44v3.43c-1.09.11-2.29,0-3.44.04v-3.47Z"/><path class="uuid-b00cda4b-9d43-47b8-9716-8783883a4d4b" d="m2.36,37.1h3.44v3.43c-1.09.1-2.29,0-3.44.04v-3.47Z"/><path class="uuid-b00cda4b-9d43-47b8-9716-8783883a4d4b" d="m2.36,2.32h3.44v3.43c-1.09.1-2.29,0-3.44.04v-3.47Z"/><path class="uuid-b00cda4b-9d43-47b8-9716-8783883a4d4b" d="m26.35,17.72c0-.76-.46-1.22-1.21-1.22h-7.41c-.75,0-1.21.46-1.21,1.22v7.4c0,.74.46,1.21,1.2,1.21h3.68c1.25,0,2.49-.02,3.72.01.66.02,1.25-.48,1.24-1.24-.02-2.46-.01-4.92-.01-7.38Zm-5.2,5.08h-2.42c-.55,0-.93-.39-.76-.77l1.17-2.45c.24-.49.88-.83,1.61-.83l2.84-.21s-.1.4-.26.6c-.16.21-.51.33-.82.33l-1.47-.08c-.52,0-.99.24-1.17.6l-.89,1.92c-.05.13.08.26.25.26l2.2-.08-.28.71Zm1.66.25l-.57,2.07-.7-1.12.78-2.43c.04-.11-.03-.25-.15-.29-.03-.01-.04-.01-.07-.01l-1.9.05.58-1.03,1.87.07c.31,0,.55.19.65.47.19-.41.58-.59,1.08-.56l.57.05s-1.61.82-2.14,2.73Z"/></g></svg>