<?xml version="1.0" encoding="utf-8"?>
<!-- Generator: Adobe Illustrator 28.0.0, SVG Export Plug-In . SVG Version: 6.00 Build 0)  -->
<svg version="1.1" id="图层_1" xmlns="http://www.w3.org/2000/svg" xmlns:xlink="http://www.w3.org/1999/xlink" x="0px" y="0px"
	 viewBox="0 0 48 48" style="enable-background:new 0 0 48 48;" xml:space="preserve">
<style type="text/css">
	.st0{fill:url(#SVGID_1_);}
	.st1{fill:url(#SVGID_00000024697067409957876300000015671657409320538019_);}
	.st2{fill:url(#SVGID_00000059301142934136137180000017736971958979136439_);}
</style>
<g>
	
		<linearGradient id="SVGID_1_" gradientUnits="userSpaceOnUse" x1="4.1489" y1="22.966" x2="33.0134" y2="42.0799" gradientTransform="matrix(1 0 0 -1 0 49.23)">
		<stop  offset="0" style="stop-color:#006A63"/>
		<stop  offset="0.69" style="stop-color:#00B6A1"/>
		<stop  offset="1" style="stop-color:#85E6D5"/>
	</linearGradient>
	<path class="st0" d="M22,30.6H5.5c-3.8,0-6.4-2.7-5.2-5.3l8-16.7c1.6-3.4,6-5.7,11-5.7l19.4-1.4c0,0-0.7,2.7-1.8,4.1
		s-3.5,2.2-5.6,2.2l-10-0.5c-3.6,0-6.8,1.6-8,4.1L7.2,24.5c-0.4,0.9,0.5,1.8,1.7,1.8l15-0.6L22,30.6z"/>
	
		<linearGradient id="SVGID_00000022549845981117191580000004895666694030270649_" gradientUnits="userSpaceOnUse" x1="31.7613" y1="20.6978" x2="40.7134" y2="31.6942" gradientTransform="matrix(1 0 0 -1 0 49.23)">
		<stop  offset="0" style="stop-color:#006A63"/>
		<stop  offset="0.69" style="stop-color:#00B6A1"/>
		<stop  offset="1" style="stop-color:#85E6D5"/>
	</linearGradient>
	<path style="fill:url(#SVGID_00000022549845981117191580000004895666694030270649_);" d="M36.7,17.1L36.7,17.1c1.3-2.8,4-4,7.4-3.8
		l3.9,0.3c0,0-11,5.6-14.6,18.7"/>
	
		<linearGradient id="SVGID_00000155148729173299265460000016477100818708967313_" gradientUnits="userSpaceOnUse" x1="18.3168" y1="9.602" x2="33.9409" y2="33.8068" gradientTransform="matrix(1 0 0 -1 0 49.23)">
		<stop  offset="0" style="stop-color:#006A63"/>
		<stop  offset="0.69" style="stop-color:#00B6A1"/>
		<stop  offset="1" style="stop-color:#85E6D5"/>
	</linearGradient>
	<path style="fill:url(#SVGID_00000155148729173299265460000016477100818708967313_);" d="M29.5,46.4l-4.8-7.6L30,22.2
		c0.3-0.8-0.2-1.7-1-2c-0.2-0.1-0.3-0.1-0.5-0.1l-13,0.4l4-7.1l12.8,0.5c2.5,0,4.6,2,4.6,4.6c0,0.5-0.1,0.9-0.2,1.4L29.5,46.4z"/>
</g>
</svg>
