<?xml version="1.0" encoding="utf-8"?>
<!-- Generator: Adobe Illustrator 28.0.0, SVG Export Plug-In . SVG Version: 6.00 Build 0)  -->
<svg version="1.1" id="layer1" xmlns="http://www.w3.org/2000/svg" xmlns:xlink="http://www.w3.org/1999/xlink" x="0px" y="0px"
	 viewBox="0 0 161.9 48" style="enable-background:new 0 0 161.9 48;" xml:space="preserve">
<style type="text/css">
	.st0{fill:#005C6A;}
	.st1{fill:url(#SVGID_1_);}
	.st2{fill:url(#SVGID_00000155867244364240921730000000882565627570788491_);}
	.st3{fill:url(#SVGID_00000003076547484022893100000010851342040098031232_);}
</style>
<g>
	<path class="st0" d="M63.7,39.9l0.5-1.1h-4.3l3.6-2.6c0.9-0.7,1.6-1.6,2.1-2.6H50.8l-0.7,1.5h11.2l-4.7,3.6h-0.1h-0.3l-0.2-2.1
		h-3.3l0.2,2.1h-5l-0.7,1.6h6.3L52,44c-0.7,1.5-1.7,2.9-3,3.9h3.6c0.4,0,0.7-0.1,1.1-0.4c0.3-0.2,0.6-0.5,0.8-0.9l2.7-6.3h3.1
		l-1.5,2H62l1.1-1.4C63.3,40.6,63.6,40.3,63.7,39.9z"/>
	<path class="st0" d="M79.8,39.7c0.9,0,1.7-0.5,2.1-1.4l1.9-4.6H69.1l-0.2,0.6l-2.3,5.4h5.5l-0.6,1.3h-6.4l-0.7,1.5h3.3l-5.7,5.2
		h3.3l4.5-4.1l0.4,0.3L68.6,48h3.5l2.2-5l1.1,4.7h3.5l-1.2-5.2h2c0.7,0,1.4-0.4,1.7-1.1l0.2-0.4h-6.4l0.6-1.3L79.8,39.7z M77.7,34.8
		h2.5l-0.6,1.3h-2.5L77.7,34.8z M76.7,37.2h2.5l-0.5,1.3h-2.5L76.7,37.2z M72.7,38.5h-2.4l0.5-1.3h2.5L72.7,38.5z M73.7,36.1h-2.5
		l0.6-1.3h2.5L73.7,36.1z"/>
	<path class="st0" d="M99.9,38.8h-4.2l3.6-2.6c0.9-0.7,1.6-1.5,2.1-2.5H86.5l-0.6,1.5H97l-4.7,3.6h-0.1h-0.3l-0.2-2.1h-3.3l0.2,2.1
		h-5l-0.7,1.6h6.3l-1.6,3.6c-0.6,1.5-1.7,2.9-3,3.9h3.6c0.4,0,0.7-0.1,1.1-0.4c0.3-0.2,0.6-0.5,0.8-0.9l2.7-6.3h3.1l-1.5,2h3.3
		l1.5-1.9L99.9,38.8z"/>
	<path class="st0" d="M113.4,37.3H110l-2.1,5h-8l-0.6,1.5h5.8L98,48h4.1l5.4-3.2l1.9,3.2h4l-2.3-4.2h3.2c0.7,0,1.4-0.4,1.7-1.1
		l0.2-0.4h-4.9L113.4,37.3z"/>
	<polygon class="st0" points="103.2,41.4 106.4,41.4 106.2,39.4 103,39.4 	"/>
	<polygon class="st0" points="108.6,37.3 105.4,37.3 105.5,39.4 108.7,39.4 	"/>
	<path class="st0" d="M113.9,33.3h-4l-0.2,0.5l-0.3,0.7h-6.2l-1.2,2.7h3.1l0.5-1.3h10.1l-0.6,1.3h1.9c0.7,0,1.4-0.4,1.7-1.1l0.7-1.6
		h-6L113.9,33.3z"/>
	<path class="st0" d="M52.9,30.9c1,0.1,2,0.2,2.9,0.2H60l0.9-2.7h-4c-1.1,0.1-2.2-0.1-3.1-0.8c-0.5-0.8-0.6-1.8-0.3-2.7l0.9-2.7
		c0.2-0.5,0.4-1,0.7-1.5c0.2-0.4,0.4-0.8,0.7-1.1c0.4-0.4,1-0.7,1.5-0.9c0.8-0.1,1.6-0.2,2.4-0.1l2.2,0.1c1.2,0,2.3-0.8,2.7-2
		l0.2-0.7h-5.4c-0.9,0-1.8,0.1-2.6,0.3c-0.8,0.2-1.5,0.6-2.1,1.1c-2.1,1.5-2.8,3.6-3.7,6.2c-0.8,2.4-1.5,4.2-0.8,5.5
		C50.7,30.1,51.7,30.8,52.9,30.9z"/>
	<polygon class="st0" points="55.3,25 61.2,24.9 62.1,22.2 56.5,22 	"/>
	<path class="st0" d="M67.9,31.1c1.1,0,2.1,0,3.2-0.2c0.7-0.1,1.5-0.4,2.1-0.7c1.2-0.7,2.1-1.6,2.8-2.7c0.8-1.2,1.4-2.5,1.8-3.9
		c0.4-1.3,0.6-2.6,0.6-3.9c0.1-1.5-0.8-2.8-2.2-3.3c-1.2-0.4-2.4-0.5-3.6-0.5h-6.4l-4.9,15.2L67.9,31.1z M68.7,18.7h3.2
		c0.9-0.1,1.8,0.2,2.5,0.8c0.3,0.5,0.5,1.1,0.4,1.7c0,0.8-0.2,1.7-0.4,2.5c-0.3,0.8-0.6,1.6-1,2.3C73,26.4,72.5,27,72,27.5
		c-0.9,0.7-2.1,1-3.2,0.9h-3.2L68.7,18.7z"/>
	<path class="st0" d="M77.7,27.9c0,0.6,0.2,1.3,0.6,1.8c0.8,1,2.3,1.6,4.7,1.6c2,0.1,3.9-0.5,5.6-1.6c0.7-0.5,1.3-1.1,1.8-1.9
		c0.6-0.9,1-1.9,1.3-2.9l2.9-9h-3.2L88.3,25c-0.2,0.8-0.6,1.5-1,2.2c-0.4,0.5-0.9,0.8-1.5,1c-0.6,0.3-1.3,0.4-2,0.4
		c-0.9,0.1-1.8-0.2-2.4-0.9c-0.2-0.3-0.3-0.7-0.3-1c0-0.6,0.2-1.1,0.4-1.7l2.9-9.1h-3.2l-2.9,9.2C78,26,77.7,26.9,77.7,27.9z"/>
	<path class="st0" d="M93.2,29.9c0.4,0.4,1,0.8,1.6,0.9c0.9,0.2,1.8,0.3,2.7,0.3h6.8l2-6.4c0.3-1.1-0.2-2.2-1.3-2.6
		c-0.2-0.1-0.4-0.1-0.6-0.1h-4.6L98.8,25l4.3-0.1l-1.1,3.6H99c-0.6,0-1.2-0.1-1.8-0.2c-0.4-0.1-0.7-0.4-1-0.7
		C96,27,95.9,26.4,96,25.9c0.1-0.9,0.2-1.7,0.5-2.5c0.3-1.4,1-2.8,2.1-3.8c0.9-0.7,2-1,3.1-1l3.7,0.1c1.7,0,3.2-1.1,3.7-2.7h-6.7
		c-1.4,0-2.7,0.2-4,0.7c-1.1,0.5-2.2,1.2-3,2.1c-1.2,1.4-2.2,3.1-2.7,4.9C91.9,26.6,92,28.7,93.2,29.9z"/>
	<path class="st0" d="M123.2,18.2c-0.1-0.6-0.4-1.1-0.9-1.5c-0.7-0.5-2.1-0.8-4.2-0.8h-7.4l-4.9,15.2h3.2l1.9-5.8h2.6
		c0.8-0.1,1.7,0.1,2.4,0.5c0.4,0.3,0.6,0.7,0.7,1.1c0.1,0.7,0,1.4-0.2,2c-0.2,0.7-0.3,1.5-0.4,2.2h3.6c0-0.8,0.2-1.5,0.4-2.3
		c0.1-0.5,0.2-1,0.3-1.5c0-0.3,0-0.7-0.1-1c-0.1-0.4-0.2-0.7-0.5-1c-0.3-0.3-0.7-0.5-1.1-0.7c0.8-0.2,1.5-0.6,2.1-1.1
		c1.1-0.9,1.8-2,2.2-3.3C123.2,19.6,123.3,18.9,123.2,18.2z M119.3,20.6c-0.2,0.7-0.6,1.4-1.3,1.8c-0.5,0.3-1.1,0.4-1.7,0.3h-4.5
		l1.3-4h4.5c0.4,0,0.8,0,1.2,0.1C119.4,19,119.6,19.6,119.3,20.6L119.3,20.6z"/>
	<path class="st0" d="M136.1,16.6c-1.2-0.6-2.5-0.8-3.8-0.8c-2.1-0.1-4.1,0.5-5.8,1.6c-2.1,1.5-3.5,3.7-4.2,6.2
		c-0.5,1.3-0.7,2.7-0.5,4.1c0.1,1,0.7,2,1.6,2.5c1.3,0.7,2.7,1,4.1,1c1.2,0,2.5-0.2,3.7-0.6c1.5-0.6,2.9-1.5,3.9-2.8
		c0.9-1.2,1.6-2.6,2.1-4c0.5-1.3,0.7-2.6,0.7-4C137.9,18.4,137.2,17.2,136.1,16.6z M133.8,23.5c-0.4,1.5-1.2,2.8-2.2,3.9
		c-0.9,0.8-2.1,1.3-3.3,1.3c-1.4,0-2.2-0.4-2.6-1.2c-0.4-1.3-0.3-2.7,0.3-3.9c0.4-1.4,1-2.6,2-3.7c1-1,2.3-1.5,3.7-1.5
		c1.5,0,2.4,0.5,2.7,1.5C134.4,21.1,134.3,22.4,133.8,23.5z"/>
	<polygon class="st0" points="159.1,15.9 152,27.4 152.5,15.9 148.9,15.9 142,27.4 142.3,15.9 138.9,15.9 139,31.1 142.7,31.1 
		149.3,20.2 148.9,31.1 152.6,31.1 162.4,15.9 	"/>
	
		<linearGradient id="SVGID_1_" gradientUnits="userSpaceOnUse" x1="4.3778" y1="23.2522" x2="34.8459" y2="43.4239" gradientTransform="matrix(1 0 0 -1 0 49.23)">
		<stop  offset="0" style="stop-color:#006A63"/>
		<stop  offset="0.69" style="stop-color:#00B6A1"/>
		<stop  offset="1" style="stop-color:#85E6D5"/>
	</linearGradient>
	<path class="st1" d="M23.2,30.6H5.8c-4,0-6.8-2.8-5.5-5.5L8.7,7.5c1.7-3.6,6.4-6,11.6-6L40.9,0c-0.4,1.5-1,3-1.9,4.3
		c-1.2,1.5-3.7,2.3-5.9,2.3L22.6,6.1c-3.8,0-7.2,1.7-8.4,4.3L7.6,24.1c-0.4,0.9,0.5,1.9,1.8,1.9l15.8-0.6L23.2,30.6z"/>
	
		<linearGradient id="SVGID_00000097473029489724609150000013286012914637404033_" gradientUnits="userSpaceOnUse" x1="33.5331" y1="20.8534" x2="42.9761" y2="32.4577" gradientTransform="matrix(1 0 0 -1 0 49.23)">
		<stop  offset="0" style="stop-color:#006A63"/>
		<stop  offset="0.69" style="stop-color:#00B6A1"/>
		<stop  offset="1" style="stop-color:#85E6D5"/>
	</linearGradient>
	<path style="fill:url(#SVGID_00000097473029489724609150000013286012914637404033_);" d="M38.7,16.3L38.7,16.3
		c1.4-2.9,4.2-4.2,7.8-4l4.1,0.3c-7.5,4.3-13,11.4-15.4,19.7"/>
	
		<linearGradient id="SVGID_00000005236006328727401070000018205629768337139087_" gradientUnits="userSpaceOnUse" x1="19.3295" y1="9.1503" x2="35.8215" y2="34.6975" gradientTransform="matrix(1 0 0 -1 0 49.23)">
		<stop  offset="0" style="stop-color:#006A63"/>
		<stop  offset="0.69" style="stop-color:#00B6A1"/>
		<stop  offset="1" style="stop-color:#85E6D5"/>
	</linearGradient>
	<path style="fill:url(#SVGID_00000005236006328727401070000018205629768337139087_);" d="M31.2,47.2l-5-8l5.5-17.4
		c0.3-0.9-0.1-1.8-1-2.1c-0.2-0.1-0.4-0.1-0.6-0.1L16.4,20l4.3-7.5l13.5,0.5c2.7,0,4.8,2.2,4.8,4.8c0,0.5-0.1,1-0.2,1.4L31.2,47.2z"
		/>
</g>
</svg>
