<?xml version="1.0" encoding="utf-8"?>
<!-- Generator: Adobe Illustrator 28.0.0, SVG Export Plug-In . SVG Version: 6.00 Build 0)  -->
<svg version="1.1" id="图层_1" xmlns="http://www.w3.org/2000/svg" xmlns:xlink="http://www.w3.org/1999/xlink" x="0px" y="0px"
	 viewBox="0 0 48 48" style="enable-background:new 0 0 48 48;" xml:space="preserve">
<style type="text/css">
	.st0{fill:#FFFFFF;}
</style>
<g>
	<path class="st0" d="M7.2,24.5l6.1-13.1c1.2-2.5,4.4-4.1,8-4.1l10,0.5c2.1,0,4.5-0.8,5.6-2.2c1.1-1.4,1.8-4.1,1.8-4.1L19.3,2.9
		c-5,0-9.4,2.3-11,5.7l-8,16.7c-1.2,2.6,1.4,5.3,5.2,5.3H22l1.9-4.9l-15,0.6C7.7,26.3,6.8,25.4,7.2,24.5z"/>
	<path class="st0" d="M44.1,13.3c-3.4-0.2-6.1,1-7.4,3.8l0,0.1c-0.6-1.9-2.3-3.3-4.4-3.3l-12.8-0.5l-4,7.1l13-0.4
		c0.2,0,0.3,0,0.5,0.1c0.8,0.3,1.3,1.2,1,2l-5.3,16.6l4.8,7.6L33.7,31l-0.3,1.3C37,19.2,48,13.6,48,13.6L44.1,13.3z"/>
</g>
</svg>
