<?xml version="1.0" encoding="UTF-8"?><svg id="uuid-a470ea41-b7c5-4e88-af7a-84fc3c91415e" xmlns="http://www.w3.org/2000/svg" viewBox="0 0 1000 700"><defs><style>.uuid-cec1a134-7b10-4e4c-8d74-290d76263ae1{fill:#fb7851;}.uuid-cec1a134-7b10-4e4c-8d74-290d76263ae1,.uuid-93ed5f14-bcb6-4da3-beec-d46b75eefa64,.uuid-6265f8da-84b1-4587-90a9-cda14dac67f5,.uuid-fd4310f5-c420-4b62-a72d-fbc40541deb3,.uuid-f83635b8-d917-424e-bcba-e39f2e59dce8,.uuid-ea299c9f-7741-40b7-8247-7f3e417c09bc,.uuid-61961606-5ce7-4a8f-8df5-ecd4b37fb6b1,.uuid-72d8694c-3fc7-47e2-9ace-a1ceed16572a,.uuid-3eaa896d-84c2-44e6-90bf-5bfa9bc69323,.uuid-eb565134-aab8-4c9d-a2e0-fb540fdb09e1,.uuid-22dbc6ba-4b2b-42b8-b2dd-82caf548ac07,.uuid-12d9f85a-c96a-4af3-9a37-99f99f2058a4,.uuid-a27a0e52-edc7-40f0-8471-34f3877e6eab,.uuid-ddae29c2-e149-4749-91e0-51e960289f7e,.uuid-6d368e7a-b6a8-4b4b-bc99-56075b26bd82,.uuid-c321e6b5-a953-4cce-936c-f8cbbcab09bd,.uuid-3070a7d1-0e87-45e7-b547-a1826eae80e6,.uuid-046cf268-a970-4056-9fb3-2b11a2180dc4,.uuid-8217da4b-e852-4828-a1f8-e6ff6159cd04{stroke-width:0px;}.uuid-93ed5f14-bcb6-4da3-beec-d46b75eefa64{fill:#f9c71a;}.uuid-6265f8da-84b1-4587-90a9-cda14dac67f5{fill:#77bdb6;}.uuid-fd4310f5-c420-4b62-a72d-fbc40541deb3{fill:#58abf3;}.uuid-f83635b8-d917-424e-bcba-e39f2e59dce8{fill:#185c5d;}.uuid-ea299c9f-7741-40b7-8247-7f3e417c09bc{fill:#141414;}.uuid-61961606-5ce7-4a8f-8df5-ecd4b37fb6b1{fill:#1f0c47;}.uuid-72d8694c-3fc7-47e2-9ace-a1ceed16572a{fill:#d50102;}.uuid-3eaa896d-84c2-44e6-90bf-5bfa9bc69323{fill:#de68ac;}.uuid-eb565134-aab8-4c9d-a2e0-fb540fdb09e1{fill:#dff0ed;}.uuid-22dbc6ba-4b2b-42b8-b2dd-82caf548ac07{fill:#dcb0c6;}.uuid-12d9f85a-c96a-4af3-9a37-99f99f2058a4{fill:#c16e5e;}.uuid-a27a0e52-edc7-40f0-8471-34f3877e6eab{fill:#bae6e1;}.uuid-ddae29c2-e149-4749-91e0-51e960289f7e{fill:#f2c7bf;}.uuid-6d368e7a-b6a8-4b4b-bc99-56075b26bd82{fill:#e9393a;}.uuid-c321e6b5-a953-4cce-936c-f8cbbcab09bd{fill:#e2f7fc;}.uuid-3070a7d1-0e87-45e7-b547-a1826eae80e6{fill:#edcbdc;}.uuid-046cf268-a970-4056-9fb3-2b11a2180dc4{fill:#fae8ea;}.uuid-8217da4b-e852-4828-a1f8-e6ff6159cd04{fill:#00767f;}</style></defs><g id="uuid-a9b4061c-898a-4508-9242-ceb14854f1d9"><path class="uuid-6265f8da-84b1-4587-90a9-cda14dac67f5" d="m352.95,254.12c1.02-.03,2.04-.08,3.06-.08,98.82,0,197.64,0,296.46.01,1.29,0,2.61-.24,3.86.28-1.98,1.52-4.06,2.94-5.93,4.59-9.83,8.64-15.25,20.02-19.35,32.08-5.53,16.24-8.56,33.01-9.76,50.12-.14,2.02-.6,3.88,2.09,4.43-.93,9.97-1.79,19.95-4.76,29.59-1.17,3.79-3.24,6.62-7.21,8.22-11.47,4.62-23.38,7.88-35.06,11.84-3.45,1.17-6.37.66-9.57-.74-7.46-3.27-13.9-7.74-18.87-14.28-1.06-1.4-2.67-3.3-4.58-2.3-2.23,1.17-1.08,3.61-.88,5.58.03.27.18.53.26.79,1,3.34,2.66,6.32,4.82,9.04,1.17,1.48,1.18,2.37-1.07,2.64-1.92.24-3.82.79-5.68,1.36-3.49,1.07-4.38,4.54-1.64,6.84,1.28,1.07,1.43,1.75.67,3.17-.94,1.77-.46,3.53,1.24,4.62,1.18.76,1.12,1.36.51,2.44-1.13,2-.68,3.84,1.18,5.13,1.08.75,1.29,1.36.6,2.48-.99,1.61-.78,3.22.41,4.65,1.21,1.45,2.7,1.43,4.53,1.13,6.84-1.11,13.14-3.96,19.72-5.87,3.98-1.15,7.81-3.05,12.13-2.65-1.62,1.58-3.76,2.31-5.61,3.51-9.72,6.29-19.1,12.88-23.3,24.43-39.48-.01-78.95-.02-118.43-.03-1.35-2.74-2.06-5.83-4.14-8.16-4.72-5.28-9.84-10.14-15.8-14.02-14.64-9.54-30.76-15.61-47.51-20.15-10.66-2.89-21.35-5.66-32.36-6.89-.05-.55-.16-1.11-.14-1.66.75-17.08,1.52-34.16,2.28-51.25,2.21,2.18,4.46,3.74,7.97,3.47,3.15-.23,6.14-.4,8.52-2.59,3.51-3.23,5.04-7.38,5.26-12.1.65-13.53-1.7-26.97-1.16-40.5.14-3.52.48-7.14-.14-10.56-1.71-9.48-3.02-18.95-2.66-28.61Z"/><path class="uuid-c321e6b5-a953-4cce-936c-f8cbbcab09bd" d="m623.38,345.55c-2.69-.54-2.24-2.41-2.09-4.43,1.2-17.11,4.23-33.88,9.76-50.12,4.11-12.05,9.52-23.44,19.35-32.08,1.87-1.65,3.95-3.07,5.93-4.59,5.44-2.37,10.43-5.7,16.08-7.63,3.51-1.2,7.04-2.37,10.57-3.52,1.27-.41,2.56-.54,3.72.35,1.33,3.97,4.56,6.23,7.96,7.97,9.19,4.71,18.9,4.04,28.31,1.15,5.3-1.63,9.75-5.26,11.84-10.91,4.69,1.47,9.6,1.85,14.39,2.87,9.81,2.11,19.28,5.16,28.3,9.58,8.44,4.61,12.77,12.36,16.13,20.91,2.31,5.88,3.89,12,5.92,17.97,1.29,3.79,3.19,7.03,6.59,9.38,2.05,1.42,3.69,3.35,5.14,5.44,4.08,5.87,5.66,12.64,7.15,19.46-1.73,1.71-4.02,2.58-5.97,3.95-6.75,4.7-13.54,9.36-20.13,14.28-2.16,1.61-5.07,2.35-6.36,5.06-1.29-.26-2.18.62-2.93,1.33-1.8,1.71-2.56,1.05-3.51-.89-4.28-8.74-8.47-17.54-13.3-26-.92-1.61-1.59-3.47-3.32-4.56-.48.78-.32,1.43-.17,2.05,2.39,9.91,4.01,19.96,5.58,30.02.94,6.01,1.82,12.03,2.72,18.04.48,7.4,1.42,14.75,1.88,22.16.34,5.55-.75,9.64-6.61,11.26-.08.02-.15.1-.23.16-.53.16-1.06.3-1.57.49-22.5,8.49-45.6,13.34-69.8,11.11-14.45-1.33-28.76-3.48-42.62-7.96-1.63-.53-3.49-.76-4.54-2.43.43-5.15.67-10.33,1.32-15.46,1.51-11.89,3.21-23.76,4.84-35.63.2-1.49-.1-2.43-1.91-2.68-2.28-.31-4.5-1.03-6.76-1.48-7.25-1.42-14.33-3.64-21.67-4.63Z"/><path class="uuid-8217da4b-e852-4828-a1f8-e6ff6159cd04" d="m847.45,382.41c5.22,1.07,10.54.2,15.8.95,6.16.88,10.18,4.91,10.46,11.17.13,2.93-.52,5.73-1.28,8.49-5.21,18.94-10.47,37.87-15.74,56.79-6.33,22.76-12.69,45.51-19.02,68.27-4.84,17.41-9.01,35.04-14.75,52.14-2.34,6.97-.84,12.71.62,18.94,2.86,12.17,5.83,24.31,8.87,36.43.62,2.49.86,5.11,2.12,7.43-.52,2.22,2.01,5.32.25,6.23-1.63.84-4.63-.03-7.03-.18-2.9-.17-5.01-1.4-6.22-4.2-.57-1.33-1.63-2.44-2.46-3.66-.05-.87-.53-1.54-.97-2.27-9.24-15.45-18.53-30.87-27.6-46.42-1.4-2.41-2.93-3.1-5.53-3.1-35.9.03-71.8-.03-107.7-.06-.13-2.23.23-4.65-2.33-5.92.82-.72.58-1.7.64-2.61.29-4.34.8-8.68.8-13.03,0-6.49,1.2-12.94.59-19.44,2.03-1.37,2.66-3.28,2.59-5.71-.1-3.05.25-6.1.27-9.16.06-11.85.06-23.71.08-35.56,25.28-.02,50.56-.06,75.84-.04,4.81,0,8.32-2.19,10.12-6.45,4.23-9.98,8.21-20.07,12.14-30.18.76-1.95,1.94-3.83,1.9-6.05.95-.59,1.17-1.64,1.54-2.57,3.47-8.58,7.05-17.13,10.33-25.78,1.86-4.92,4.51-9.57,5.33-14.86.38-.38.92-.7,1.11-1.16,2.95-7.25,5.97-14.47,8.72-21.8,2.41-6.42,6.83-9.01,13.51-8.32,7.87.82,15.8,1.09,23.71,1.6.34.01.69.03,1.03.04.72.82,1.47.8,2.23.06Z"/><path class="uuid-8217da4b-e852-4828-a1f8-e6ff6159cd04" d="m150.38,642.99c1.95-7.81,3.93-15.62,5.85-23.44,2.6-10.52,5.11-21.07,7.77-31.58.56-2.24.62-4.13-.66-6.24-2.14-3.53-2.63-7.71-3.79-11.6-6.52-21.95-12.85-43.97-19.29-65.95-5.24-17.89-10.54-35.76-15.79-53.64-3.66-12.46-7.29-24.92-10.91-37.38-1.29-4.43-3.16-8.71-2.86-13.51.31-5.04,3.87-10.02,7.96-10.53,2.38-.3,4.8-.36,7.2-.53,1.32.77,2.62.85,3.9-.08,3.54-.16,7.07-.32,10.61-.48.41.5.96.52,1.52.44,4.95-.74,9.92-1.1,14.92-1.06,1.58.01,3.17.03,4.73-.11,5.7-.51,11.41-1.41,16.87,1.23,4.62,6.56,6.4,14.37,9.36,21.65,5.74,14.1,10.29,28.66,16.74,42.48-.52.47-.3.95-.09,1.5,2.48,6.49,4.89,13.01,7.4,19.5,2.57,6.66,5.1,13.33,7.88,19.91,1.44,3.4,4.23,5.46,8.05,5.46,25.47,0,50.94-.05,76.41-.08.67,2.22-.24,4.4-.23,6.61.1,12.22-.2,24.44.45,36.65.13,2.35.47,4.35,2.3,5.9.78,11.9,1.71,23.8,1.67,35.74-.81,1.22-1.8,2.37-1.66,3.99-35.41-.16-70.83.16-106.23-.65-3.1-.07-4.65,1.11-6.11,3.61-6.76,11.63-13.75,23.13-20.53,34.75-3.17,5.43-6.79,10.62-9.45,16.34-1.61,1.14-1.52,3.97-3.61,4.33-3.08.54-6.27.52-9.41.71-1.29.08-1.62-.63-1.38-1.77.15-.72.28-1.44.42-2.17Z"/><path class="uuid-72d8694c-3fc7-47e2-9ace-a1ceed16572a" d="m335.14,345c-.76,17.08-1.53,34.16-2.28,51.25-.02.55.09,1.11.14,1.66-.67.63-1.29,1.33-2.02,1.88-11.31,8.49-24.6,10.75-38.17,12.1-9.72.97-19.46.64-29.19.02-7.86-.5-15.69-1.36-23.47-2.54-7.41-1.12-14.79-2.45-22.19-3.68-1.92-.61-2.53-1.7-2.24-3.86.74-5.47,1.13-10.99,1.66-16.49.95-2.59,1.22-4.93-2.19-5.91-8.31-6.21-14.17-14.21-17.64-23.98-1.62-4.55-2.4-9.29-3.46-13.97-.71-10.78-.92-21.55.49-32.29,1.21-9.21,2.39-18.46,5.09-27.37,3.35-11.04,9.85-20.1,18.53-27.63,6.86-4.86,14.02-9.15,22.21-11.46,1.42-.4,2.84-.78,4.26-1.17.47.14.88.1,1.17-.36.9-.12,1.81-.24,2.71-.35,2.08-.29,3.39,1.05,4.83,2.2,7.37,5.86,15.23,10.65,25.01,11.09.82.04,1.67-.05,1.72,1.23.27,6.83.22,13.59-3.78,19.58-5.53,8.28-11.62,16.14-18.61,23.23-7.12,7.22-14.01,14.62-20.41,22.48-.65.8-1.34,1.56-.85,2.73,2.3,5.51,4.81,10.92,9.32,15.03,2.8,2.55,6.3,2.35,8.96-.33.91-.92,1.75-1.93,2.55-2.95,6-7.58,11.38-15.61,16.91-23.53,3.34-4.79,6.51-9.71,10.58-13.95.46.04.93.14,1.38.12,14.3-.52,28.6-.99,42.9-1.64,2.91-.13,6,.53,8.73-1.16.3,10.71-1.14,21.28-2.49,31.86-.78,6.06-2.26,12.07-.17,18.14Z"/><path class="uuid-6265f8da-84b1-4587-90a9-cda14dac67f5" d="m218.19,254.2c-8.68,7.53-15.17,16.59-18.53,27.63-2.71,8.91-3.89,18.16-5.09,27.37-1.41,10.74-1.2,21.51-.49,32.28-1.28-1.82-2.56-3.65-3.84-5.46-3.11-4.4-6.08-8.91-10.25-12.42-3.22-2.71-5.44-1.93-6.19,2.16-.22,1.18-.37,2.38-.44,3.58-1.1,19.96.81,39.67,5.04,59.18-5.46-2.64-11.18-1.74-16.87-1.23-1.57.14-3.16.13-4.73.11-5-.04-9.98.31-14.92,1.06-.57.09-1.12.06-1.52-.44,1.76-.64,1.72-2.06,1.72-3.6-.03-35.67-.06-71.34.02-107,.02-7.23,1.79-13.99,7.26-19.2,2.62-2.5,5.9-4.08,9.5-4.1,19.51-.1,39.01-.03,58.52-.01.28,0,.55.07.83.11Z"/><path class="uuid-ddae29c2-e149-4749-91e0-51e960289f7e" d="m284.79,297.69c-4.07,4.24-7.24,9.16-10.58,13.95-5.53,7.92-10.9,15.95-16.91,23.53-.81,1.02-1.64,2.03-2.55,2.95-2.66,2.68-6.16,2.88-8.96.33-4.51-4.11-7.02-9.52-9.32-15.03-.49-1.18.19-1.93.85-2.73,6.4-7.86,13.29-15.26,20.41-22.48,6.99-7.09,13.08-14.95,18.61-23.23,4-5.99,4.05-12.75,3.78-19.58-.05-1.29-.9-1.2-1.72-1.23-9.78-.44-17.64-5.23-25.01-11.09-1.45-1.15-2.75-2.49-4.83-2.2,6.69-2.73,8.91-8.7,10.89-14.89.36-1.12.2-1.89-.48-2.8-3.35-4.46-5.35-9.47-5.9-15.04-.12-1.21-.87-1.87-1.85-2.57-3.44-2.46-4.88-11.71-2.46-15.07.08-.11.34-.09.52-.13,1.9,1.55,1.88,4.26,3.37,5.92,3.21-2.72,3.47-6.56,4.43-10.11.61-2.26,1.18-4.76,3.35-5.89,5.79-3.02,10.87-7.07,16.23-10.71,2.96-2.01,6.02-2.07,9.27-1.01,2.99.98,5.95,2.42,9.02,2.74,4.58.48,6.92,3.36,8.09,7,2.11,6.6,4.05,13.33,3.16,20.46-.11.91-.67,2.04.45,2.81-1.09,3.98-2.23,7.95-3.27,11.94-1.5,5.74-4.23,10.83-8.09,15.3-.66.76-1.02,1.52-.92,2.51-3.92.38-6.17,2.25-6.58,6.44-.64,6.52-4.24,12.74-2,19.57.41,4.82,1.46,5.84,5.09,4.93.53-.13,1.04-.39,1.56-.58,5.14-1.89,10.4-3.33,15.82-4.13,4.22-.62,5.83,1.33,4.44,5.34-.17.48-.23.78.05,1.24,2.68,4.42,2.59,4.76-1.65,7.02-.72.08-1.44.15-2.16.23-3.6.79-7.29,1.25-10.63,2.97-.7.12-1.4.25-2.11.37-.73-.05-1.25.22-1.05,1,.09.36,1.11.48,1.59-.18.52-.1,1.04-.2,1.55-.3,3.57-.93,7.34-1.16,10.63-3.06.8-.26,1.76-.02,2.39-.78,3.78,1.48,4.44,4.08,1.81,7.07-2.49.6-4.97,1.2-7.46,1.8-2.58.6-5.17,1.19-7.74,1.8-.56.14-1.07.47-.87,1.14.06.2.66.43.9.34,2.72-.99,5.78-.81,8.3-2.46,2.35-.58,4.7-1.16,7.05-1.74,2.01,2.39,1.75,3.52-1.03,4.76-3,1.35-6.26,1.56-9.41,2.31-7.26,1.72-14.03,4.29-18.05,11.25Zm3.65-75.57c.37-.48,1.7-.68,1.39-.83-1.39-.65-1.93-2.18-3.36-2.74-3.8-1.49-7.89-.91-11.85-2.06.23,1.32,1.34,1.45,1.89,2.12.02,2.99,2.35,3.74,4.53,4.27,2.42.59,5.07,2.18,7.32-.5.05-.07.06-.17.09-.26Zm-1.76-8.27c3.46.06,5.22-1.91,4.38-5.31-.66-2.68-.82-5.26-.1-7.91.46-1.68.85-3.38,1.25-5.08.13-.53.34-1.19-.34-1.44-.81-.3-.83.44-.97.95-1.17,4.35-2.64,8.63-1.3,13.29.87,3-.26,4.11-3.36,3.99-.94-.04-2.61-.85-2.69.18-.12,1.65,1.92.7,2.85,1.31.07.04.18.02.27.02Zm-2.59,21.21c-5.23-.46-10.23-1.52-14.85-3.97-.54-.29-1.33-.9-1.69-.13-.45.94.58,1.21,1.23,1.46,2.67,1.02,5.3,2.3,8.07,2.89,2.31.49,4.82,1.33,7.24-.25Zm27.49,29.28c-.35-.53-.39-.66-.44-.66-5.47-.13-10.31,2.53-15.53,3.53-.22.04-.55.62-.49.86.18.74.84.57,1.35.43,4.97-1.36,9.94-2.74,15.11-4.17Zm-14.02-64.67c-.91.26-1.81.47-2.67.77-.71.24-1.58.66-1.31,1.5.36,1.1,1.21.37,1.84.13,1.35-.51,2.7-.57,4.07-.06.69.26,1.6,1.25,2.04.01.3-.87-.78-1.35-1.55-1.65-.76-.3-1.58-.46-2.42-.7Zm-20.72-2.15c-1.2-.04-2.21.48-3.21.96-.52.25-.91.73-.64,1.35.34.77.92.33,1.41.14,1.42-.55,2.83-.79,4.34-.25.68.24,1.62,1.36,2.12.22.46-1.05-.78-1.53-1.62-1.85-.76-.29-1.6-.39-2.4-.57Z"/><path class="uuid-12d9f85a-c96a-4af3-9a37-99f99f2058a4" d="m785.95,350.65c1.28-2.72,4.2-3.45,6.36-5.06,6.59-4.92,13.38-9.57,20.13-14.28,1.96-1.36,4.24-2.24,5.97-3.95,3.03-.5,4.96-2.74,7.16-4.55,6.5-5.33,12.71-10.99,18.63-16.96,3.06-2.7,6.12-5.41,9.19-8.11.71-.62.95-1.39.72-2.26-1.24-4.59.72-8.4,3.61-11.46,5.59-5.93,10.29-12.44,14.53-19.34.89-1.44,2.02-3.56,3.99-2.67,2.07.93,1.3,3.27.87,5.02-.87,3.48-1.95,6.9-3,10.53,1.53.02,2.02-1.11,2.75-1.81,5.8-5.55,9.13-12.84,13.59-19.33.32-.46.57-.96.89-1.42.99-1.42,1.84-3.48,3.98-2.73,1.87.66,1.17,2.68,1.2,4.2.01.63-.43,1.45.22,1.83,2.34,1.34,1.9,3.35,1.46,5.4-2.12-.49-2.96,1.08-3.9,2.44-2.2,3.19-4.45,6.36-6.52,9.64-1.41,2.24-3.9,3.44-5.52,5.71,1.01.33,1.37-.11,1.78-.46,3.02-2.62,5.7-5.53,7.81-8.96,1.82-2.97,3.32-6.21,6.4-8.2,1.11.32,1.96,1.08,1.7,2.2-.6,2.59-.09,5.38-1.37,7.82-2.12,4.02-4.27,8.03-6.46,12.02-3.46,6.33-8.22,11.43-14.46,15.1-2.69,1.58-4.72,3.77-6.54,6.32-8.94,12.55-18,25.03-27.01,37.53-.26.37-.41.82-.61,1.24-.38.39-.81.74-1.14,1.17-6.99,8.94-14.45,17.4-23.52,24.35-5.91,4.53-11.36,4.83-17.27.32-7.28-5.55-11.92-13.1-15.62-21.3Zm94.95-71.88c7.52-4.89,10.96-12.65,14.34-20.46-4.32,7.15-7.89,14.82-14.34,20.46Zm3.06,6.08c1.92.2,2.28-.69,2.88-1.2,4.43-3.75,6.15-9.71,10.84-13.25.32-.24.48-.59.19-.94-.29-.34-.71-.24-1-.01-.65.52-1.34,1.03-1.85,1.67-3.57,4.45-6.1,9.68-11.07,13.74Zm-11.25-4.67c-2.14,1.76-5.43,1.96-6.7,4.92,2.26-1.61,5.14-2.32,6.7-4.92Z"/><path class="uuid-eb565134-aab8-4c9d-a2e0-fb540fdb09e1" d="m150.38,642.99c-.14.72-.27,1.45-.42,2.17-.24,1.14.09,1.85,1.38,1.77,3.14-.2,6.32-.18,9.41-.71,2.1-.36,2.01-3.19,3.61-4.33,10.16-.56,20.3-1.34,30.47-1.61,10.74-.28,21.47-.65,32.21-1.1,8.97-.38,17.95-.99,26.91-1.06,12.99-.11,25.97-.92,38.97-.71,4.79.08,4.79.01,4.82,4.94-.75.37-.98,1.14-1.11,1.82-.65,3.44.38,7.01-.88,10.43-.31.83.57,1.6,1.35,1.88,1.21.43,2.49.71,3.76.91,9.03,1.43,18.08,2.83,27.11,4.23-.68,1.32-1.94.88-2.98.88-12.35.08-24.7-.39-37.03-.73-9-.25-18.01.02-27-.4-12.88-.6-25.76-.83-38.64-1.18-7.3-.2-14.6-.76-21.9-1.09-9.9-.45-19.81-.76-29.71-1.12-11.73-.43-23.45-1.25-35.15-2.22-10.48-.87-20.98-1.71-31.3-3.87-1.64-.34-4.22-.32-4.24-2.27-.02-1.74,2.54-1.8,4.09-2.13,8.5-1.81,17.15-2.53,25.78-3.39,6.82-.67,13.65-1.18,20.51-1.12Z"/><path class="uuid-eb565134-aab8-4c9d-a2e0-fb540fdb09e1" d="m819.09,641.22c.84,1.21,1.89,2.33,2.46,3.66,1.21,2.8,3.31,4.03,6.22,4.2,2.4.14,5.4,1.02,7.03.18,1.76-.91-.78-4.01-.25-6.23,9.62.16,19.2.69,28.73,2.09,6.2.91,12.54.9,18.55,2.94.86.29,2.36.11,2.3,1.5-.06,1.28-1.23,1.63-2.41,1.86-7.6,1.52-15.24,2.67-22.99,3.36-7.9.7-15.85.87-23.72,2.04-3.1.46-6.27.33-9.41.56-7.2.52-14.45.41-21.68.69-13.32.51-26.65.94-39.95,1.78-3.7.23-7.4.32-11.09.43-8.06.24-16.15.31-24.18.73-7.15.38-14.28.14-21.41.39-10.48.38-20.97.38-31.44.71-5.55.17-11.11.24-16.67.39-.97.03-2.11.33-2.69-.9,1.37-.26,2.72-.57,4.1-.78,7.9-1.2,15.81-2.34,23.71-3.58,3.92-.62,4.38-1.45,3.59-5.08-.25-1.15-.19-2.4-.12-3.59.14-2.17-.03-4.26-1.05-6.22,0-.56.15-1.18-.05-1.66-1.16-2.93.16-3.46,2.81-3.33,6.75.34,13.52.25,20.27.43,13.05.34,26.1.57,39.14,1.25,8.77.46,17.56.78,26.33,1.04,14.06.41,28.11.66,42.14,1.78.67.05,1.3-.04,1.74-.65Z"/><path class="uuid-12d9f85a-c96a-4af3-9a37-99f99f2058a4" d="m734.8,241.74c-2.1,5.64-6.55,9.28-11.84,10.91-9.41,2.89-19.12,3.56-28.31-1.15-3.4-1.74-6.63-4-7.96-7.97,2.49-2.73,3.63-5.92,3.59-9.64-.03-2.22-.61-3.94-2.02-5.78-6.78-8.88-9.68-19.22-10.65-30.2,1.1.2,2-.29,2.86-.86,3.1-2.04,6.53-1.82,9.98-1.48,1,.1,1.57.42,1.86,1.59.9,3.61,1.69,7.11.72,10.91-1.08,4.21,1.2,6.37,5.54,5.62.82-.14,2.35.19,2.13-1.08-.21-1.21-1.58-.39-2.41-.35-3.55.2-4.63-.83-3.75-4.15,1.29-4.86-.16-9.34-1.57-13.85-.29-.92-.92-1.41-1.84-1.44-3.86-.09-7.82-.97-11.37,1.42-1.55,1.05-2.31.85-2.19-1.25.29-4.82.6-9.63,1.67-14.36.96-4.23,1.67-4.63,5.71-3.11,4.78,1.79,9.54,3.7,14.78,3.61,6.14-.1,11.45-2.83,16.88-5.26,5.66-2.53,7.96-1.26,9.2,4.84.68,3.36,1.05,6.8,2.22,10.05.54,1.51,1.17,3.08,2.94.87.68-.85,1.81-.85,2.82-1.02,3.93,3.92,3.12,13.88-1.49,17.08-.86.6-.93,1.25-1.07,2.05-.95,5.65-2.78,10.94-6.42,15.46-.75.93-.69,1.75-.39,2.82,1.77,6.35,5.09,11.65,10.35,15.69Zm-20.91-49.34c1.28.21,2.11.12,2.38-.9.26-.98-.33-1.66-1.18-1.94-4.71-1.57-9.33-1.12-13.81.84-.77.34-1.82.94-1.3,2.11.47,1.06,1.4.94,2.39.62,3.9-1.25,7.81-2.73,11.52-.73Zm-14.65,42.37c4.16,2.2,15.56-.82,17.37-4.51-5.46,3.06-10.91,4.41-17.37,4.51Zm-.15-13.9c2.6-.33,5.2-.5,7.49-1.89.6-.36,1.12-.82.68-1.55-.41-.67-.99-.22-1.44.03-2.17,1.18-4.48,1.63-6.94,1.56-.85-.02-2.24-.3-2.13.98.09,1.04,1.51.67,2.33.88Zm-11.5-21.28c-.83.06-1.45.43-1.45,1.33,0,.83.46,1.46,1.32,1.5.85.04,1.37-.51,1.43-1.37.07-.91-.44-1.35-1.3-1.46Zm18.26-1.74c-.86.17-1.28.69-1.25,1.56.03.9.57,1.42,1.39,1.4.97-.03,1.49-.68,1.38-1.68-.1-.87-.68-1.25-1.51-1.27Z"/><path class="uuid-6265f8da-84b1-4587-90a9-cda14dac67f5" d="m844.2,305.85c-5.92,5.97-12.13,11.62-18.63,16.96-2.2,1.81-4.13,4.05-7.16,4.55-1.49-6.81-3.07-13.58-7.15-19.45-1.45-2.09-3.09-4.02-5.14-5.44-3.4-2.36-5.3-5.6-6.59-9.38-2.03-5.97-3.6-12.08-5.92-17.97-3.36-8.55-7.69-16.3-16.13-20.91,12.73-.05,25.46-.12,38.18-.15,4.27-.01,8.61-.41,12.8.19,8.05,1.16,14.41,9.07,15.13,17.37.99,11.41.06,22.83.59,34.23Z"/><path class="uuid-fd4310f5-c420-4b62-a72d-fbc40541deb3" d="m313.08,278.5c2.64-2.99,1.97-5.6-1.81-7.07,0,0-.19-.06-.19-.06l-.02-.19c4.24-2.26,4.33-2.6,1.65-7.02-.28-.46-.21-.76-.05-1.24,1.39-4.01-.22-5.96-4.44-5.34-5.42.79-10.68,2.23-15.82,4.13-.52.19-1.02.45-1.56.58-3.62.91-4.67-.11-5.08-4.92,1.42-6.23,2.83-12.46,4.26-18.69,1.04-4.54,1.54-4.94,6.15-5,11.89-.15,23.79-.36,35.68-.39,5.39-.02,10.78-.47,16.16.1,2.42,1.33,2.33,3.51,1.91,5.77-.79,4.24-1.61,8.46-2.42,12.7-2.31,1.84-1.6,4.65-2.24,7.02l.07-.04c-1.67.65-3.25.04-4.87-.32-2.59-.57-5.03-1.89-7.79-1.68-1.93.15-3.11,1.33-3.46,3.06-.29,1.44.63,2.42,2.15,2.66-.05.12-.06.24-.04.36-1.93.2-4.14.1-5.02,2.25-.84,2.06.44,3.42,2.11,4.61,1.26.9-.18,1.33-.65,1.83-1.52,1.62-1.46,3.17.23,4.53.85.68,1.92,1.09,2.89,1.63v.04c-2.09.26-4.34.52-4.52,3.17-.16,2.5,1.96,3.33,3.87,4.12.68.28,1.4.48,2.13.63,5.16,1.08,5.44,1.42,5.47,6.78,0,.83-.02,1.67-.03,2.5-2.73,1.7-5.82,1.03-8.73,1.17-14.29.65-28.6,1.12-42.9,1.64-.46.02-.92-.08-1.38-.12,4.01-6.96,10.78-9.52,18.05-11.25,3.14-.74,6.41-.96,9.41-2.31,2.78-1.25,3.04-2.37,1.03-4.76-.06-.29-.12-.58-.18-.87Z"/><path class="uuid-eb565134-aab8-4c9d-a2e0-fb540fdb09e1" d="m616.46,662.32c-.36.68-1,.8-1.67.75-4.83-.38-9.61.6-14.43.59-31.88-.04-63.76-.12-95.64.08-5.82.04-11.67.63-17.5.43-35.48-1.2-70.97-.11-106.45-.63-3.96-.06-7.94-.4-11.92-.47-.59-.01-1.09-.18-1.4-.73,4.15-1.55,8.52-2.45,12.56-4.35,3.74-1.75,6.75-4.21,8.4-8.09,2.33-5.48-1.34-11.77-6.96-11.94-.35-.57-1.2-.81-1.14-1.67,4.61,0,9.21-.02,13.82,0,.92,0,2.16-.43,2.38,1.13-1.93.08-1.7,1.78-1.94,2.89-.6,2.8-.09,5.73-1.13,8.52-.42,1.13.33,2.16,1.58,2.57,1.15.37,2.28.79,3.46,1.06,13.95,3.15,27.86,6.48,42.01,8.7,12.34,1.94,24.45,1.46,36.31-2.63,3.85-1.33,7.17-3.5,9.13-7.3,3.11-6.02-.72-12.48-7.35-12.38.26-2.14-2.96-1.62-2.81-3.68,10.98,0,21.97,0,32.95,0-.45,2.52-3.55,1.6-4.51,3.46-1.88.33-3.71.5-4.98,2.41-3.78,5.71-1.98,12.53,4.69,15.84,10.93,5.43,22.67,6.11,34.53,4.89,11.18-1.15,22.15-3.63,33.1-6.1,5.52-1.24,11.02-2.53,16.51-3.89,1.71-.42,3.41-1.35,2.62-3.47-.87-2.35-.77-4.73-1.01-7.12-.16-1.53.05-3.5-2.26-3.85.08-1.02.82-1.1,1.6-1.1,4.87,0,9.73.01,14.6.02.06.84-.74,1.08-1.12,1.61-5.46.47-8.99,6.64-6.82,11.9,1.65,4,4.76,6.44,8.56,8.24,3.94,1.86,8.21,2.73,12.25,4.28Z"/><path class="uuid-ddae29c2-e149-4749-91e0-51e960289f7e" d="m345.27,258.85c.65-2.37-.07-5.18,2.24-7.02,2.29-.36,3.9.87,5.44,2.29-.37,9.65.95,19.13,2.66,28.61.62,3.42.28,7.04.14,10.56-.54,13.53,1.8,26.97,1.16,40.5-.23,4.73-1.75,8.88-5.26,12.1-2.38,2.19-5.38,2.35-8.52,2.59-3.51.26-5.76-1.3-7.97-3.47-2.09-6.07-.61-12.08.17-18.14,1.35-10.57,2.79-21.15,2.49-31.86.01-.83.04-1.67.03-2.5-.03-5.36-.31-5.7-5.47-6.78-.72-.15-1.45-.35-2.13-.63-1.91-.79-4.03-1.62-3.87-4.12.17-2.65,2.43-2.91,4.51-3.17,2.82,1.84,6.21,1.53,9.29,2.41.24.07.77-.22.84-.45.07-.24-.21-.85-.38-.87-3.25-.34-6.33-2.16-9.73-1.13-.97-.53-2.04-.95-2.89-1.63-1.69-1.36-1.75-2.92-.23-4.53.46-.49,1.91-.93.65-1.83-1.67-1.19-2.95-2.55-2.11-4.61.87-2.15,3.09-2.05,5.02-2.25,2.99,2.02,6.38,1.83,9.72,1.89-3.11-1.33-6.29-2.26-9.68-2.25-1.52-.25-2.44-1.22-2.15-2.66.34-1.74,1.53-2.92,3.46-3.06,2.76-.21,5.2,1.1,7.79,1.68,1.62.36,3.19.96,4.87.32.97,2.16,2.86,1.36,4.59,1-1.56-.32-3.11-.64-4.67-.96Zm-5.76,14.42c.59.04,1.16.13,1.37-.6.12-.43-.18-.66-.57-.76-2.77-.64-5.53-1.3-8.31-1.89-.26-.06-.74.2-.87.44-.32.6.21.79.66.9,2.57.64,5.15,1.27,7.72,1.9Z"/><path class="uuid-ea299c9f-7741-40b7-8247-7f3e417c09bc" d="m733.81,188.63c-1.01.16-2.14.17-2.82,1.02-1.77,2.21-2.4.63-2.94-.87-1.17-3.25-1.54-6.68-2.22-10.05-1.24-6.1-3.55-7.37-9.2-4.84-5.43,2.42-10.74,5.15-16.88,5.26-5.24.09-10-1.82-14.78-3.61-4.05-1.52-4.76-1.12-5.71,3.11-1.07,4.73-1.38,9.54-1.67,14.36-.13,2.1.64,2.3,2.19,1.25,3.55-2.4,7.52-1.52,11.37-1.42.91.02,1.55.52,1.84,1.44,1.41,4.52,2.86,8.99,1.57,13.85-.88,3.32.2,4.35,3.75,4.15.83-.05,2.2-.87,2.41.35.22,1.27-1.31.94-2.13,1.08-4.34.75-6.62-1.41-5.54-5.62.97-3.8.19-7.3-.72-10.91-.29-1.18-.86-1.5-1.86-1.59-3.45-.33-6.88-.56-9.98,1.48-.86.56-1.76,1.06-2.86.86-4.02-8.63-6.57-17.52-4.75-27.15.68-3.59,3.03-6.09,5.85-8.17,2.94-2.17,5.55-4.65,7.43-7.81,5.19-8.71,13.19-11.44,22.79-10.57,2.57.23,5.15.65,7.61,1.55,6.94,2.54,10.11,7.96,8.4,15.13-.66,2.78-.3,3.75,2.75,3.83,5.97.16,7.04,1.39,7.32,7.32.27,5.58-.06,11.13-1.21,16.61Z"/><path class="uuid-6265f8da-84b1-4587-90a9-cda14dac67f5" d="m785.95,350.65c3.71,8.2,8.35,15.75,15.62,21.3,5.91,4.51,11.36,4.21,17.27-.32,9.07-6.95,16.53-15.41,23.52-24.35.33-.43.76-.78,1.14-1.17.98.91.54,2.09.55,3.15.06,11.02.09,22.04.12,33.06-7.91-.51-15.84-.78-23.71-1.6-6.68-.69-11.1,1.9-13.51,8.32-2.75,7.33-5.78,14.55-8.72,21.8-.19.46-.73.78-1.11,1.16-.12-1.29-.34-2.58-.34-3.87-.01-10.47.04-20.94.02-31.42-.02-7.81-3.31-10.54-11.1-9.11-4.91.9-9.78,2.01-14.67,3.03-.91-6.02-1.78-12.03-2.72-18.04-1.57-10.06-3.19-20.11-5.58-30.02-.15-.62-.31-1.27.17-2.05,1.73,1.09,2.39,2.95,3.32,4.56,4.84,8.46,9.02,17.26,13.3,26,.95,1.94,1.71,2.6,3.51.89.74-.71,1.64-1.59,2.93-1.33Z"/><path class="uuid-ea299c9f-7741-40b7-8247-7f3e417c09bc" d="m267.67,149.07c-1.16-.3-2.4-.44-3.48-.93-3.09-1.41-3.87-4.38-1.86-7.09.69-.93,1.24-1.55.07-2.48-4.18-3.3-3.81-9.52-1.26-14.05,2.33-4.13,6.72-6.3,12.2-5.1,3.14.69,4.89.06,6.88-2.42,3.04-3.79,7.5-5.19,12.06-3.62,5.1,1.76,10.15,4.12,10.57,10.78.19,3.07,1.72,5.22,4.36,6.99,5,3.34,5.04,7.29,4.17,12.28-.42,2.4-2.41,3.67-4.85,3.94-1.6.18-3.12.29-3.99,2.01-.43.84-1.5.62-2.3.66-2.32.12-4.64.13-6.97.19-1.45-4.08-4.55-5.82-8.67-6.27-6.39-.69-12.13.62-16.94,5.11Z"/><path class="uuid-ea299c9f-7741-40b7-8247-7f3e417c09bc" d="m306.63,201.59c-1.12-.77-.56-1.9-.45-2.81.89-7.13-1.05-13.86-3.16-20.46-1.17-3.65-3.51-6.52-8.09-7-3.07-.32-6.02-1.76-9.02-2.74-3.25-1.07-6.31-1.01-9.27,1.01-5.36,3.64-10.44,7.69-16.23,10.71-2.17,1.13-2.74,3.64-3.35,5.89-.96,3.55-1.22,7.39-4.43,10.11-1.49-1.67-1.47-4.38-3.37-5.92-2.38-4.01-2.5-8.16-.64-12.37,1.13-2.55,2.14-5.12,2.6-7.89.71-4.29,2.81-7.86,6.02-10.7,3.24-2.87,5.96-6.42,10.18-8.05,4.12-.27,8.29-.22,12.34-.9,4.63-.78,9.08-1.05,13.46.94,3.09,2.52,6.16,5.06,9.27,7.54,3.97,3.17,5.29,7.65,5.48,12.32.34,8.33.27,16.68.15,25.03-.02,1.78-.98,3.54-1.5,5.31Z"/><path class="uuid-61961606-5ce7-4a8f-8df5-ecd4b37fb6b1" d="m616.46,662.32c-4.04-1.55-8.31-2.42-12.25-4.28-3.81-1.79-6.91-4.24-8.56-8.24-2.17-5.26,1.36-11.43,6.82-11.9,2.98,1.24,6.03,1.76,9.25,1.16,3.1-.59,6.2-1.17,9.33-1.56,1.56-.2,4.02-1.04,4.46.77.47,1.97-2.15,2.01-3.61,2.6-2.63,1.07-5.68.69-8.27,2.31,1.05,1.35,2.42.99,3.65,1.08,13.27.96,24.57-4.58,35.63-10.88,4.4-2,8.93-1.74,13.51-.84,1.73.91,3.61,1.34,5.53,1.56,4.08.48,6.08-1.49,5.69-5.59-.1-1.07-.16-2.2-.91-3.11.12-1.5-.68-2.69-1.31-3.94-.05-.83-.32-1.68.12-2.49,3.15-.05,2.47-2.68,3.01-4.48.95,1.94,1.63,3.49.35,5.98-1.71,3.32-.58,7.26-.09,10.94.81,5.99-4.51,10.61-10.4,9.04-1.9-.51-3.76-.94-5.7-.3-3.04-2.95-7.02-3.39-11.45-1.02-6.27,3.36-12.6,6.58-19.14,9.35-1.85.78-2.62,1.72-1.86,3.65-7.1.28-14.04-.9-20.99-2.12-.93-.16-2.4-1.4-3.04.43-.6,1.7-.05,2.94,1.69,3.85,5.82,3.04,12.03,4.77,18.43,5.97,11.28,2.12,22.36.47,33.42-1.66,6.38-1.23,11.72-3.91,15.01-9.88,1.5-2.72,4.23-3.85,7.14-4.32,1.81-.29,3.34-.99,4.78-2.03,1.01,1.96,1.18,4.05,1.05,6.22-.07,1.19-.14,2.44.12,3.59.79,3.63.33,4.46-3.59,5.08-7.89,1.24-15.81,2.38-23.71,3.58-1.37.21-2.73.52-4.1.78-5.05.5-10.11,1.02-15.16,1.49-8.32.79-16.61.69-24.86-.78Z"/><path class="uuid-61961606-5ce7-4a8f-8df5-ecd4b37fb6b1" d="m381.44,637.97c5.62.17,9.29,6.45,6.96,11.94-1.65,3.88-4.66,6.34-8.4,8.09-4.04,1.9-8.41,2.8-12.56,4.35-13.21,2.55-26.33.55-39.47-.72-9.04-1.41-18.08-2.8-27.11-4.23-1.27-.2-2.55-.48-3.76-.91-.78-.28-1.66-1.05-1.35-1.88,1.27-3.42.24-7,.88-10.43.13-.68.36-1.45,1.11-1.82.96,1.29,2.37,1.71,3.85,1.92,3.73.53,6.63,2.35,8.53,5.6,2.73,4.66,6.99,7.01,12.04,8.22,4.79,1.15,9.63,1.92,14.52,2.53,13.4,1.69,26.25-.06,38.5-5.87,1.75-.83,3.65-1.67,2.73-4.03-.87-2.24-2.67-.66-4.01-.48-6.7.94-13.36,2.28-20.18,1.87-.11-1.01,1.35-2.18-.57-3.01-7.13-3.09-13.99-6.73-20.92-10.22-4.38-2.2-7.94-1.55-10.68,1.24-1.27.08-2.48-.72-3.81-.17-5.05,2.04-8.97.13-12.33-3.63-.03-1.69-.06-3.38-.1-5.07.1-.92.2-1.85.29-2.77.88-2.22.68-4.45-.02-6.67-.14-.62-.27-1.24-.41-1.86-.41-.52-.81-1.04-1.22-1.57.39-.92.78-1.84,1.16-2.76,1.33,1.16.8,4.03,3.56,3.87,0,.67.01,1.33.02,2-.57,1.24-1.55,2.36-1.07,3.88-1.72,2.34-1.53,4.83-.26,7.21,1.15,2.14,3.31,1.75,5.22,1.46,1.71-.26,3.48-.48,4.97-1.55,4.65-.67,9.28-1.21,13.73.96,12.17,6.88,24.56,12.86,39.88,10.16-2-1.39-3.67-1.57-5.28-1.87-2.19-.4-4.36-.87-6.36-1.89-.68-.34-1.3-.87-1.05-1.74.23-.79,1.01-.68,1.64-.74,1.49-.16,2.94.13,4.41.36,5.62.9,11.23,2.89,16.9.24Z"/><path class="uuid-f83635b8-d917-424e-bcba-e39f2e59dce8" d="m348.02,233.37c-5.38-.57-10.78-.12-16.16-.1-11.9.04-23.79.25-35.68.39-4.61.06-5.11.46-6.15,5-1.43,6.23-2.84,12.46-4.26,18.69-2.24-6.83,1.36-13.05,2-19.57.41-4.19,2.66-6.06,6.58-6.44,1.4.04,2.79.08,4.19.12.78.52,1.54.46,2.29-.07,14.37-.01,28.75-.01,43.12-.05,1.74,0,3.37.05,4.09,2.03Z"/><path class="uuid-fd4310f5-c420-4b62-a72d-fbc40541deb3" d="m293.23,151.39c-4.37-1.98-8.82-1.72-13.46-.94-4.05.68-8.22.63-12.34.9.08-.76.16-1.52.24-2.28,4.81-4.49,10.56-5.8,16.94-5.11,4.12.45,7.22,2.19,8.67,6.27-.02.39-.04.78-.06,1.17Z"/><path class="uuid-61961606-5ce7-4a8f-8df5-ecd4b37fb6b1" d="m898.25,263.87c-3.08,1.99-4.58,5.23-6.4,8.2-2.11,3.43-4.79,6.34-7.81,8.96-.41.35-.78.79-1.78.46,1.62-2.27,4.12-3.47,5.52-5.71,2.06-3.28,4.31-6.45,6.52-9.64.94-1.36,1.79-2.93,3.9-2.44,0,0,.05.17.05.17Z"/><path class="uuid-3070a7d1-0e87-45e7-b547-a1826eae80e6" d="m129.74,388.5c-1.28.92-2.59.84-3.9.08,1.28-.93,2.59-.84,3.9-.08Z"/><path class="uuid-3070a7d1-0e87-45e7-b547-a1826eae80e6" d="m847.45,382.41c-.76.74-1.51.76-2.23-.06.76-.69,1.51-.72,2.23.06Z"/><path class="uuid-ddae29c2-e149-4749-91e0-51e960289f7e" d="m245.83,241.21c-.29.45-.7.49-1.17.36.2-.74.51-1.13,1.17-.36Z"/><path class="uuid-ddae29c2-e149-4749-91e0-51e960289f7e" d="m300.81,231.39c-.75.53-1.51.59-2.29.07.75-.34,1.51-.34,2.29-.07Z"/><path class="uuid-cec1a134-7b10-4e4c-8d74-290d76263ae1" d="m217.96,405.7c7.39,1.24,14.77,2.56,22.19,3.68,7.78,1.17,15.61,2.03,23.47,2.54,9.73.62,19.47.95,29.19-.02,13.57-1.35,26.86-3.62,38.17-12.1.73-.55,1.35-1.25,2.02-1.88,11.01,1.23,21.7,4,32.36,6.89,16.75,4.54,32.87,10.61,47.51,20.15,5.96,3.89,11.08,8.75,15.8,14.02,2.09,2.33,2.79,5.42,4.14,8.16.14.62.24,1.27.44,1.87,2.41,7.13,3.9,14.47,5.15,21.88,1.54,9.15,2.18,18.4,3.31,27.59-.08,3.24.34,6.46.45,9.69.39,11.93.89,23.87.7,35.82-.04,2.31-.52,3.93-2.83,4.67-2.33.57-4.65,1.17-6.98,1.71-9.35,2.14-18.63,2.82-27.61-1.56-2.04-1.11-3.72-2.48-3.79-5.06-.24-8.34-.97-16.65-1.84-24.95-.71-6.79-1.36-13.6-2.64-20.32-.5-7.5-2.1-14.84-3.24-22.23-1.17-7.57-1.87-8.04-9.5-9.44-.18-.03-.37-.03-.55-.06-11.71-2.27-23.43-4.55-35.14-6.82-.64-5.43-1.18-10.88-3.09-16.06-4.76-12.89-14.34-20.86-26.59-26.09-.93-.39-2.41-1.59-2.87-.44-.52,1.27,1.43,1.32,2.33,1.7,16.98,7.26,27.19,19.48,28.44,38.39.07,1.06-.35,2.52,1.14,3.17.35,2.93.72,5.87,1.05,8.8,1.09,9.85.94,19.75.99,29.64-.99,4.54-.51,9.18-.93,13.76-.97,10.49-1.89,20.98-3.23,31.43-.32,2.48-1.17,3.94-3.54,4.52-1.71.4-3.43.78-5.12,1.22-10.4,2.71-20.67,3.49-30.58-1.83-1.84-1.55-2.18-3.55-2.3-5.9-.65-12.21-.35-24.43-.45-36.65-.02-2.22.9-4.39.23-6.61.43-7.87.92-15.74,1.26-23.61.27-6.34.23-6.52-6.02-7.9-12.85-2.85-25.79-5.24-38.75-7.59-9.19-1.66-18.64-2.17-27.43-5.75-8.25-5.43-11.92-13.63-13.75-22.91-1.65-8.42-1.6-16.95-1.51-25.48Z"/><path class="uuid-f83635b8-d917-424e-bcba-e39f2e59dce8" d="m679.94,497.94c-.02,11.86-.02,23.71-.08,35.56-.01,3.05-.37,6.11-.27,9.16.08,2.43-.55,4.33-2.59,5.71-7.27,3.46-14.84,4.38-22.8,3.12-4.32-.68-8.45-2.08-12.75-2.79-2.64-.68-3.46-2.52-3.68-5.1-.74-8.41-1.77-16.79-2.49-25.2-.58-6.83-.87-13.69-1.3-20.54-.04-12.5.1-24.99,2-37.39,1.99-1.94,1.09-4.57,1.41-6.83,2.26-15.65,10.81-26.39,24.95-32.99,1.96-.91,3.84-1.99,5.75-2.99-.13-.23-.26-.47-.38-.7-6.3,2.39-12.2,5.43-17.41,9.93-10.08,8.71-14.19,20.03-14.83,32.95-1.18.25-2.35.54-3.53.74-11.34,1.85-22.6,4.12-33.81,6.63-6.88,1.54-6.85,1.67-7.9,8.67-.07.46-.19.91-.25,1.37-.94,7.06-2.62,14.02-3.04,21.16-.19.62-.48,1.22-.56,1.85-1.77,13.89-3.47,27.8-3.97,41.81-.11,3-.83,5.2-3.49,6.64-6.85,3.18-13.98,3.88-21.45,2.84-4.62-.64-8.99-2.22-13.57-2.93-2.31-.66-2.98-2.13-2.9-4.55.22-7.05.06-14.1.24-21.15.21-8.15.63-16.3.95-24.45.65-1.4.49-2.91.62-4.37.62-7.2,1.53-14.37,2.55-21.52,1.23-8.64,3.45-17.04,5.87-25.4,4.2-11.55,13.59-18.14,23.3-24.43,1.85-1.2,3.99-1.93,5.61-3.51,0,0-.04.03-.04.03.53.04.96-.11,1.23-.59,2.44-.54,4.86-1.2,7.31-1.61,15.64-2.61,31.27-5.32,46.77-8.7,4.06-.89,8.08-1.95,12.12-2.93,1.05,1.67,2.91,1.9,4.54,2.43,13.86,4.48,28.18,6.63,42.62,7.96,24.2,2.23,47.29-2.63,69.8-11.11.51-.19,1.05-.33,1.57-.49-.05,4.09-.1,8.17-.16,12.26-.16,11.19-1.88,21.97-8.33,31.5-4.39,5.03-9.92,7.86-16.5,8.97-13.44,2.27-26.87,4.6-40.27,7.11-6.73,1.26-13.53,2.34-20.05,4.59-1.43.49-2.42,1.07-2.3,2.9.55,8.8.99,17.6,1.46,26.4Z"/><path class="uuid-a27a0e52-edc7-40f0-8471-34f3877e6eab" d="m551.24,447.16c-2.42,8.36-4.64,16.76-5.87,25.4-1.02,7.16-1.93,14.32-2.55,21.52-.13,1.47.03,2.98-.62,4.37-33.5,0-66.99,0-100.49,0-1.13-9.19-1.77-18.44-3.31-27.59-1.25-7.41-2.74-14.75-5.15-21.88-.2-.6-.3-1.25-.44-1.87,39.48.01,78.95.02,118.43.03Z"/><path class="uuid-12d9f85a-c96a-4af3-9a37-99f99f2058a4" d="m647.55,405.42c-4.04.98-8.06,2.05-12.12,2.93-15.5,3.38-31.12,6.09-46.77,8.7-2.46.41-4.88,1.06-7.31,1.61-.44.13-1.06-.11-1.23.59,0,0,.04-.03.04-.03-4.32-.4-8.15,1.5-12.13,2.65-6.59,1.91-12.88,4.75-19.72,5.87-1.83.3-3.31.32-4.53-1.13-1.19-1.43-1.41-3.04-.41-4.65.69-1.11.48-1.73-.6-2.48-1.86-1.29-2.31-3.13-1.18-5.13.61-1.08.67-1.69-.51-2.44-1.71-1.09-2.18-2.85-1.24-4.62.75-1.42.6-2.1-.67-3.17-2.74-2.3-1.84-5.77,1.64-6.84,1.86-.57,3.76-1.13,5.68-1.36,2.25-.28,2.24-1.16,1.07-2.64-2.16-2.72-3.82-5.7-4.82-9.04-.08-.27-.23-.52-.26-.79-.2-1.96-1.35-4.41.88-5.58,1.91-1.01,3.52.89,4.58,2.3,4.97,6.55,11.41,11.01,18.87,14.28,3.2,1.41,6.11,1.91,9.57.74,11.68-3.96,23.59-7.22,35.06-11.84,3.97-1.6,6.04-4.43,7.21-8.22,2.96-9.64,3.83-19.62,4.76-29.59,7.34.99,14.42,3.2,21.67,4.63,2.26.44,4.48,1.17,6.76,1.48,1.8.25,2.11,1.19,1.91,2.68-1.63,11.88-3.33,23.74-4.84,35.63-.65,5.13-.89,10.3-1.32,15.46Z"/><path class="uuid-93ed5f14-bcb6-4da3-beec-d46b75eefa64" d="m757.59,447.97c6.45-9.53,8.17-20.31,8.33-31.5.06-4.09.11-8.17.16-12.26.08-.05.14-.13.23-.16,5.86-1.62,6.95-5.72,6.61-11.26-.46-7.41-1.4-14.76-1.88-22.16,4.89-1.02,9.76-2.13,14.67-3.03,7.8-1.43,11.09,1.29,11.1,9.11.02,10.47-.03,20.94-.02,31.42,0,1.29.22,2.58.34,3.87-.82,5.29-3.47,9.94-5.33,14.86-3.28,8.66-6.86,17.2-10.33,25.78-.38.93-.59,1.98-1.55,2.57-6.93-4.02-14.37-6.45-22.34-7.24Z"/><path class="uuid-a27a0e52-edc7-40f0-8471-34f3877e6eab" d="m757.59,447.97c7.97.79,15.41,3.22,22.34,7.24.05,2.23-1.14,4.1-1.9,6.05-3.93,10.1-7.91,20.19-12.14,30.18-1.8,4.25-5.31,6.45-10.12,6.45-25.28-.01-50.56.02-75.84.04-.48-8.8-.92-17.6-1.46-26.4-.11-1.83.88-2.4,2.3-2.9,6.52-2.25,13.31-3.33,20.05-4.59,13.4-2.51,26.83-4.84,40.27-7.11,6.58-1.11,12.11-3.94,16.5-8.97Z"/><path class="uuid-12d9f85a-c96a-4af3-9a37-99f99f2058a4" d="m641.46,548.69c4.3.71,8.43,2.11,12.75,2.8,7.95,1.26,15.53.34,22.8-3.12.61,6.5-.58,12.95-.59,19.44,0,4.34-.51,8.69-.8,13.03-.06.91.17,1.89-.64,2.61-9.13-2.44-18.01-1.35-26.73,1.91-.12-.92-.18-1.84-.35-2.74-2.14-11.31-4.29-22.62-6.43-33.92Z"/><path class="uuid-eb565134-aab8-4c9d-a2e0-fb540fdb09e1" d="m648.24,585.36c8.72-3.26,17.6-4.35,26.73-1.92,2.55,1.28,2.2,3.7,2.33,5.93-.99,1.73-1.11,3.47-.86,5.51.41,3.47.17,7.03.25,10.54.03,1.19-.27,2.42.34,3.55,0,0,.09.07.09.07-1.08,1.02-.45,2.25-.44,3.41,0,1.43.72,3.6-.68,4.02-1.32.4-1.64-1.87-2.21-3.03-1.62-3.31-3.18-6.6-7.54-6.86-.59-.04-1.1-.26-1.16-.95-.29-3.2-3.06-4.07-5.2-5.52-.69-.68-1.49-.58-2.32-.34-1.11.07-2.22.15-3.34.22-1.49-.14-2.83.44-4.2.89-.05-1-.11-2-.15-3-.13-2.86.49-5.82-1.14-8.48l-.5-4.05Z"/><path class="uuid-93ed5f14-bcb6-4da3-beec-d46b75eefa64" d="m217.96,405.7c-.09,8.53-.15,17.06,1.51,25.48,1.82,9.28,5.5,17.47,13.75,22.91-.06,3.62,0,7.24-.23,10.85-.2,3.23-.61,6.47-2.58,9.26-1.37,1.95-3.11,2.48-5.33,1.7-3-1.06-5.14-3.25-7.26-5.46-5.15-5.39-8.92-11.82-13.32-17.78-6.45-13.82-11-28.38-16.74-42.48-2.96-7.28-4.74-15.08-9.36-21.65-4.24-19.51-6.14-39.22-5.04-59.18.07-1.2.22-2.4.44-3.58.75-4.09,2.97-4.87,6.19-2.16,4.17,3.51,7.14,8.03,10.25,12.42,1.28,1.82,2.56,3.64,3.84,5.46,1.06,4.68,1.84,9.43,3.46,13.97,3.48,9.77,9.33,17.77,17.64,23.98.73,1.97,1.46,3.94,2.19,5.91-.53,5.5-.91,11.02-1.66,16.49-.29,2.16.32,3.25,2.24,3.86Z"/><path class="uuid-a27a0e52-edc7-40f0-8471-34f3877e6eab" d="m204.51,452.64c4.4,5.96,8.17,12.39,13.32,17.78,2.12,2.22,4.26,4.41,7.26,5.46,2.22.78,3.96.25,5.33-1.7,1.96-2.79,2.37-6.02,2.58-9.26.23-3.61.17-7.23.23-10.85,8.79,3.58,18.24,4.09,27.43,5.75,12.96,2.34,25.9,4.74,38.75,7.59,6.25,1.39,6.29,1.56,6.02,7.9-.34,7.87-.84,15.74-1.26,23.61-25.47.03-50.94.09-76.41.08-3.82,0-6.61-2.06-8.05-5.46-2.78-6.57-5.31-13.25-7.88-19.91-2.5-6.49-4.92-13-7.4-19.5-.21-.55-.44-1.03.09-1.5Z"/><path class="uuid-ddae29c2-e149-4749-91e0-51e960289f7e" d="m306.68,548.09c9.91,5.32,20.19,4.54,30.58,1.83,1.7-.44,3.42-.81,5.12-1.22-1.4,12.28-4.5,24.24-6.77,36.35-3.87-1.61-8.01-2.53-12.09-2.69-5.06-.19-10.38-1.48-15.18,1.46.05-11.94-.89-23.84-1.67-35.74Z"/><path class="uuid-eb565134-aab8-4c9d-a2e0-fb540fdb09e1" d="m308.35,583.83c4.81-2.95,10.13-1.66,15.18-1.46,4.08.16,8.22,1.07,12.09,2.69,0,.9,0,1.81,0,2.71-.92,2.67-2.09,5.2-1.2,8.25.41,1.41.79,3.31-.6,4.72-1.46-.39-2.87-1.07-4.45-.89-.86-.04-1.73-.08-2.59-.12-1.03-.2-2.06-.35-2.93.47-.6.41-1.19.83-1.79,1.24-2.51.7-2.17,3.61-3.5,4.76-1.48,1.27-4.31.82-5.77,2.83-.38.52-.73,1.07-1.04,1.64-.8,1.45-1.5,2.96-2.37,4.36-.35.56-.28,1.77-1.26,1.55-1.06-.24-.61-1.37-.72-2.13-.28-1.82.65-3.69-.21-5.49-.27-4.99.42-9.95.57-14.92.06-2.14-.42-4.19-1.08-6.21-.13-1.62.85-2.77,1.66-3.99Z"/><path class="uuid-22dbc6ba-4b2b-42b8-b2dd-82caf548ac07" d="m217.38,385.35c-.73-1.97-1.46-3.94-2.19-5.91,3.41.97,3.14,3.32,2.19,5.91Z"/><path class="uuid-ea299c9f-7741-40b7-8247-7f3e417c09bc" d="m270.41,194.03c2.25-2.78,8-4.66,11.75-3.98.57.1,1.15.23,1.25.76.12.65-.54.89-1.16.99-2.25.37-4.51.68-6.77,1.01-1.68.24-3.02,1.28-5.08,1.22Z"/><path class="uuid-61961606-5ce7-4a8f-8df5-ecd4b37fb6b1" d="m286.67,213.85c-.09,0-.21.02-.27-.02-.93-.61-2.97.34-2.85-1.31.08-1.04,1.75-.22,2.69-.18,3.1.12,4.23-.99,3.36-3.99-1.35-4.66.13-8.93,1.3-13.29.14-.51.16-1.25.97-.95.68.25.47.91.34,1.44-.4,1.7-.8,3.4-1.25,5.08-.72,2.65-.55,5.23.1,7.91.84,3.4-.92,5.37-4.38,5.31Z"/><path class="uuid-ea299c9f-7741-40b7-8247-7f3e417c09bc" d="m303.78,195.87c-.04.35.09.72-.35.9-.27.11-.49-.03-.66-.21-1.39-1.49-3.43-2.31-5.18-3.43-.52-.33-1.42-.69-.83-1.4.53-.64,1.35-.56,2.11-.18,1.58.79,3,1.74,4.23,2.87.46.42.63.93.68,1.44Z"/><path class="uuid-6d368e7a-b6a8-4b4b-bc99-56075b26bd82" d="m276.49,218.61c-.55-.67-1.66-.8-1.89-2.12,3.97,1.16,8.06.58,11.85,2.06,1.43.56,1.98,2.09,3.36,2.74.31.15-1.01.35-1.39.83-3.98-1.17-7.96-2.34-11.94-3.51Z"/><path class="uuid-ea299c9f-7741-40b7-8247-7f3e417c09bc" d="m284.08,235.06c-2.42,1.57-4.93.74-7.24.25-2.77-.59-5.4-1.87-8.07-2.89-.65-.25-1.68-.52-1.23-1.46.37-.77,1.15-.16,1.69.13,4.63,2.44,9.62,3.51,14.85,3.97Z"/><path class="uuid-6d368e7a-b6a8-4b4b-bc99-56075b26bd82" d="m276.49,218.61c3.98,1.17,7.96,2.34,11.94,3.51-.03.09-.04.19-.09.26-2.25,2.68-4.89,1.09-7.32.5-2.19-.53-4.51-1.28-4.53-4.27Z"/><path class="uuid-12d9f85a-c96a-4af3-9a37-99f99f2058a4" d="m311.57,264.34c-5.18,1.43-10.14,2.81-15.11,4.17-.51.14-1.17.31-1.35-.43-.06-.24.27-.82.49-.86,5.22-1,10.06-3.66,15.53-3.53.05,0,.09.13.44.66Z"/><path class="uuid-61961606-5ce7-4a8f-8df5-ecd4b37fb6b1" d="m297.55,199.67c.84.23,1.65.4,2.42.7.76.3,1.85.78,1.55,1.65-.43,1.23-1.35.24-2.04-.01-1.37-.51-2.71-.45-4.07.06-.63.24-1.48.97-1.84-.13-.28-.84.6-1.26,1.31-1.5.86-.3,1.76-.51,2.67-.77Z"/><path class="uuid-61961606-5ce7-4a8f-8df5-ecd4b37fb6b1" d="m276.83,197.52c.8.18,1.64.28,2.4.57.84.32,2.08.8,1.62,1.85-.5,1.14-1.44.02-2.12-.22-1.51-.54-2.92-.3-4.34.25-.49.19-1.07.63-1.41-.14-.28-.62.12-1.1.64-1.35,1-.48,2.01-1.01,3.21-.96Z"/><path class="uuid-12d9f85a-c96a-4af3-9a37-99f99f2058a4" d="m298.27,274.37c3.34-1.72,7.03-2.18,10.63-2.97,0,.27,0,.54-.01.81-3.29,1.9-7.06,2.13-10.63,3.06,0-.3.01-.6.02-.9Z"/><path class="uuid-12d9f85a-c96a-4af3-9a37-99f99f2058a4" d="m306.22,281.12c-2.52,1.65-5.58,1.47-8.3,2.46-.24.09-.84-.14-.9-.34-.21-.67.3-1,.87-1.14,2.58-.62,5.16-1.2,7.74-1.8.2.27.4.54.59.81Z"/><path class="uuid-12d9f85a-c96a-4af3-9a37-99f99f2058a4" d="m306.22,281.12c-.2-.27-.4-.54-.59-.81,2.49-.6,4.97-1.2,7.46-1.8.06.29.12.58.18.87-2.35.58-4.7,1.16-7.05,1.74Z"/><path class="uuid-12d9f85a-c96a-4af3-9a37-99f99f2058a4" d="m296.7,275.57c-.47.65-1.39.71-1.59.18-.28-.75.32-1.05,1.05-1,.18.27.36.55.53.82Z"/><path class="uuid-12d9f85a-c96a-4af3-9a37-99f99f2058a4" d="m308.88,272.21c0-.27.01-.54.01-.81.72-.08,1.44-.15,2.16-.23,0,0,.02.19.02.19,0,0,.19.06.19.06-.64.76-1.59.52-2.39.78Z"/><path class="uuid-12d9f85a-c96a-4af3-9a37-99f99f2058a4" d="m296.7,275.57c-.18-.27-.36-.55-.53-.82.7-.12,1.4-.25,2.11-.37,0,.3-.01.6-.02.9-.52.1-1.04.2-1.55.3Z"/><path class="uuid-61961606-5ce7-4a8f-8df5-ecd4b37fb6b1" d="m880.9,278.77c6.45-5.65,10.02-13.32,14.34-20.46-3.38,7.81-6.82,15.57-14.34,20.46Z"/><path class="uuid-61961606-5ce7-4a8f-8df5-ecd4b37fb6b1" d="m883.96,284.85c4.96-4.05,7.5-9.28,11.07-13.74.51-.64,1.2-1.15,1.85-1.67.29-.23.71-.33,1,.01.3.35.13.7-.19.94-4.69,3.54-6.41,9.5-10.84,13.25-.61.51-.96,1.4-2.88,1.2Z"/><path class="uuid-61961606-5ce7-4a8f-8df5-ecd4b37fb6b1" d="m872.71,280.18c-1.56,2.6-4.44,3.31-6.7,4.92,1.27-2.96,4.56-3.16,6.7-4.92Z"/><path class="uuid-ea299c9f-7741-40b7-8247-7f3e417c09bc" d="m713.89,192.41c-3.72-2-7.62-.53-11.52.73-.98.32-1.92.44-2.39-.62-.52-1.17.52-1.77,1.3-2.11,4.48-1.96,9.11-2.41,13.81-.84.85.28,1.44.97,1.18,1.94-.27,1.02-1.1,1.11-2.38.9Z"/><path class="uuid-ea299c9f-7741-40b7-8247-7f3e417c09bc" d="m699.24,234.77c6.46-.1,11.91-1.45,17.37-4.51-1.81,3.69-13.21,6.71-17.37,4.51Z"/><path class="uuid-ea299c9f-7741-40b7-8247-7f3e417c09bc" d="m699.09,220.88c-.82-.22-2.24.16-2.33-.88-.11-1.27,1.28-1,2.13-.98,2.45.07,4.77-.38,6.94-1.56.45-.25,1.04-.7,1.44-.03.44.73-.08,1.19-.68,1.55-2.3,1.39-4.89,1.56-7.49,1.89Z"/><path class="uuid-ea299c9f-7741-40b7-8247-7f3e417c09bc" d="m687.59,199.59c.86.11,1.37.56,1.3,1.46-.07.86-.58,1.4-1.43,1.37-.86-.04-1.32-.66-1.32-1.5,0-.91.61-1.27,1.45-1.33Z"/><path class="uuid-ea299c9f-7741-40b7-8247-7f3e417c09bc" d="m705.85,197.85c.83.02,1.41.4,1.51,1.27.11,1-.41,1.65-1.38,1.68-.81.02-1.36-.49-1.39-1.4-.03-.87.39-1.38,1.25-1.56Z"/><path class="uuid-12d9f85a-c96a-4af3-9a37-99f99f2058a4" d="m330.89,277.75c3.4-1.03,6.48.78,9.73,1.13.17.02.46.63.38.87-.07.22-.6.51-.84.45-3.08-.88-6.46-.57-9.29-2.41,0,0,.01-.04.01-.04Z"/><path class="uuid-12d9f85a-c96a-4af3-9a37-99f99f2058a4" d="m331.38,262.55c3.39,0,6.57.92,9.68,2.25-3.35-.06-6.73.13-9.72-1.89-.02-.13,0-.25.05-.36Z"/><path class="uuid-12d9f85a-c96a-4af3-9a37-99f99f2058a4" d="m345.27,258.85c1.56.32,3.11.64,4.67.96-1.73.36-3.62,1.16-4.59-1,0,0-.07.04-.07.04Z"/><path class="uuid-61961606-5ce7-4a8f-8df5-ecd4b37fb6b1" d="m419.88,636.44c-1.82-.46-3.59-.48-5.48-.04-5.98,1.38-10.92-3.15-10-9.12.59-3.84,2.1-7.76.76-11.52-.75-2.1-.78-3.53.44-5.17,1.01,1.29-.37,4.43,3.01,3.87-.01.88-.03,1.77-.04,2.65-.88.99-1.4,2.13-1.52,3.45-.3.66-.69,1.3-.9,1.99-1.56,5.2.61,7.85,5.95,7.26,1.63-.18,3.3-.3,4.76-1.2,4.49-.4,8.91-.27,13.05,1.8,11.71,7.68,23.56,14.95,38.76,13.12-.54-1.14-1.33-1.18-2.01-1.39-2.47-.78-4.95-1.51-7.4-2.35-1.13-.38-2.63-.91-2.3-2.33.33-1.41,1.87-.75,2.89-.7,3.46.18,6.64,1.64,9.99,2.31,2.91.58,5.84,1.07,8.72-.2,6.63-.1,10.46,6.37,7.35,12.38-1.96,3.8-5.28,5.97-9.13,7.3-11.86,4.09-23.97,4.57-36.31,2.63-14.15-2.22-28.06-5.55-42.01-8.7-1.17-.26-2.31-.68-3.46-1.06-1.25-.41-2-1.44-1.58-2.57,1.04-2.79.53-5.73,1.13-8.52.24-1.11,0-2.81,1.94-2.89,1.25,1.61,3.25,1.67,4.95,2.27,2.68.94,4.88,2.51,6.05,5.01,2.68,5.7,7.42,8.57,13.19,10.17,9.67,2.67,19.37,5.19,29.54,4.68,7.92-.39,15.68-1.53,22.99-4.84,1.13-.51,2.2-.93,2.31-2.43.12-1.77-.1-2.68-2.38-2.38-7.26.94-14.55,1.78-21.89.82.36-1.18,1.07-2.26-.73-3.15-7.12-3.55-13.8-7.88-20.61-11.97-3.2-1.93-7.3-1.43-10.06.84Z"/><path class="uuid-61961606-5ce7-4a8f-8df5-ecd4b37fb6b1" d="m532.76,650.77c-7.15.88-14.24-.07-21.35-.68-.96-.08-2.34-1.13-2.8.53-.43,1.58-.19,3.09,1.68,3.91,4.01,1.76,8.15,3.05,12.45,3.85,15.92,2.97,31.16.23,45.99-5.65,3.14-1.24,5.54-3.49,6.94-6.52,1.78-3.85,4.68-6.09,8.7-7.09,1.16-.29,2.32-.63,3.01-1.74,2.32.35,2.11,2.33,2.26,3.85.25,2.39.14,4.77,1.01,7.12.79,2.12-.91,3.05-2.62,3.47-5.49,1.36-10.99,2.65-16.51,3.89-10.95,2.46-21.92,4.95-33.1,6.1-11.86,1.22-23.6.54-34.53-4.89-6.66-3.31-8.46-10.13-4.69-15.84,1.27-1.91,3.1-2.08,4.98-2.41,4.2,1.55,8.37,1.04,12.54-.2,2.93-.87,5.84-1.86,8.95-1.81.54,0,1.17-.03,1.43.6.29.73-.1,1.27-.65,1.67-1.37.99-2.99,1.44-4.58,1.94-2.15.68-4.48.9-6.95,2.6,5.5.86,10.3.18,15.05-.91,9.05-2.07,16.53-7.33,24.2-12.18,4.15-2.01,8.53-2.25,13.02-1.74,1.33.73,2.81.91,4.27,1.1,6.09.77,8.26-1.95,6.26-7.83-.18-.52-.51-.98-.77-1.47-.08-1.28-.55-2.39-1.46-3.31-.03-.88-.07-1.75-.1-2.63,1.75.14,2.59-.62,2.45-2.42-.06-.73-.07-1.48.46-2.1,1.11,1.91,1.71,3.59.57,6.01-1.02,2.16-.44,4.91.09,7.38.25,1.17.52,2.35.73,3.53,1.06,6.03-3.87,10.86-9.86,9.49-1.98-.45-3.83-.39-5.74.03-2.77-2.48-7.04-2.7-10.76-.39-6.37,3.96-12.67,8.03-19.46,11.25-1.83.87-1.7,2.01-1.12,3.47Z"/><path class="uuid-046cf268-a970-4056-9fb3-2b11a2180dc4" d="m603.58,636.3c3.35.37,5.94-1.8,8.72-2.98,3.41-1.45,7.07-2.53,10.11-4.82,4.96,1.07,9.98.52,14.98.56,3.84.03,7.33-.98,9.82-4.24.87-1.15,2.06-1.85,3.53-2.02-1.51,3.98-.65,7.49,2.16,10.59-11.06,6.31-22.35,11.84-35.63,10.88-1.23-.09-2.59.26-3.65-1.08,2.59-1.62,5.64-1.25,8.27-2.31,1.46-.59,4.08-.64,3.61-2.6-.43-1.81-2.9-.96-4.46-.77-3.12.39-6.23.98-9.33,1.56-3.22.61-6.28.08-9.25-1.16.39-.53,1.19-.76,1.12-1.61Z"/><path class="uuid-046cf268-a970-4056-9fb3-2b11a2180dc4" d="m554.17,630.39c-7.67,4.85-15.15,10.1-24.2,12.17-4.74,1.09-9.55,1.77-15.05.91,2.47-1.7,4.8-1.92,6.95-2.6,1.59-.5,3.21-.95,4.58-1.94.55-.39.94-.94.65-1.67-.26-.64-.89-.6-1.43-.6-3.11-.05-6.03.94-8.95,1.81-4.17,1.24-8.33,1.75-12.54.2.96-1.86,4.06-.94,4.51-3.46,5.16-1.12,9.26-4.4,13.79-6.81.32-.17.66-.29,1-.44,3.7-.03,7.41.05,11.11-.12,5.26-.25,10.39-.94,13.7-5.87.63-.94,1.72-1.38,2.73-1.85-1.03,4.07-.38,7.62,3.15,10.29Z"/><path class="uuid-046cf268-a970-4056-9fb3-2b11a2180dc4" d="m478.56,638.87c-2.88,1.26-5.81.77-8.72.2-3.35-.67-6.53-2.13-9.99-2.31-1.02-.05-2.56-.72-2.89.7-.33,1.42,1.17,1.94,2.3,2.33,2.45.84,4.93,1.57,7.4,2.35.68.22,1.47.25,2.01,1.39-15.2,1.83-27.05-5.44-38.76-13.12,3.5-2.62,4.01-6.18,3.23-10.15,1.5.38,2.69,1.19,3.5,2.52,1.33,2.18,3.32,3.54,5.73,4.05,6.06,1.27,12.22,1.29,18.38,1.11,4.02,2.21,8.04,4.41,12.06,6.62.93.51,1.9.7,2.94.64-.14,2.05,3.07,1.53,2.81,3.68Z"/><path class="uuid-046cf268-a970-4056-9fb3-2b11a2180dc4" d="m361.63,628.94c5.1,2.19,10.24,4.3,15.28,6.63,1.16.54,2.22.72,3.4.73-.06.86.78,1.09,1.14,1.67-5.67,2.65-11.29.66-16.9-.24-1.47-.24-2.92-.52-4.41-.36-.62.07-1.41-.04-1.64.74-.26.88.37,1.4,1.05,1.74,2,1.01,4.17,1.48,6.36,1.89,1.61.3,3.28.47,5.28,1.87-15.32,2.69-27.71-3.28-39.88-10.16,2.55-3.18,3.81-6.62,2.06-10.63,1.69-.03,2.74,1.08,3.64,2.25,2.17,2.82,5.19,3.87,8.51,3.94,5.37.12,10.74-.03,16.11-.07Z"/><path class="uuid-12d9f85a-c96a-4af3-9a37-99f99f2058a4" d="m339.51,273.27c-2.57-.63-5.15-1.26-7.72-1.9-.44-.11-.98-.3-.66-.9.13-.24.61-.5.87-.44,2.78.6,5.54,1.25,8.31,1.89.39.09.69.33.57.76-.21.73-.78.64-1.37.6Z"/><path class="uuid-fd4310f5-c420-4b62-a72d-fbc40541deb3" d="m662.71,640.15c-5.46,3.29-10.46,7.39-16.38,9.87-5.12,2.14-10.58,2.43-16.08,2.11-.76-1.93.01-2.86,1.86-3.65,6.54-2.78,12.87-6,19.14-9.35,4.43-2.37,8.41-1.93,11.45,1.02Z"/><path class="uuid-cec1a134-7b10-4e4c-8d74-290d76263ae1" d="m652.89,633.39c-2.81-3.1-3.67-6.61-2.16-10.59,1.79-.79,3.58-1.57,5.36-2.36-.05,1.11-.16,2.22-.12,3.33.05,1.47.75,2.66,2.33,2.55,6.03-.41,11.85-1.65,17.11-4.85.62,1.25,1.43,2.45,1.31,3.94-3.17,2.77-6.75,4.94-10.31,7.14-4.58-.9-9.12-1.16-13.51.84Z"/><path class="uuid-046cf268-a970-4056-9fb3-2b11a2180dc4" d="m675.41,621.46c-5.25,3.2-11.07,4.45-17.11,4.85-1.57.11-2.28-1.09-2.33-2.55-.04-1.11.07-2.22.12-3.32,2.1-4.21,5.45-5.07,9.68-3.61.69.24,1.42.41,2.14.5,1.78.23,2.58-.42,1.57-2.15-1.06-1.81-2.28-3.53-3.42-5.29,2.73-.56,4.26,1.05,5.64,3.04,1.35,1.97,1.86,4.47,3.82,6.04-.44.81-.17,1.65-.12,2.49Z"/><path class="uuid-f83635b8-d917-424e-bcba-e39f2e59dce8" d="m675.52,618.97c-1.96-1.58-2.47-4.08-3.82-6.04-1.37-2-2.9-3.61-5.64-3.04-2.46-2.93-5.68-1.99-8.77-1.71.6-.22,1.21-.43,1.8-.67,1.83-.74,2.76-2.47,2.79-4.09.03-1.76-1.96-1.82-3.38-2.12.46-.4.92-.8,1.38-1.19,2.14,1.45,4.91,2.31,5.2,5.52.06.69.57.91,1.16.95,4.37.27,5.92,3.55,7.54,6.86.57,1.16.88,3.43,2.21,3.03,1.4-.42.68-2.59.68-4.02,0-1.16-.63-2.39.44-3.41.22.15.45.3.67.44.39,1.65.89,3.28.75,5.01-.54,1.8.14,4.43-3.01,4.48Z"/><path class="uuid-046cf268-a970-4056-9fb3-2b11a2180dc4" d="m666.4,632.54c3.56-2.2,7.15-4.37,10.31-7.14.75.9.81,2.04.91,3.11.39,4.11-1.61,6.07-5.69,5.59-1.91-.22-3.79-.65-5.53-1.56Z"/><path class="uuid-fd4310f5-c420-4b62-a72d-fbc40541deb3" d="m353.72,652.1c-7.16.45-14.09-.3-20.32-4.23-3.99-2.52-8.13-4.82-11.85-7.76,2.73-2.79,6.3-3.45,10.68-1.24,6.94,3.49,13.79,7.14,20.92,10.22,1.92.83.46,2,.57,3.01Z"/><path class="uuid-cec1a134-7b10-4e4c-8d74-290d76263ae1" d="m333.36,622.82c1.75,4.02.49,7.45-2.06,10.63-4.45-2.17-9.09-1.63-13.73-.96-3.41-2.24-7.17-3.98-9.93-7.12-.49-1.53.5-2.65,1.07-3.88,3.79,2.74,8.33,3.36,12.7,4.32,6.29,1.39,6.69.97,6.6-5.3,1.79.77,3.57,1.54,5.36,2.31Z"/><path class="uuid-046cf268-a970-4056-9fb3-2b11a2180dc4" d="m328,620.51c.09,6.27-.31,6.69-6.6,5.3-4.37-.97-8.91-1.59-12.7-4.32,0-.67-.01-1.34-.02-2,1.27-2.24,2.46-4.53,3.84-6.69,1.22-1.91,2.74-3.54,5.4-2.94-.36,1.3-1.41,2.13-2.15,3.18-.83,1.16-2.35,2.52-1.48,3.86.78,1.2,2.53.36,3.86.03,5.95-1.48,6.56-1.26,9.85,3.59Z"/><path class="uuid-f83635b8-d917-424e-bcba-e39f2e59dce8" d="m317.92,609.85c-2.66-.6-4.18,1.03-5.4,2.94-1.38,2.17-2.57,4.46-3.84,6.69-2.76.16-2.23-2.71-3.56-3.87.67-2.23,0-4.87,2.08-6.66.86,1.8-.08,3.67.21,5.49.12.76-.33,1.89.72,2.13.98.22.91-.99,1.26-1.55.87-1.4,1.58-2.91,2.37-4.36.31-.57.66-1.12,1.04-1.64,1.47-2.01,4.29-1.55,5.77-2.83,1.33-1.15.99-4.06,3.5-4.76.18.2.36.4.54.61-.89.99-.62,1.94-.07,3.01.91,1.78,2.53,2.52,4.22,3.23-3.14-.56-6.28-1.16-8.83,1.55Z"/><path class="uuid-046cf268-a970-4056-9fb3-2b11a2180dc4" d="m307.64,625.37c2.76,3.14,6.52,4.88,9.93,7.12-1.48,1.06-3.26,1.28-4.97,1.55-1.91.29-4.07.68-5.22-1.46-1.27-2.38-1.47-4.86.26-7.21Z"/><path class="uuid-22dbc6ba-4b2b-42b8-b2dd-82caf548ac07" d="m305.61,628.47c-.86-2.22-.8-4.44-.02-6.67.71,2.22.9,4.44.02,6.67Z"/><path class="uuid-22dbc6ba-4b2b-42b8-b2dd-82caf548ac07" d="m305.41,636.31c-1.58-1.66-1.33-3.36-.1-5.07.03,1.69.06,3.38.1,5.07Z"/><path class="uuid-22dbc6ba-4b2b-42b8-b2dd-82caf548ac07" d="m305.18,619.94c-.58.02-1.26.37-1.67-.27-.34-.53-.04-.98.45-1.3.41.52.81,1.04,1.22,1.57Z"/><path class="uuid-8217da4b-e852-4828-a1f8-e6ff6159cd04" d="m547.19,588.85c-36.83-.19-73.65-.37-110.48-.56.57-2.21,2.22-4.43-.04-6.63-.12-2.89.59-5.69.89-8.53.87-8.16,1.66-16.33,2.48-24.49,2.3-.74,2.79-2.36,2.83-4.67.19-11.95-.31-23.88-.7-35.82-.1-3.22-.53-6.45-.45-9.69,33.5,0,66.99,0,100.49,0-.33,8.15-.74,16.3-.95,24.45-.18,7.05-.01,14.11-.24,21.15-.08,2.41.59,3.89,2.9,4.55.59,5.98,1.11,11.98,1.8,17.95.58,5.05,1.34,10.07,2.03,15.11-1.71,1.05-2.09,2.47-1.15,4.23.49.93.73,1.9.6,2.94Z"/><path class="uuid-8217da4b-e852-4828-a1f8-e6ff6159cd04" d="m409.34,588.31c-24.57-.7-49.15-.41-73.72-.54,0-.9,0-1.81,0-2.71,2.27-12.12,5.37-24.08,6.77-36.35,2.38-.58,3.22-2.04,3.54-4.52,1.34-10.45,2.26-20.94,3.23-31.43.42-4.59-.06-9.23.93-13.76,15.7.35,31.37-.66,47.07-.53,1.28,6.72,1.93,13.53,2.64,20.32.86,8.29,1.59,16.6,1.84,24.95.07,2.59,1.75,3.96,3.79,5.06.46,4.22.84,8.44,1.39,12.65.81,6.22,1.74,12.42,2.61,18.63-.03,2.74-.06,5.49-.09,8.23Z"/><path class="uuid-a27a0e52-edc7-40f0-8471-34f3877e6eab" d="m397.17,498.46c-15.69-.12-31.37.88-47.07.53-.05-9.89.1-19.78-.99-29.64-.32-2.94-.7-5.87-1.05-8.8.22-.22.44-.44.66-.66,11.71,2.28,23.43,4.55,35.14,6.82.18.04.37.03.55.06,7.64,1.4,8.33,1.87,9.5,9.44,1.15,7.4,2.75,14.74,3.24,22.23Z"/><path class="uuid-ddae29c2-e149-4749-91e0-51e960289f7e" d="m409.44,580.07c-.88-6.21-1.8-12.41-2.61-18.63-.55-4.21-.93-8.43-1.39-12.65,8.99,4.38,18.26,3.7,27.61,1.56,2.34-.53,4.66-1.14,6.98-1.71-.82,8.16-1.62,16.33-2.48,24.49-.3,2.84-1.01,5.64-.89,8.53-2.31-.63-4.59-1.43-6.94-1.86-6.76-1.22-13.57-3.17-20.28.27Z"/><path class="uuid-ea299c9f-7741-40b7-8247-7f3e417c09bc" d="m348.73,459.89c-.22.22-.44.44-.66.66-1.48-.65-1.07-2.1-1.14-3.17-1.25-18.91-11.45-31.13-28.44-38.39-.9-.38-2.84-.43-2.33-1.7.47-1.15,1.95.05,2.87.44,12.25,5.23,21.84,13.2,26.59,26.09,1.92,5.19,2.46,10.63,3.09,16.06Z"/><path class="uuid-8217da4b-e852-4828-a1f8-e6ff6159cd04" d="m648.75,589.41c-1.2-.02-2.41-.04-3.61-.05-23.52-.18-47.05-.36-70.57-.54-.16-2.73,1.07-5.47-.02-8.2,1.46-10.64,2.92-21.28,4.39-31.92,2.65-1.43,3.38-3.64,3.49-6.64.5-14.01,2.2-27.91,3.97-41.81.08-.63.37-1.24.56-1.85,15.68.06,31.36.14,47.04-.55.42,6.85.71,13.7,1.3,20.54.72,8.41,1.75,16.79,2.49,25.2.23,2.58,1.04,4.42,3.68,5.1,2.15,11.31,4.3,22.61,6.43,33.92.17.9.24,1.82.35,2.74.17,1.35.34,2.7.51,4.05Z"/><path class="uuid-a27a0e52-edc7-40f0-8471-34f3877e6eab" d="m633.98,497.86c-15.67.68-31.35.61-47.04.55.41-7.14,2.1-14.09,3.04-21.16.06-.46.18-.91.25-1.37,1.05-7,1.02-7.13,7.9-8.67,11.21-2.51,22.47-4.79,33.81-6.63,1.19-.19,2.35-.49,3.53-.74.17.21.34.42.51.62-1.89,12.4-2.04,24.89-2,37.39Z"/><path class="uuid-12d9f85a-c96a-4af3-9a37-99f99f2058a4" d="m578.93,548.71c-1.46,10.64-2.92,21.28-4.39,31.92-3.81-3.38-8.31-2.41-12.71-2-.48-.32-.88-.2-1.22.23l-2.15.22c-.84-.23-1.67-.38-2.3.46-.53.07-1.06.15-1.58.22-.67-.4-1.08-.09-1.4.49-.32.07-.64.14-.96.21-.66-.61-.96-.13-1.23.41-1.08.27-2.16.53-3.24.8-.68-5.04-1.45-10.06-2.03-15.11-.68-5.97-1.21-11.97-1.8-17.95,4.58.71,8.95,2.29,13.57,2.93,7.47,1.04,14.59.34,21.45-2.84Z"/><path class="uuid-ea299c9f-7741-40b7-8247-7f3e417c09bc" d="m635.98,460.47c-.17-.21-.34-.42-.51-.62.64-12.92,4.75-24.24,14.83-32.95,5.21-4.5,11.11-7.54,17.41-9.93.13.23.26.47.38.7-1.91,1-3.79,2.08-5.75,2.99-14.15,6.6-22.69,17.34-24.95,32.99-.33,2.25.58,4.89-1.41,6.83Z"/><path class="uuid-3070a7d1-0e87-45e7-b547-a1826eae80e6" d="m580.11,419.25c.17-.7.79-.46,1.23-.59-.27.48-.7.63-1.23.59Z"/><path class="uuid-3070a7d1-0e87-45e7-b547-a1826eae80e6" d="m677.78,609.49c-.22-.15-.44-.3-.67-.44,0,0-.09-.07-.09-.07.39-.03.66.11.75.51Z"/><path class="uuid-3eaa896d-84c2-44e6-90bf-5bfa9bc69323" d="m649.88,601.68c.05-.27.1-.53.15-.8,1.37-.44,2.71-1.02,4.2-.88.04.37.08.74.12,1.12-1.43.72-2.95.63-4.48.57Z"/><path class="uuid-f83635b8-d917-424e-bcba-e39f2e59dce8" d="m654.36,601.12c-.04-.37-.08-.74-.12-1.12,1.11-.07,2.22-.15,3.34-.22.07.48.15.95.22,1.43-1.14-.03-2.29-.06-3.43-.08Z"/><path class="uuid-3eaa896d-84c2-44e6-90bf-5bfa9bc69323" d="m657.79,601.2c-.07-.48-.15-.95-.22-1.43.83-.24,1.63-.34,2.32.34-.46.4-.92.8-1.38,1.19-.24-.04-.48-.07-.72-.11Z"/><path class="uuid-f83635b8-d917-424e-bcba-e39f2e59dce8" d="m322.07,601.44c.6-.41,1.19-.83,1.79-1.24,1.09.52,2.02.14,2.93-.48.86.04,1.73.08,2.59.12.05.42.11.84.16,1.27-2.38-.23-4.67.18-6.92.93-.18-.2-.36-.4-.54-.61Z"/><path class="uuid-3eaa896d-84c2-44e6-90bf-5bfa9bc69323" d="m329.54,601.12c-.06-.42-.11-.84-.16-1.27,1.58-.18,2.99.49,4.45.89.06.31.13.63.19.94-1.52.07-3.04.11-4.47-.56Z"/><path class="uuid-3eaa896d-84c2-44e6-90bf-5bfa9bc69323" d="m326.78,599.73c-.9.61-1.84,1-2.93.48.87-.82,1.89-.68,2.93-.48Z"/><path class="uuid-eb565134-aab8-4c9d-a2e0-fb540fdb09e1" d="m409.44,580.07c6.71-3.43,13.52-1.49,20.28-.27,2.35.42,4.63,1.23,6.94,1.86,2.26,2.2.61,4.41.04,6.63-1.19,3.46-.07,7.16-1.12,10.63-3.38-.8-6.74-1.44-10.26-.6-2.37.56-2.9,1.38-1.74,3.5.66,1.19,1.5,2.34,1.4,3.81-2.06.17-4.11.34-6.17.51-1.53-1.34-2.97-1.74-4.16.42-3.39-.66-3.47,2.48-4.82,4.17-.43.53-.63,1.58-1.49,1.37-.91-.22-.48-1.21-.58-1.88-.15-1.07.45-2.18-.11-3.24.8-6.2,1.71-12.4,1.68-18.68.03-2.74.06-5.49.09-8.23Z"/><path class="uuid-eb565134-aab8-4c9d-a2e0-fb540fdb09e1" d="m561.83,578.63c4.41-.41,8.9-1.38,12.71,2,1.09,2.73-.14,5.46.02,8.2.55,6.08,1.11,12.17,1.66,18.25.06.91.18,1.81.17,2.72,0,.77.41,1.87-.58,2.18-1,.31-1.24-.86-1.69-1.47-.43-.59-.75-1.26-1.07-1.92-.76-1.62-1.91-2.42-3.74-1.89-1.07-1.78-2.26-2.53-3.75-.41-2.22-.22-4.44-.44-6.66-.67.46-1.1.88-2.23,1.39-3.31,1.29-2.72.91-3.25-1.89-4.01-3.49-.96-6.75.11-10.09.63,0-2.37-.02-4.75,0-7.12,0-1.14-.21-2.17-1.13-2.95.12-1.05-.11-2.02-.6-2.94-.93-1.76-.56-3.18,1.15-4.23,1.08-.27,2.16-.53,3.24-.8.52.17.95.09,1.23-.42.32-.07.64-.14.96-.21.62.27,1.08.07,1.4-.49.53-.07,1.06-.15,1.58-.22.91.55,1.71.59,2.3-.46.72-.07,1.43-.15,2.15-.22.54.64.9.31,1.22-.23Z"/><path class="uuid-046cf268-a970-4056-9fb3-2b11a2180dc4" d="m424.99,605.63c.1-1.48-.75-2.62-1.4-3.82-1.16-2.11-.63-2.93,1.74-3.5,3.52-.84,6.88-.19,10.26.6,5.31,5.08,12.06,8.59,16.26,14.89.85,1.27,2.56,2.52.4,4.1-.16.04-.32.03-.48-.02-.13-.12-.26-.24-.4-.35-.04.08-.08.17-.12.25l.54.08c.02.57.17,1.06.84,1.15.11.05.19.14.24.26.1.62.02,1.37.33,1.85,1.52,2.36.22,2.55-1.72,2.44-3.31-.19-5.87-1.66-8.11-4.09-1.23-1.33-2.1-3.37-4.44-3.28-1.34-.43-2.05,1.39-3.19,1.14-.89-1.45,1.34-1.84.65-3.09-.67-1.32-1.66-2.1-3.22-1.93-.5.18-1,.35-1.49.55-.52.22-1.01,1.03-1.58.35-.46-.56.03-1.16.44-1.64.23-.27.46-.54.7-.81.7-2.34-.29-3.19-3.13-2.69-1.18-.09-2.06,1.79-3.16.82-1.04-.92.93-1.52.77-2.52.18-.13.36-.26.54-.39-.41-.12-.83-.23-1.24-.35Z"/><path class="uuid-046cf268-a970-4056-9fb3-2b11a2180dc4" d="m548.32,598.92c3.34-.52,6.6-1.59,10.09-.63,2.8.77,3.17,1.3,1.89,4.01-.51,1.08-.93,2.2-1.39,3.31-.4.14-.96-.16-1.19.4-.03.08.31.31.49.47.12.87,1.65,1.41.96,2.27-.76.95-1.53-.36-2.34-.55-.26-.06-.52-.11-.77-.16-1.19-.76-2.27-.72-3.11.52-.47.69-1.51,1.43.02,2.11.49.8,1.82,1.53,1.22,2.45-.74,1.13-1.65-.41-2.55-.44-.26,0-.51-.11-.77-.17-1.55-.34-2.5.51-3.29,1.67-.8,1.28,1.89,1.73.75,3.15-1.18-.14-1.93-1.49-3.25-1.11-1.73-.07-2.6,1.17-3.47,2.33-1.96,2.61-4.46,4.38-7.71,4.87-1.23.19-2.87.71-3.67-.27-.74-.9.77-1.86,1.14-2.85.15-.41.13-.89.19-1.34.3-.12.6-.25.89-.37-.06-.11-.13-.23-.19-.34-.22.25-.45.5-.67.75-.17.03-.34.06-.51.1-.93-2.9.88-5.12,2.42-6.92,2.46-2.87,4.81-5.99,8.41-7.74,2.59-1.26,4.14-3.84,6.42-5.53Z"/><path class="uuid-3eaa896d-84c2-44e6-90bf-5bfa9bc69323" d="m428.07,608.07c2.85-.5,3.84.35,3.13,2.68-1.57-.09-2.43.71-2.65,2.21-.1.68.12,1.36.81,1.62,1.09.4,2.18.42,3.08-.51.47-.49.68-1.09.7-1.76,1.56-.18,2.55.61,3.22,1.93-.9.92-2.59,1.37-2.1,3.14.23.85,1.01,1.4,1.89,1.3,1.45-.16,2.64-.77,2.75-2.5,2.34-.09,3.22,1.95,4.44,3.28,2.24,2.43,4.8,3.9,8.11,4.09,1.95.11,3.25-.07,1.72-2.44-.31-.49-.23-1.23-.33-1.85,2.1,3.36,5.33,5.7,7.87,8.67-6.16.18-12.32.17-18.38-1.11-2.41-.51-4.4-1.87-5.73-4.05-.81-1.33-2-2.15-3.5-2.52-1.75-.86-3.5-1.72-5.25-2.57-2.44-4.94-3.6-5.54-8.65-4.53-.72.14-1.47.27-2.2.25-.87-.03-1.98.47-2.54-.52-.54-.96.21-1.77.79-2.48,1.15-1.44,2.36-2.84,3.54-4.25,2.06-.17,4.11-.34,6.17-.51.41.12.83.24,1.24.35-.18.13-.36.26-.54.39-1.58.52-2.75,1.45-1.95,3.21.63,1.37,1.91,1.13,3.1.51.84-.43,1.09-1.18,1.23-2.02Z"/><path class="uuid-3eaa896d-84c2-44e6-90bf-5bfa9bc69323" d="m558.2,606.48c-.17-.16-.52-.39-.49-.47.22-.55.79-.25,1.19-.4,2.22.22,4.44.44,6.66.67.26,1.18,1.32,1.74,2,2.6.94,1.21,2.72,2.43,1.75,3.99-.8,1.29-2.75.59-4.15.36-5.47-.9-5.86-.77-8.66,3.64-.13.33-.26.66-.38.99l-.03.02c-1.69.74-3.38,1.49-5.07,2.23-1.02.46-2.1.9-2.73,1.85-3.31,4.92-8.44,5.62-13.7,5.87-3.7.18-7.41.09-11.11.12,1-2.26,3.59-3.01,4.81-5.1.78-1.33,1.84-2.5,2.77-3.74.17-.03.34-.07.51-.1l-.03-.04c-.06.45-.03.93-.19,1.34-.37.99-1.88,1.95-1.14,2.85.8.97,2.43.45,3.67.27,3.25-.49,5.75-2.26,7.71-4.87.88-1.17,1.75-2.4,3.47-2.33.3.57.47,1.28.92,1.67,1.06.93,2.39,1.32,3.45.11,1.06-1.21.22-2.21-.78-3.03-.35-.28-.72-.53-1.09-.79.79-1.16,1.74-2.01,3.29-1.67.44,1.67,1.52,2.44,3.23,2.23.99-.12,1.43-.79,1.39-1.73-.07-1.56-1.06-2.22-2.51-2.34-1.53-.68-.49-1.42-.02-2.11.84-1.24,1.92-1.28,3.11-.52.19,1.85,1.36,2.55,3.05,2.45.91-.06,1.63-.71,1.61-1.63-.03-1.52-.98-2.3-2.5-2.38Z"/><path class="uuid-3eaa896d-84c2-44e6-90bf-5bfa9bc69323" d="m451.76,617.89c.16.05.32.05.48.02.13.37.26.74.39,1.11-.68-.1-.82-.58-.84-1.15l-.02.03Z"/><path class="uuid-046cf268-a970-4056-9fb3-2b11a2180dc4" d="m329.54,601.12c1.43.67,2.95.63,4.47.56,0,0,0,.01,0,.01.33.17.65.34.98.5,4.18,2.86,8.73,5.23,12.36,8.8,2.42,2.39,5.65,4.36,5.65,8.43-.13.11-.28.15-.45.14-.4-.68-.92-1.18-1.78-1.15-.08-.24-.16-.48-.23-.73-.07.05-.21.14-.2.14.13.21.26.41.4.62.12,1,.53,1.69,1.68,1.66l.02.02c.17.18.34.36.51.54l.02.04c-.14.66-.07,1.25.58,1.62.19,0,.38.01.57.02l-.03-.02c0,.38.19.58.58.58h-.03c.07,1.56-.84,2.07-2.25,2.14-3.58.17-6.43-1.29-8.99-3.68-1.29-1.2-2.19-3.14-4.44-2.92-1.28-.05-2.06,1.17-3.2,1.51-.69-1.48.6-2.13.83-3.11.08-.04.19-.05.25-.12.05-.05.09-.21.07-.23-1.17-.89-2.36-1.73-3.95-1.48-.49.22-.98.42-1.45.66-.51.27-.89,1.16-1.58.63-.79-.61-.2-1.29.21-1.89.2-.3.41-.59.62-.89,1.56-.6.64-1.33.06-1.95-.94-.98-1.96-1.67-3.09-.21-.72-.14-1.4-.23-1.95.46-.37.47-.83,1.16-1.49.39-.42-.5,0-1.02.3-1.45.31-.44.68-.84,1.02-1.25.83,0,1.36-.28,1.15-1.24-1.69-.71-3.31-1.45-4.22-3.23-.55-1.08-.81-2.03.07-3.01,2.25-.76,4.54-1.17,6.92-.93Z"/><path class="uuid-3eaa896d-84c2-44e6-90bf-5bfa9bc69323" d="m338.96,618.46c2.25-.22,3.15,1.72,4.44,2.92,2.56,2.38,5.42,3.85,8.99,3.68,1.4-.07,2.32-.58,2.25-2.15.29.02.59.04.88.06,1.24,1.94,2.81,3.51,4.93,4.48.6.27,1.48.46,1.17,1.5-5.37.03-10.75.18-16.12.06-3.32-.07-6.35-1.12-8.51-3.94-.9-1.17-1.95-2.28-3.64-2.25-1.79-.77-3.57-1.54-5.36-2.31-3.29-4.86-3.89-5.08-9.85-3.6-1.33.33-3.08,1.17-3.86-.03-.87-1.34.65-2.69,1.48-3.86.74-1.04,1.78-1.88,2.15-3.18,2.56-2.72,5.7-2.12,8.83-1.55.21.97-.32,1.24-1.15,1.24-1.44.37-2.58,1.05-2.55,2.76.02.87.64,1.4,1.4,1.48,1.6.18,2.58-.71,3.1-2.17.03-.08.11-.15.16-.22,1.13-1.46,2.15-.78,3.09.21.59.62,1.51,1.35-.06,1.94-1.43.27-2.39,1.06-2.41,2.57,0,.81.64,1.3,1.44,1.47,1.37.29,2.34-.3,2.96-1.48.16-.31.15-.71.21-1.08,1.59-.25,2.78.59,3.95,1.48.02.02-.02.18-.07.23-.06.06-.16.08-.25.11-1.31.46-2.34,1.18-2.28,2.73.04,1.01.8,1.41,1.69,1.49,1.53.13,2.41-.68,2.83-2.08.05-.18.09-.36.13-.54Z"/><path class="uuid-fd4310f5-c420-4b62-a72d-fbc40541deb3" d="m419.88,636.44c2.77-2.26,6.86-2.77,10.06-.84,6.81,4.1,13.48,8.43,20.61,11.97,1.79.89,1.09,1.97.73,3.15-9.72.23-17.96-3.47-25.35-9.49-1.99-1.63-4.03-3.2-6.05-4.8Z"/><path class="uuid-f83635b8-d917-424e-bcba-e39f2e59dce8" d="m407.66,606.98c.56,1.06-.04,2.16.11,3.24.1.67-.34,1.66.58,1.88.86.21,1.06-.84,1.49-1.37,1.35-1.69,1.43-4.83,4.82-4.17-2.34,2.39-3.52,5.67-6.06,7.91-3.38.56-2.01-2.58-3.01-3.87.66-1.22-.33-3.39,2.07-3.61Z"/><path class="uuid-fd4310f5-c420-4b62-a72d-fbc40541deb3" d="m355.52,622.96c-.29-.02-.59-.04-.88-.06,0,0,.03.01.03.01,0-.38-.21-.57-.58-.58l.03.02c-.19-.29-.37-.58-.56-.87.02-.43-.14-.71-.59-.78l-.02-.04c-.17-.18-.34-.36-.51-.54l-.02-.02c.05-.18.1-.36.14-.55.17.02.32-.03.45-.14,1.93.4,2.64,1.67,2.52,3.53Z"/><path class="uuid-3eaa896d-84c2-44e6-90bf-5bfa9bc69323" d="m335,602.2c-.33-.17-.65-.34-.98-.5.42-.02.8.05.98.5Z"/><path class="uuid-046cf268-a970-4056-9fb3-2b11a2180dc4" d="m657.79,601.2c.24.04.48.07.72.11,1.42.29,3.41.36,3.38,2.12-.03,1.62-.96,3.35-2.79,4.09-.59.24-1.2.45-1.8.67-.21.85.38.98.99,1.1.14,1.15,2.29,1.79,1.25,2.93-.81.89-1.63-1.17-2.79-1.01-.68-.19-1.39-.6-2.05-.54-1.65.15-2.36,1.7-1.44,2.9.54.91,1.67,1.69.84,2.99-1.09-.61-2.03-1.14-2.97-1.67-1.65.11-3.19.36-3.51,2.41.56.76,1.4,1.43.83,2.72-1.2-.41-2.09-1.42-3.36-1.49-2.18-.18-3.2,1.54-4.44,2.8-2.3,2.34-5,3.63-8.29,3.77-2.01.08-2.96-.64-2.53-2.74l-.03.02c.39,0,.57-.21.57-.59l-.02.03c.46-.11.59-.44.59-.87l-.02.03c.2-.29.39-.58.59-.87l-.02.04c.51.06.85-.18,1.1-.59.13-.2.26-.4.39-.61-.08-.03-.15-.06-.23-.09-.04.24-.08.48-.13.72-.38,0-.76,0-1.14,0-.19-.04-.38-.08-.57-.11-.03-3.93,3.18-5.74,5.41-8.15,3.71-4.01,9-5.92,12.99-9.58.21.31.42.44.58-.04,0,0,0-.01,0-.01,1.52.07,3.05.15,4.48-.57,1.14.03,2.29.06,3.43.09Z"/><path class="uuid-3eaa896d-84c2-44e6-90bf-5bfa9bc69323" d="m653.26,613.57c-.92-1.2-.21-2.75,1.44-2.9.66-.06,1.36.34,2.05.54-.18,1.88,1.15,2.38,2.56,2.62.92.16,1.66-.48,1.83-1.36.29-1.43-.82-2.14-1.82-2.82-.29-.2-.69-.25-1.04-.37-.61-.12-1.2-.25-.99-1.1,3.09-.29,6.31-1.22,8.77,1.71,1.15,1.76,2.37,3.48,3.42,5.29,1.01,1.73.21,2.38-1.57,2.15-.72-.1-1.45-.27-2.14-.5-4.23-1.46-7.58-.6-9.68,3.61-1.79.79-3.58,1.57-5.36,2.36-1.46.17-2.65.87-3.52,2.02-2.48,3.27-5.97,4.27-9.82,4.24-5-.04-10.02.51-14.98-.56,1.92-2.06,5.02-2.87,6.15-5.78.06-.08.12-.16.19-.24,0,0,.07-.04.07-.04.33-.04.67-.07,1-.11-.43,2.09.52,2.82,2.53,2.74,3.3-.13,5.99-1.43,8.29-3.77,1.24-1.25,2.26-2.98,4.44-2.8.28.57.48,1.21.87,1.69.71.86,1.7,1.11,2.77.72.79-.29,1.18-.94,1.02-1.76-.22-1.13-.62-2.16-2.13-1.88.32-2.05,1.86-2.3,3.51-2.4.13,1.71.92,2.82,2.76,2.77,1.02-.03,1.84-.59,1.86-1.69.02-1.59-1.03-2.25-2.48-2.4Z"/><path class="uuid-fd4310f5-c420-4b62-a72d-fbc40541deb3" d="m532.76,650.77c-.58-1.46-.71-2.6,1.12-3.47,6.78-3.22,13.09-7.29,19.46-11.25,3.72-2.31,7.99-2.1,10.76.39-9.11,7.7-18.48,14.82-31.33,14.33Z"/><path class="uuid-f83635b8-d917-424e-bcba-e39f2e59dce8" d="m569.32,606.69c1.83-.53,2.98.27,3.74,1.89.31.66.64,1.34,1.07,1.92.45.62.69,1.79,1.69,1.47.99-.31.57-1.41.58-2.18,0-.91-.11-1.81-.17-2.72,2.34-.2,1.73,1.71,2.08,2.92-.53.62-.52,1.37-.46,2.1.14,1.8-.7,2.56-2.45,2.42-2.45-2.28-3.46-5.68-6.07-7.83Z"/><path class="uuid-fd4310f5-c420-4b62-a72d-fbc40541deb3" d="m629.81,622.34c-.33.04-.67.07-1,.11-.27-1.67.59-2.56,2.09-3,.19.04.38.08.57.11,0,.19,0,.38,0,.57,0,0,.02-.04.02-.04-.2.29-.39.58-.59.87,0,0,.02-.03.02-.03-.2.29-.39.58-.59.87,0,0,.02-.03.02-.03-.38,0-.57.21-.57.59l.03-.02Z"/><path class="uuid-fd4310f5-c420-4b62-a72d-fbc40541deb3" d="m628.75,622.49c-.06.08-.12.16-.19.24-.02-.13.04-.21.19-.24Z"/><path class="uuid-3eaa896d-84c2-44e6-90bf-5bfa9bc69323" d="m649.87,601.69c-.17.47-.37.34-.58.04.19-.01.39-.02.58-.04Z"/><path class="uuid-cec1a134-7b10-4e4c-8d74-290d76263ae1" d="m427.89,617.68c1.75.86,3.5,1.72,5.25,2.57.78,3.97.27,7.53-3.23,10.15-4.15-2.07-8.56-2.2-13.05-1.8-3.63-2.24-7.24-4.51-9.81-8.05.12-1.32.64-2.46,1.52-3.45,4.64,3.5,10.18,4.78,15.64,6.12,2.09.51,3.57-.66,3.62-3.05.02-.83.04-1.67.06-2.5Z"/><path class="uuid-046cf268-a970-4056-9fb3-2b11a2180dc4" d="m427.89,617.68c-.02.83-.04,1.67-.06,2.5-.05,2.39-1.53,3.57-3.62,3.05-5.47-1.34-11-2.62-15.64-6.12.01-.88.03-1.77.04-2.65,2.54-2.24,3.72-5.52,6.06-7.91,1.18-2.16,2.62-1.75,4.16-.42-1.18,1.42-2.38,2.82-3.54,4.25-.57.71-1.33,1.52-.79,2.48.56.99,1.67.5,2.54.52.73.02,1.48-.11,2.2-.25,5.05-1,6.21-.4,8.65,4.53Z"/><path class="uuid-046cf268-a970-4056-9fb3-2b11a2180dc4" d="m407.05,620.56c2.57,3.54,6.18,5.81,9.81,8.05-1.46.9-3.12,1.02-4.76,1.2-5.34.59-7.5-2.06-5.95-7.26.21-.69.59-1.33.9-1.99Z"/><path class="uuid-cec1a134-7b10-4e4c-8d74-290d76263ae1" d="m551.02,620.1c1.69-.74,3.38-1.49,5.07-2.23.18,4.6,1.08,5.95,4.01,5.27,5.4-1.25,10.81-2.59,15.39-6,.9.92,1.38,2.02,1.45,3.31-2.4,3.75-6.23,5.8-9.76,8.2-4.48-.51-8.87-.27-13.02,1.74-3.53-2.67-4.18-6.22-3.15-10.29Z"/><path class="uuid-046cf268-a970-4056-9fb3-2b11a2180dc4" d="m575.49,617.15c-4.58,3.41-10,4.74-15.39,6-2.93.68-3.83-.67-4.01-5.27,0,0,.03-.02.03-.02.13-.33.26-.66.38-.99,2.8-4.41,3.19-4.54,8.66-3.64,1.4.23,3.35.93,4.15-.36.97-1.56-.81-2.78-1.75-3.99-.67-.86-1.73-1.43-2-2.6,1.5-2.12,2.68-1.37,3.75.41,2.62,2.15,3.62,5.55,6.07,7.83.03.88.07,1.75.1,2.63Z"/><path class="uuid-046cf268-a970-4056-9fb3-2b11a2180dc4" d="m567.19,628.66c3.54-2.4,7.36-4.45,9.76-8.2.26.49.59.95.77,1.47,2,5.88-.17,8.59-6.26,7.83-1.46-.18-2.94-.37-4.27-1.1Z"/><path class="uuid-22dbc6ba-4b2b-42b8-b2dd-82caf548ac07" d="m558.46,579.08c-.59,1.05-1.39,1.01-2.3.46.63-.84,1.46-.69,2.3-.46Z"/><path class="uuid-22dbc6ba-4b2b-42b8-b2dd-82caf548ac07" d="m552.21,580.46c-.29.5-.72.58-1.23.42.27-.55.57-1.03,1.23-.42Z"/><path class="uuid-22dbc6ba-4b2b-42b8-b2dd-82caf548ac07" d="m554.57,579.76c-.33.57-.78.77-1.4.49.32-.59.74-.89,1.4-.49Z"/><path class="uuid-22dbc6ba-4b2b-42b8-b2dd-82caf548ac07" d="m561.83,578.63c-.32.53-.68.87-1.22.23.34-.43.74-.55,1.22-.23Z"/><path class="uuid-f83635b8-d917-424e-bcba-e39f2e59dce8" d="m433.15,612.31c-.02.67-.23,1.27-.7,1.76-.9.93-1.99.91-3.08.51-.69-.26-.91-.93-.81-1.62.22-1.5,1.08-2.29,2.65-2.21-.23.27-.46.54-.7.81-.41.48-.9,1.09-.44,1.64.57.69,1.06-.13,1.58-.35.49-.21.99-.37,1.49-.55Z"/><path class="uuid-61961606-5ce7-4a8f-8df5-ecd4b37fb6b1" d="m438.92,616.18c-.11,1.72-1.3,2.33-2.75,2.5-.88.1-1.66-.46-1.89-1.3-.49-1.77,1.2-2.22,2.1-3.14.69,1.25-1.54,1.63-.64,3.09,1.14.25,1.85-1.57,3.19-1.14Z"/><path class="uuid-61961606-5ce7-4a8f-8df5-ecd4b37fb6b1" d="m428.07,608.07c-.14.84-.39,1.58-1.23,2.02-1.19.61-2.47.86-3.1-.51-.81-1.76.37-2.7,1.95-3.21.16,1-1.81,1.61-.77,2.53,1.1.97,1.98-.91,3.16-.82Z"/><path class="uuid-3eaa896d-84c2-44e6-90bf-5bfa9bc69323" d="m451.78,617.86l-.54-.08c.04-.08.08-.17.12-.25.13.12.26.24.4.35,0,0,.02-.03.02-.03Z"/><path class="uuid-61961606-5ce7-4a8f-8df5-ecd4b37fb6b1" d="m547.57,614.18c.36.26.74.5,1.09.79,1,.82,1.83,1.83.78,3.03-1.06,1.21-2.38.82-3.45-.11-.45-.39-.62-1.1-.92-1.67,1.32-.38,2.07.97,3.25,1.11,1.14-1.42-1.56-1.87-.75-3.15Z"/><path class="uuid-f83635b8-d917-424e-bcba-e39f2e59dce8" d="m558.2,606.48c1.52.07,2.47.85,2.5,2.38.02.92-.7,1.58-1.61,1.63-1.69.11-2.86-.6-3.05-2.45.26.05.52.1.77.16.8.19,1.58,1.49,2.34.55.69-.86-.84-1.4-.96-2.27Z"/><path class="uuid-61961606-5ce7-4a8f-8df5-ecd4b37fb6b1" d="m552.97,610.68c1.45.12,2.44.78,2.51,2.34.04.93-.39,1.61-1.39,1.73-1.72.21-2.79-.57-3.23-2.23.26.06.51.17.77.17.9.03,1.81,1.56,2.55.44.6-.91-.72-1.65-1.22-2.45Z"/><path class="uuid-3eaa896d-84c2-44e6-90bf-5bfa9bc69323" d="m531.58,619.01c.22-.25.45-.5.67-.75.06.11.13.23.19.34-.3.12-.6.25-.89.37,0,0,.03.04.03.04Z"/><path class="uuid-cec1a134-7b10-4e4c-8d74-290d76263ae1" d="m556.5,616.87c-.13.33-.26.66-.38.99.13-.33.26-.66.38-.99Z"/><path class="uuid-61961606-5ce7-4a8f-8df5-ecd4b37fb6b1" d="m332.95,615.03c-.07.36-.05.77-.21,1.08-.62,1.18-1.59,1.77-2.96,1.48-.79-.17-1.44-.66-1.44-1.47.01-1.51.97-2.3,2.41-2.57-.21.3-.42.59-.62.89-.41.6-.99,1.28-.21,1.89.69.53,1.06-.36,1.58-.63.47-.25.97-.44,1.45-.66Z"/><path class="uuid-61961606-5ce7-4a8f-8df5-ecd4b37fb6b1" d="m338.96,618.46c-.04.18-.07.36-.13.54-.42,1.4-1.3,2.21-2.83,2.08-.9-.08-1.65-.48-1.69-1.49-.06-1.55.97-2.27,2.28-2.73-.23.98-1.52,1.62-.83,3.11,1.14-.33,1.93-1.56,3.2-1.51Z"/><path class="uuid-61961606-5ce7-4a8f-8df5-ecd4b37fb6b1" d="m327.72,611.39c-.06.07-.13.14-.16.22-.52,1.46-1.5,2.35-3.1,2.17-.76-.09-1.38-.61-1.4-1.48-.03-1.71,1.11-2.38,2.55-2.76-.34.42-.71.81-1.02,1.25-.3.43-.73.95-.3,1.45.66.77,1.11.08,1.49-.39.55-.69,1.23-.6,1.95-.46Z"/><path class="uuid-22dbc6ba-4b2b-42b8-b2dd-82caf548ac07" d="m352.55,619.57c-.05.18-.1.36-.14.55-1.14.03-1.56-.66-1.68-1.66l.04-.03c.86-.03,1.38.47,1.78,1.15Z"/><path class="uuid-22dbc6ba-4b2b-42b8-b2dd-82caf548ac07" d="m352.96,620.71c.45.07.61.35.59.78,0,.28,0,.56,0,.85-.65-.38-.72-.96-.58-1.62Z"/><path class="uuid-22dbc6ba-4b2b-42b8-b2dd-82caf548ac07" d="m350.73,618.45c-.14-.2-.27-.41-.4-.62,0,0,.13-.09.2-.14.08.24.15.48.23.73,0,0-.04.03-.04.03Z"/><path class="uuid-3eaa896d-84c2-44e6-90bf-5bfa9bc69323" d="m354.08,622.33c.38.01.57.2.58.58-.39,0-.58-.2-.58-.58Z"/><path class="uuid-3eaa896d-84c2-44e6-90bf-5bfa9bc69323" d="m353.54,622.33c0-.28,0-.56,0-.85.19.29.37.58.56.87-.19,0-.38-.01-.57-.02Z"/><path class="uuid-22dbc6ba-4b2b-42b8-b2dd-82caf548ac07" d="m352.42,620.13c.17.18.34.36.51.54-.17-.18-.34-.36-.51-.54Z"/><path class="uuid-f83635b8-d917-424e-bcba-e39f2e59dce8" d="m658.28,609.28c.35.12.74.17,1.04.37,1,.67,2.11,1.38,1.82,2.82-.18.88-.92,1.52-1.83,1.36-1.41-.24-2.74-.74-2.56-2.62,1.16-.16,1.99,1.9,2.79,1.01,1.03-1.14-1.11-1.79-1.25-2.93Z"/><path class="uuid-f83635b8-d917-424e-bcba-e39f2e59dce8" d="m653.26,613.57c1.46.15,2.51.81,2.48,2.4-.02,1.09-.84,1.66-1.86,1.69-1.84.05-2.63-1.06-2.76-2.77.94.53,1.88,1.06,2.97,1.67.83-1.3-.3-2.08-.84-2.99Z"/><path class="uuid-61961606-5ce7-4a8f-8df5-ecd4b37fb6b1" d="m647.61,617.29c1.51-.28,1.91.75,2.13,1.88.16.82-.23,1.47-1.02,1.76-1.07.39-2.05.14-2.77-.72-.4-.48-.59-1.12-.87-1.69,1.27.06,2.17,1.08,3.36,1.49.57-1.29-.27-1.96-.83-2.72Z"/><path class="uuid-3eaa896d-84c2-44e6-90bf-5bfa9bc69323" d="m631.47,620.14c0-.19,0-.38,0-.57.38,0,.76,0,1.14.01l-.03-.03c-.25.41-.6.65-1.1.59Z"/><path class="uuid-3eaa896d-84c2-44e6-90bf-5bfa9bc69323" d="m632.61,619.58c.04-.24.08-.48.13-.72.08.03.15.06.23.09-.13.2-.26.4-.39.61,0,0,.03.03.03.03Z"/><path class="uuid-3eaa896d-84c2-44e6-90bf-5bfa9bc69323" d="m629.79,622.36c0-.38.19-.58.57-.59,0,.38-.19.58-.57.59Z"/><path class="uuid-3eaa896d-84c2-44e6-90bf-5bfa9bc69323" d="m630.34,621.8c.2-.29.39-.58.59-.87,0,.43-.13.75-.59.87Z"/><path class="uuid-3eaa896d-84c2-44e6-90bf-5bfa9bc69323" d="m630.9,620.97c.2-.29.39-.58.59-.87-.2.29-.39.58-.59.87Z"/></g></svg>