<?xml version="1.0" encoding="UTF-8"?><svg id="uuid-c0e988da-6c08-469f-8e00-e838546b16c5" xmlns="http://www.w3.org/2000/svg" viewBox="0 0 1000 700"><defs><style>.uuid-f52be2ec-dafc-4e84-9b7f-1b0f783a41b2{fill:#f9c71a;}.uuid-f52be2ec-dafc-4e84-9b7f-1b0f783a41b2,.uuid-809bccea-27fc-4080-84ae-fbf6dcf13ed3,.uuid-78bc54d1-26d0-4bb1-9c9b-b187c480fb97,.uuid-c8fb8a23-c25c-4dea-b396-244e925db44c,.uuid-411744d5-04ee-4635-bc90-1195a6e2cfed,.uuid-5881fa35-b426-4cc4-aca1-012ead95d795,.uuid-66060416-d4e0-4972-bca7-1bf330b73ea4,.uuid-07aec690-831e-4845-8a26-d868029d751f,.uuid-30547308-de57-4983-88b0-9d9e87142bfe,.uuid-f1877d2a-9553-49bd-b869-9fdf2fb78563,.uuid-26979353-645a-4799-849d-837aac602f62,.uuid-5959e106-c350-455a-8b06-90c65d93b4c6,.uuid-76957c1c-52e4-4aeb-9cee-2147e661fec2,.uuid-524c6926-d90b-4af7-9fbe-87a3a5867c48,.uuid-d29d71c7-5deb-4a87-a643-3ed52b78505f,.uuid-e4b056c5-940b-46ee-ba3f-53291ecba6f9,.uuid-10c658f4-8bf6-4a4e-97d9-950406e22f6b,.uuid-df38578d-e9c7-422d-9b02-6a6bef74424c{stroke-width:0px;}.uuid-809bccea-27fc-4080-84ae-fbf6dcf13ed3{fill:#77bdb6;}.uuid-78bc54d1-26d0-4bb1-9c9b-b187c480fb97{fill:#47adab;}.uuid-c8fb8a23-c25c-4dea-b396-244e925db44c{fill:#57abf4;}.uuid-411744d5-04ee-4635-bc90-1195a6e2cfed{fill:#5aacf4;}.uuid-5881fa35-b426-4cc4-aca1-012ead95d795{fill:#721718;}.uuid-66060416-d4e0-4972-bca7-1bf330b73ea4{fill:#185c5d;}.uuid-07aec690-831e-4845-8a26-d868029d751f{fill:#224fb1;}.uuid-30547308-de57-4983-88b0-9d9e87142bfe{fill:#141313;}.uuid-f1877d2a-9553-49bd-b869-9fdf2fb78563{fill:#dff0ed;}.uuid-26979353-645a-4799-849d-837aac602f62{fill:#dcb0c6;}.uuid-5959e106-c350-455a-8b06-90c65d93b4c6{fill:#c26f5f;}.uuid-76957c1c-52e4-4aeb-9cee-2147e661fec2{fill:#fee594;}.uuid-524c6926-d90b-4af7-9fbe-87a3a5867c48{fill:#e53738;}.uuid-d29d71c7-5deb-4a87-a643-3ed52b78505f{fill:#fbe9eb;}.uuid-e4b056c5-940b-46ee-ba3f-53291ecba6f9{fill:#e9f4fe;}.uuid-10c658f4-8bf6-4a4e-97d9-950406e22f6b{fill:#eab0a2;}.uuid-df38578d-e9c7-422d-9b02-6a6bef74424c{fill:#00767f;}</style></defs><g id="uuid-508f6d26-6dbd-402f-ad4f-9eb2af562fc5"><path class="uuid-809bccea-27fc-4080-84ae-fbf6dcf13ed3" d="m363.92,412.96c-1.9-4.09-6.07-5.7-9.29-8.28-17.54-14.08-32.4-30.55-44.67-49.36-11.73-17.97-20.47-37.36-26.18-57.99-3.52-12.73-5.85-25.74-6.76-39.02-.56-8.25-1.34-16.49-.86-24.73,1.17-20.07,4.32-39.79,10.95-58.91,3.86-11.13,8.41-21.93,13.92-32.3,7.58-14.26,16.68-27.51,27.43-39.64,11.78-13.29,25.04-24.88,39.7-34.83,9.44-6.4,19.4-11.87,29.8-16.65,10.48-4.82,21.24-8.71,32.31-11.76,15.41-4.25,31.11-6.5,47.11-7.38,19.1-1.06,37.78,1.26,56.3,5.39,21.74,4.85,42.11,13.36,61.1,24.9,22.88,13.91,42.39,31.62,58.49,53.11,11.34,15.12,20.3,31.46,27.29,49,7.44,18.67,11.97,37.96,13.76,57.95,1.51,16.84,1.26,33.56-1.39,50.34-1.9,11.98-4.51,23.76-8.47,35.15-5.99,17.24-13.71,33.67-24.05,48.87-6.53,9.6-13.63,18.67-21.35,27.28-.61.68-1.55,1.06-2.34,1.58-.41-.13-.83-.24-1.24-.39-9.07-3.38-21.25-2.82-26.7,7.75-.93,1.8-2.55,3.46-4.25,4.59-4.73,3.15-6.84,7.36-6.24,12.98.27,2.52.48,5.05.71,7.57-2.68-.04-4.38,2.01-6.45,3.18-11.59,6.54-23.55,12.23-36.05,16.84-4.73,1.74-9.89,2.29-14.22,5.09-.85.04-1.72-.05-2.54.13-5.74,1.24-11.42,2.82-17.2,3.75-8.11,1.32-16.3,2.17-24.45,3.22-6.94.03-13.88.06-20.81.09-5.77-.48-11.59-.64-17.31-1.5-9.36-1.41-18.64-3.27-27.96-4.94-4.5-1.96-9.15-3.44-14.02-4.16-.83-.47-1.62-1.09-2.51-1.4-15.04-5.29-29.13-12.5-42.72-20.8-2.83-1.73-5.12-4.62-8.84-4.72Zm151.17-.38c10.56-1.78,20.83-4.62,30.91-8.24.81-.29,1.44-.62,1.59-1.52,1.12-.14,2.33-.07,3.36-.46,9.78-3.71,19.08-8.45,27.88-14.06,14.2-9.06,27-19.8,38.08-32.56,12.45-14.35,22.43-30.26,29.72-47.77,5.09-12.22,8.57-24.93,10.92-38.02,2.95-16.42,3.08-32.87,1.11-49.26-2.05-16.99-6.56-33.42-13.46-49.22-5.8-13.27-13.17-25.56-21.93-36.95-11.85-15.42-26.09-28.51-42.39-39.09-15.95-10.35-33.22-18.18-51.73-22.71-16.62-4.07-33.46-6.27-50.76-5.22-18.98,1.15-37.21,4.78-55,11.48-15.39,5.79-29.49,13.7-42.63,23.42-11.15,8.24-20.97,17.91-29.79,28.57-10.92,13.21-19.28,27.95-25.97,43.73-8.28,19.52-12.3,39.91-13.45,60.95-.47,8.7.69,17.33,1.49,25.98,1.19,12.82,4.26,25.2,8.47,37.26,5.73,16.4,13.82,31.59,24.18,45.63,8.93,12.1,19.31,22.74,30.81,32.29,9.32,7.73,19.66,14.05,30.48,19.45,5.76,2.87,11.48,5.98,17.81,7.58,18.68,7.36,38.08,10.91,58.32,11.24.27-5.19.52-10.09.77-14.99.45.06.89.12,1.34.17.05,1.05.11,2.09.16,3.14-.35,1.63-.61,3.25.43,4.75.06.89.11,1.77.17,2.66-.29.93-.53,1.86.4,2.6-.02,1.2.49,1.73,1.76,1.65,2.81-.18,5.62-.28,8.43-.41,1.57.35,3.11.29,4.63-.29.93-.06,1.86-.12,2.8-.17,1.23.17,2.46.35,3.55-.49.57-.07,1.13-.13,1.7-.2.97.31,1.9.46,2.66-.45.57-.06,1.13-.12,1.7-.18.61.4,1.12.36,1.51-.31Z"/><path class="uuid-df38578d-e9c7-422d-9b02-6a6bef74424c" d="m363.92,412.96c3.72.1,6.01,2.99,8.84,4.72,13.59,8.3,27.68,15.51,42.72,20.8.89.31,1.67.93,2.5,1.4-7.71,15.79-15.38,31.61-23.15,47.38-11.04,22.4-22.17,44.77-33.24,67.15-7.44,15.05-14.89,30.1-22.28,45.17-4.73,9.64-9.37,19.31-14.04,28.97-2.25,4.43-4.49,8.86-6.8,13.41-8.17-4.41-16.02-8.65-23.87-12.89-13.49-7.54-26.98-15.09-40.47-22.63-2.36-1.32-4.71-2.64-7.32-4.11,5.07-8.21,9.99-16.19,14.93-24.16,26.03-41.96,52.08-83.92,78.11-125.88,7.69-12.4,15.36-24.81,23.03-37.22.41-.67.7-1.41,1.04-2.12Z"/><path class="uuid-c8fb8a23-c25c-4dea-b396-244e925db44c" d="m690.46,551.98c-1.11.71-2.21,1.42-3.67,2.35-4.89-8.91-8.68-18.34-14.54-26.62,3.57,20.58,7.57,41.02,7.94,61.94-.41.13-.82.35-1.24.39-22.64,2.07-45.28,3.59-67.87-.6-10.62-1.97-21.35-3.4-31.7-6.64,1.14-9.85,2.29-19.7,3.46-29.78-8.45-1.81-16.48-3.53-24.51-5.25-.68-.34-1.37-.68-2.2-1.09,1.77-19.48,4.7-38.55,13.75-56.11,8.22-15.94,22.59-22.83,39.23-26.24,6.72,12.43,33.06,13.26,40.39-.97,1.19.25,2.38.5,3.58.75.41.09.81.17,1.22.26,9.02,1.24,17.69,3.69,26.11,7.15,12.31,5.07,16.37,15.96,19.71,27.39,1.71,5.86,3.66,11.27,8.89,15.38,5.77,4.53,6.88,11.83,8.52,18.59-9.01,6.37-18.03,12.73-27.04,19.1Z"/><path class="uuid-66060416-d4e0-4972-bca7-1bf330b73ea4" d="m579.37,582.8c10.35,3.25,21.08,4.67,31.7,6.64,22.59,4.19,45.22,2.67,67.87.6.42-.04.83-.26,1.24-.39,9.53-.27,18.48-3.36,27.59-5.66,4.71-1.19,9.5-1.92,14.37-1.85,14.09.2,22.37,11.5,20.01,27.02-1.24,8.15-5.11,14.69-11.39,19.91-1.79.91-3.54,1.91-5.38,2.73-9.09,4.05-18.63,6.84-28.07,9.89-3.13.18-6.46-1.1-9.31,1.24-12.87,1.66-25.65,4.36-38.74,3.27-1.33-.17-2.67-.35-4.01-.52-.29-1.09-.51-2.21-.89-3.28-2.04-5.79-4.06-11.57-3.06-17.88,1.13-.47,2.35-.79,3.37-1.43,9.51-5.94,19-11.91,28.48-17.91,4.23-2.68,8.4-5.45,12.6-8.18-1.11-.42-1.91-.2-2.58.22-8.61,5.4-17.13,10.94-25.81,16.23-5.22,3.18-9.98,7.13-15.71,9.46-.04-.73-.08-1.46-.12-2.2-7.77.97-12.56,5.66-12.79,12.38-.9.02-1.81.04-2.71.06-.04-.84-.09-1.69-.14-2.63-2.55-1.6-4.94-3.2-7.42-4.63-1.35-.78-2.82-1.02-3.9.59-18.67-14.67-37.35-29.34-56.63-44.48.44,2.34,1.67,2.92,2.64,3.69,11.28,8.91,22.49,17.92,33.89,26.68,6.66,5.12,12.87,10.82,20.06,15.24-.38,4.69-1.92,9.07-4.13,13.13-2.67,4.89-5.65,9.64-11.29,11.75-12.08-4.13-24.17-8.24-35.94-13.21-1.83-.92-3.5-2.24-5.68-2.31-2.86-2.37-6.35-3.61-9.57-5.33-2.49-1.81-4.9-3.76-7.93-4.65-.66-.99-1.38-1.9-2.62-2.19-2.72-.84-3.54-3.86-5.89-5.13-.35-.38-.69-.76-1.04-1.15-3.32-3.44-6.63-6.87-9.95-10.31-4.13-5.97-7.35-12.25-6.64-19.84,1.42-8.02,5.29-14.33,12.74-18.12,8.48-2.18,16.65-.38,24.77,1.98.54,1.31,1.82.77,2.75,1.11,8.31,3.42,16.25,7.85,25.24,9.44Z"/><path class="uuid-f1877d2a-9553-49bd-b869-9fdf2fb78563" d="m547.93,631.64c3.22,1.72,6.71,2.96,9.57,5.33-2.17,4.02-3.01,8.2-1.56,12.66-40.69.03-81.38.12-122.06.05-24.99-.04-49.98-.24-74.97-.54-14.67-.17-29.33-.64-44-1.04-11.32-.3-22.64-.6-33.96-1.06-19.98-.81-39.98-1.35-59.92-2.77-13.14-.94-26.41-1.4-39.32-4.58-.74-.18-1.45-.47-2.46-.8,1.93-3.07,4.98-2.46,7.43-2.87,14.01-2.32,28.18-3.06,42.35-3.76,12.18-.59,24.37-.93,36.54-1.64,9.12-.54,18.22-1.1,27.36-1.03.56,0,1.13-.33,1.69-.51,7.85,4.24,15.7,8.48,23.87,12.89,2.31-4.55,4.55-8.98,6.8-13.41,16.07.06,32.12-.57,48.18-.96,21.35-.52,42.71-.39,64.07-.54-.22.73-.43,1.47-.74,2.5,1.13.36,2.09.91,3.07.94,4.12.12,8.25.14,12.38.11,4.79-.04,9.62.22,14.21-1.64,2.69-.46,5.38-.92,8.18-1.4v-5.36c1.79,1.12-.03,3.25,1.58,4.82h54.01c.13.84.27,1.68.45,2.8,2.78.28,5.47.54,8.16.81,2.97,1,6.02,1.2,9.12.99Z"/><path class="uuid-10c658f4-8bf6-4a4e-97d9-950406e22f6b" d="m690.46,551.98c9.01-6.37,18.03-12.73,27.04-19.1,3.25-.55,5.38-2.94,7.63-4.95,7.21-6.43,14.26-13.03,21.53-19.71-1.92-7.44,3.67-11.33,7.66-16.13,2.57-3.09,4.6-6.62,6.82-9.99.85-1.29,1.73-2.42,3.87-2.63,1.94,4.82-1.56,8.84-1.98,13.21-.08.07-.17.13-.07.06-.08.09,0,.01.06-.07,5.71-4.29,8.68-10.66,12.49-16.39,1.2-1.81,1.91-4.18,5.11-4.97.35,3.29,2.36,5.92,1.89,9.25-3.73.47-3.71,4.68-6.27,6.31.48-3.83,3.62-6.61,3.98-10.57-3.55,5.98-6.81,12.1-11.77,17.13,1.14-.2,1.94-.68,2.63-1.29,1.84-1.64,2.77-4.19,5.18-5.28-.8,3.9-4.77,5.58-7.28,9.61,3.82-1.9,5.58-4.46,7.81-6.44-.54,3.6-3.83,5.35-5.73,8.22,2.37-.2,10.85-9.97,11.48-13.31-1.38.94-2.52,1.7-3.65,2.46.1-2.75,1.78-4.46,3.88-5.9,3.06,2.15,1.13,5.19.36,7.01-4.04,9.51-9.1,18.27-18.36,24.08-5.83,3.65-8.39,10.46-12.44,15.82-9.16,12.11-17.14,25.18-28.34,35.63-3.7,3.45-7.13,7.99-12.92,7.89-8.09-.14-11.8-6.46-15.83-12.07-1.79-2.49-3.18-5.26-4.75-7.9Zm71.83-58.06c-2.87.93-5.78,3.23-6.26,4.84,3.61-1.25,5.64-2.75,6.26-4.84Z"/><path class="uuid-10c658f4-8bf6-4a4e-97d9-950406e22f6b" d="m649.48,463.36c-7.32,14.22-33.67,13.4-40.39.97,3.75-1.95,5.07-8.4,2.45-11.81-5.71-7.44-8.32-15.99-9.02-25.22.98-.31,2-.53,2.92-.96,3-1.4,5.99-1.73,9.02-.15.52,3.52,1.48,6.99.34,10.61-.4,1.28.27,2.6,1.7,3.21,1.68.73,3.27.81,5.13-.89-1.99-.11-3.49-.2-5.47-.31.07-4.58,1.39-9.16-1.01-13.32.1-1.94-1.18-2.29-2.73-2.44-3.51-.33-6.92-.11-10.31,2.74.59-6.54.61-12.14,2.76-17.52,1.11.18,1.87.14,2.46.42,9.29,4.48,18.23,3.79,27.32-.99,4.46-2.34,6.3-.87,7.25,4.14.63,3.31.66,6.83,2.81,9.96,1.18-.81,2.01-2.07,3.51-1.73,2.72,1.91,3.09,9.81.16,12.65-1.61,1.56-2.16,3.2-2.63,5.16-.99,4.13-2.69,7.96-5.31,11.14,1.15,6.13,4.42,10.65,9,14.34Zm-15.42-41.08c-1.8-3.62-10.05-3.33-14.06.92,5.09-.33,9.53-.62,14.06-.92Zm-13.22,35.35c3.34,1.44,11.15-.65,14.01-3.97-4.97,2.22-9.23,4.06-14.01,3.97Zm-3.14-11.81c3.19,1.76,8.29-.83,8.8-4.13-2.63,2.01-5.07,3.62-8.8,4.13Zm12.26-16.37c-.24-2.23-1.78-2.18-2.92-2.31-1.53-.16-3.11.01-4.19,2.59,2.64-1.23,4.78-1.3,7.11-.29Zm-16.11,1.66c-2.27-2.32-4.09-2.34-5.99-1.73-.7.23-1.64.59-.96,1.92,1.98-1.57,4.02-.7,6.94-.19Z"/><path class="uuid-f1877d2a-9553-49bd-b869-9fdf2fb78563" d="m697.32,641.68c9.44-3.05,18.98-5.84,28.07-9.89,1.83-.82,3.59-1.81,5.38-2.73,1.31,2.22,3.71,1.28,5.43,1.44,7.41.69,14.87,1.01,22.32,1.19,19.63.48,39.19,1.78,58.6,4.85,1.23.2,2.63.38,3.66,1.93-2.45,2.02-5.51,2.33-8.29,2.61-13.67,1.36-27.33,2.79-41.08,3.45-21.38,1.04-42.74,2.4-64.16,2.55-.67,0-1.35.35-2.02.53-2.63-1.98-5.27-3.96-7.91-5.94Z"/><path class="uuid-30547308-de57-4983-88b0-9d9e87142bfe" d="m648.25,420.07c-1.51-.34-2.33.92-3.51,1.73-2.16-3.13-2.18-6.64-2.81-9.96-.95-5-2.79-6.48-7.25-4.14-9.09,4.77-18.03,5.47-27.32.99-.6-.29-1.35-.24-2.46-.42-2.15,5.38-2.17,10.98-2.76,17.52,3.39-2.85,6.8-3.07,10.31-2.74,1.55.14,2.82.5,2.73,2.44-.23.23-.47.46-.7.7-3.04-1.58-6.02-1.25-9.02.15-.92.43-1.94.65-2.92.96-1.9-2.75-2.3-6.08-3.52-9.1-.24-2.52-.44-5.05-.71-7.57-.6-5.62,1.51-9.83,6.24-12.98,1.7-1.13,3.32-2.79,4.25-4.59,5.45-10.58,17.63-11.13,26.7-7.75.4.15.83.26,1.24.39,5.18,3.55,5.24,8.63,3.98,13.98,8.72,2.32,8.79,2.32,8.57,11.56-.07,2.96-.66,5.9-1.02,8.85Z"/><path class="uuid-d29d71c7-5deb-4a87-a643-3ed52b78505f" d="m649.26,646.19c13.1,1.09,25.88-1.61,38.74-3.27,1.49.68,3.06,1.24,4.48,2.06,9.85,5.65,12.89,14.52,11.87,25.29-2.97,2.84-6.62,2.81-10.25,2.14-11.12-2.07-22.27-1.47-33.41-.47-6.08.55-11.16-1.39-15.62-5.36.05-.35.11-.7.16-1.05h6.55c.16.74.36,1.63.56,2.56,2.25-.93,4.25-6.38,4.35-12.24.03-1.82,1.11-4.24-1.78-5.53-.19,1.44-.36,2.67-.59,4.4-1.79-1.55-2.73-3.69-5.07-3.51.39-1.11.79-2.23,1.19-3.37-.4-.57-.79-1.1-1.17-1.64Zm16.86,23.9c2.5-3.83,2.35-16.87.15-18.69-1.01.08-2.02.17-3.63.31.8,6.14-2.29,11.49-3.36,17.37,4.22-3.2,4.12-8.4,6.01-13.02,2.8,4.52-1.66,9.28.83,14.02Zm-8.02-19.18c1.34,6.64-1.86,12.18-2.11,18.89,4.2-4.27,5.79-16.66,2.11-18.89Zm11.86,16.62c3.61-3.96,3.6-8.98,4.19-13.79.16-1.33-.55-2.33-2.82-2.27,1.29,5.55-.95,10.64-1.38,16.06Zm4.77-.13c4.14-3.12,3.59-7.92,4.7-12.09.42-1.6-.53-2.77-2.68-3.44.79,5.54-.74,10.47-2.01,15.53Zm5.08-16.68c2.28,6.03,1.39,11.08.06,16.17,2.9-.18,4.82-11.3,2.88-14.64-.41-.21-1-.52-2.94-1.53Z"/><path class="uuid-10c658f4-8bf6-4a4e-97d9-950406e22f6b" d="m645.23,665.53c-.05.35-.11.7-.16,1.05-7.44.69-12.89-4.33-19.25-6.74-3.91-1.48-7.82-2.99-11.73-4.49,5.26-6.72,10.23-13.59,11.94-22.22.9-.02,1.81-.04,2.71-.06,1.59,6.33,10.38,13.04,16.51,12.59,1.34.17,2.67.35,4.01.52.38.54.76,1.07,1.17,1.64-.41,1.15-.8,2.26-1.19,3.37-3.35,1.65-3.93,4.73-4.13,8.01-.76,1.77-.77,3.53.02,5.29.03.34.07.69.1,1.03Z"/><path class="uuid-d29d71c7-5deb-4a87-a643-3ed52b78505f" d="m563.18,639.28c11.77,4.96,23.86,9.08,35.94,13.2,0,.77,0,1.54,0,2.43,1.19,1,2.37,2,3.56,3-11.72,2.34-23.48,3.8-35.25.61-1.87-.51-4.01-1.26-5.33-3.05-1.88-5.54-2.29-10.99,1.08-16.18Z"/><path class="uuid-78bc54d1-26d0-4bb1-9c9b-b187c480fb97" d="m602.68,657.91c-1.19-1-2.37-2-3.56-3,0-.88,0-1.65,0-2.43,5.64-2.11,8.62-6.87,11.29-11.75,2.21-4.06,3.75-8.44,4.13-13.13.01-.38.03-.75.04-1.13,1.08-1.61,2.55-1.37,3.9-.59,2.48,1.43,4.87,3.03,7.42,4.63.05.94.1,1.78.14,2.63-1.72,8.62-6.68,15.5-11.94,22.22-1.98,2.28-3.97,4.56-5.93,6.81-2.09-1.62-3.79-2.94-5.48-4.26Z"/><path class="uuid-26979353-645a-4799-849d-837aac602f62" d="m704.34,670.27c1.03-10.77-2.02-19.64-11.87-25.29-1.42-.81-2.98-1.38-4.48-2.06,2.85-2.34,6.18-1.06,9.31-1.24,2.64,1.98,5.27,3.96,7.91,5.94,1.56,2.91,3.73,5.47,4.75,8.7,1.84,5.84-.17,10.98-5.63,13.94Z"/><path class="uuid-26979353-645a-4799-849d-837aac602f62" d="m563.18,639.28c-3.38,5.19-2.97,10.64-1.08,16.18-3.45-.48-4.19-3.81-6.16-5.84-1.44-4.46-.6-8.64,1.57-12.66,2.18.07,3.85,1.4,5.68,2.31Z"/><path class="uuid-5959e106-c350-455a-8b06-90c65d93b4c6" d="m776.23,486.89c2.56-1.63,2.54-5.84,6.27-6.31.08.31.17.63.25.94-2.1,1.44-3.77,3.16-3.88,5.9l.02-.02c-1.63.15-1.83,1.44-2.13,2.66h.01c-2.23,1.97-3.99,4.52-7.81,6.43,2.51-4.04,6.48-5.71,7.28-9.61h-.01Z"/><path class="uuid-10c658f4-8bf6-4a4e-97d9-950406e22f6b" d="m654.27,464.37c-.41-.09-.81-.17-1.22-.26.55-.6.89-.21,1.22.26Z"/><path class="uuid-07aec690-831e-4845-8a26-d868029d751f" d="m530.79,350.02c5.34,16.86,10.68,33.72,16.02,50.57.24.75.52,1.49.78,2.23-.15.9-.79,1.23-1.59,1.52-10.07,3.62-20.35,6.46-30.9,8.24-.5.1-1,.21-1.51.31-.57.06-1.13.12-1.7.18-.94-.19-1.89-.38-2.67.45-.57.07-1.13.13-1.7.2-1.24-.27-2.5-.68-3.55.49-.93.06-1.86.12-2.79.17-1.57-.41-3.14-.72-4.63.29-2.81.13-5.62.22-8.43.41-1.27.08-1.78-.45-1.76-1.65-.13-.87-.27-1.74-.4-2.6-.06-.89-.11-1.77-.16-2.65.12-1.61.47-3.24-.43-4.75-.05-1.05-.11-2.09-.16-3.14,0-2.71,0-5.42,0-9.32-1.49,3.75-1.49,6.44-1.34,9.14-.25,4.9-.5,9.79-.77,14.99-20.24-.33-39.64-3.89-58.32-11.24,3.47-18.14,6.95-36.27,10.42-54.41.42.65.84,1.3,1.25,1.93,1.38.25,2.67.57,3.97.71,25.25,2.78,50.58,2.48,75.91,2,5.04-.09,10.26-.49,14.45-4.05Z"/><path class="uuid-5959e106-c350-455a-8b06-90c65d93b4c6" d="m476.7,458.89c-1.99,19.09-2.87,38.24-3.5,57.41-.82,24.8-1.47,49.61-2.2,74.42-.02.7-.18,1.39-.27,2.08-7.6.06-15.21.11-22.81.17-1.19-11.09-2.41-22.18-3.58-33.28-2.6-24.74-5.15-49.48-7.77-74.22-1.46-13.81-3.03-27.61-4.55-41.42,9.32,1.67,18.6,3.53,27.96,4.94,5.71.86,11.53,1.03,17.31,1.5-.13,2.43-.26,4.85-.4,7.28-.06.37-.12.74-.18,1.11Z"/><path class="uuid-5959e106-c350-455a-8b06-90c65d93b4c6" d="m526.6,570.26c-8.63-40.16-18.54-80.02-28.52-119.86,8.15-1.05,16.34-1.91,24.45-3.22,5.78-.94,11.46-2.51,17.2-3.75.82-.18,1.69-.09,2.54-.13,1.81,24.91,3.65,49.82,5.41,74.73,1.28,18.07,2.46,36.14,3.68,54.21-8.12-2.36-16.29-4.15-24.77-1.98Z"/><path class="uuid-411744d5-04ee-4635-bc90-1195a6e2cfed" d="m483.87,400.1c-.15-2.7-.15-5.39,1.34-9.14,0,3.89,0,6.61,0,9.32-.45-.06-.89-.12-1.34-.17Z"/><path class="uuid-411744d5-04ee-4635-bc90-1195a6e2cfed" d="m496.55,414.67c1.49-1.01,3.05-.7,4.63-.29-1.51.58-3.06.64-4.63.29Z"/><path class="uuid-411744d5-04ee-4635-bc90-1195a6e2cfed" d="m485.37,403.41c.9,1.52.55,3.15.43,4.75-1.04-1.5-.78-3.12-.43-4.75Z"/><path class="uuid-411744d5-04ee-4635-bc90-1195a6e2cfed" d="m503.98,414.2c1.04-1.17,2.31-.76,3.55-.49-1.09.84-2.32.65-3.55.49Z"/><path class="uuid-411744d5-04ee-4635-bc90-1195a6e2cfed" d="m509.22,413.52c.77-.83,1.72-.63,2.67-.45-.76.91-1.7.76-2.67.45Z"/><path class="uuid-411744d5-04ee-4635-bc90-1195a6e2cfed" d="m485.97,410.82c.13.87.27,1.74.4,2.6-.93-.75-.69-1.67-.4-2.6Z"/><path class="uuid-411744d5-04ee-4635-bc90-1195a6e2cfed" d="m513.58,412.89c.5-.1,1.01-.21,1.51-.31-.39.67-.9.71-1.51.31Z"/><path class="uuid-10c658f4-8bf6-4a4e-97d9-950406e22f6b" d="m554.12,573.35c2.31-8.38,3.24-16.98,4.19-25.58,8.03,1.72,16.07,3.44,24.51,5.25-1.17,10.08-2.31,19.93-3.46,29.78-9-1.59-16.93-6.03-25.24-9.44Z"/><path class="uuid-10c658f4-8bf6-4a4e-97d9-950406e22f6b" d="m520.5,608.23c-7.87,1.09-14.89,5.17-22.71,6.44-1.73.28-3.5.74-4.83-1.01-1.21-1.58-.5-2.97.47-4.32-.82-1.32-2.61-1.83-2.45-4.26.1-.27.42-1.16.77-2.15-2.08-1.82-3.24-3.83-.69-6.27-1.8-.76-3.32-1.95-2.85-3.76,1.16-4.47,5.7-2.79,8.75-4.52-2.26-4.3-6.16-8.24-4.82-14.06,2.9-.5,4.4,1.42,5.68,3.14,4.1,5.54,9.62,8.86,16.05,10.92-.71,7.59,2.51,13.87,6.64,19.84Z"/><path class="uuid-78bc54d1-26d0-4bb1-9c9b-b187c480fb97" d="m645.26,645.67c-6.13.45-14.92-6.26-16.51-12.59.23-6.71,5.02-11.41,12.79-12.38.04.74.08,1.47.12,2.2-.12.54-.24,1.08-.35,1.61-1,6.3,1.02,12.09,3.06,17.88.38,1.06.6,2.18.89,3.28Z"/><path class="uuid-30547308-de57-4983-88b0-9d9e87142bfe" d="m614.58,626.47c-.01.38-.03.75-.04,1.13-7.19-4.42-13.4-10.13-20.06-15.24-11.4-8.76-22.61-17.77-33.89-26.68-.97-.77-2.2-1.35-2.64-3.69,19.28,15.14,37.96,29.81,56.63,44.48Z"/><path class="uuid-30547308-de57-4983-88b0-9d9e87142bfe" d="m641.31,624.52c.12-.54.24-1.08.35-1.61,5.73-2.33,10.49-6.28,15.71-9.46,8.67-5.29,17.2-10.83,25.81-16.23.67-.42,1.47-.63,2.58-.22-4.2,2.73-8.37,5.5-12.6,8.18-9.47,6-18.96,11.98-28.48,17.91-1.02.64-2.24.96-3.37,1.43Z"/><path class="uuid-07aec690-831e-4845-8a26-d868029d751f" d="m530.21,627.03c.08-2.83.16-5.67.24-8.5.35.38.69.76,1.04,1.15.81,2.93,1.07,6.11,3.49,8.25,1.91-.46,1.74-2.09,2.41-3.12,1.24.29,1.96,1.2,2.61,2.19-.39,1.22-.79,2.44-1.18,3.65-2.69-.27-5.38-.54-8.16-.81-.18-1.13-.31-1.96-.45-2.8Z"/><path class="uuid-411744d5-04ee-4635-bc90-1195a6e2cfed" d="m538.81,630.65c.39-1.22.79-2.44,1.18-3.65,3.04.88,5.45,2.83,7.93,4.65-3.1.21-6.15,0-9.11-.99Z"/><path class="uuid-e4b056c5-940b-46ee-ba3f-53291ecba6f9" d="m537.38,624.8c-.67,1.04-.49,2.66-2.41,3.12-2.42-2.14-2.67-5.32-3.49-8.25,2.35,1.27,3.17,4.28,5.89,5.13Z"/><path class="uuid-411744d5-04ee-4635-bc90-1195a6e2cfed" d="m437.52,627.06c.71-.75,1.42-1.49,2.13-2.24,2.69-1.97,6.33-2.5,8.32-5.53.16-.05.32-.1.48-.15.38.19.79.82,1.07-.09,3.8-2.65,7.97-2.01,12.13-1.37-.55.42-1.09.84-1.64,1.26-1.89.02-3.53-1.83-6.22-.6,2.64.78,4.73,1.41,6.82,2.03-.23,1.4.96,1.95,1.69,2.77,1.59,1.79,4.02,2.98,4.13,5.82-4.58,1.87-9.42,1.6-14.21,1.64-4.13.04-8.26.02-12.38-.11-.97-.03-1.93-.58-3.07-.94.3-1.04.52-1.77.74-2.5Z"/><path class="uuid-07aec690-831e-4845-8a26-d868029d751f" d="m460.02,618.95c.55-.42,1.09-.84,1.64-1.26.53-.46.86-.92.04-1.42.18-.22.37-.44.55-.66,1.59-.89.4-1.32-.34-1.58-1.48-.52-3.02-.89-4.53-1.33-.61-.64-1.32-.55-2.06-.3-1.06.03-2.12.05-3.17.08-.57-.3-1.09-.32-1.51.26-1.62.1-3.1.61-4.41,1.58-.18-.53-.36-1.07-.54-1.6.4-1.03,1.37-.97,2.21-1.18,7.94,0,15.88,0,23.81,0,.76.09,1.52.18,2.08.25,1.06.66,1.12,1.5,1.04,2.39-3.01,1.88-3.31,5.4-4.74,8.33-.86-.39-1.51-.69-2.44-1.12.31,2.01.07,3.95,2.35,4.55,1.37-.58,1.47-1.8,1.97-2.8,1.06-2.18.52-4.93,2.44-6.79.07,1.95.14,3.9.21,5.84,0,1.64,0,3.28,0,5.36-2.8.48-5.49.94-8.18,1.4-.12-2.84-2.54-4.03-4.13-5.82-.73-.82-1.92-1.36-1.69-2.77.44-.75-.01-1.12-.61-1.43Z"/><path class="uuid-5959e106-c350-455a-8b06-90c65d93b4c6" d="m776.24,486.87c-2.41,1.09-3.34,3.64-5.18,5.28-.69.61-1.49,1.09-2.63,1.29,4.96-5.02,8.22-11.15,11.77-17.13-.36,3.96-3.5,6.75-3.98,10.57h.01Z"/><path class="uuid-5959e106-c350-455a-8b06-90c65d93b4c6" d="m778.87,487.42c1.13-.76,2.26-1.53,3.65-2.46-.63,3.34-9.11,13.11-11.48,13.31,1.9-2.87,5.19-4.62,5.73-8.22h-.01c1.47-.26,1.75-1.49,2.13-2.64l-.02.02Z"/><path class="uuid-5959e106-c350-455a-8b06-90c65d93b4c6" d="m762.29,493.92c-.62,2.09-2.65,3.58-6.26,4.84.48-1.61,3.39-3.91,6.26-4.84Z"/><path class="uuid-30547308-de57-4983-88b0-9d9e87142bfe" d="m634.06,422.28c-4.52.3-8.97.59-14.06.92,4.01-4.25,12.26-4.54,14.06-.92Z"/><path class="uuid-5881fa35-b426-4cc4-aca1-012ead95d795" d="m614.47,426.18c.23-.23.47-.46.7-.7,2.4,4.16,1.07,8.74,1.01,13.32,1.98.11,3.48.2,5.47.31-1.86,1.71-3.45,1.62-5.13.89-1.43-.62-2.1-1.93-1.7-3.21,1.14-3.62.17-7.09-.34-10.61Z"/><path class="uuid-5881fa35-b426-4cc4-aca1-012ead95d795" d="m620.84,457.63c4.78.09,9.04-1.76,14.01-3.97-2.86,3.33-10.67,5.41-14.01,3.97Z"/><path class="uuid-5881fa35-b426-4cc4-aca1-012ead95d795" d="m617.71,445.82c3.73-.51,6.17-2.12,8.8-4.13-.51,3.3-5.61,5.89-8.8,4.13Z"/><path class="uuid-5881fa35-b426-4cc4-aca1-012ead95d795" d="m629.97,429.46c-2.33-1.02-4.47-.94-7.11.29,1.08-2.58,2.66-2.76,4.19-2.59,1.14.12,2.68.08,2.92,2.31Z"/><path class="uuid-30547308-de57-4983-88b0-9d9e87142bfe" d="m613.86,431.11c-2.92-.51-4.97-1.38-6.94.19-.68-1.33.25-1.69.96-1.92,1.89-.62,3.71-.59,5.99,1.73Z"/><path class="uuid-d29d71c7-5deb-4a87-a643-3ed52b78505f" d="m645.11,659.22c.85,1.76.82,3.52.02,5.29-.79-1.76-.78-3.52-.02-5.29Z"/><path class="uuid-10c658f4-8bf6-4a4e-97d9-950406e22f6b" d="m778.89,487.4c-.38,1.15-.66,2.38-2.13,2.66.3-1.21.5-2.51,2.13-2.66Z"/><path class="uuid-f52be2ec-dafc-4e84-9b7f-1b0f783a41b2" d="m530.79,350.02c-4.19,3.56-9.4,3.96-14.45,4.05-25.33.48-50.66.78-75.91-2-1.3-.14-2.59-.46-3.97-.71-.41-.62-.83-1.27-1.25-1.93-1.55-15.14,1.38-30.18,1.27-45.74-2.75.88-3.79,3.04-5.19,4.64-5.62,6.48-12.24,11.62-19.97,15.31-8.07,3.86-15.13,2.04-22.36-5.73-9.02-9.69-15.01-21.2-19.95-33.33-1.38-3.39.63-6.1,1.99-8.93,1.01-2.12,2.75-3.89,3.05-6.36,5.79-8.16,11.57-16.32,17.36-24.48,4.62-3.66,5.19-3.56,8.54,1.49,3.21,4.84,5.23,10.3,7.85,15.83,5.95-3.25,10.33-7.86,13.53-13.28,6.98-11.84,15.67-21.66,28.67-27,4.22-1.73,8.34-3.78,12.99-4.19,7.1,6.42,11.93,14.54,16.96,23.37,4.29-10.35,12.2-16.95,19.32-24.21,8.56,2.23,16.21,6.62,24.15,10.31,9.75,4.54,14.85,13.67,20.84,21.86,2.22,3.04,4.15,6.28,6.45,9.81,3.65-3.41,7.12-6.7,10.66-9.91.99-.89,1.64-2.39,3.35-2.22,3.2,11.17,6.41,22.35,9.61,33.52,1.27,4.83,2.54,9.66,3.89,14.76-8.98,6.9-17.66,14.3-28.14,18.85-6.73,2.92-11.74-1.57-16.52-5.52-1.03-.85-1.61-2.24-2.4-3.39-.36.27-.72.53-1.08.8.54,6.69,1.17,13.37,1.59,20.06.37,5.97.54,11.95.75,17.93.08,2.24-.46,4.36-1.62,6.31Zm-12.93-104.49c1.89-4.94.1-12.02-3.4-14.53-2.55-1.83-5.3-2.76-8.9-1.1,4.19,5.32,8.11,10.3,12.3,15.63Zm-53.55,64.4c-4.01-3.93-10.66-5.5-14.64-3.54-2.93,1.44-4.32,4-4.95,7.51,6.75-1.37,13.04-2.64,19.59-3.97Zm-20.7-35.18c4.16,5.3,8.13,10.35,12.21,15.55,1.79-4.68.41-11.42-2.91-14.11-2.64-2.14-5.66-2.88-9.3-1.44Zm-68.07,11.4c5.95-1.35,10.32-3.42,12.33-8.43,1.21-3.01.78-6.11-1.85-9.21-3.48,5.85-6.75,11.36-10.48,17.64Zm157.61,7.51c6.4-2.44,12.34-4.71,19.02-7.26-5.21-2.66-9.75-3.59-14.25-1.56-3.24,1.46-4.61,4.55-4.77,8.83Zm-103.85-5.46c-6.95-1.34-13.26-2.56-19.78-3.82,1.7,4.31,6.86,8.59,10.78,8.84,3.64.24,6.26-1.78,9-5.02Zm31.39,58.43c1.88-4.65.6-10.63-2.76-13.87-2.58-2.48-5.61-2.65-9.56-1.9,4.29,5.49,8.2,10.49,12.33,15.76Zm43.36-47.04c4.39,5.51,8.36,10.5,12.84,16.14.72-5.73.62-10.32-2.95-14.12-2.58-2.74-5.83-2.63-9.9-2.02Zm-97.23,18.36c.46-4.61-2.9-10.18-7.01-12.12-3.29-1.56-6.18-.52-9.65,1.42,5.84,3.75,11.16,7.17,16.66,10.71Zm94.11,29.65c6.31-2.37,12.28-4.61,18.52-6.95-4.35-3.05-10.81-3.76-14.1-1.63-2.87,1.86-4.41,4.54-4.42,8.58Zm-42.81-113.17c-4.26-1.02-10.12,1.15-12.69,5.13-1.73,2.68-1.55,5.44-.12,9.44,4.71-5.36,8.88-10.1,12.81-14.57Zm21.51,23.63c6.42-2.44,12.36-4.7,18.82-7.15-4.83-3.05-9.55-3.45-14.05-1.64-3.23,1.3-4.65,4.53-4.77,8.78Zm1.93,75.11c4.52-5.07,8.8-9.87,13.45-15.08-11.19-.13-17.26,6.75-13.45,15.08Zm6.56-56.19c-6.38.81-11.3,1.67-14.22,6.46-1.69,2.77-1.47,5.76.24,9.07,4.54-5.04,8.83-9.8,13.99-15.52Zm-71.29-11.71c6.55-2.46,12.46-4.69,19.09-7.18-4.68-2.86-8.91-3.29-13.22-1.98-3.99,1.22-4.99,4.75-5.87,9.16Zm109.58,5.29c5.06-2.85,8.53-5.77,9.24-10.86.51-3.61-.98-6.39-4.38-8.64-1.6,6.42-3.12,12.5-4.86,19.51Zm-23.63-5.59c-1.59,6.6-3.08,12.81-4.74,19.74,5.31-3.21,9.19-6.42,9.15-12.4-.02-3.04-1.3-5.48-4.41-7.34Z"/><path class="uuid-5881fa35-b426-4cc4-aca1-012ead95d795" d="m464.9,210.43c.63-3.32,1.26-6.64,1.89-9.96.56-.27.77-.62.28-1.14.02-.55.04-1.1.06-1.64.27-.99.53-1.98.81-2.96,1.91-6.73-3.81-12.27-2.53-18.61-1.83-1.08-3.08.24-4.45.11-.21-.71-.42-1.42-.63-2.13.3-.71.33-1.37-.39-1.87,0-2.39.01-4.78.02-7.17.7-.49.71-1.14.42-1.85.56-2.01,1.13-4.02,1.69-6.04-9.92-4.94-9.48-12.4-6.91-18.24,3.63-8.26,13.46-13.56,22.03-12.1,6.58,1.12,8.8,4.91,9.48,16.18,15.42,4.93,22.19,12.19,21.92,23.49-1.02.29-1.6-.48-2.34-.92-5.17-3.1-10.61-5.87-16.77-5.14-10.13,1.21-14.86,6.73-16.41,18.12-2.15-.59-4.3-1.19-6.45-1.78-.07.26-.14.51-.21.77,2.03,1.07,4.05,2.15,6.08,3.22-.62,2.9.79,5.48,1.31,8.2,1.01,5.26-2.25,9.37-3.73,13.96-2.58,3.25-3.32,7.18-4.08,11.1-.08.72-.17,1.43-.26,2.25-.31-.22-.54-.39-.78-.56-.02-.55-.03-1.09-.05-1.64.77-1.21.58-2.42,0-3.64Z"/><path class="uuid-5959e106-c350-455a-8b06-90c65d93b4c6" d="m574.33,280.22c-3.2-11.17-6.41-22.35-9.61-33.52,13.29-18.69,27.97-36.03,47.39-49.96.61,5.74-2.87,8.97-4.74,13.32,3.89-1.47,6.4-4.03,8.94-6.45,3.05-2.91,5.87-6.08,8.81-9.11,1.04-1.07,2.08-2.25,3.91-1.27.57,1.48.14,2.9-.43,4.4.72,1.34,2.21,2.7.45,4.32-6.27,2.62-9.15,9.48-16.04,11.9,1.81,1,2.46.03,3.24-.36,5.1-2.53,7.67-8.2,12.97-10.49,2.15,3.05-.11,5.69-1.51,7.66-6.49,9.18-14.18,17.2-25.6,20.04-5.7,1.42-8.34,5.53-10.43,10.23-5.65,12.68-11.13,25.44-16.69,38.16-.17.39-.43.75-.65,1.12Zm38.21-68.41c4.53-.83,13.29-9.15,15.14-14.78-5.18,5.95-9.13,11.46-15.14,14.78Zm15.19-4.82c-5.35,2.16-8.27,7.44-13.16,10.18,5.8-1.58,8.63-6.97,13.16-10.18Zm-28.14,7.38c2.31-.65,4.87-.73,7.66-3.64-3.46,1.37-5.98,1.54-7.66,3.64Z"/><path class="uuid-5959e106-c350-455a-8b06-90c65d93b4c6" d="m391.41,244.83c-5.79,8.16-11.57,16.32-17.36,24.48-2-9.81-3.96-19.63-6.02-29.42-.63-3.01-1.7-5.92-2.26-8.94-1.08-5.78-5.97-7.84-10.17-10.32-9.37-5.54-14.22-14.44-18.12-23.92-.72-1.76-2.72-4.88.41-6.98,1.83,1.03,2.89,2.7,3.96,4.44,2.37,3.86,4.78,7.72,9.62,10.63-2.26-4.3-7.14-5.61-7.2-10.27,2.9,1.95,4.05,5.78,7.79,6.94-5.28-4.42-7.72-10.84-11.88-16.06,1.37,3.05,2.74,6.09,4.11,9.14-1.5.26-1.54-1.13-2.07-1.9-1.07-1.55-1.85-3.41-4.19-3.36-.06-.96-.13-1.91-.19-2.9.57-.61,1.09-1.17,1.61-1.73-.09-1.57-.6-3.19.64-4.53,1.82-.49,2.53.75,3.34,1.93,3.62,5.28,6.42,11.14,10.82,15.89.73.79,1.25,1.95,2.78,2.07-.13-4.07-3.28-7.85-1.32-12.06,1.82-.15,2.54.94,3.37,1.98,13.39,16.77,24.02,35.16,32.34,54.92Zm-42.16-38.13c-4.22-3.79-5.99-9.71-10.98-12.82,3.91,4.07,5.71,9.92,10.98,12.82Zm15.17.27c-.98-2.62-3.64-2.9-5.61-4.14,1.09,2.46,3.82,2.65,5.61,4.14Zm-7.37-6.42c.21-.05.1-.03,0,0,.1.04.2.08,0,0Z"/><path class="uuid-5959e106-c350-455a-8b06-90c65d93b4c6" d="m464.95,215.7c.24.17.47.34.78.56.09-.81.18-1.53.26-2.25,3.17-2.52,5.43-8.66,4.08-11.1,1.49-4.59,4.75-8.7,3.73-13.96-.52-2.72-1.93-5.3-1.31-8.2,1.27-.02,2.42.27,3.31,1.42.12,3.85,2.26,6.5,5.86,7.37,4.91,1.18,7.55-2.05,9.39-6.06,1.6.22,3.29-.14,3.51,2.04v8.37c-1.59.1-3.08.19-5.21.33.85.62,1.14.93,1.48,1.07,4.13,1.59,5.75-.49,5.23-6.69,3.42,3.42,7.18,3.45,11.17,1.11-.35,6.16-2.77,11.66-6.48,16.34-2.85,3.59-2.51,7-1.49,10.8-7.12,7.25-15.03,13.86-19.32,24.21-5.03-8.83-9.86-16.95-16.96-23.37.65-.66,1.31-1.32,1.96-1.98Zm26.67-3.77c-5.92.82-10.24-1.36-14.76-2.56,4.32,3.61,11.64,5.27,14.76,2.56Zm2.23-11.97c-3.5-.44-6.51-.45-9.48-2.19,1.16,3.03,6.04,4.15,9.48,2.19Z"/><path class="uuid-5959e106-c350-455a-8b06-90c65d93b4c6" d="m473.07,178.54c1.55-11.39,6.29-16.9,16.42-18.12,6.16-.74,11.6,2.03,16.77,5.14.73.44,1.32,1.21,2.34.92.09,4.76,1.36,9.5.32,14.28-1.56-3.08-4.35-3.87-7.48-4.02-1.06-1.05-2.35-1.32-3.69-1.15-.83.56-.61,1.28-.51,1.96-.89,1.56-1.78,3.12-2.74,4.81-1.13-.07-2.22-.14-3.25-.21-.79-1.88-1.48-3.54-2.17-5.2,1.04-.14,2.21-.1,2.1-1.98-2.53-1.3-5.2-1.08-7.91-.27-3.38.27-5.82,1.97-7.18,4.91-1.39.22-2.25-.31-3.02-1.07Z"/><path class="uuid-524c6926-d90b-4af7-9fbe-87a3a5867c48" d="m489.08,176.96c.69,1.66,1.39,3.32,2.17,5.2,1.03.07,2.12.13,3.25.21.96-1.68,1.85-3.25,2.74-4.81,1.4-.27,2.8-.54,4.19-.81,3.13.15,5.92.94,7.48,4.02,1.2,3.31,0,6.17-1.68,8.94-3.99,2.34-7.75,2.32-11.17-1.1-.38-1.09-.15-2.47-1.5-3.08-.22-2.18-1.91-1.81-3.51-2.04-1.83,4.01-4.48,7.25-9.39,6.06-3.61-.87-5.75-3.53-5.86-7.37-.89-1.14-2.04-1.44-3.31-1.42-2.02-1.08-4.05-2.15-6.08-3.22.07-.26.14-.51.21-.77,2.15.59,4.3,1.19,6.45,1.78.76.77,1.63,1.29,3.02,1.07,1.36-2.93,3.8-4.63,7.18-4.9,2.27-.12,3.85,1.55,5.81,2.25Z"/><path class="uuid-5959e106-c350-455a-8b06-90c65d93b4c6" d="m460.96,176.22c1.37.12,2.62-1.19,4.45-.11-1.28,6.34,4.44,11.88,2.53,18.61-.28.98-.54,1.97-.81,2.96-.78-2.11-1.56-4.22-2.32-6.27,1.58-1.82,3.02-3.46.02-4.92-.76.31-1.47.6-2.34.95-2.23-3.53-1.49-7.44-1.53-11.22Z"/><path class="uuid-5881fa35-b426-4cc4-aca1-012ead95d795" d="m629.2,203.01c-5.3,2.28-7.87,7.95-12.97,10.49-.79.39-1.43,1.37-3.24.36,6.89-2.42,9.77-9.28,16.04-11.9.06.35.11.7.17,1.05Z"/><path class="uuid-5881fa35-b426-4cc4-aca1-012ead95d795" d="m338.03,189.28c2.34-.05,3.12,1.81,4.19,3.36.53.77.57,2.16,2.07,1.9l-.02-.02c.06,4.66,4.94,5.97,7.2,10.27-4.84-2.91-7.25-6.77-9.62-10.63-1.07-1.74-2.13-3.41-3.96-4.44.02-.16.07-.3.14-.44Z"/><path class="uuid-5959e106-c350-455a-8b06-90c65d93b4c6" d="m464.9,210.43c.57,1.21.76,2.43,0,3.64-.67-1.21-.61-2.43,0-3.64Z"/><path class="uuid-5959e106-c350-455a-8b06-90c65d93b4c6" d="m459.95,172.22c.72.5.7,1.16.39,1.87-.65-.52-.73-1.15-.39-1.87Z"/><path class="uuid-5959e106-c350-455a-8b06-90c65d93b4c6" d="m460.38,163.19c.29.71.28,1.36-.42,1.85-.35-.73-.2-1.34.42-1.85Z"/><path class="uuid-5959e106-c350-455a-8b06-90c65d93b4c6" d="m467.07,199.33c.49.52.28.87-.28,1.14.09-.38.19-.76.28-1.14Z"/><path class="uuid-e4b056c5-940b-46ee-ba3f-53291ecba6f9" d="m471.71,611.56c-7.94,0-15.88,0-23.81,0-.02-4.89.4-9.81-1.34-14.54,6.19.1,12.39.29,18.58.24,2.66-.02,5.42.73,7.98-.64.06.78.12,1.56.17,2.32-.57.66-1.08,1.24-1.59,1.82v10.81Z"/><path class="uuid-411744d5-04ee-4635-bc90-1195a6e2cfed" d="m473.13,596.6c-2.56,1.37-5.32.62-7.98.64-6.19.05-12.39-.14-18.58-.24-.29-.69-.58-1.38-.75-1.79.41-1.37,1.21-1.86,2.1-2.26,7.61-.06,15.21-.11,22.81-.17,2.07.47,3.27,1.49,2.4,3.81Z"/><path class="uuid-411744d5-04ee-4635-bc90-1195a6e2cfed" d="m445.69,612.73c.18.53.36,1.07.54,1.6.06.65-.27,1.44.69,1.79,1.99-.27,4-.55,6.02-.82-3.01,1.01-5.94,2.06-8.63,3.71-.19-.19-.38-.37-.57-.56.57-1.03,1.13-2.05,1.09-1.97,1.21-1.93-.59-2.95.87-3.75Z"/><path class="uuid-07aec690-831e-4845-8a26-d868029d751f" d="m443.73,618.45c.19.19.38.37.57.56,1.05,2.38,2.45.05,3.67.28-1.99,3.02-5.63,3.56-8.32,5.53,1.36-2.12,2.72-4.25,4.08-6.37Z"/><path class="uuid-e4b056c5-940b-46ee-ba3f-53291ecba6f9" d="m474.41,616.37c-1.92,1.86-1.38,4.61-2.44,6.79-.49,1.01-.59,2.23-1.97,2.8-2.28-.6-2.04-2.55-2.35-4.55.93.43,1.58.73,2.44,1.12,1.43-2.94,1.74-6.45,4.74-8.33-.14.72-.28,1.45-.42,2.17Z"/><path class="uuid-d29d71c7-5deb-4a87-a643-3ed52b78505f" d="m476.7,458.89c.06-.37.12-.74.18-1.11.81.51.57.85-.18,1.11Z"/><path class="uuid-07aec690-831e-4845-8a26-d868029d751f" d="m448.45,619.15c.36-.03.72-.06,1.07-.09-.29.9-.7.28-1.07.09Z"/><path class="uuid-26979353-645a-4799-849d-837aac602f62" d="m461.7,616.27c-3.18-.59-6.07-2.5-9.5-2.04-.98.13-1.16-.86-1.56-1.49.42-.58.94-.56,1.51-.26.97,1.79,1.88,1.76,3.17-.08.74-.25,1.45-.34,2.06.3.45,2.94,3.9.85,4.87,2.91-.18.22-.37.44-.55.66Z"/><path class="uuid-76957c1c-52e4-4aeb-9cee-2147e661fec2" d="m517.86,245.53c-4.19-5.32-8.11-10.31-12.3-15.63,3.6-1.66,6.35-.72,8.9,1.1,3.5,2.51,5.28,9.58,3.4,14.53Z"/><path class="uuid-76957c1c-52e4-4aeb-9cee-2147e661fec2" d="m464.3,309.93c-6.55,1.33-12.84,2.6-19.59,3.97.63-3.51,2.02-6.06,4.95-7.51,3.98-1.96,10.63-.4,14.64,3.54Z"/><path class="uuid-76957c1c-52e4-4aeb-9cee-2147e661fec2" d="m443.61,274.76c3.64-1.44,6.66-.69,9.3,1.44,3.32,2.69,4.7,9.42,2.91,14.11-4.09-5.2-8.05-10.25-12.21-15.55Z"/><path class="uuid-76957c1c-52e4-4aeb-9cee-2147e661fec2" d="m375.53,286.16c3.73-6.28,7.01-11.79,10.48-17.64,2.63,3.1,3.06,6.2,1.85,9.21-2.01,5.01-6.38,7.08-12.33,8.43Z"/><path class="uuid-76957c1c-52e4-4aeb-9cee-2147e661fec2" d="m533.15,293.67c.16-4.28,1.53-7.37,4.77-8.83,4.51-2.03,9.04-1.09,14.25,1.56-6.69,2.55-12.62,4.82-19.02,7.26Z"/><path class="uuid-76957c1c-52e4-4aeb-9cee-2147e661fec2" d="m429.3,288.21c-2.74,3.25-5.36,5.26-9,5.02-3.93-.26-9.08-4.53-10.78-8.84,6.52,1.26,12.83,2.48,19.78,3.82Z"/><path class="uuid-76957c1c-52e4-4aeb-9cee-2147e661fec2" d="m460.69,346.64c-4.12-5.27-8.03-10.27-12.33-15.76,3.95-.75,6.98-.59,9.56,1.9,3.37,3.24,4.64,9.21,2.76,13.87Z"/><path class="uuid-76957c1c-52e4-4aeb-9cee-2147e661fec2" d="m504.04,299.6c4.06-.61,7.32-.72,9.9,2.02,3.57,3.8,3.67,8.39,2.95,14.12-4.49-5.64-8.46-10.63-12.84-16.14Z"/><path class="uuid-76957c1c-52e4-4aeb-9cee-2147e661fec2" d="m406.81,317.95c-5.5-3.54-10.81-6.95-16.66-10.71,3.47-1.94,6.36-2.98,9.65-1.42,4.1,1.95,7.46,7.51,7.01,12.12Z"/><path class="uuid-76957c1c-52e4-4aeb-9cee-2147e661fec2" d="m500.92,347.6c0-4.04,1.55-6.72,4.42-8.58,3.29-2.13,9.75-1.43,14.1,1.63-6.25,2.34-12.21,4.58-18.52,6.95Z"/><path class="uuid-76957c1c-52e4-4aeb-9cee-2147e661fec2" d="m458.11,234.43c-3.93,4.47-8.1,9.21-12.81,14.57-1.43-4-1.61-6.75.12-9.44,2.57-3.98,8.43-6.15,12.69-5.13Z"/><path class="uuid-76957c1c-52e4-4aeb-9cee-2147e661fec2" d="m479.62,258.07c.11-4.26,1.53-7.49,4.77-8.78,4.51-1.81,9.22-1.41,14.05,1.64-6.46,2.45-12.4,4.71-18.82,7.15Z"/><path class="uuid-76957c1c-52e4-4aeb-9cee-2147e661fec2" d="m481.55,333.18c-3.81-8.33,2.26-15.21,13.45-15.08-4.64,5.21-8.92,10.01-13.45,15.08Z"/><path class="uuid-76957c1c-52e4-4aeb-9cee-2147e661fec2" d="m488.11,276.99c-5.15,5.72-9.45,10.48-13.99,15.52-1.71-3.31-1.93-6.3-.24-9.07,2.92-4.78,7.84-5.65,14.22-6.46Z"/><path class="uuid-76957c1c-52e4-4aeb-9cee-2147e661fec2" d="m416.82,265.29c.88-4.41,1.88-7.94,5.87-9.16,4.31-1.31,8.54-.88,13.22,1.98-6.63,2.49-12.55,4.72-19.09,7.18Z"/><path class="uuid-76957c1c-52e4-4aeb-9cee-2147e661fec2" d="m526.39,270.57c1.75-7.01,3.26-13.09,4.86-19.51,3.4,2.25,4.88,5.03,4.38,8.64-.71,5.09-4.18,8.02-9.24,10.86Z"/><path class="uuid-76957c1c-52e4-4aeb-9cee-2147e661fec2" d="m502.76,264.99c3.11,1.87,4.39,4.3,4.41,7.34.04,5.97-3.85,9.19-9.15,12.4,1.67-6.93,3.16-13.13,4.74-19.74Z"/><path class="uuid-d29d71c7-5deb-4a87-a643-3ed52b78505f" d="m470.07,202.92c1.35,2.44-.91,8.58-4.08,11.1.76-3.92,1.5-7.85,4.08-11.1Z"/><path class="uuid-5881fa35-b426-4cc4-aca1-012ead95d795" d="m612.54,211.81c6.02-3.32,9.97-8.83,15.14-14.78-1.86,5.63-10.61,13.95-15.14,14.78Z"/><path class="uuid-5881fa35-b426-4cc4-aca1-012ead95d795" d="m627.73,206.99c-4.53,3.21-7.37,8.61-13.16,10.18,4.89-2.75,7.82-8.02,13.16-10.18Z"/><path class="uuid-5881fa35-b426-4cc4-aca1-012ead95d795" d="m599.6,214.37c1.68-2.1,4.2-2.27,7.66-3.64-2.79,2.91-5.35,2.99-7.66,3.64Z"/><path class="uuid-5881fa35-b426-4cc4-aca1-012ead95d795" d="m344.29,194.54c-1.37-3.05-2.74-6.09-4.11-9.14,4.16,5.22,6.6,11.64,11.88,16.06-3.73-1.16-4.88-4.99-7.79-6.94,0,0,.02.02.02.02Z"/><path class="uuid-5881fa35-b426-4cc4-aca1-012ead95d795" d="m349.25,206.69c-5.27-2.89-7.07-8.74-10.98-12.82,4.99,3.11,6.76,9.03,10.98,12.82Z"/><path class="uuid-5881fa35-b426-4cc4-aca1-012ead95d795" d="m364.42,206.97c-1.79-1.48-4.52-1.67-5.61-4.14,1.97,1.24,4.63,1.52,5.61,4.14Z"/><path class="uuid-5881fa35-b426-4cc4-aca1-012ead95d795" d="m491.62,211.93c-3.12,2.71-10.44,1.04-14.76-2.56,4.52,1.2,8.84,3.38,14.76,2.56Z"/><path class="uuid-5881fa35-b426-4cc4-aca1-012ead95d795" d="m494.56,185.52c1.36.61,1.13,1.99,1.5,3.08.52,6.19-1.1,8.28-5.23,6.69-.35-.13-.63-.44-1.48-1.07,2.13-.13,3.63-.23,5.21-.33v-8.37Z"/><path class="uuid-30547308-de57-4983-88b0-9d9e87142bfe" d="m493.85,199.96c-3.44,1.97-8.32.84-9.48-2.19,2.98,1.73,5.98,1.74,9.48,2.19Z"/><path class="uuid-30547308-de57-4983-88b0-9d9e87142bfe" d="m489.08,176.96c-1.96-.7-3.54-2.36-5.81-2.25,2.71-.81,5.38-1.03,7.91.26.11,1.88-1.06,1.85-2.1,1.98Z"/><path class="uuid-30547308-de57-4983-88b0-9d9e87142bfe" d="m501.43,176.75c-1.4.27-2.8.54-4.19.81-.1-.69-.32-1.4.51-1.96,1.34-.16,2.63.1,3.69,1.15Z"/></g></svg>