<?xml version="1.0" encoding="UTF-8"?><svg id="uuid-7e46c2e8-9f66-4016-8e3c-6242b536f6d9" xmlns="http://www.w3.org/2000/svg" viewBox="0 0 1000 700"><defs><style>.uuid-fe8bff14-d114-4158-bbbd-70d359cc37f1{fill:#f7d6b7;}.uuid-fe8bff14-d114-4158-bbbd-70d359cc37f1,.uuid-55a77b44-1f1a-48b1-b799-1fb43bc5df15,.uuid-fc7aa8c0-0eb2-45ec-adbd-26e2c08ef5c6,.uuid-98f0ddeb-eeb1-4a41-8ea4-2e67d9d13e76,.uuid-107ea665-d1e5-4840-bb6f-ed1559173153,.uuid-bc8a3f40-e2b8-467c-9380-2de5d27db767,.uuid-a4a5676d-467b-4957-b69e-58c6e88d61b5,.uuid-f41a1ae1-6d76-4504-a86b-ca575106e47d,.uuid-8cc15a07-d52d-4946-87c5-07de1ef8836a,.uuid-dc6750d5-db62-441b-a103-b0e5b865b9d6,.uuid-e0b39e18-23d6-4fb1-b2d8-7f12690b282c,.uuid-fa975399-730d-4a76-bbb5-1e6fbf8e3e57,.uuid-3171345a-22f8-47eb-b9e8-d38c0de35010,.uuid-f6c3677a-3ee2-4726-968e-1b5212fbf63c,.uuid-d6d5a9fa-f153-49ee-8b9e-6b701b4b3dc5,.uuid-93cec934-629c-4434-9fc6-d7949cc919aa{stroke-width:0px;}.uuid-55a77b44-1f1a-48b1-b799-1fb43bc5df15{fill:#f9eff3;}.uuid-fc7aa8c0-0eb2-45ec-adbd-26e2c08ef5c6{fill:#f9c71a;}.uuid-98f0ddeb-eeb1-4a41-8ea4-2e67d9d13e76{fill:#285bbb;}.uuid-107ea665-d1e5-4840-bb6f-ed1559173153{fill:#57abf4;}.uuid-bc8a3f40-e2b8-467c-9380-2de5d27db767{fill:#373846;}.uuid-a4a5676d-467b-4957-b69e-58c6e88d61b5{fill:#101010;}.uuid-f41a1ae1-6d76-4504-a86b-ca575106e47d{fill:#c3d4d9;}.uuid-8cc15a07-d52d-4946-87c5-07de1ef8836a{fill:#cafcf4;}.uuid-dc6750d5-db62-441b-a103-b0e5b865b9d6{fill:#32303a;}.uuid-e0b39e18-23d6-4fb1-b2d8-7f12690b282c{fill:#66d9c8;}.uuid-fa975399-730d-4a76-bbb5-1e6fbf8e3e57{fill:#e7ada0;}.uuid-3171345a-22f8-47eb-b9e8-d38c0de35010{fill:#e83738;}.uuid-f6c3677a-3ee2-4726-968e-1b5212fbf63c{fill:#e2f6fb;}.uuid-d6d5a9fa-f153-49ee-8b9e-6b701b4b3dc5{fill:#eab0a3;}.uuid-93cec934-629c-4434-9fc6-d7949cc919aa{fill:#00767f;}</style></defs><g id="uuid-778c394b-d460-4638-939a-01f019d02242"><path class="uuid-8cc15a07-d52d-4946-87c5-07de1ef8836a" d="m106.39,337.05c-2.3-.34-4.01-1.91-6.39-2.65,1.99-1.83,3.89-1.48,5.81-.86.39,2.46,13.95,2.26,16.44,2.49,6.31.6,12.61,1.22,18.92,1.88,13.05,1.36,26.11,2.61,39.15,4.07,12.82,1.44,25.67,2.61,38.49,4.07,12.66,1.44,25.67,3.5,38.42,3.69,1.76.94,3.59,1.56,5.62,1.06,15.84.92,31.7,3.01,47.48,4.69,7.76.83,15.51,1.7,23.27,2.39,8.1.72,16.37,2.6,24.51,2.33.11.79.23,1.57.34,2.36-.53,1.28-.74,2.51.47,3.56.06.55.12,1.1.18,1.64-.65,1.81-.18,3.35,1.12,4.69.71,2.04,1.41,4.08,2.12,6.12.06,1.57.5,2.93,2.02,3.7,8.8,13.67,27.43,17.31,42.33,19.99,17.87,3.22,36.36,3.27,54.43,1.95.08,2.2.04,4.42.27,6.6.44,4.07.48,8.25,2.8,11.88-.2,3.4.95,6.6,1.32,9.72.78,1.04,1.66,1.61,2.51,2.25,3.55,2.66,7.43,4.77,11.25,6.97,7.9,4.55,16.01,7.78,25.45,5.58,3.49-.81,6.78-2.08,10.04-3.41,3.54-1.44,4.92-12.31,2.18-15.78.24-.86-.28-1.42-.79-1.99-2.21-2.44-4.42-4.88-6.63-7.32-.06-.49-.32-.84-.74-1.08,0,0-.02-.03-.02-.03-.62-.96-1.17-1.97-1.85-2.88-3.73-4.99-7.5-9.95-11.25-14.92,18.27-2.75,36.1-6.79,53.54-12.92,15.67-5.51,30.5-3.85,45.89,1.68,15.59,5.6,30.74,12.64,46.01,19.06,31.35,13.19,62.62,26.64,94.13,39.45,1.33-.22,1.36-1.23,1.97-1.68,3.11,1.37,6.21,2.74,9.32,4.11.04.83-.18,1.72.83,2.74,2.21.9,4.81,1.97,7.41,3.03,1.18,1.48,2.28,3.07,4.52,2.9,2.19,2.56,3.86,5.6,6.89,7.37,1.08,2.7,3.29,4.47,5.41,6.2,2.48,2.02,7.77,1.17,9.74-1.26,1.91-.68,3.19-2.15,4.36-3.67,13.32-17.38,25.56-35.42,34.17-55.69,2.12.61,2.68,5.47,3.32,7.18,1.29,3.45,2.78,6.82,4.12,10.25,2.75,7.05,5.31,14.17,8.09,21.2,5.27,13.34,10.27,26.77,15.39,40.16,10.76,28.12,21.71,56.17,32.5,84.28,2.99,7.8,6.03,15.59,9.13,23.35,1.47,3.69,2.93,7.39,4.26,11.13.93,2.62,3.56,6.61,3.34,9.42-5.68-.83-11.2-3.58-16.6-5.43-6.05-2.07-12.06-4.26-18.08-6.39-11.98-4.23-23.94-8.5-35.9-12.77-11.71-4.17-23.43-8.31-35.13-12.47-11.37-4.05-22.68-8.63-34.23-12.13-10.69-5.5-23.07-8.65-34.38-12.7-12.06-4.32-24.13-8.6-36.2-12.89-24.19-8.59-48.38-17.19-72.57-25.78-85.82-30.48-171.61-61.07-257.43-91.57-42.75-15.19-85.47-30.47-128.24-45.62-21.19-7.5-42.38-14.99-63.57-22.49-10.46-3.71-20.91-7.43-31.36-11.16-5.69-2.03-11.38-4.07-17.08-6.09-1.87-.66-11.26-5.38-12.82-3.6Z"/><path class="uuid-e0b39e18-23d6-4fb1-b2d8-7f12690b282c" d="m553.77,296.62c21.58-.66,43.22-3.36,64.76-4.96,21.35-1.58,42.72-3.35,64.05-5.23,42.43-3.73,84.88-7.65,127.37-10.61,11.83-.82,23.67-1.87,35.48-2.95,11.11-1.01,22.47-2.47,33.61-2.47-.43,5.02-4.15,10.46-6.12,15.03-2.54,5.89-5.11,11.76-7.69,17.64-5.25,11.96-10.49,23.92-15.69,35.9-5.04,11.61-10.09,23.21-15.21,34.79-2.52,5.71-5.05,11.41-7.57,17.12-1.24,2.8-2.51,5.59-3.66,8.42-.59,1.46-1.35,5.25-3.3,5.67-.28-.24-.55-.49-.83-.73-.77-4.1-3.1-5.84-9-6.7-5.73,1.5-10.15,5.16-14.55,8.84-2.19-1.88-5-1.11-7.42-1.34-10.97-1.04-21.88-2.51-32.84-3.55-11.06-1.05-22.13-1.92-33.14-3.46-1.68-.24-3.65-.78-5.23.65-23.77-15.24-48.25-29.62-73.25-42.75-24.66-12.95-49.82-24.37-76.85-31.3-1.55-3.41-3.09-6.83-4.67-10.23-2.74-5.93-5.51-11.84-8.27-17.76Z"/><path class="uuid-93cec934-629c-4434-9fc6-d7949cc919aa" d="m106.39,337.05c1.56-1.78,10.95,2.94,12.82,3.6,5.7,2.02,11.39,4.06,17.08,6.09,10.45,3.73,20.9,7.45,31.36,11.16,21.19,7.51,42.38,14.99,63.57,22.49,42.77,15.15,85.49,30.42,128.24,45.62,85.82,30.5,171.6,61.09,257.43,91.57,24.19,8.59,48.38,17.19,72.57,25.78,12.07,4.29,24.14,8.57,36.2,12.89,11.31,4.05,23.69,7.2,34.38,12.7-5.01,24.53-10.02,49.05-15.13,74.06-41.26-18.92-82.05-38.97-122.95-58.66-41.55-20.01-83.08-40.08-124.69-59.96-83.61-39.96-167.2-79.96-250.77-120-23.36-11.19-46.67-22.51-70-33.76-11.54-5.57-23.08-11.13-34.62-16.69-11.76-5.66-23.43-11.92-35.5-16.88Z"/><path class="uuid-fc7aa8c0-0eb2-45ec-adbd-26e2c08ef5c6" d="m553.77,296.62c2.76,5.92,5.52,11.84,8.27,17.76,1.58,3.4,3.11,6.82,4.67,10.23-8.16-.86-16.33-1.65-24.55-1.29-6.27.28-12.54.53-18.82.46-4.75-7.77-9.51-15.55-14.26-23.32-7.28-12.83-14.59-25.65-23.3-37.59-.76-1.04-1.57-2.25-3.9-2.34-2.85,13.82-1.85,27.79-1.32,41.75-.04,1.05-.14,2.1-.09,3.14.3,6.95.63,13.9.95,20.86-.64.16-1.29.44-2.07-.32-3.54-21.65-7.36-43.46-10.34-65.4.25-.35.3-.68-.13-.93-.1-.91-.21-1.82-.31-2.74.13-.67.39-1.35-.3-1.89-.1-.91-.2-1.82-.3-2.73.11-1.05.54-2.14-.35-3.09-.17-1.25-.46-2.49-.17-3.76,1.31-1.89,1.36-4.1,1.86-6.01-1.15-1.08-2.17-.86-3.2-.68-2.53-5.33-5.43-8.37-11.56-8.8-5.61-.4-11.05,1.33-15.59,4.6-2.96-2.55-4.94-6.03-7.75-8.7-3.65,2.2,4.23,8.29,5.26,10.72-23.66,23.79-41.52,52.04-60.76,79.44-2.95-.3-5.89-.6-9.03-.92-2.49,6.43-4.32,12.89-5.87,19.44-1.66-.73-3.45-1.27-4.39-3.18.62-6.38,3-12.41,4.44-18.65,3.72-11.76,7.43-23.52,11.16-35.28,2.76-8.73,5.6-17.43,7.75-26.34.33-1.38,1.2-2.87.19-4.34-2.29.41-2.9.66-5.74,2.69-11.94,8.53-23.09,18.04-34.2,27.6-11.25,9.69-22.46,19.43-33.59,29.25-4.33,3.82-8.85,7.42-12.81,11.65-2.72,1.95-4.94,4.48-7.53,6.57-2.51,2.02-4.4,4.77-7.4,6.18-5.48-7.38-10.97-14.76-16.45-22.14,2.27-3.5,5.33-6.31,8.21-9.26,25.69-26.43,51.29-52.95,77.69-78.67,7.52-7.33,14.94-14.8,23.25-21.28,6.85-5.34,15.02-7.79,23.15-10.2,8.49-2.52,17.05-4.87,25.9-5.85-1.63,6.44-.45,13.67,3.58,19.06,4.14,5.54,10.81,7.44,17.47,7.39,12.46-.09,23.56-7.24,25.21-20.32,9.13,1.99,18.32,3.78,26.56,8.56,4.36,2.53,7.52,6.27,10.47,10.22,19.89,26.58,34.36,56.22,48.63,85.98.41.86.94,1.66,1.42,2.49Zm-157.35-36.56c2.52,2.97,4.98,5.87,7.31,8.62,1.25-.28,1.78-.72,1.76-1.94-2.32-2.73-4.78-5.63-7.13-8.4-1.06.3-1.48.8-1.94,1.72Zm-104.95,52.87c4.12,1.62,3.18-8.63,3.34-10.81-.71-.82-1.35-1.08-2.55-.36-.09,3.51-1.1,7.21-.79,11.17Zm210.96-75.22c3.69,1.93,7.68,2.05,11.71,3.03.17-.95.29-1.64.4-2.29-7.56-2.64-10.26-2.86-12.11-.74Zm-220.76,65.63q-2.34-1.21-7.29,5.25c-.89,1.17-2.54,2.38-.11,4.27,2.47-3.18,4.85-6.25,7.4-9.52Zm69.11-63.92c3.57.8,7.1,1.59,10.44,2.34.93-.76,1.06-1.44.58-2.36-3.39-.98-6.9-1.85-10.37-2.39-.93.58-1.04,1.27-.66,2.42Zm-60.05,47.21c-.66.86-.65,1.46-.04,2.15,3.48,1.03,7.06,2.13,10.75,2.32.44-1.15.41-1.86-.46-2.53-3.35-.62-6.78-1.77-10.24-1.94Zm199.82-70.07c-2.21,3.23-5.39,5.84-6.31,10.06,2.35-.76,10.54-8.25,6.31-10.06Zm-24.3-3.96c-3.5-.32-6.9-2.44-10.87-1.56.74,1.97,9.6,4.85,11.35,3.89.31-.6.48-1.28-.48-2.33Zm-152.85,65.23c2.5,2.91,5,5.83,7.56,8.82,1.64-2.45,1.37-2.9-5.7-10.33-.9-.16-1.45.25-1.86,1.51Zm226.54,24.22c-3.59-1.35-7.15-2.69-10.5-3.96-.93.81-1.02,1.41-.49,2.36,3.24,1.28,6.7,2.64,10.05,3.96.71-.69,1.01-1.26.94-2.37Zm-42.33-46.68c1.3,3.42,2.58,6.8,3.79,9.99,1,.53,1.71.49,2.52-.07-.5-2.57-2.75-11.98-6.31-9.92Zm27.79,16.41c-3.43-2.37-7.14,5.41-8.93,7.75.38.97.87,1.32,1.95,1.21,2.51-2.65,4.75-5.73,6.98-8.96Zm-153.8-56.62c-3.44,2.35,3.28,8.38,5.51,9.99,1.03.02,1.55-.39,1.67-1.51-2.32-2.74-4.72-5.57-7.18-8.48Zm27.71,20.71c2.49.45,4.02-1.11,5.9-2.7,1.29-1.09,5.91-4.47,2.51-5.63-2.66,2.58-6.3,4.32-8.41,8.33Zm-64.73,34.95c1.7-1.39,9.1-8.97,5.25-10.19-2.35,2.95-4.99,5.59-6.69,8.8.16.82.55,1.19,1.44,1.39Z"/><path class="uuid-a4a5676d-467b-4957-b69e-58c6e88d61b5" d="m414.51,135.77c-1.99-12.67-1.34-26.16,8.21-35.74,8.46-8.49,21.23-11.12,32.83-10.02,7.3.69,13.99,3.36,21.44,2.65,7.05-.67,13.5-3.5,19.47-7.2,11.22-6.95,20.54-17.67,33.42-21.61,12.98-3.97,29.08-1.65,37.05,10.36-4.06,5.81-2.72,12.61-1.21,19.03,1.82,7.74,4.19,15.29,6.53,22.88,3.84,12.45,10.98,30.79,4.29,43.37-6.48,12.18-23.35,13.05-35.29,13-7.24-.03-14.31.27-21.26,2.5-6.48,2.07-11.86,6.05-18.01,8.82-14.44,6.51-29.49,3.74-41.88-5.71-2.02-2.23-2.16-5-2.34-7.84,4.98-4.54,7.62-10.37,9.44-16.92,5.44.56,9.95-17.48,1.65-16.04-2.76.48-5.09,1.14-7.93.77-2.93-.38-5.56-1.74-8.44-2.33-5.06-1.04-10.07,1.87-14.94,1.03-.53-.94-.35-1.73.31-2.7,3.98-1.98,8.38-1.56,13.42-.97-3.98-4.56-6.44-10.05-9.31-15.31-2.35-4.31-5.25-10.02-11-7.86-5.29,1.98-8.95,7.43-11.27,12.29-.95,2-3.5,13.71-5.2,13.56Z"/><path class="uuid-fa975399-730d-4a76-bbb5-1e6fbf8e3e57" d="m414.51,135.77c1.7.15,4.25-11.56,5.2-13.56,2.32-4.86,5.98-10.31,11.27-12.29,5.75-2.16,8.64,3.55,11,7.86,2.87,5.26,5.33,10.76,9.31,15.31-5.04-.58-9.44-1.01-13.42.97-.66.97-.84,1.76-.31,2.7,4.86.84,9.87-2.07,14.94-1.03,2.88.59,5.5,1.95,8.44,2.33,2.84.37,5.17-.29,7.93-.77,8.3-1.44,3.79,16.6-1.65,16.04-1.82,6.55-4.46,12.39-9.44,16.92.18,2.84.32,5.61,2.34,7.84-1.03,1.3.1,2.32.5,3.39,1.23,3.23,3.85,5.42,6.08,7.89-1.66,13.08-12.75,20.23-25.21,20.32-6.66.05-13.33-1.85-17.47-7.39-4.03-5.39-5.21-12.61-3.58-19.06,3.16-4.43,4.62-8.89,1.31-14.06-4.44-6.93-5.41-14.91-6.27-22.87-.38-3.51-.65-7.03-.97-10.55Zm28.27,27.89c.47-.51,1.6-.29,1.53-1.66-2.61.42-5.11.06-7.55-1.52-1.32,1.86-2.99.76-4.66.69-.8,1.02-2.06,1.34-3.43,1.79.6.54.95.86,1.31,1.18,1.08,3.99,11.86,3.77,12.81-.47Zm-12.77-26.59c.37,5.52,1.54,11.09-1.46,15.76.54,3.72,5.27,6.23,8.32,3.29-2.73-.82-5.66.42-6.75-2.63,2.08-8.37,2.18-12.97-.11-16.43Zm-1.37.41c-.3-2.82-.31-2.83-5.19-3.49-3.7-.5-5.23.06-6.06,2.21,3.87-1.17,7.2,2.36,11.25,1.28Zm20.91,38.49c-5.44,1.79-11.05,2.41-16.79,2.17,3.28,2.3,13.67.97,16.79-2.17Zm.69-34.03c-2.39-.45-4.23,1.61-6.49,1.3-1.86-.25-2.95-2.47-5-2.01,1.58,4.91,9.08,4.9,11.49.7Zm-21.68-.26c-2.02.16-4.05,1.67-6.09,1.34-1.78-.29-2.81-2.01-4.57-2.35.88,4.9,8.88,5.7,10.66,1.01Z"/><path class="uuid-e0b39e18-23d6-4fb1-b2d8-7f12690b282c" d="m257.23,349.75c-12.75-.19-25.76-2.26-38.42-3.69-12.82-1.46-25.67-2.63-38.49-4.07-13.04-1.46-26.1-2.71-39.15-4.07-6.3-.66-12.61-1.28-18.92-1.88-2.49-.24-16.05-.04-16.44-2.49,23.81-1.99,47.6-4.25,71.43-5.91,11.41-.79,22.77-2.12,34.16-3.1,11.07-.96,22.59-2.55,33.69-2.45-1.26,3.78-6.97,5.14-5.71,9.93,1.19,2.07,3.1,2.8,5.47,2.85,0,1.54.53,3.05,1.71,4.07,1.21,1.04,3.01.48,4,1.44q.53,2.97,2.38,4.59c1.11.52,2.37-.15,3.37.59.31,1.43.62,2.82.92,4.21Z"/><path class="uuid-d6d5a9fa-f153-49ee-8b9e-6b701b4b3dc5" d="m257.23,349.75c-.3-1.39-.61-2.78-.92-4.21-1-.74-2.26-.07-3.37-.59q-1.85-1.61-2.38-4.59c-1-.96-2.79-.4-4-1.44-1.18-1.02-1.71-2.53-1.71-4.07-2.37-.05-4.28-.77-5.47-2.85-1.26-4.78,4.45-6.15,5.71-9.93.23-.13.47-.27,1.06-.61-3.69-1.53-17.09-5.96-14.81-11.87,3.11-3.09,11.1,1.3,14.66,1.78,5.59.75,11.02-1.21,16.26-2.88,5.48,7.38,10.97,14.76,16.45,22.14-1.98,4.07-5.39,7.13-7.77,10.91-2.22,3.51-5.93,5.69-8.08,9.26-2.03.5-3.86-.11-5.62-1.06Z"/><path class="uuid-dc6750d5-db62-441b-a103-b0e5b865b9d6" d="m818.99,404.23c.28.24.55.49.83.73,1.13,2.07-.05,4.14.02,6.21-8.61,20.27-20.85,38.31-34.17,55.69-1.16,1.52-2.45,2.99-4.36,3.67-6.13-1.12-9.95-3.97-6.38-10.17,4.29-7.46,9.13-14.65,13.69-21.95,4.71-7.54,9.42-15.08,14.13-22.63,3.06-4.9,8.89-15.17,16.24-11.56Z"/><path class="uuid-107ea665-d1e5-4840-bb6f-ed1559173153" d="m468.56,256.88c.1.91.21,1.82.31,2.74-.31.36-.13.65.13.93,2.98,21.94,6.8,43.75,10.34,65.4.78.76,1.43.48,2.07.32,6.83.57,14.12-.67,20.97-1.13,6.98-.47,13.97-.91,20.96-1.36,6.28.08,12.55-.18,18.82-.46,8.22-.36,16.39.43,24.55,1.29,27.03,6.94,52.19,18.35,76.85,31.3,25,13.12,49.48,27.51,73.25,42.75.38.29.74.6,1.14.85,9.79,6.36,19.58,12.73,29.39,19.05,1.17.76,1.97,1.54,1.4,3.03-4.13,7.8-7.97,15.75-11.54,23.83-.61.45-.64,1.46-1.97,1.68-31.51-12.81-62.78-26.25-94.13-39.45-15.27-6.42-30.42-13.46-46.01-19.06-15.39-5.52-30.22-7.18-45.89-1.68-17.44,6.13-35.27,10.17-53.54,12.92-2.25-2.11-3.57-5.04-6.08-6.93-.47-2.27-.55-4.82-3.75-5.08-.41-1.87-.74-3.77-1.25-5.61-.86-3.12-.67-6.49-2.27-9.43-.61-2.78-.62-5.7-1.82-8.63-7.64,1.22-15.14,2.42-22.56,3.6-.27,3.19.71,5.68.75,8.27-.33,1.06.05,2.08.19,3.11.6,4.35,1.22,8.69,1.83,13.04-2.38,2.75-2.25,3.84.74,6.31-.11,1.92-.22,3.84-.32,5.75-18.07,1.32-36.56,1.27-54.43-1.95-14.9-2.68-33.53-6.32-42.33-19.99-.35-1.41-.88-2.72-2.02-3.7-.71-2.04-1.41-4.08-2.12-6.12-.21-1.6-.22-3.25-1.12-4.69-.06-.55-.12-1.1-.18-1.64.21-1.24.49-2.48-.47-3.56-.11-.79-.23-1.57-.34-2.36.14-3.29.27-6.58.41-9.88.7-.46.65-1.1.4-1.77.05-1.15.11-2.3.16-3.45.47-.28.62-.68.41-1.2.09-1.33.17-2.67.26-4,.45-.29.57-.69.42-1.19.21-1.41.42-2.82.63-4.23,1.55-6.55,3.38-13.01,5.87-19.44,3.14.32,6.08.62,9.03.92,19.24-27.39,37.09-55.64,60.76-79.44.94-.54,1.83-1.14,2.49-2.02,4.54-3.27,9.98-5,15.59-4.6,6.13.44,9.02,3.47,11.56,8.8.45,2.23.89,4.46,1.34,6.69-.3,1.27,0,2.51.17,3.76-.3,1.08-.35,2.12.35,3.09.1.91.2,1.82.3,2.73-.31.69-.34,1.34.3,1.89Zm-36.96,59.08c-.46.13-.92.26-1.38.39,5.66,16.95,11.32,33.91,16.98,50.86.44-.15.88-.29,1.32-.44-5.64-16.94-11.28-33.88-16.92-50.81Z"/><path class="uuid-e0b39e18-23d6-4fb1-b2d8-7f12690b282c" d="m359.09,345.13c-.05,1.15-.11,2.3-.16,3.45-.91.41-1.12.99-.4,1.77-.14,3.29-.27,6.58-.41,9.88-8.14.27-16.41-1.61-24.51-2.33-7.77-.69-15.52-1.57-23.27-2.39-15.78-1.68-31.64-3.77-47.48-4.69,2.14-3.56,5.86-5.75,8.08-9.26,2.39-3.78,5.79-6.84,7.77-10.91,3-1.42,4.89-4.17,7.4-6.18,2.59-2.08,4.81-4.62,7.53-6.57,11.19.17,22.61-1.69,33.76-2.57,11.16-.88,22.32-1.75,33.48-2.65-1.44,6.24-3.82,12.27-4.44,18.65.93,1.91,2.73,2.45,4.39,3.18-.21,1.41-.42,2.82-.63,4.23-.68.21-1.2.47-.42,1.19-.09,1.33-.17,2.67-.26,4-.62.23-1.09.52-.41,1.2Z"/><path class="uuid-bc8a3f40-e2b8-467c-9380-2de5d27db767" d="m509.53,418.75c2.21,2.44,4.42,4.88,6.63,7.32.51.56,1.03,1.12.79,1.99-5.17,2.95-10.8,4.71-16.58,5.71-9.97,1.71-18.65-2.42-27.24-6.67,1.92-2.08.58-5.29.94-7.8.44-3.09,3.02-4.79,4.56-7.4,1.38-2.34,1.87-5.15,4.5-6.44,2.08-1.02,5.2-.16,6.71-2.15.52.13,1.05.25,1.57.38-.09,3.91,5.7,5.31,8.26,7.19,2.47,1.82,5.92,6.38,9.1,6.77l.02.03c.06.49.2.92.74,1.08Z"/><path class="uuid-f41a1ae1-6d76-4504-a86b-ca575106e47d" d="m818.99,404.23c-7.35-3.62-13.18,6.65-16.24,11.56-4.71,7.54-9.42,15.08-14.13,22.63-4.56,7.3-9.4,14.49-13.69,21.95-3.57,6.19.25,9.04,6.38,10.17-1.97,2.43-7.27,3.27-9.74,1.26-2.12-1.73-4.34-3.5-5.41-6.2-.09-4.44.88-8.54,3.36-12.35,8.41-12.94,16.65-25.99,25.06-38.94,4-6.16,8.18-12.21,15.11-15.56.55-.26.56-.71.31-1.2,5.89.86,8.23,2.59,9,6.7Z"/><path class="uuid-f41a1ae1-6d76-4504-a86b-ca575106e47d" d="m473.13,427.09c8.59,4.26,17.28,8.38,27.24,6.67,5.79-.99,11.42-2.75,16.58-5.71,2.75,3.46,1.37,14.34-2.18,15.78-3.26,1.33-6.55,2.6-10.04,3.41-9.45,2.2-17.56-1.03-25.45-5.58-3.82-2.2-7.7-4.31-11.25-6.97-.85-.64-1.73-1.21-2.51-2.25-.38-3.12-1.52-6.32-1.32-9.72,2.98,1.45,5.95,2.91,8.93,4.36Z"/><path class="uuid-dc6750d5-db62-441b-a103-b0e5b865b9d6" d="m809.99,397.53c.25.49.24.94-.31,1.2-6.93,3.35-11.11,9.4-15.11,15.56-8.41,12.94-16.65,26-25.06,38.94-2.48,3.81-3.45,7.9-3.36,12.35-3.03-1.77-4.7-4.82-6.89-7.37-3.58-4.03-.25-12.4,1.93-16.4,2.94-5.4,6.91-9.57,11.43-13.65.57-.63,1.1-1.3,1.72-1.89,7.03-6.64,14.07-13.27,21.1-19.9,4.4-3.69,8.82-7.34,14.55-8.84Zm-34.4,33.83c.99,5.66-2.45,7.91-7.33,9.28-4.06,1.13-10.26,5.47-7.52,10.7.72.09,1.39.21,1.85-.49.38-2.11.63-4.7,2.34-6.21,1.74-1.54,4.6-1.77,6.72-2.45,4.73-1.52,7.86-5.74,6.42-11-.71-.35-1.35-.25-2.47.17Z"/><path class="uuid-dc6750d5-db62-441b-a103-b0e5b865b9d6" d="m473.13,427.09c-2.98-1.45-5.95-2.91-8.93-4.36-2.33-3.63-2.37-7.81-2.8-11.88-.23-2.19-.19-4.4-.27-6.6.11-1.92.22-3.84.32-5.75,1.69-.06,3.42-.33,5.06-.34,2.34,0,4.71-1.51,7.04-.04.04.76.06,1.54.88,1.92,1.2-.1,2.28-1.15,3.6-.35-.66,1.45-2.6.64-3,1.42-.59,2.02,1.08,1.95,1.58,2.79-.52.87-2.12,1.74.1,2.6,4.05-2.16,8.08-4.87,13.13-3.17-1.51,1.99-4.63,1.13-6.71,2.15-2.62,1.29-3.12,4.1-4.5,6.44-1.54,2.61-4.12,4.31-4.56,7.4-.36,2.52.98,5.72-.94,7.8Z"/><path class="uuid-fe8bff14-d114-4158-bbbd-70d359cc37f1" d="m737.2,445.43c3.57-8.08,7.41-16.02,11.54-23.83,2.7,1.98,5.61,3.57,8.73,4.78-.38.88-.72,1.78-1.15,2.64-3.37,6.79-5.97,13.95-9.8,20.51-3.11-1.37-6.21-2.74-9.32-4.11Z"/><path class="uuid-f6c3677a-3ee2-4726-968e-1b5212fbf63c" d="m746.52,449.54c3.84-6.57,6.43-13.73,9.8-20.51.43-.86.77-1.76,1.15-2.64,2.23-.87,6.26.91,8.28,3.65-5.02,4.19-8.12,9.65-10.34,15.68-1.15,3.12-1.68,6.31-.66,9.59-2.6-1.06-5.2-2.12-7.41-3.03-1.01-1.02-.79-1.91-.83-2.74Z"/><path class="uuid-dc6750d5-db62-441b-a103-b0e5b865b9d6" d="m508.77,417.64c-3.18-.39-6.63-4.95-9.1-6.77-2.56-1.88-8.34-3.29-8.26-7.19.94-.48.94-1.09.3-1.73-1.65-.61-3.52.09-5.12-.94,1.13-1.26,2.57.08,3.62-.79-.06-.94-.54-1.61-1.4-2.34h-3.27c.48-1.42,1.87-.67,2.49-1.55-.07-.33-.15-.69-.23-1.06.59-.78,1.19-1.57,1.78-2.35,2.51,1.89,3.82,4.82,6.08,6.93,3.75,4.97,7.52,9.93,11.25,14.92.68.91,1.24,1.92,1.85,2.88Z"/><path class="uuid-bc8a3f40-e2b8-467c-9380-2de5d27db767" d="m754.75,455.3c-1.02-3.28-.49-6.46.66-9.59,2.22-6.03,5.32-11.49,10.34-15.68,2.07-1.44,4.56-1.32,6.87-1.87-4.52,4.08-8.48,8.25-11.43,13.65-2.18,3.99-5.51,12.36-1.93,16.4-2.24.17-3.34-1.42-4.52-2.9Z"/><path class="uuid-d6d5a9fa-f153-49ee-8b9e-6b701b4b3dc5" d="m359.11,367.79c.9,1.44.91,3.09,1.12,4.69-1.29-1.34-1.76-2.88-1.12-4.69Z"/><path class="uuid-d6d5a9fa-f153-49ee-8b9e-6b701b4b3dc5" d="m358.45,362.58c.96,1.08.69,2.32.47,3.56-1.22-1.05-1.01-2.28-.47-3.56Z"/><path class="uuid-d6d5a9fa-f153-49ee-8b9e-6b701b4b3dc5" d="m362.34,378.6c1.14.98,1.67,2.29,2.02,3.7-1.52-.77-1.96-2.13-2.02-3.7Z"/><path class="uuid-dc6750d5-db62-441b-a103-b0e5b865b9d6" d="m509.53,418.75c-.54-.15-.68-.59-.74-1.08.43.24.68.59.74,1.08Z"/><path class="uuid-8cc15a07-d52d-4946-87c5-07de1ef8836a" d="m772.63,428.16c-2.31.56-4.8.44-6.87,1.87-2.03-2.75-6.06-4.52-8.28-3.65-3.12-1.21-6.03-2.8-8.73-4.78.57-1.49-.23-2.27-1.4-3.03-9.81-6.33-19.6-12.69-29.39-19.05-.4-.26-.76-.57-1.14-.85,1.58-1.43,3.55-.88,5.23-.65,11.01,1.54,22.08,2.41,33.14,3.46,10.96,1.04,21.87,2.52,32.84,3.55,2.42.23,5.23-.54,7.42,1.34-7.04,6.63-14.07,13.26-21.1,19.9-.62.58-1.15,1.26-1.72,1.89Z"/><path class="uuid-e0b39e18-23d6-4fb1-b2d8-7f12690b282c" d="m523.34,323.78c-6.99.44-13.97.88-20.96,1.36-6.85.47-14.14,1.7-20.97,1.13-.32-6.95-.65-13.9-.95-20.86-.04-1.04.06-2.09.09-3.14,9.55.11,19-1.36,28.52-1.81,4.75,7.77,9.51,15.55,14.26,23.32Z"/><path class="uuid-55a77b44-1f1a-48b1-b799-1fb43bc5df15" d="m509.08,300.46c-9.52.45-18.97,1.93-28.52,1.81-.54-13.95-1.53-27.93,1.32-41.75,2.34.1,3.15,1.31,3.9,2.34,8.71,11.94,16.02,24.76,23.3,37.59Z"/><path class="uuid-107ea665-d1e5-4840-bb6f-ed1559173153" d="m396.42,260.06c.45-.93.88-1.42,1.94-1.72,2.36,2.77,4.81,5.67,7.13,8.4.03,1.22-.51,1.66-1.76,1.94-2.33-2.75-4.79-5.65-7.31-8.62Z"/><path class="uuid-107ea665-d1e5-4840-bb6f-ed1559173153" d="m291.47,312.93c-.31-3.96.69-7.66.79-11.17,1.2-.72,1.83-.46,2.55.36-.16,2.18.79,12.44-3.34,10.81Z"/><path class="uuid-107ea665-d1e5-4840-bb6f-ed1559173153" d="m438.97,234.52c-.66.88-1.56,1.48-2.49,2.02-1.03-2.43-8.91-8.52-5.26-10.72,2.81,2.67,4.79,6.15,7.75,8.7Z"/><path class="uuid-107ea665-d1e5-4840-bb6f-ed1559173153" d="m502.43,237.71c1.85-2.12,4.56-1.9,12.11.74-.11.65-.24,1.34-.4,2.29-4.03-.98-8.02-1.1-11.71-3.03Z"/><path class="uuid-107ea665-d1e5-4840-bb6f-ed1559173153" d="m281.67,303.34c-2.55,3.28-4.93,6.34-7.4,9.52-2.44-1.89-.78-3.11.11-4.27q4.94-6.47,7.29-5.25Z"/><path class="uuid-107ea665-d1e5-4840-bb6f-ed1559173153" d="m350.78,239.42c-.38-1.15-.27-1.84.66-2.42,3.47.54,6.97,1.41,10.37,2.39.48.92.34,1.6-.58,2.36-3.34-.75-6.87-1.54-10.44-2.34Z"/><path class="uuid-107ea665-d1e5-4840-bb6f-ed1559173153" d="m290.73,286.64c3.46.18,6.89,1.32,10.24,1.94.87.67.9,1.38.46,2.53-3.68-.19-7.26-1.29-10.75-2.32-.61-.69-.62-1.29.04-2.15Z"/><path class="uuid-107ea665-d1e5-4840-bb6f-ed1559173153" d="m490.55,216.56c4.23,1.81-3.96,9.3-6.31,10.06.92-4.23,4.1-6.83,6.31-10.06Z"/><path class="uuid-107ea665-d1e5-4840-bb6f-ed1559173153" d="m466.25,212.61c.96,1.04.79,1.73.48,2.33-1.75.96-10.61-1.92-11.35-3.89,3.97-.88,7.37,1.25,10.87,1.56Z"/><path class="uuid-107ea665-d1e5-4840-bb6f-ed1559173153" d="m313.4,277.83c.42-1.26.96-1.68,1.86-1.51,7.07,7.43,7.34,7.88,5.7,10.33-2.57-2.99-5.07-5.91-7.56-8.82Z"/><path class="uuid-107ea665-d1e5-4840-bb6f-ed1559173153" d="m539.94,302.06c.07,1.11-.24,1.68-.94,2.37-3.36-1.32-6.81-2.69-10.05-3.96-.52-.95-.44-1.54.49-2.36,3.35,1.26,6.91,2.6,10.5,3.96Z"/><path class="uuid-107ea665-d1e5-4840-bb6f-ed1559173153" d="m497.6,255.38c3.56-2.06,5.8,7.35,6.31,9.92-.8.56-1.52.6-2.52.07-1.21-3.19-2.49-6.57-3.79-9.99Z"/><path class="uuid-107ea665-d1e5-4840-bb6f-ed1559173153" d="m525.4,271.78c-2.23,3.24-4.48,6.31-6.98,8.96-1.07.11-1.57-.25-1.95-1.21,1.78-2.33,5.49-10.12,8.93-7.75Z"/><path class="uuid-107ea665-d1e5-4840-bb6f-ed1559173153" d="m371.6,215.16c2.46,2.91,4.86,5.74,7.18,8.48-.12,1.12-.64,1.53-1.67,1.51-2.23-1.61-8.95-7.64-5.51-9.99Z"/><path class="uuid-107ea665-d1e5-4840-bb6f-ed1559173153" d="m399.31,235.87c2.11-4.01,5.75-5.74,8.41-8.33,3.41,1.16-1.22,4.54-2.51,5.63-1.88,1.59-3.42,3.15-5.9,2.7Z"/><path class="uuid-107ea665-d1e5-4840-bb6f-ed1559173153" d="m334.58,270.82c-.89-.2-1.28-.57-1.44-1.39,1.69-3.21,4.34-5.85,6.69-8.8,3.85,1.22-3.54,8.8-5.25,10.19Z"/><path class="uuid-107ea665-d1e5-4840-bb6f-ed1559173153" d="m467.45,245.42c-.45-2.23-.89-4.46-1.34-6.69,1.02-.18,2.05-.4,3.2.68-.49,1.92-.55,4.12-1.86,6.01Z"/><path class="uuid-98f0ddeb-eeb1-4a41-8ea4-2e67d9d13e76" d="m467.96,252.27c-.7-.96-.65-2.01-.35-3.09.89.94.45,2.03.35,3.09Z"/><path class="uuid-98f0ddeb-eeb1-4a41-8ea4-2e67d9d13e76" d="m468.56,256.88c-.64-.54-.61-1.19-.3-1.89.68.54.43,1.22.3,1.89Z"/><path class="uuid-98f0ddeb-eeb1-4a41-8ea4-2e67d9d13e76" d="m469,260.55c-.26-.28-.45-.57-.13-.93.44.25.39.58.13.93Z"/><path class="uuid-dc6750d5-db62-441b-a103-b0e5b865b9d6" d="m430.01,137.06c2.29,3.46,2.19,8.05.11,16.43,1.09,3.05,4.02,1.81,6.75,2.63-3.05,2.94-7.78.43-8.32-3.29,3-4.67,1.83-10.24,1.46-15.76Z"/><path class="uuid-3171345a-22f8-47eb-b9e8-d38c0de35010" d="m429.96,164.13c-.35-.32-.71-.64-1.31-1.18,1.37-.45,2.63-.77,3.43-1.79,1.67.06,3.35,1.17,4.66-.69,2.44,1.59,4.94,1.94,7.55,1.52.07,1.37-1.06,1.16-1.53,1.66-4.25.85-8.54.37-12.81.47Z"/><path class="uuid-a4a5676d-467b-4957-b69e-58c6e88d61b5" d="m428.64,137.47c-4.05,1.08-7.38-2.45-11.25-1.28.83-2.16,2.36-2.72,6.06-2.21,4.88.66,4.89.67,5.19,3.49Z"/><path class="uuid-dc6750d5-db62-441b-a103-b0e5b865b9d6" d="m449.55,175.95c-3.12,3.14-13.5,4.47-16.79,2.17,5.74.25,11.35-.38,16.79-2.17Z"/><path class="uuid-3171345a-22f8-47eb-b9e8-d38c0de35010" d="m429.96,164.13c4.27-.1,8.57.38,12.81-.47-.95,4.24-11.73,4.46-12.81.47Z"/><path class="uuid-dc6750d5-db62-441b-a103-b0e5b865b9d6" d="m450.23,141.93c-2.42,4.19-9.91,4.2-11.49-.7,2.05-.47,3.14,1.76,5,2.01,2.26.3,4.1-1.76,6.49-1.3Z"/><path class="uuid-dc6750d5-db62-441b-a103-b0e5b865b9d6" d="m428.55,141.67c-1.78,4.69-9.78,3.88-10.66-1.01,1.76.34,2.79,2.06,4.57,2.35,2.04.34,4.07-1.18,6.09-1.34Z"/><path class="uuid-f6c3677a-3ee2-4726-968e-1b5212fbf63c" d="m482.31,372.79c1.6,2.94,1.41,6.31,2.27,9.43.51,1.84.84,3.74,1.25,5.61.11,1.26.29,2.53-1.41,3.59-7.21,1.16-14.79,2.74-22.46,3.01-.53-.96-.9-1.61-1.26-2.26-.61-4.35-1.23-8.69-1.83-13.04-.14-1.03-.53-2.05-.19-3.11,7.61-3.01,15.51-3.92,23.63-3.24Z"/><path class="uuid-d6d5a9fa-f153-49ee-8b9e-6b701b4b3dc5" d="m482.31,372.79c-8.12-.68-16.02.23-23.63,3.24-.04-2.59-1.02-5.08-.75-8.27,7.43-1.19,14.93-2.38,22.56-3.6,1.2,2.93,1.21,5.85,1.82,8.63Z"/><path class="uuid-bc8a3f40-e2b8-467c-9380-2de5d27db767" d="m460.7,392.18c.36.65.73,1.3,1.26,2.26,7.67-.28,15.25-1.86,22.46-3.01,1.7-1.05,1.52-2.33,1.41-3.59,3.19.26,3.28,2.81,3.75,5.08-.59.78-1.19,1.57-1.78,2.35-.64-.43-1.37-.98-2.09-.76-4.04,1.27-8.48,1.17-12.17,3.6-2.33-1.46-4.7.03-7.04.04-1.63,0-3.36.27-5.06.34-2.99-2.47-3.12-3.56-.74-6.31Z"/><path class="uuid-dc6750d5-db62-441b-a103-b0e5b865b9d6" d="m431.6,315.96c5.64,16.94,11.28,33.88,16.92,50.81-.44.15-.88.29-1.32.44-5.66-16.95-11.32-33.91-16.98-50.86.46-.13.92-.26,1.38-.39Z"/><path class="uuid-d6d5a9fa-f153-49ee-8b9e-6b701b4b3dc5" d="m358.52,350.35c-.71-.78-.51-1.36.4-1.77.25.68.29,1.31-.4,1.77Z"/><path class="uuid-d6d5a9fa-f153-49ee-8b9e-6b701b4b3dc5" d="m359.76,339.93c-.78-.72-.26-.99.42-1.19.15.5.03.91-.42,1.19Z"/><path class="uuid-d6d5a9fa-f153-49ee-8b9e-6b701b4b3dc5" d="m359.09,345.13c-.68-.68-.21-.96.41-1.2.21.52.06.91-.41,1.2Z"/><path class="uuid-55a77b44-1f1a-48b1-b799-1fb43bc5df15" d="m473.54,398.11c3.69-2.43,8.14-2.33,12.17-3.6.72-.23,1.45.33,2.09.76.08.36.16.73.23,1.06-.62.89-2.01.14-2.49,1.55h3.27c.86.73,1.33,1.4,1.4,2.34-1.06.88-2.49-.47-3.62.79,1.6,1.03,3.47.33,5.12.94.65.65.65,1.25-.3,1.73-.52-.13-1.05-.25-1.57-.38-5.06-1.7-9.08,1.01-13.13,3.17-2.22-.86-.62-1.73-.1-2.6-.51-.84-2.17-.77-1.58-2.79.4-.78,2.34.03,3-1.42-1.32-.8-2.39.26-3.6.35-.82-.38-.84-1.15-.88-1.92Zm7.1,4.19c-.95-.36-1.6-.32-2.04.64.79.27,1.38.27,2.04-.64Zm-3.82,1.06c.68,1.05.92.41,1.14-.31-.55-.53-.81,0-1.14.31Z"/><path class="uuid-55a77b44-1f1a-48b1-b799-1fb43bc5df15" d="m775.6,431.37c1.12-.43,1.76-.52,2.47-.17,1.44,5.25-1.69,9.47-6.42,11-2.12.68-4.99.91-6.72,2.45-1.71,1.51-1.96,4.09-2.34,6.21-.46.7-1.13.58-1.85.49-2.74-5.22,3.46-9.56,7.52-10.7,4.88-1.36,8.33-3.62,7.33-9.28Z"/><path class="uuid-dc6750d5-db62-441b-a103-b0e5b865b9d6" d="m480.64,402.3c-.66.91-1.25.91-2.04.64.43-.96,1.09-1,2.04-.64Z"/><path class="uuid-dc6750d5-db62-441b-a103-b0e5b865b9d6" d="m476.81,403.35c.33-.3.59-.83,1.14-.31-.22.72-.46,1.36-1.14.31Z"/></g></svg>