<?xml version="1.0" encoding="UTF-8"?><svg id="uuid-4dcd7a77-d0cc-492f-bfb6-6f15b417c134" xmlns="http://www.w3.org/2000/svg" viewBox="0 0 1000 700"><defs><style>.uuid-bdad5355-328d-4215-8431-856ed4d0c346{fill:#f7c71d;}.uuid-bdad5355-328d-4215-8431-856ed4d0c346,.uuid-1e3cb936-f621-4af4-acaa-a0a4f9399405,.uuid-feac796c-8c85-478e-86c1-aa49d93a6464,.uuid-8a7efa1b-bac3-42c6-a164-10a2cd752bae,.uuid-78f5c8e3-df9d-4889-b540-e156ae4338ce,.uuid-2cfddb39-58fd-47c3-b7dd-7122894faee8,.uuid-6cbf15aa-eb54-404d-bb0f-ed3e8bfc227e,.uuid-6f44d986-e919-4742-8b45-e19c5f04d768,.uuid-b526cacb-ca28-40c8-8ff4-2fcb7cb92b64,.uuid-a0d7e338-6ba0-4435-a5a9-0fc8d9e199cb,.uuid-5a2fdcdb-ce9f-4eb7-b7b1-38373bbfe2c2,.uuid-88be557b-dd7f-4547-b271-df6fce9eaf28,.uuid-fbc43b5c-cffc-4c77-9ed5-c2c863c5874f,.uuid-75395c86-d69d-43ea-aaca-b809d4ded215,.uuid-222618c4-905f-449a-ab38-def2bfdc8d33{stroke-width:0px;}.uuid-1e3cb936-f621-4af4-acaa-a0a4f9399405{fill:#fb7851;}.uuid-feac796c-8c85-478e-86c1-aa49d93a6464{fill:#77bdb6;}.uuid-8a7efa1b-bac3-42c6-a164-10a2cd752bae{fill:#28c7af;}.uuid-78f5c8e3-df9d-4889-b540-e156ae4338ce{fill:#57abf4;}.uuid-2cfddb39-58fd-47c3-b7dd-7122894faee8{fill:#544541;}.uuid-6cbf15aa-eb54-404d-bb0f-ed3e8bfc227e{fill:#071025;}.uuid-6f44d986-e919-4742-8b45-e19c5f04d768{fill:#214eb1;}.uuid-b526cacb-ca28-40c8-8ff4-2fcb7cb92b64{fill:#131313;}.uuid-a0d7e338-6ba0-4435-a5a9-0fc8d9e199cb{fill:#cafcf4;}.uuid-5a2fdcdb-ce9f-4eb7-b7b1-38373bbfe2c2{fill:#deb2c8;}.uuid-88be557b-dd7f-4547-b271-df6fce9eaf28{fill:#dff0ed;}.uuid-fbc43b5c-cffc-4c77-9ed5-c2c863c5874f{fill:#eec4bd;}.uuid-75395c86-d69d-43ea-aaca-b809d4ded215{fill:#f1c7bf;}.uuid-222618c4-905f-449a-ab38-def2bfdc8d33{fill:#00767f;}</style></defs><g id="uuid-a44f6485-ca05-4bfa-9d0a-da5b94391a4e"><path class="uuid-222618c4-905f-449a-ab38-def2bfdc8d33" d="m157.55,642.32c0-59.9.02-119.79.02-179.69,0-46.5,0-93.01.04-139.51,0-1.13-.83-2.68.95-3.38.36.08.75.09,1.07.25,9.03,4.4,18.05,8.84,27.09,13.21,8.88,4.3,17.79,8.53,26.69,12.79,7.25,4.48,15.57,7.56,23.23,11.3,7.56,3.69,15.1,7.42,22.68,11.09,15.51,7.5,31.07,14.93,46.69,22.21,1.76,1.54,4.08,2.03,6.07,3.18,2.02,1.17,4.31,2.15,6.83,1.97-.06,2.83,10.68,6.45,13.12,7.65,4.76,2.33,9.56,4.57,14.37,6.8,9.46,4.37,18.66,9.32,28.27,13.37,2.26,1.37,4.57,2.6,7.03,3.59,1.92.77,3.5,2.45,5.83,2.03.04.64.42.89.99,1.15,2.42,1.12,4.81,2.33,7.2,3.52,6.51,3.23,12.94,6.65,19.56,9.65,7.97,3.61,15.74,7.62,23.64,11.37,1.94.92,3.86,1.8,6.08,1.65,0,.55-.12,1.25.44,1.52,2.91,1.38,5.78,3.59,8.8,3.83,7.67.62,15.54,1.24,22.52-3.38.79-.52,1.27-1.01,1.14-1.97,2.4.15,4.57-.72,6.65-1.7,9.16-4.32,18.27-8.76,27.43-13.09,7.42-3.5,14.89-6.89,22.32-10.36.96-.45,2.21-.71,2.2-2.18,1.35-.11,2.71.08,4.01-.6,3.29-1.72,6.64-3.34,9.96-5.01,9.9-4.45,19.76-8.98,29.57-13.62,5.06-2.4,10.12-4.78,15.19-7.16,2.24-1.05,12.49-4.23,12.12-7.04,2.28.21,4.49-.43,6.25-1.64,1.83-1.26,4.49-1.18,5.61-3.5,9.79-2.95,18.57-8.17,27.89-12.19,2.76-1.19,5.11-3.45,8.37-3.41,1.98,17.43,3.44,35.14,8.87,51.93,2.1,6.5,6.06,11.77,9.64,17.5,4.35,6.96,8.55,14.01,12.83,21,4.17,6.82,8.36,13.63,12.55,20.43,3.87,6.26,9.57,12.4,8.71,20.1-3.55,31.83-7.2,63.65-10.61,95.5,2,1.52,4.35,2.17,6.52,3.18.16.61.51,1.25.44,1.84-.47,3.68-1.04,7.36-1.58,11.03-1.5,1.22-1.36,3.05-1.42,4.63-.43,10.24-5.95,18.08-11.92,25.74-1.04-.95-2.31-.51-3.47-.51-83.77-.02-167.54-.02-251.32-.02-91.02,0-182.05,0-273.07-.02-1.25,0-2.62.42-3.76-.6-.58-1.42-.18-2.93-.32-4.39Z"/><path class="uuid-a0d7e338-6ba0-4435-a5a9-0fc8d9e199cb" d="m655.47,374.99c-3.26-.04-5.61,2.22-8.37,3.41-9.31,4.02-18.1,9.24-27.89,12.19-23.14-.32-46.28-.24-69.42-.36-79.79-.4-159.59-.15-239.39-.17-1.5,0-2.96.14-4.4.52-15.62-7.27-31.18-14.7-46.69-22.21-7.58-3.66-15.12-7.4-22.68-11.09-7.66-3.74-15.98-6.82-23.23-11.3-.01-20.16-.03-40.31-.04-60.47.76-.98.54-2.12.54-3.22,0-10.77,0-21.54,0-32.32,0-.99,0-1.99,0-3.33h62.4c115.03,0,230.06.01,345.09.01.83,0,1.66-.11,2.5-.18,4.51,14.93,14.94,28.03,28.42,35.89-.33,2.65-.64,5.21-.95,7.78-12.19.02-24.37.05-36.55.05-118.23,0-236.45,0-354.68.02-1.34,0-2.8-.45-4.21.75-.12,1.58-.27,3.29.14,5.32h393.09c.89.85.48,1.84,1.29,2.25-.1,1.29-.21,2.58-.31,3.88-1.05.41-1.13.98-.27,1.7-.16,2.5,1.76,2.2,3.28,2.43.03,5.15.06,10.31.09,15.46-.72.31-.5,1.45-1.41,1.95h-395.72c-.35,2.07-.63,3.78.15,5.4,1.34.71,2.67.41,3.94.41,129.64.02,259.28.01,388.92,0,1.49,0,2.97-.1,4.36.61.27,8.91.53,17.83.8,26.74h-397.78c-.19,2.13-.43,3.76.11,5.33,1.41.5,2.72.28,4.01.28,129.94.01,259.88.01,389.81.01,1.39,0,2.79.03,4.18.05.55,4.05.89,8.11.85,12.2Z"/><path class="uuid-6f44d986-e919-4742-8b45-e19c5f04d768" d="m653.24,322.01c-.03-5.15-.06-10.31-.09-15.46,38.3,3.87,77.13,4.9,114.36-6.67-.16,7.44.47,14.85.79,22.27.96,22.18,2,44.36,2.96,66.55.5,11.51.92,23.02,1.32,34.54.35,10.26-1.28,20.38-2.36,30.53-1.13,10.62-2.55,21.2-3.85,31.8-.12,1.01-.13,2.05-.73,2.94-5.11-7.98-9.34-16.46-14.01-24.68-6.37-11.23-12.36-22.68-18.95-33.78-6.34-10.69-10.54-22.08-12.48-34.29-2.57-16.17-3.36-32.49-3.33-48.85.01-6.04.36-12.07.49-18.11.02-.92.51-2.05-.99-3.04-1.01,2.11-1,4.3-1.04,6.37-.4,21.83-.66,43.67,3.27,65.28,1.77,9.71,4.36,19.16,9.29,27.84,6.55,11.55,13.02,23.15,19.51,34.74,5.53,9.89,11.02,19.8,16.53,29.7.54.97.91,2.17,2.44,1.4,4.82,7.5,9.05,15.34,13.4,23.11,5.22,9.32,10.36,18.68,14.74,28.44,1.47,3.28,2.85,6.6,2.99,10.27-.95,1.23-1.89,2.48-2.86,3.7-5.26,6.6-11.59,12.16-17.58,18.05-3.04,2.05-6.05,5.42-9.58,6.61-3.69,1.25-6.04-3.03-8.25-5.38-.25-1.03-.97-1.72-1.74-2.38.29-1.46-.7-2.44-1.37-3.52-8.43-13.53-16.82-27.09-25.36-40.56-1.53-2.41-2.56-5.29-5.01-7.18-1.58,1.38-.29,2.22.21,3.01,9.43,15.19,18.89,30.37,28.38,45.53.71,1.13,1.13,2.62,2.73,2.96-1.92,10.94-3.84,21.88-5.72,32.58-1.62.72-2.93.73-4.22.89-8.03.99-16.1,1.21-24.18,1.28-6.36-1.09-12.82-1.73-18.96-3.89-2.17-1.01-4.52-1.66-6.52-3.18,3.42-31.85,7.07-63.67,10.61-95.5.86-7.7-4.85-13.84-8.71-20.1-4.2-6.8-8.38-13.61-12.55-20.43-4.28-7-8.48-14.05-12.83-21-3.58-5.73-7.53-11-9.64-17.5-5.43-16.78-6.89-34.5-8.87-51.93.03-4.09-.31-8.15-.85-12.2-.11-1.89-.22-3.78-.34-5.67-.27-8.91-.53-17.83-.8-26.74-.08-2.79-.16-5.59-.24-8.38Z"/><path class="uuid-78f5c8e3-df9d-4889-b540-e156ae4338ce" d="m767.51,299.88c-37.23,11.58-76.06,10.54-114.36,6.67-1.52-.23-3.44.08-3.28-2.43.53-.5.43-1.09.27-1.7.1-1.29.21-2.58.31-3.88.8-2.74.57-5.6.93-8.39.31-2.56.63-5.13.95-7.78-13.48-7.85-23.91-20.96-28.42-35.89-.33-1.82-.66-3.63-.99-5.45-.28-23.99,5.98-46.43,16.26-67.86,3.67-7.66,8.38-14.66,15.12-20.09,2.78-2.24,5.81-3.95,9.13-5.23,6.84-2.63,13.66-5.33,20.26-8.51.79-.38,1.54-.61,2.4-.52.39.99,1.24,1.61,1.97,2.31,12.92,12.38,33.94,13.2,47.96,1.87,11.24,2.81,22.67,6.88,32.21,13.63,9.51,6.73,13.39,18.23,17.42,28.68,4.46,11.56,8.02,23.48,10.42,35.64,2.29,11.61,5.18,25.75-.05,36.97-5.13,11.01-16.22,17.36-26.17,23.31v17.47c-.84.86-1.63.95-2.33,1.17Zm-38.54-68.52c.48-10.1,0-20.2-.02-30.3,0-2.38-1.65-3.69-4.07-3.64-8.99.19-17.98.37-26.97.68-2.81.1-4,1.62-3.71,4.42.46,4.53.2,9.07.22,13.61-2.98,1.11-4.54,3.83-6.32,6.26-1.95,2.66-4.05,4.99-4.6,8.37-1.1,6.73,3.94,13.39,8.45,17.85,2.47,2.45,5.35,5.31,9,3.67,3.58-1.61,6.45-3.3,10.35-4.23,6.01-1.43,11.77-3.49,13.42-10.17,3.43-1.95,5.02-2.5,4.25-6.52Z"/><path class="uuid-feac796c-8c85-478e-86c1-aa49d93a6464" d="m622.92,241.04c.33,1.82.66,3.63.99,5.45-.83.06-1.66.18-2.5.18-115.03,0-230.06,0-345.09-.01,4.62-3.92,10.24-6.73,15.36-9.92,5.9-3.68,11.82-7.34,17.74-10.98,11.9-7.32,23.79-14.66,35.68-21.99,23.65-14.59,47.27-29.23,70.87-43.9,6.59-4.1,13.19-8.19,19.8-12.26,6.19-3.82,12.39-8.5,19-11.53,43.6,27.32,87.26,54.55,130.81,81.95,6.29,3.96,12.59,7.92,18.88,11.88,5.94,3.74,11.95,8.5,18.44,11.15Z"/><path class="uuid-88be557b-dd7f-4547-b271-df6fce9eaf28" d="m157.55,642.32c.15,1.46-.26,2.97.32,4.39,1.15,1.02,2.51.6,3.76.6,91.02.02,182.05.02,273.07.02,83.77,0,167.54,0,251.32.02,1.16,0,2.43-.44,3.47.51-.51.33-.59.84-.59,1.39-2.12,1.32-4.27,4.73-3.85,7.34.49,3.01,3.98,4.41,6.31,5.71-19.17,1.27-38.53.37-57.74.72-19.42.35-38.83.68-58.25.96-39.02.56-78.05-.11-117.07.15-38.71.26-77.41-.67-116.11-.98-38.56-.3-77.18-1.11-115.71-2.93-21.11-.99-42.21-1.39-63.3-2.73-20.78-1.32-43.21-.67-63.19-7.03.88-3.9,7.33-3.67,10.38-4.14,5.26-.81,10.57-1.39,15.88-1.73,10.41-.68,20.85-2.48,31.29-2.28Z"/><path class="uuid-75395c86-d69d-43ea-aaca-b809d4ded215" d="m736.02,143.01c-14.02,11.33-35.04,10.51-47.96-1.87-.73-.7-1.57-1.31-1.97-2.31-.1-1.79,3.95-4.76,4.93-6.34,1.55-2.49,3.48-6.1,3.89-9.04.42-3.01-2.78-6.04-4.06-8.75-1.67-3.53-2.11-7.21-3.07-10.95-2.86-1.96-4.33-5.76-4.89-9.04-.37-2.16-.81-8.87,2.77-8.85,1.86-.6,2.87.75,4.01,1.98,3.89-2.89,2.97-10.46,4.45-14.59,2.18-6.09,6.66-3.77,11.33-1.72,6.05,2.65,11.86,4.7,18.59,3.84,2.85-.36,5.54-1.3,8.23-2.26,2.11-.75,5.35-2.68,7.59-1.37,1.92,2.73,1.88,7.25,2.22,10.44.37,3.36-.16,8.42,1.44,11.44-1.3,3.76-1.74,7.72-2.53,11.59-1.62,8.03-4.68,15.35-10.09,21.6-1.38,1.6-1.36,3.62-1.2,5.55.38,4.55,1.83,8.51,6.33,10.63Zm-14.65-53.61c-4.01-4.37-14.6-1.13-17.59,4.78,5.25-3.03,11.41-2.9,17.59-4.78Zm19.56,6.62c.73-5.15-3.22-6.85-6.31-9.13-1.2-.89-2.55-1.07-3.7.68,2.53,3.75,7.33,4.82,10,8.45Zm-13.31-5c-1.5,4.47-3.58,8.84-2.14,13.8,1.14,3.91-.3,5.46-4.34,4.8-.68-.11-1.43-.71-1.93.52,2.11,1.57,4.32,1.29,6.41.12,1.82-1.02,2.09-2.91,1.45-4.66-1.33-3.66-.38-7.12.41-10.65.28-1.26,1.19-2.49.14-3.94Zm-7.7,41.88c-5.99-.05-11.34-2.63-16.94-4.21,5.13,3.51,10.67,5.38,16.94,4.21Zm-3.3-35.67c-1.27-3.18-8.66-3.88-7.97.52,2.65-1.98,5.26-1.59,7.97-.52Zm-3.18,17.85c2.39,4.13,4.66,5.14,8.09,3.74-2.61-1.36-4.98-2.68-8.09-3.74Zm24.32-15.5c-1.93-3.45-6.03-3.57-9.02,0,3.36-.67,6.22-1.25,9.02,0Z"/><path class="uuid-78f5c8e3-df9d-4889-b540-e156ae4338ce" d="m798.37,553.77c3.15-.68,6.01.53,8.91,1.42-.05,2.6-.19,5.2-.14,7.8.13,7.75,3.32,13.96,9.58,18.57-3.82,13.38-1.3,26.49,1.78,39.55,1.27,5.36.93,10.68.22,16.03-4.32,2.75-8.71,5.41-13.59,6.99-3.43,1.11-7.03,2.25-10.2-.83-.13-1.45-.27-2.91-.4-4.36.32-4.82-.9-9.55-1.04-14.31-.16-5.7-.82-11.27-2.32-16.73-2.34-8.55-3.93-17.37-8.49-25.17-.48-.83-.42-1.57.02-2.35,9.81-4.74,13.7-13.24,14.89-23.44.13-1.09-.05-2.24.77-3.16Z"/><path class="uuid-b526cacb-ca28-40c8-8ff4-2fcb7cb92b64" d="m743.51,93.63c-1.6-3.03-1.07-8.09-1.44-11.44-.35-3.2-.3-7.71-2.22-10.44-2.23-1.31-5.48.62-7.59,1.37-2.69.95-5.38,1.89-8.23,2.26-6.73.86-12.54-1.18-18.59-3.84-4.67-2.05-9.15-4.37-11.33,1.72-1.48,4.13-.56,11.7-4.45,14.59-1.14-1.23-2.14-2.58-4.01-1.98-1.73-6.17-2.54-13.99-1.23-20.34,1.03-4.96,6.23-4.47,10.37-4.86.69-1.1-.49-4.02-.59-5.29-.13-1.76-.09-3.58.37-5.29.83-3.09,2.87-5.39,5.6-6.97,7.68-4.42,19.54-4.58,27,.4,3.88,2.58,5.72,6.46,8.52,10,2.87,3.64,7.25,5.8,9.82,9.62,5.92,8.81,1.25,21.59-2.01,30.51Z"/><path class="uuid-feac796c-8c85-478e-86c1-aa49d93a6464" d="m213.38,285.52c.01,20.16.03,40.31.04,60.47-8.9-4.26-17.81-8.5-26.69-12.79-9.04-4.38-18.06-8.81-27.09-13.21-.32-.16-.71-.17-1.07-.25,2.21-2.63,5.4-3.86,8.19-5.63,10.32-6.54,20.7-12.99,31.16-19.31,5.15-3.11,10.06-6.61,15.46-9.28Z"/><path class="uuid-88be557b-dd7f-4547-b271-df6fce9eaf28" d="m794.53,638.92c.13,1.45.27,2.91.4,4.36-.51,5.62.4,11.03,2.4,16.29-12.88.33-25.76.57-38.65,1.07-6.64.26-13.28.56-19.92.8-2.83.1-5.66.19-8.49.26-1.8.05-7.31,1.09-8.5-.51,3.78-3.81,4.08-5.28,1.86-9.11l-1.42-4.72h36.5v-8.4c9.43-.36,18.82.61,28.24.57,2.03,0,4.06-.08,6.02.61.56-.44,1.05-.83,1.55-1.22Z"/><path class="uuid-88be557b-dd7f-4547-b271-df6fce9eaf28" d="m818.42,641.2c14.09-.57,28.5.94,42.51,2.3,7.04.68,14.1,1.19,21.13,1.96,3.53.39,7.04.85,10.54,1.46,2.58.45,5.62.62,7.4,2.8-5.94,4.1-14.8,3.85-21.71,4.57-7.72.81-15.24,1.73-23.01,1.96-7.83.24-15.63.99-23.45,1.35-3.93.18-7.87.32-11.8.56-1.81.11-9.29,1.81-10.15,0,4.45-4.85,6.84-10.74,8.54-16.98Z"/><path class="uuid-bdad5355-328d-4215-8431-856ed4d0c346" d="m723.64,652.09c2.21,3.83,1.91,5.3-1.86,9.11-10.02,3.47-20.16,3.74-30.4,1.11-2.33-1.3-5.82-2.7-6.31-5.71-.43-2.61,1.72-6.02,3.85-7.34,1.3.47,2.57,1.05,3.91,1.4,10.17,2.7,20.46,2.7,30.82,1.43Z"/><path class="uuid-6cbf15aa-eb54-404d-bb0f-ed3e8bfc227e" d="m766.36,491.08c-1.53.78-1.9-.43-2.44-1.4-5.5-9.9-11-19.81-16.53-29.7-6.48-11.59-12.95-23.19-19.51-34.74-4.93-8.68-7.53-18.13-9.29-27.84-3.93-21.61-3.67-43.45-3.27-65.28.04-2.06.03-4.26,1.04-6.37,1.5.99,1.01,2.11.99,3.04-.13,6.04-.48,12.07-.49,18.11-.03,16.36.77,32.68,3.33,48.85,1.94,12.21,6.13,23.59,12.48,34.29,6.59,11.1,12.58,22.55,18.95,33.78,4.67,8.23,8.9,16.71,14.01,24.68.24.86.49,1.73.73,2.59Z"/><path class="uuid-bdad5355-328d-4215-8431-856ed4d0c346" d="m818.42,641.2c-1.7,6.23-4.09,12.12-8.54,16.98-2.08,1.17-4.04,2.49-6.42,3.14-2.51.68-4.52.34-6.14-1.75-1.99-5.25-2.91-10.66-2.4-16.29,3.17,3.07,6.77,1.94,10.2.83,4.89-1.58,9.28-4.23,13.59-6.99.55,1.41-.42,2.7-.3,4.07Z"/><path class="uuid-bdad5355-328d-4215-8431-856ed4d0c346" d="m816.71,581.55c-6.26-4.61-9.45-10.81-9.58-18.57-.04-2.6.09-5.2.14-7.8,4.02.64,9.87,1.86,11.74,6.02,2.53,5.64.02,15.08-2.31,20.34Z"/><path class="uuid-fbc43b5c-cffc-4c77-9ed5-c2c863c5874f" d="m798.37,553.77c-.81.92-.64,2.07-.77,3.16-1.2,10.2-5.09,18.7-14.89,23.44-1.58-2.21-2.94-4.63-5.66-5.71,5.99-5.89,12.32-11.45,17.58-18.05.97-1.22,1.91-2.47,2.86-3.7.29.29.58.57.87.86Z"/><path class="uuid-a0d7e338-6ba0-4435-a5a9-0fc8d9e199cb" d="m374.67,423.55c-9.61-4.04-18.81-9-28.27-13.37-4.81-2.22-9.61-4.46-14.37-6.8-2.44-1.2-13.18-4.82-13.12-7.65.74-.01,1.49-.04,2.23-.04,94.66,0,189.33,0,283.99,0,.74,0,1.49.03,2.23.04.37,2.81-9.88,5.98-12.12,7.04-5.06,2.38-10.13,4.77-15.19,7.16-9.81,4.65-19.67,9.17-29.57,13.62-58.6,0-117.21,0-175.81-.01Z"/><path class="uuid-a0d7e338-6ba0-4435-a5a9-0fc8d9e199cb" d="m536.51,429.17c0,1.47-1.24,1.73-2.2,2.18-7.43,3.47-14.9,6.86-22.32,10.36-9.16,4.33-18.27,8.76-27.43,13.09-2.08.98-4.25,1.85-6.65,1.7-10.97,0-21.93,0-32.9,0-2.22.15-4.14-.72-6.08-1.65-7.9-3.75-15.67-7.76-23.64-11.37-6.62-3-13.05-6.42-19.56-9.65-2.39-1.19-4.78-2.4-7.2-3.52-.57-.26-.95-.51-.99-1.15,49.66,0,99.31,0,148.97,0Z"/><path class="uuid-8a7efa1b-bac3-42c6-a164-10a2cd752bae" d="m607.36,395.74c-.74-.01-1.49-.04-2.23-.04-94.66,0-189.33,0-283.99,0-.74,0-1.49.03-2.23.04-2.51.17-4.81-.81-6.83-1.97-1.99-1.15-4.31-1.64-6.07-3.18,1.44-.38,2.9-.52,4.4-.52,79.8.02,159.59-.23,239.39.17,23.14.12,46.28.04,69.42.36-1.12,2.32-3.78,2.25-5.61,3.5-1.76,1.21-3.97,1.85-6.25,1.64Z"/><path class="uuid-8a7efa1b-bac3-42c6-a164-10a2cd752bae" d="m536.51,429.17c-49.66,0-99.31,0-148.97,0-2.33.41-3.92-1.26-5.83-2.03-2.46-.99-4.77-2.23-7.03-3.59,58.6,0,117.21,0,175.81.01-3.32,1.66-6.67,3.28-9.96,5.01-1.31.68-2.66.49-4.01.6Z"/><path class="uuid-78f5c8e3-df9d-4889-b540-e156ae4338ce" d="m723.64,652.09c-10.35,1.27-20.65,1.27-30.82-1.43-1.33-.35-2.61-.93-3.91-1.4,0-.55.08-1.06.59-1.39,5.97-7.65,11.49-15.49,11.92-25.74.07-1.59-.08-3.41,1.42-4.63,5.41,1.97,10.88,3.63,16.74,3.32,1.6.74,1.24,2.17,1.04,3.39-.86,5.15-.78,10.33-.52,15.51.13,2.69.7,5.3,2.11,7.65l1.42,4.72Z"/><path class="uuid-75395c86-d69d-43ea-aaca-b809d4ded215" d="m719.59,620.82c-5.86.31-11.33-1.35-16.74-3.32.54-3.68,1.1-7.35,1.58-11.03.07-.58-.28-1.22-.44-1.84,6.14,2.16,12.6,2.8,18.96,3.89-.08,1.4-.75,2.61-1.2,3.9-.95,2.74-2.37,5.37-2.16,8.4Z"/><path class="uuid-8a7efa1b-bac3-42c6-a164-10a2cd752bae" d="m445.01,456.5c10.97,0,21.93,0,32.9,0,.14.96-.35,1.45-1.14,1.97-6.98,4.62-14.85,3.99-22.52,3.38-3.02-.24-5.89-2.46-8.8-3.83-.56-.27-.44-.96-.44-1.52Z"/><path class="uuid-8a7efa1b-bac3-42c6-a164-10a2cd752bae" d="m653.24,322.01c.08,2.79.16,5.59.24,8.38-1.38-.7-2.87-.61-4.36-.61-129.64,0-259.28,0-388.92,0-1.27,0-2.6.3-3.94-.41-.78-1.62-.5-3.33-.15-5.4h395.72c.9-.5.68-1.64,1.41-1.95Z"/><path class="uuid-8a7efa1b-bac3-42c6-a164-10a2cd752bae" d="m651.37,290.15c-.36,2.79-.13,5.65-.93,8.39-.81-.4-.4-1.39-1.29-2.25h-393.09c-.41-2.03-.26-3.74-.14-5.32,1.4-1.21,2.87-.75,4.21-.75,118.23-.02,236.45-.02,354.68-.02,12.19,0,24.37-.03,36.55-.05Z"/><path class="uuid-8a7efa1b-bac3-42c6-a164-10a2cd752bae" d="m654.28,357.12c.11,1.89.22,3.78.34,5.67-1.39-.02-2.79-.05-4.18-.05-129.94,0-259.88,0-389.81-.01-1.28,0-2.59.22-4.01-.28-.54-1.57-.3-3.2-.11-5.33h397.78Z"/><path class="uuid-5a2fdcdb-ce9f-4eb7-b7b1-38373bbfe2c2" d="m650.13,302.42c.16.61.26,1.2-.27,1.7-.86-.72-.78-1.28.27-1.7Z"/><path class="uuid-222618c4-905f-449a-ab38-def2bfdc8d33" d="m759.22,575.89c-.77.64-.54,1.53-.54,2.34,0,20.24.02,40.49.03,60.73v8.4h-36.5c-1.4-2.36-1.97-4.97-2.11-7.65-.26-5.18-.34-10.36.52-15.51.2-1.22.56-2.65-1.04-3.39-.2-3.04,1.21-5.66,2.16-8.4.45-1.29,1.12-2.5,1.2-3.9,8.08-.07,16.15-.29,24.18-1.28,1.29-.16,2.6-.17,4.22-.89,1.88-10.7,3.8-21.64,5.72-32.58.17-.03.31-.11.42-.25.77.65,1.49,1.34,1.74,2.38Z"/><path class="uuid-6cbf15aa-eb54-404d-bb0f-ed3e8bfc227e" d="m757.48,573.52c-.11.13-.25.22-.42.25-1.6-.34-2.03-1.83-2.73-2.96-9.49-15.16-18.95-30.34-28.38-45.53-.49-.8-1.78-1.63-.21-3.01,2.45,1.89,3.48,4.77,5.01,7.18,8.54,13.46,16.93,27.02,25.36,40.56.67,1.08,1.66,2.06,1.37,3.52Z"/><path class="uuid-fbc43b5c-cffc-4c77-9ed5-c2c863c5874f" d="m728.97,231.36c.77,4.02-.82,4.58-4.25,6.52-1.65,6.68-7.41,8.74-13.42,10.17-3.9.93-6.77,2.61-10.35,4.23-3.65,1.65-6.53-1.22-9-3.67-4.51-4.46-9.55-11.12-8.45-17.85.55-3.39,2.65-5.71,4.6-8.37,1.78-2.43,3.34-5.15,6.32-6.26.39,1.52-.13,3.15.51,4.63,5-.75,10.07-.59,15.11-.4,3.51.14,6.79.27,6.54,4.59-5,3.58-11.67,1.35-16.98,4.18,6.39,1.57,14.31-1.84,20.77-2.44,1.59-.15,4.87-.87,6.36.24,1.5,1.12.86,3.27,2.24,4.43Zm-22.68,10.98c-.21-1.61-.14-3.27-.93-4.76,6.19-1.38,12.38-2.76,18.57-4.14-.08-.33-.15-.65-.23-.98-8.94,1.22-17.68,3.48-26.48,5.45,1.92.72,3.74.21,5.57.01,0,1.75-.21,3.54.77,5.14,1.84,2.46,17.6-1.04,17.53-3.82-1.08-.99-5.44,1.16-6.53,1.51-2.08.66-6.08,2.7-8.27,1.59Z"/><path class="uuid-1e3cb936-f621-4af4-acaa-a0a4f9399405" d="m728.97,231.36c-1.38-1.16-.74-3.31-2.24-4.43-1.49-1.11-4.77-.39-6.36-.24-6.45.6-14.38,4-20.77,2.44,5.31-2.83,11.99-.6,16.98-4.18.25-4.32-3.02-4.45-6.54-4.59-5.04-.2-10.11-.35-15.11.4-.65-1.48-.13-3.11-.51-4.63-.02-4.54.24-9.08-.22-13.61-.29-2.8.9-4.32,3.71-4.42,8.99-.31,17.98-.49,26.97-.68,2.41-.05,4.06,1.26,4.07,3.64.02,10.1.51,20.2.02,30.3Z"/><path class="uuid-b526cacb-ca28-40c8-8ff4-2fcb7cb92b64" d="m721.37,89.4c-6.18,1.88-12.34,1.75-17.59,4.78,2.99-5.91,13.58-9.15,17.59-4.78Z"/><path class="uuid-b526cacb-ca28-40c8-8ff4-2fcb7cb92b64" d="m740.93,96.02c-2.67-3.64-7.48-4.7-10-8.45,1.15-1.75,2.49-1.57,3.7-.68,3.08,2.28,7.04,3.99,6.31,9.13Z"/><path class="uuid-2cfddb39-58fd-47c3-b7dd-7122894faee8" d="m727.62,91.02c1.05,1.45.14,2.68-.14,3.94-.79,3.53-1.74,7-.41,10.65.64,1.75.37,3.64-1.45,4.66-2.09,1.17-4.3,1.45-6.41-.12.5-1.23,1.26-.63,1.93-.52,4.03.66,5.47-.89,4.34-4.8-1.44-4.96.64-9.33,2.14-13.8Z"/><path class="uuid-2cfddb39-58fd-47c3-b7dd-7122894faee8" d="m719.92,132.9c-6.27,1.17-11.81-.71-16.94-4.21,5.6,1.58,10.95,4.16,16.94,4.21Z"/><path class="uuid-b526cacb-ca28-40c8-8ff4-2fcb7cb92b64" d="m716.62,97.23c-2.7-1.07-5.32-1.45-7.97.52-.69-4.4,6.7-3.71,7.97-.52Z"/><path class="uuid-b526cacb-ca28-40c8-8ff4-2fcb7cb92b64" d="m713.44,115.08c3.11,1.05,5.48,2.38,8.09,3.74-3.43,1.4-5.7.39-8.09-3.74Z"/><path class="uuid-2cfddb39-58fd-47c3-b7dd-7122894faee8" d="m737.76,99.58c-2.8-1.24-5.66-.66-9.02,0,3-3.58,7.1-3.46,9.02,0Z"/><path class="uuid-2cfddb39-58fd-47c3-b7dd-7122894faee8" d="m702.79,237.92c-1.83.2-3.64.71-5.57-.01,8.8-1.96,17.53-4.22,26.48-5.45.08.33.15.65.23.98-6.19,1.38-12.38,2.76-18.57,4.14-.86.11-1.71.23-2.57.34Z"/><path class="uuid-2cfddb39-58fd-47c3-b7dd-7122894faee8" d="m706.3,242.34c2.19,1.11,6.2-.94,8.27-1.59,1.09-.34,5.45-2.5,6.53-1.51.06,2.78-15.7,6.28-17.53,3.82.91-.24,1.82-.48,2.73-.72Z"/><path class="uuid-bdad5355-328d-4215-8431-856ed4d0c346" d="m706.3,242.34c-.91.24-1.82.48-2.73.72-.98-1.61-.78-3.39-.77-5.14.86-.11,1.71-.23,2.57-.34.8,1.49.72,3.16.93,4.76Z"/></g></svg>