<?xml version="1.0" encoding="UTF-8"?><svg id="uuid-c83cff5d-4d01-4fd9-abd5-95092f381265" xmlns="http://www.w3.org/2000/svg" viewBox="0 0 1000 700"><defs><style>.uuid-ad652188-d926-4288-9be8-7c056e12d598{fill:#fb7851;}.uuid-ad652188-d926-4288-9be8-7c056e12d598,.uuid-14fa9af1-0372-4016-9de4-e4e15857338b,.uuid-67702ae5-397c-4e5a-9d0c-0658e3fa1c65,.uuid-6b2db1df-eaf3-4033-ad85-426558444852,.uuid-aabba5bb-0624-4d67-9bd5-0c4d709a38b1,.uuid-2c6a9120-665e-4311-9b7c-f6b26f714d9a,.uuid-d31ce8ee-41ab-4c8b-9945-b3dbdc85556a,.uuid-ceaf377c-055b-41a3-a9fe-a3e8f63aa729,.uuid-836bee06-8d73-435a-a07d-4b51bed3d9ea,.uuid-9eb93b1a-6154-41f0-9a3e-e079a495cab9,.uuid-08737455-d6f2-453f-a96a-d8a04662804f,.uuid-9bdfaed8-0bab-46dc-8aba-9c4ae8d4176f,.uuid-29cac0f8-6121-440e-8772-0868436e9012,.uuid-bcb85ef9-6d8f-405b-a247-687091a0ef42,.uuid-e0ddd91a-3c08-4e65-9a97-b533908744a4,.uuid-1bfb256c-f2a2-498b-a8d9-b622a8e68a46,.uuid-3ee38c28-72f0-43eb-9980-c4f318b58ef9{stroke-width:0px;}.uuid-14fa9af1-0372-4016-9de4-e4e15857338b{fill:#60aef4;}.uuid-67702ae5-397c-4e5a-9d0c-0658e3fa1c65{fill:#77bdb6;}.uuid-6b2db1df-eaf3-4033-ad85-426558444852{fill:#277b7a;}.uuid-aabba5bb-0624-4d67-9bd5-0c4d709a38b1{fill:#3466c7;}.uuid-2c6a9120-665e-4311-9b7c-f6b26f714d9a{fill:#141414;}.uuid-d31ce8ee-41ab-4c8b-9945-b3dbdc85556a{fill:#214fb2;}.uuid-ceaf377c-055b-41a3-a9fe-a3e8f63aa729{fill:#1cbfd6;}.uuid-836bee06-8d73-435a-a07d-4b51bed3d9ea{fill:#d50102;}.uuid-9eb93b1a-6154-41f0-9a3e-e079a495cab9{fill:#cafcf4;}.uuid-08737455-d6f2-453f-a96a-d8a04662804f{fill:#dcb0c6;}.uuid-9bdfaed8-0bab-46dc-8aba-9c4ae8d4176f{fill:#f5c9c2;}.uuid-29cac0f8-6121-440e-8772-0868436e9012{fill:#e2f7fc;}.uuid-bcb85ef9-6d8f-405b-a247-687091a0ef42{fill:#e8393b;}.uuid-e0ddd91a-3c08-4e65-9a97-b533908744a4{fill:#fbe9eb;}.uuid-1bfb256c-f2a2-498b-a8d9-b622a8e68a46{fill:#e9f4fe;}.uuid-3ee38c28-72f0-43eb-9980-c4f318b58ef9{fill:#00767f;}</style></defs><g id="uuid-a03ec007-1101-4296-836c-69292b41974e"><path class="uuid-67702ae5-397c-4e5a-9d0c-0658e3fa1c65" d="m265.84,151.55c2.59-.78,5.22-1.23,7.96-1.23,200.13.02,400.25.02,600.38.02,8.83,0,15.42,3.62,19.09,11.92,1,2.27,1.35,4.63,1.35,7.08,0,22.65,0,45.29,0,67.94,0,100.87-.02,201.73.03,302.6,0,10.17-5.74,17.74-16.02,20.06-1.04.23-2.15.18-3.23.18-72.09,0-144.19,0-216.28,0-1.44,0-2.89.01-4.33.02-52.32,0-104.64,0-156.97,0-11.99,0-23.97-.02-35.96-.02-49.93,0-99.86.02-149.8.03-.64-8.83-1.41-17.64-2.06-26.46-.58-7.85-.89-15.71-1.65-23.56-.86-8.81-.95-17.7-1.82-26.51-.33-3.37.07-6.82-.94-10.13,1.35,0,2.71.03,4.06.03,67.95,0,135.89,0,203.84,0,116.94,0,233.88,0,350.83-.02,1.31,0,2.71.41,3.91-.51.69-1.21.38-2.5.38-3.73.02-94.01.01-188.03.01-282.04,0-.63.04-1.27,0-1.89-.31-3.86-1.35-7.47-4.25-10.2-3.37-3.18-7.49-4.25-12.1-4.25-148.88.04-297.77.03-446.65.03-35.91,0-71.83,0-107.74.02-1.11,0-2.38-.45-3.29.68-.39-.49-.82-.94-1.16-1.46-5.45-8.23-13.1-13.13-22.71-15.11-1.76-.97-3.5-1.97-4.88-3.49Zm324.5,366.51c.54-9.21-7.35-15.9-15.53-15.71-8.65.2-15.2,6.13-15.32,15.4-.12,9.06,6.59,15.9,15.42,15.86,8.73-.04,15.85-7.06,15.43-15.55Z"/><path class="uuid-836bee06-8d73-435a-a07d-4b51bed3d9ea" d="m270.72,155.04c9.61,1.98,17.26,6.88,22.71,15.11.34.52.77.98,1.16,1.46,2.54,4.85,5.51,9.5,6.95,14.87-1.17.05-2.33.14-3.5.14-12.4.01-24.81.02-37.21,0-2.48,0-4.38.77-5.13,3.36-2.88-.01-12.27-1.86-12.84,2.22-.69,5,8.99,3.1,11.81,3.11.44,5.12-1.19,10.87-1.85,15.95-.7,5.33-1.49,10.65-2.22,15.98-1.48,10.8-2.99,21.6-4.61,32.38-.45.02-.9.06-1.35.06-11.7-.2-23.37.55-35.04,1.19-2.54.14-5.66-.26-7.32,2.56.44,1.08,1.09,1.42,1.93,1.65,8.21,2.3,16.37,4.78,24.63,6.91,5.73,1.48,11.31,3.56,17.18,4.52.63.74,1.49.49,2.27.49,13.33,0,26.66,0,39.99-.01.05.18.1.36.15.54-.08,1.25-.16,2.5-.25,3.75-.52,7.06-.19,14.17-1.25,21.2-4.09,2.61-7.26,5.62-11.83,7.52-4.38,1.82-8.98,3.11-13.63,4.01-9.37,1.82-19.05,2.26-28.58,2.05-20.65-.46-40.77-4.05-61.05-7.67-.1.06-.2.09-.31.07.01-2.9.03-5.81.04-8.71.24-2.36.34-4.72.15-7.1.84-4.28.58-8.61.52-12.93.04-2.35.08-4.71.12-7.06.44-1.08.5-2.16.02-3.25,0-.52.01-1.05.02-1.57,1.07-.8-.68-2.94,1.51-3.21.66,2.42,1.04,5.04,4.28,6.04,1.21-2.59.8-5.19.49-7.91-.38-3.33.21-5.69.9-8.87,1.4-6.38-2.46-10.65-6.08-15.4.42-6.19.84-12.38-.27-18.54-.28-1.59-1-2.87-2.61-3.26-2.58.54-3.6,2.73-5.16,4.3-1.04-.21-1.31-1.13-1.76-1.89-2.74-4.67-6.4-8.34-11.27-10.86-6.17-3.19-12.72-4.2-19.57-3.82,4.05-10.43,9.1-20.32,15.57-29.51,8.35-11.87,19.44-19.54,33.56-22.82,2.01-.47,3.94-1.29,6.03-1.39,7.73,5.43,15.54,10.73,23.89,15.17,1.03.55,1.94.88,2.99.5.77-.49,1.11-1.24,1.6-1.88,2.51-3.23,3.75-7.14,5.85-10.59,5.43,7.46,9.44,15.59,11.63,24.68,1.26-8.25,2.44-16.51,6.41-24,1.17,4.28,1.3,8.86,3.58,13.21,10.49-1.62,20.39-4.66,30.47-8.44-1.51-1.74-2.61-3.02-3.72-4.3Z"/><path class="uuid-3ee38c28-72f0-43eb-9980-c4f318b58ef9" d="m497.82,560.15c52.32,0,104.64,0,156.97,0v51.1c5.13,1.42,9.7,2.86,13.72,6.53,3.46,3.16,5.59,7.12,7.82,11.17.84,4.13,2.16,7.94,1.5,12.21h-203.82c-.04-2.41-.16-4.81.41-7.17.54-2.23,1.67-4.34,1.77-6.67.92-.55,1.12-1.59,1.64-2.41,1.78-2.8,3.66-5.48,6.25-7.66,3.94-3.33,8.54-5.09,13.74-6.01v-51.09Z"/><path class="uuid-1bfb256c-f2a2-498b-a8d9-b622a8e68a46" d="m476.19,627.32c-.11,2.33-1.23,4.44-1.77,6.67-.58,2.37-.46,4.76-.41,7.17h203.82c.66-4.27-.66-8.08-1.5-12.21,13.39-.44,27.03.33,40.41.84,13.48.51,27.01,1.07,40.5,1.09,13.83.03,27.64,1.25,41.46,1.76,13.5.5,26.87,1.63,40.35,2.35,7.48.4,14.81,1.51,22.25,2.21,3.5.33,7.03.53,10.52,1.04,2.16.32,8.55.62,9.13,3.26-2.5,3.34-9.86,3.06-13.53,3.51-5.83.72-11.68,1.26-17.52,1.89-11.47,1.22-23.06,1.29-34.57,2.13-11.56.85-23.17.76-34.71,1.62-11.28.83-22.75,1.49-34.04,1.43-12-.07-23.98.59-35.97.85-11.63.26-23.26.16-34.89.54-23.03.77-46.05,1.23-69.1,1.25-47.53.04-95.03.98-142.56.72-23.37-.13-46.73-.17-70.1-.24-23.35-.07-46.66-1.12-70.01-.65-6.72.13-13.52.62-20.24.31-5.68-.26-11.09-1.52-16.79-1.5-12.49.05-25-.7-37.49-.88-6.74-.1-13.46-.34-20.2-.54-6.17-.19-11.65-1.24-17.79,0-6.16,1.24-12.45,1.83-18.74,1.95-3.44.07-6.87-.01-10.3-.23-2.43-.15-6.62.39-8.83-.7-1.02-.94-.22-2.34-1.08-3.26-.89-.95-1.98-.65-3.16-.71-2.81-.14-5.6-.5-8.41-.62-6.43-.27-12.86-.52-19.28-1.01-6.35-.48-12.68-1.21-19.01-1.97-5.24-.63-12.9-.44-17.26-3.75.52-2.34,4.92-2.51,6.76-2.87,3.17-.63,6.37-1.11,9.59-1.47,6.37-.72,12.76-1.25,19.14-1.89,6.46-.65,12.94-.76,19.41-1.36,6.86-.63,13.67-1.11,20.56-.62-.93,1.8-2.48,3.24-3.09,5.23-1.75,1.6-3.12,3.4-3.15,5.83.83.79,1.62,1.09,2.57,1.17,8.82.82,17.64.67,26.43-.18,2.21-.21,4.75.26,6.72-1.44,3.31-.27,6.52-1.01,9.7-1.67v-11.3c22.36-.24,44.72-.82,67.06-1.69.15.42.19.91.69,1.12-.09,1.1-.18,2.19-.27,3.29-1.28,1.61-1.28,3.22,0,4.83.53,2.09-.53,4.37.8,6.36.3.72.81.69,1.4.41,2.72.22,5.44.45,8.16.67,1.57.37,3.12,1,4.7,1.06,9.23.35,18.46.22,27.64-.89,1.05-.13,2.1-.38,2.94-1.24.36-2.73-1.6-4.17-3.2-5.81-1.82-3.36-4.14-6.26-7.45-9.14,0,1.91,1.47,2.14,1.39,3.33-1.61,1.82-3.2-.12-4.8-.11-.1-.11-.21-.12-.33-.02-2.22-.72-4.44-.76-6.66,0-2.67-.12-4.78,1.45-7.11,2.36-3.05-.72,1.51-2.8,1.98-3.6-1.29.28-5.98,1.49-4.58-1.52,3.19-1.35,6.43-2.53,9.82-3.33-3.98-.9-7.12,1.37-10.54,2.52-.46-.18-.7-.51-.66-1.14,1.76-1.47,4.09-1.8,6.18-2.68,3.25-.23,6.44-1.07,9.78-.41,1.84.37,3.37,1.6,5.29,1.61.16.59.05,1.29.93,1.83,51.02-1.03,102.01-1.6,153.05-1.56Z"/><path class="uuid-d31ce8ee-41ab-4c8b-9945-b3dbdc85556a" d="m171.83,308.39c20.27,3.62,40.39,7.21,61.05,7.67,9.53.21,19.21-.23,28.58-2.05,4.66-.9,9.25-2.19,13.63-4.01,4.57-1.9,7.73-4.91,11.83-7.52.19.41.44.79.56,1.22,4.51,16.48,9.68,32.76,15.06,48.97,2.8,8.45,5.59,16.9,8.34,25.36,1.26,3.88-.98,6.54-4.86,5.96-2.31-.35-4.63-.56-6.95-.83-13.98-2-27.82-1.19-41.49,2.21-6.28,1.56-12.37,3.72-18.14,6.71-.87.05-1.72.64-3.15-.18-3.44-9.22-2.66-19.51-3.94-29.8-1.6,1.81-1.02,5.99-1.16,8.25-.2,3.17-.41,6.33-.51,9.51-.12,3.85,1.63,12.93-4.15,13.55-12.94-2.28-25.94-4-39.07-4.59-7.18-.32-14.38-.61-21.55.25-2.82-.09-5.78.85-8.48-1.22-.89-1.83-.14-3.78.24-5.66,4.73-23.39,9.27-46.81,13.47-70.3.08-.44.06-.89.09-1.34.42-.27.45-.64.26-1.06.12-.37.24-.73.36-1.1Z"/><path class="uuid-9bdfaed8-0bab-46dc-8aba-9c4ae8d4176f" d="m165.89,389.06c7.17-.86,14.37-.57,21.55-.25,13.13.59,26.14,2.31,39.07,4.59-.4,15.13-2.49,30.42-3.96,45.5-2.59,26.6-4.28,53.37-4.85,80.1-.29,13.5-.88,26.99-1.33,40.49-.23,6.77-.38,13.54-.48,20.32-.1,6.76.34,13.75-.35,20.47-9.3,0-18.6.02-27.9.02-.39-1.08.29-2.38-.66-3.35-.04-1.26-.09-2.53-.13-3.79l-.42-2.16c-5.28-52.47-10.03-105.05-16.51-157.4-1.81-14.62-4.43-29.78-4.04-44.54Z"/><path class="uuid-9bdfaed8-0bab-46dc-8aba-9c4ae8d4176f" d="m240.39,154.57c-3.98,7.49-5.15,15.75-6.41,24-2.18-9.09-6.2-17.21-11.63-24.68-.29-2.92-2.92-3.08-4.84-3.9-3.51-1.5-7.13-2.74-10.7-4.09,3.74-5.18,7.1-9.7,8.42-16.09-2.5-3.05-4.23-6.66-6.06-10.22.67-2.71-.9-5.14-.76-7.65-4.82-2.93-6.53-11.36-3.5-16.46,7.36-2.65,2.18,8.05,5.62,9.96,1.24-1.49,1.35-3.5,2.63-5,1.3-1.52,2.53-2.52,3.07-4.54.93-3.46-1.15-7.31,1.29-10.41,1.34-1.71,3.62-2.62,5.14-4.22,1.29-1.36,2.29-2.92,3.22-4.54,1.12-1.94,1.55-2.95,3.85-3.33,1.88-.31,3.73-.51,5.63-.9,3.89-.79,7.17.45,9.93,3.23,1.51,1.53,2.66,2.91,4.7,3.75,1.63.67,3.45.78,4.92,1.84,1.49,1.07,1.94,2.31,2.52,3.97.77,2.19,2.23,3.4,3.28,5.42,1.93,3.72.61,7.97.29,11.89-3.13-4.62-7.73-6.21-12.55-7.36-.83.32-1.3.79-1.13,2.17,3.8,1.85,9.04,2.17,11.01,6.96,1,.28,1.76.49,2.7.76-.18,1.9-1.44,5.75-.42,7.41-1.53,2.36-1.74,5.18-2.64,7.76-1.7,4.89-4.01,9.38-7.2,13.46-3.03,3.87-2.65,9.97.64,13.63.65.72,1.58,1.25,1.68,2.36-4.03.84-8.32.04-12.19,1.65-.2,1.23-.36,2.19-.51,3.15Zm-.7-57.94c.82-1.76.06-2.46-1.17-2.6-5.18-.62-10.22-.5-14.24,3.39-.23.91-.1,1.56,1.28,2.23,3.82-3.93,9.22-2.82,14.13-3.02Zm-1.43,21.24c1.86,3.38,8.07,1.65,8.25-2.08.1-1.98-1.18-3.76-1.16-5.84.02-1.58.78-3.43.17-4.95-2.36,3.76-.58,7.81-.49,11.46-1.75,2.92-4.29,1.13-6.78,1.42Zm1.04,22.7c-5.77-.28-11.1-2.32-16.48-4.2,4.95,3.43,10.28,5.45,16.48,4.2Zm-7.32-18.04c.71,3.14,6.99,4.68,10.59,2.59-3.61-.27-7.18-.69-10.59-2.59Zm.48-18.54c-1.37,2.06,1.51,3.4,2.36,1.19-.29-1.46-1.13-1.71-2.36-1.19Zm20.5,2.03c-1.39-1.2-3.76.16-2.44,1.57,1.32,1.41,2.53-.29,2.44-1.57Z"/><path class="uuid-9bdfaed8-0bab-46dc-8aba-9c4ae8d4176f" d="m172.39,267.84c0,.52-.01,1.05-.02,1.57-.84.5-1.53,1.11-1.67,2.15-3.82.68-6.04-7.4-7.01-10.03-1.71-4.6-2.89-9.43-5.08-13.84-2.74,2.55,2.67,10.5,3.69,13.22,1.29,3.44,3.63,9.16-.2,11.76-4.11-.77-5.29-5.24-6.59-8.6-.73-1.88-3.03-11.37-5.02-11.71-1.21,3.87,2.42,10.3,3.6,13.99,1.1,3.45,1.1,5.78-3.2,5.62-3.08-2.75-3.91-6.97-5.92-11.1-3.23,5.07-6.5,11.12-11.87,14.25-6.69,3.89-12.07.03-15.3-6.11-3.16-6-2.79-13.33-1.76-19.83.57-3.58,1.48-7.11,2.58-10.56.62-1.96,1.32-3.89,2.05-5.81.59-1.56,2.03-3.82,1.89-5.52,5.2-1.86,10.37-1.31,15.42.3,7.86-9.58,16.47-6.44,25.68-.95,3.55,3.73,6.69,7.79,9.82,11.86,3.62,4.75,7.48,9.02,6.08,15.4-.7,3.18-1.28,5.53-.9,8.87.31,2.72.72,5.32-.49,7.91-3.24-1-3.62-3.62-4.28-6.04-2.14-6.71-4.41-13.35-9.21-18.75,2.18,7.53,6.83,14,7.7,21.96Z"/><path class="uuid-2c6a9120-665e-4311-9b7c-f6b26f714d9a" d="m260.61,112.56c-1.02-1.66.24-5.51.42-7.41-.94-.26-1.7-.48-2.7-.76-1.98-4.8-7.21-5.12-11.01-6.96-.17-1.39.3-1.85,1.13-2.17,4.82,1.14,9.42,2.74,12.55,7.36.32-3.92,1.65-8.18-.29-11.89-1.05-2.02-2.52-3.23-3.28-5.42-.58-1.66-1.03-2.9-2.52-3.97-1.47-1.06-3.29-1.17-4.92-1.84-2.05-.84-3.19-2.22-4.7-3.75-2.76-2.79-6.04-4.02-9.93-3.23-1.9.39-3.75.59-5.63.9-2.3.38-2.73,1.38-3.85,3.33-.93,1.62-1.93,3.18-3.22,4.54-1.52,1.6-3.79,2.51-5.14,4.22-2.43,3.1-.36,6.95-1.29,10.41-.54,2.02-1.77,3.02-3.07,4.54-1.28,1.5-1.39,3.52-2.63,5-3.44-1.91,1.74-12.6-5.62-9.96-3.03,5.1-1.32,13.54,3.5,16.46-.14,2.51,1.43,4.94.76,7.65-.39-.48-.69-1.12-1.18-1.41-5.54-3.32-6.32-9.12-7.47-14.62-1.18-5.65-1.35-11.23-.37-17.11.7-4.15.26-8.16,3.82-11.33,1.25-1.11.74-3.25.75-4.96.05-5.81,2.62-8.18,8.38-7.65,1.92.18,3.35-.46,4.36-2.06.52-.84.94-1.74,1.45-2.59,2.54-4.28,4.82-5.33,9.68-4.13,2.38.59,4.59.59,6.83-.46,3.58-1.7,6.9-1.01,9.77,1.5,1.86,1.62,3.85,2.09,6.22,1.94,4.86-.31,5.52.09,7.2,4.59.95,2.54,2.65,4.1,5.22,4.56,3.62.65,5.16,2.8,5.3,6.35.14,3.68.27,7.34,2.46,10.64.95,1.43.3,3.17-.68,4.57-.46.66-.91,1.44-1.57,1.84-5.24,3.2-6.11,8.1-5.43,13.63.46,3.76-.9,6.89-3.29,9.67Z"/><path class="uuid-ad652188-d926-4288-9be8-7c056e12d598" d="m163.67,226.63c-9.21-5.49-17.82-8.63-25.68.95-5.05-1.61-10.23-2.16-15.42-.3-.65-.4-.71-1.01-.51-1.65,2.19-6.91,4.39-13.82,6.6-20.79,1.54-.16,2.87-.29,4.2-.43,6.84-.37,13.39.63,19.57,3.82,4.87,2.52,8.53,6.19,11.27,10.86.45.77.73,1.68,1.76,1.89-.12,2.03-1.55,3.65-1.79,5.64Z"/><path class="uuid-1bfb256c-f2a2-498b-a8d9-b622a8e68a46" d="m187.52,622.87v-13.46c-.65-.39-1.24-.74-1.83-1.1-.39-1.09-.68-2.1.55-2.83,10.45.02,20.91.03,31.36.05,1.98,1.82.04,2.92-.82,4.08v13.62c-6.12-.03-12.25-.07-18.37-.1-2.2-.35-4.4-.33-6.6,0-1.43-.08-2.86-.17-4.29-.25Z"/><path class="uuid-ad652188-d926-4288-9be8-7c056e12d598" d="m240.39,154.57c.16-.96.31-1.92.51-3.15,3.87-1.62,8.16-.81,12.19-1.65,1.97.03,3.95.17,5.91.05,2.49-.15,4.81.16,6.84,1.72,1.37,1.51,3.11,2.52,4.88,3.49,1.11,1.28,2.21,2.56,3.72,4.3-10.08,3.78-19.98,6.82-30.47,8.44-2.28-4.35-2.41-8.92-3.58-13.21Z"/><path class="uuid-ad652188-d926-4288-9be8-7c056e12d598" d="m206.82,145.9c3.57,1.35,7.19,2.59,10.7,4.09,1.92.82,4.55.97,4.84,3.9-2.1,3.44-3.34,7.36-5.85,10.59-.49.64-.84,1.39-1.6,1.88-1.05.38-1.96.04-2.99-.5-8.35-4.45-16.16-9.74-23.89-15.17.3-1.09,1.28-1.49,2.13-1.94,3.03-1.6,6.29-2.67,9.52-3.75,2.45-.82,4.73.8,7.15.9Z"/><path class="uuid-14fa9af1-0372-4016-9de4-e4e15857338b" d="m217.6,605.53c-10.45-.02-20.91-.03-31.36-.05-1.15-1.43-1.2-2.91-.24-4.45.55-.24,1.1-.48,1.66-.72,9.3,0,18.6-.02,27.9-.02,3.17,1.1,3.62,2.25,2.05,5.25Z"/><path class="uuid-14fa9af1-0372-4016-9de4-e4e15857338b" d="m182.37,631.64c.22-1.8,2.1-2.55,2.54-3.96.59-1.33-1.59-2.62.28-3.68.17.48-.06,1.09.47,1.45,1.89-.35,3.55-1.59,5.58-1.39-1.19,1.39-3.24.77-4.72,2.17-.3.57-.74,1.41-1.53,2.91,4.07-1.13,7.61-2.53,11.33-.99-4.44-.3-8.25.93-12,3.41,1.58,1.44,2.72-.18,3.81.51l-.06.63.02-.02c-1.49-.38-2.67.82-3.34.83-1.85-.16-1.18-1.83-2.37-1.87Z"/><path class="uuid-aabba5bb-0624-4d67-9bd5-0c4d709a38b1" d="m182.37,631.64c1.18.04.52,1.71,2.37,1.87.67-.01,1.86-1.2,3.34-.83-3.18,2.46-6.7,4.33-10.36,5.97.61-1.99,2.16-3.43,3.09-5.23.12-.04.19-.12.23-.23.32-.01.51-.13.41-.49.31-.35.62-.71.92-1.06Z"/><path class="uuid-e0ddd91a-3c08-4e65-9a97-b533908744a4" d="m172.22,279.73c.06,4.32.32,8.65-.52,12.93-.86-4.09-.31-8.21-.27-12.32,0-.21.51-.41.78-.61Z"/><path class="uuid-d31ce8ee-41ab-4c8b-9945-b3dbdc85556a" d="m191.24,624.05c-2.03-.2-3.69,1.04-5.58,1.39-.53-.36-.3-.97-.47-1.45.51-.93,1.58-.69,2.33-1.12,1.43.08,2.86.17,4.29.25.03.28.06.56.1.84-.22.03-.44.06-.66.09Z"/><path class="uuid-e0ddd91a-3c08-4e65-9a97-b533908744a4" d="m171.56,299.75c-.01,2.9-.03,5.81-.04,8.71-1.23-2.91-1.3-5.81.04-8.71Z"/><path class="uuid-e0ddd91a-3c08-4e65-9a97-b533908744a4" d="m170.7,271.56c.14-1.04.83-1.65,1.67-2.15.48,1.09.42,2.17-.02,3.25-.55-.37-.81-1.16-1.65-1.1Z"/><path class="uuid-e0ddd91a-3c08-4e65-9a97-b533908744a4" d="m171.48,309.49c.19.42.16.79-.26,1.06-.7-.55-.37-.84.26-1.06Z"/><path class="uuid-1bfb256c-f2a2-498b-a8d9-b622a8e68a46" d="m181.45,632.7c.1.36-.09.48-.41.49.14-.16.28-.33.41-.49Z"/><path class="uuid-29cac0f8-6121-440e-8772-0868436e9012" d="m299.06,383.16c2.32.27,4.64.48,6.95.83,3.88.58,6.12-2.08,4.86-5.96-2.75-8.46-5.54-16.92-8.34-25.36-5.38-16.21-10.55-32.49-15.06-48.97-.12-.43-.37-.81-.56-1.22,1.07-7.03.73-14.14,1.25-21.2.09-1.25.17-2.5.25-3.75h19.92c-1.26,4.13,1.02,5.99,3.63,7.88,2.06,1.49,4.88,1.39,6.6,3.44,0,46.28,0,92.56,0,138.84,0,.8.04,1.63.23,2.4,1.18,4.7,3.5,8.45,9.42,9.78,1.57-.28,3.92.63,6.35.63,45.47,0,90.94.04,136.41-.07,2.72,0,5.63.07,8.22-.99,5.19-2.12,7.75-6.11,7.75-11.79-.02-71.54-.01-143.08-.01-214.62,0-.45,0-.9,0-1.35-.07-7.33-6.61-11.65-11.98-11.62-29.32.16-58.64.08-87.96.08-.44-5.33,3.8-13.04-4.35-13.49-8.93-.49-18.02-.01-26.96-.01-17.99,0-36.17.73-54.14-.18-1.44-5.37-4.41-10.02-6.95-14.87.91-1.13,2.17-.68,3.29-.68,35.91-.02,71.83-.02,107.74-.02,148.88,0,297.77,0,446.65-.03,4.61,0,8.73,1.07,12.1,4.25,2.89,2.73,3.93,6.34,4.25,10.2.05.63,0,1.26,0,1.89,0,94.01,0,188.03-.01,282.04,0,1.23.31,2.52-.38,3.73-1.2.92-2.61.51-3.91.51-116.94.02-233.88.02-350.83.02-67.95,0-135.89,0-203.84,0-1.35,0-2.71-.02-4.06-.03.1-7.87-.92-15.68-1.5-23.51-.55-7.34-.94-14.69-1.52-22.03-.59-7.43-1.2-14.87-1.68-22.31-.49-7.51-1.8-14.95-1.83-22.49Zm375.43-52c-48.71,0-97.43,0-146.14,0-.81,0-1.63-.04-2.44,0-5.02.27-9.19,4.33-9.19,9.13-.03,30.22-.02,60.44,0,90.66,0,2.24.96,4.06,2.4,5.83,3.11,3.83,7.46,3.66,11.58,3.67,49.62.08,99.23.05,148.85.05,46.19,0,92.38.02,138.57-.04,2.75,0,5.68-.05,8.22-.95,4.67-1.65,6.53-5.63,6.54-10.39.04-28.78-.05-57.55.07-86.33.03-6.72-4.88-11.77-11.76-11.75-48.89.18-97.79.1-146.69.1Zm-12.08-15.7c5.25-2.33,5.88-6.46,5.88-10.85.01-27.43,0-54.85,0-82.28,0-3.79.02-7.58,0-11.37-.05-6.91-3.58-10.36-10.39-10.34-44.3.13-88.61.07-132.91.07-4.94,0-8.29,3.31-8.29,8.2,0,32.84,0,65.68,0,98.52,0,5.05,3.02,8.04,8.05,8.04,43.94,0,87.88,0,131.83,0h5.82Zm164.72,0c4.79-2.38,5.86-5.99,5.84-10.68-.15-31.84-.08-63.68-.08-95.51,0-4.69-3.78-8.57-8.44-8.57-44.92-.01-89.84,0-134.76,0-4.36,0-8.49,3.73-8.47,8.49.13,32.74.07,65.48.07,98.22,0,4.75,3.31,8.05,8.06,8.05,34.28,0,68.55,0,102.83,0h34.95Z"/><path class="uuid-9bdfaed8-0bab-46dc-8aba-9c4ae8d4176f" d="m312.07,560.16c.69,9.46,1.41,18.91,2.06,28.37.29,4.29.43,8.59.64,12.89-2.42.16-4.85.23-7.26.49-6.35.68-12.77.14-19.09,1.19-2.09-14.48-5.12-28.73-8.29-43-.86-3.83-1.71-7.67-2.54-11.5-2.06-9.52-4.36-18.98-6.52-28.47-3.14-13.79-6.53-27.51-9.84-41.25-2.09-8.68-4.27-17.35-6.53-25.99-.38-1.45.14-3.28-1.53-4.29-.13-1.25-.1-2.53-.41-3.73-4.42-17.6-8.88-35.2-13.33-52.79,5.77-2.99,11.86-5.14,18.14-6.71,13.68-3.41,27.52-4.21,41.49-2.21.03,7.54,1.34,14.98,1.83,22.49.48,7.44,1.09,14.87,1.68,22.31.58,7.34.97,14.69,1.52,22.03.59,7.83,1.61,15.64,1.5,23.51,1.01,3.31.6,6.76.94,10.13.87,8.81.96,17.7,1.82,26.51.77,7.85,1.07,15.71,1.65,23.56.65,8.82,1.42,17.64,2.06,26.46Z"/><path class="uuid-9eb93b1a-6154-41f0-9a3e-e079a495cab9" d="m590.35,518.06c.41,8.49-6.71,15.51-15.43,15.55-8.83.04-15.54-6.8-15.42-15.86.12-9.27,6.67-15.2,15.32-15.4,8.18-.19,16.07,6.5,15.53,15.71Z"/><path class="uuid-67702ae5-397c-4e5a-9d0c-0658e3fa1c65" d="m301.54,186.48c17.97.9,36.15.18,54.14.18,8.94,0,18.03-.48,26.96.01,8.15.45,3.9,8.16,4.35,13.49-1.11,5.56-1.81,11.17-2.39,16.81-.43.27-.43.65-.25,1.06-.29.87-.32,1.77-.2,2.67-1.3,7.16-2.37,14.35-2.93,21.6-.75,2.13-.89,4.34-.98,6.57-.41.28-.39.67-.26,1.09-.1,1.08-.2,2.16-.3,3.24-2.01,4.44-1.77,11.06-2.39,15.91-.41,3.16-.31,6.51-3.89,7.45-4.26,1.12-9.52.34-13.88.33-5.53,0-11.07-.01-16.6-.02-1.11-.71-2.52.11-3.87-.88-.35-4.37-1.72-6.56-2.89-10.95-1.43-3.91-1.29-3.91-2.35-6.33-.59-1.01-1.23-1.97-2.28-2.58-.96-1.17-1.85-1.14-2.67.15l-.18.18c-.2.4-.26.59-.66,1.15-.04.72-.08,1.44-.12,2.16-.27-.04-.53-.07-.8-.11-.11-.57-.23-1.13-.34-1.7l-.14-.89c-.07-.54-.14-1.09-.21-1.63l-.49-1.69c-.1-.58-.21-1.16-.31-1.74l-.37-.94c-.35-1.31-.81-2.57-1.87-3.5-1.4-1.73-2.88-.46-4.33-.12-1.2-.49-2.35-.62-3.38.38-1.23.56-1.22,1.64-1.16,2.75-.14.88-.28,1.76-.42,2.68-3.87,1.5-5.26,6.66-5.58,10.39-.39,4.54,2,8.65-.38,13.01-6.49,0-13.45-.72-19.86.32-13.33,0-26.66.01-39.99.01-.79,0-1.64.25-2.27-.49-1.68-2.03-1.74-4.24-1.35-6.82.51-3.34,1.46-6.65,1.33-10.09,1.63-10.78,3.13-21.58,4.61-32.38.73-5.33,1.52-10.65,2.22-15.98.66-5.08,2.29-10.83,1.85-15.95.74-1.7.92-3.51,1.03-5.33.75-2.59,2.65-3.36,5.13-3.36,12.4.02,24.81.01,37.21,0,1.17,0,2.33-.09,3.5-.14Z"/><path class="uuid-9bdfaed8-0bab-46dc-8aba-9c4ae8d4176f" d="m321.57,275c.55-.94.21-1.71.13-2.46l-.07-.77-.49-4.67c-.28-.96-.28-.18-.19-1.36-.1-1.16-.2-2.32-.3-3.49-.03-.26-.06-.53-.08-.79-.18-1.54-.36-3.08-.54-4.62l-.4-8.41c1.06-1.11,2.46-.73,3.75-.84,1.06.93,1.51,2.19,1.87,3.5l.37.94c.1.58.21,1.16.31,1.74l.49,1.69c.07.54.14,1.09.21,1.63l.14.89c.11.57.23,1.13.34,1.7.25,4.79.62,9.56,2.72,14.02.54-4.81-1.18-9.29-1.92-13.91.04-.72.08-1.44.12-2.16q.29-.68.66-1.15l.18-.18c.89-.05,1.78-.1,2.67-.15,1.05.61,1.24.97,2.28,2.58s1.39,3.26,1.78,4.35,3.12,8.56,3.46,12.93c1.36,1,2.76.18,3.87.88-.37.94-.74,1.88-1.11,2.82-3.42,2.74-4.59,7.2-8.67,9.14-4.62,2.21-9.81,1.04-14.57.02-1.72-2.05-4.54-1.95-6.6-3.44-2.61-1.89-4.88-3.75-3.63-7.88h-19.92c-.05-.18-.1-.36-.15-.54,6.41-1.03,13.38-.32,19.86-.32,2.38-4.36-.01-8.47.38-13.01.32-3.74,1.71-8.89,5.58-10.39-.06-6.97,2.58-6.98,4.96-5.81.21.32.42.64.63.96-.63,1.66-.95,3-.49,7.98.03,1.65-.07,3.31.44,4.91m-4.44,15.22c-.16-6.65-.82-13.25-1.38-19.88-1.32,6.74-.18,13.33,1.38,19.88Z"/><path class="uuid-3ee38c28-72f0-43eb-9980-c4f318b58ef9" d="m245.98,259.61c.13,3.43-.82,6.74-1.33,10.09-.39,2.57-.33,4.78,1.35,6.82-5.87-.96-11.44-3.04-17.18-4.52-8.25-2.13-16.42-4.61-24.63-6.91-.84-.24-1.5-.57-1.93-1.65,1.66-2.82,4.78-2.42,7.32-2.56,11.67-.64,23.34-1.4,35.04-1.19.45,0,.9-.04,1.35-.06Z"/><path class="uuid-ad652188-d926-4288-9be8-7c056e12d598" d="m255.7,189.97c-.11,1.82-.29,3.63-1.03,5.33-2.82,0-12.51,1.89-11.81-3.11.57-4.08,9.96-2.23,12.84-2.22Z"/><path class="uuid-e0ddd91a-3c08-4e65-9a97-b533908744a4" d="m172.39,267.84c-.87-7.96-5.52-14.43-7.7-21.96,4.8,5.4,7.07,12.04,9.21,18.75-2.2.27-.44,2.41-1.51,3.21Z"/><path class="uuid-14fa9af1-0372-4016-9de4-e4e15857338b" d="m177.72,638.65c3.66-1.64,7.18-3.51,10.36-5.97l-.02.02c.58-.08,1.22.19,1.78-.26-.21-.2-.4-.39-.59-.57,2.68-1.52,7.25,1.11,9.25-.67-.96-1.17-2.35-.45-3.27-1.16,2.98-1.71,6.2,1.23,9.81-.5-4-2.95-8.01-3.87-12.36-3.76,2.9-.68,5.81-.28,8.62.54,1.28.37,4.05,2.29,4.22-.13,1.27.29.94.98.5,1.8-.82,1.56-1.76,2.99-3.33,3.9-1.22.53-2.39-1.22-3.84.02,1.29.8,2.32,1.83,3.85,1.96.46,2.12,2.29,3.17,3.78,4.28,2.08,1.55,3.35,3.39,3.78,5.88-1.96,1.7-4.51,1.22-6.72,1.44-8.79.85-17.61,1-26.43.18-.94-.09-1.74-.39-2.57-1.17.04-2.43,1.4-4.23,3.15-5.83Z"/><path class="uuid-14fa9af1-0372-4016-9de4-e4e15857338b" d="m329.9,639.17c1.6,1.64,3.57,3.09,3.2,5.81-.84.87-1.89,1.12-2.94,1.24-9.19,1.1-18.41,1.24-27.64.89-1.58-.06-3.13-.69-4.7-1.06-.05-2.12.98-3.66,2.4-5.16,1.63-1.72,3.85-2.92,4.73-5.31,2.33-.91,4.44-2.48,7.11-2.36,2.22,0,4.44,0,6.66,0,.12-.1.22-.09.33.02.16.31.24.81.48.91,3.59,1.4,6.64,3.92,10.37,5.01Z"/><path class="uuid-d31ce8ee-41ab-4c8b-9945-b3dbdc85556a" d="m304.95,635.59c-.88,2.38-3.11,3.59-4.73,5.31-1.42,1.49-2.45,3.04-2.4,5.16-2.72-.22-5.44-.45-8.16-.67-.37-.46-.82-.65-1.4-.41-1.33-1.99-.27-4.27-.8-6.36.23-1.61.23-3.22,0-4.83.09-1.1.18-2.19.27-3.29.17,0,.34.01.5.02.02.77-.09,1.58.64,2.13.41,3.59,1.75,6.83,3.37,9.85,1.86.27,2.57-.72,2.88-2.38.49-2.66-.42-1.14-1.93-1.42-2.3-1.41-1.83-4.25-3.1-6.2-.38-.89-.38-2.13-1.86-1.98.11-.84-.36-1.25-1.09-1.47-.54-1-.7-1.99.04-3.06.93-.62,2.26.11,3.19-.76,1.51.57,3.09-.14,4.61.27,2.29.01,4.62.78,6.82-.49,1.77-.48,3.57-.34,5.37-.28,0,.37-.02.74-.02,1.11-2.09.88-4.42,1.21-6.18,2.68-.04.62.2.95.66,1.14l.72.81c-1.39,3,3.29,1.8,4.58,1.52-.48.8-5.03,2.88-1.98,3.6Z"/><path class="uuid-d31ce8ee-41ab-4c8b-9945-b3dbdc85556a" d="m202.7,631.89c1.57-.91,2.51-2.34,3.33-3.9.43-.82.76-1.5-.5-1.8l-7.21-2.24.09-.84c6.12.03,12.25.07,18.37.1,1.22-.11,2.43-.17,3.4.79-.02.73-.03,1.46-.05,2.18-.16.09-.23.22-.18.4-3.88,1.97-3.37,6.67-5.73,9.76-.98-.65-1.75-1.15-2.88-1.9.77,2.43.29,4.96,2.97,5.99,2.9-1,3.47-11.79,5.61-10.76.02.46.04.92.06,1.38v11.3c-3.18.65-6.39,1.4-9.7,1.67-.43-2.49-1.7-4.33-3.78-5.88-1.49-1.11-3.33-2.16-3.78-4.28.91-.67.69-1.33-.02-1.98Z"/><path class="uuid-aabba5bb-0624-4d67-9bd5-0c4d709a38b1" d="m329.9,639.17c-3.73-1.09-6.78-3.61-10.37-5.01-.24-.09-.33-.59-.48-.91,1.6-.01,3.19,1.92,4.8.11.08-1.19-1.4-1.41-1.39-3.33,3.31,2.88,5.64,5.78,7.45,9.14Z"/><path class="uuid-aabba5bb-0624-4d67-9bd5-0c4d709a38b1" d="m307.14,625.85c0-.37.02-.74.02-1.11,4.08-.76,8.24-.51,12.34-.93,2.11.07,3.04,1.13,2.7,3.24-1.91-.01-3.44-1.25-5.29-1.61-3.34-.66-6.53.18-9.78.41Z"/><path class="uuid-08737455-d6f2-453f-a96a-d8a04662804f" d="m302.35,630.48l-.72-.81c3.42-1.16,6.56-3.42,10.54-2.52-3.39.81-6.63,1.99-9.82,3.33Z"/><path class="uuid-67702ae5-397c-4e5a-9d0c-0658e3fa1c65" d="m287.46,633.8c.23,1.61.23,3.22,0,4.83-1.28-1.61-1.28-3.22,0-4.83Z"/><path class="uuid-aabba5bb-0624-4d67-9bd5-0c4d709a38b1" d="m318.72,633.24c-2.22,0-4.44,0-6.66,0,2.22-.75,4.44-.72,6.66,0Z"/><path class="uuid-67702ae5-397c-4e5a-9d0c-0658e3fa1c65" d="m288.23,630.53c-.17,0-.34,0-.5-.02-.5-.21-.54-.7-.69-1.12.02-.11.06-.22.11-.33.73.21,1.2.63,1.09,1.47h0Z"/><path class="uuid-67702ae5-397c-4e5a-9d0c-0658e3fa1c65" d="m288.26,644.98c.58-.25,1.03-.06,1.4.41-.59.29-1.1.32-1.4-.41Z"/><path class="uuid-2c6a9120-665e-4311-9b7c-f6b26f714d9a" d="m239.69,96.63c-4.9.2-10.3-.92-14.13,3.02-1.38-.67-1.51-1.32-1.28-2.23,4.02-3.89,9.05-4.01,14.24-3.39,1.23.15,1.99.84,1.17,2.6Z"/><path class="uuid-2c6a9120-665e-4311-9b7c-f6b26f714d9a" d="m238.26,117.87c2.49-.29,5.03,1.5,6.78-1.42-.09-3.64-1.87-7.7.49-11.46.61,1.52-.15,3.37-.17,4.95-.03,2.08,1.25,3.87,1.16,5.84-.18,3.73-6.39,5.46-8.25,2.08Z"/><path class="uuid-6b2db1df-eaf3-4033-ad85-426558444852" d="m239.31,140.57c-6.2,1.25-11.53-.77-16.48-4.2,5.38,1.88,10.71,3.92,16.48,4.2Z"/><path class="uuid-2c6a9120-665e-4311-9b7c-f6b26f714d9a" d="m231.98,122.53c3.41,1.9,6.98,2.32,10.59,2.59-3.6,2.09-9.88.55-10.59-2.59Z"/><path class="uuid-2c6a9120-665e-4311-9b7c-f6b26f714d9a" d="m232.46,103.99c1.24-.53,2.08-.27,2.36,1.19-.85,2.21-3.74.87-2.36-1.19Z"/><path class="uuid-2c6a9120-665e-4311-9b7c-f6b26f714d9a" d="m252.96,106.03c.08,1.28-1.13,2.98-2.44,1.57-1.31-1.41,1.06-2.77,2.44-1.57Z"/><path class="uuid-14fa9af1-0372-4016-9de4-e4e15857338b" d="m198.41,623.12l-.09.84c-2.14,0-4.27,0-6.41,0-.03-.28-.06-.56-.1-.84,2.2-.33,4.4-.35,6.6,0Z"/><path class="uuid-aabba5bb-0624-4d67-9bd5-0c4d709a38b1" d="m188.12,632.06c.38-.06.75-.13,1.13-.19.19.18.38.36.59.57-.56.45-1.2.17-1.78.26l.06-.63Z"/><path class="uuid-1bfb256c-f2a2-498b-a8d9-b622a8e68a46" d="m319.51,623.82c-4.11.42-8.26.16-12.34.93-1.8-.07-3.6-.2-5.37.28-2.31-.31-4.6-.46-6.82.49-1.52-.4-3.1.3-4.61-.27.08-4.07-.52-8.25-.52-12.37-.54-1.26-1.39-1.67-1.99-2.2-.21-.99-.4-1.88.62-2.44,7.26-.35,14.55-.45,21.78-1.17,3.26-.32,6.68.46,9.81-1.08.21.76.43,1.53.67,2.38-.64.75-1.27,1.49-1.96,2.31.71,4.31-.1,8.77.73,13.14Z"/><path class="uuid-14fa9af1-0372-4016-9de4-e4e15857338b" d="m320.07,605.99c-3.13,1.53-6.55.75-9.81,1.08-7.23.72-14.52.82-21.78,1.17-.33-.5-.65-1-.98-1.51,0-.74,0-1.47-.01-2.21.31-.47.61-.95.92-1.42,6.32-1.05,12.74-.51,19.09-1.19,2.41-.26,4.84-.33,7.26-.49.71,0,1.43,0,2.14.01,3.35.03,4.25,1.33,3.17,4.56Z"/><path class="uuid-67702ae5-397c-4e5a-9d0c-0658e3fa1c65" d="m280.12,560.1c-2.34,0-4.69-.09-7.03.04-9.53.52-16.99-6.61-19.25-14.31-.59-2.03-.75-4.25-.75-6.39-.05-29.83-.03-59.67-.03-89.5,0-.45.06-.9.09-1.35,1.67,1.01,1.15,2.85,1.53,4.29,2.26,8.64,4.44,17.31,6.53,25.99,3.31,13.74,6.7,27.47,9.84,41.25,2.16,9.49,4.46,18.95,6.52,28.47.83,3.83,1.69,7.67,2.54,11.5Z"/><path class="uuid-29cac0f8-6121-440e-8772-0868436e9012" d="m379.68,253.19c.76.4.44,1.33.95,1.92.98.48,2.08.24,3.14.24,23.44.02,46.88,0,70.32.01,5.7,0,9.01,3.32,9.01,9.02,0,16.04.01,32.09-.02,48.13,0,1.01.48,2.2-.69,2.97-2.23-2.43-3.49-2.12-5.46.41-2.06,2.65-3.89,5.49-5.93,8.16-3.43,4.5-7.19,9.43-12.69,11.47-8.3-2.47-13.05-11.24-22.24-12.14,3.64-6.07,7.32-12.11,10.89-18.22,1.44-2.46,6.85-13.7,10.61-11.79,2.67,2.78-.55,9.4,4.1,11.19,4.38,1.68,7.25-4.97,8.73-7.84,4.81-9.34,8.37-19.24,12.06-29.06-.72-2.57-2.11-3.09-4.42-2.1-4.58,10.4-7.71,21.6-13.9,31.81-1.4-2.56-.77-5.71-2.98-7.91-1.53-1.52-3.68-2-5.76-1.53-5.5,1.23-9.13,8.38-11.76,12.76-2.95,4.9-5.68,9.93-8.74,14.77-2.74,4.33-6.03,10.26-10.52,13.02-9.6,5.9-12.59-13.11-17.99-17.05-9.48-6.9-18.03,5.31-22.78,12.16-3.43,4.95-6.42,10.19-9.23,15.51-1.35,2.57-2.66,5.16-3.96,7.76-1.01,2.03-3.4,4.97-1.81,7.22-.23.47-.46.94-.7,1.41-2.35-.3-3.01-2.68-4.64-3.59-.78-2.64-.93-5.11-.93-7.64.03-20.51.02-41.01,0-61.52,0-1.03.41-2.18-.55-3.06.37-.94.74-1.88,1.11-2.82,5.53,0,11.07.02,16.6.02,4.37,0,9.62.79,13.88-.33,3.58-.94,3.49-4.29,3.89-7.45.62-4.84.38-11.47,2.39-15.91Z"/><path class="uuid-67702ae5-397c-4e5a-9d0c-0658e3fa1c65" d="m384.15,220.69c13.86,0,27.72,0,41.58.02,8.78,0,25.33-2.47,24.88,11.04-.46,13.81-18.57,10.59-27.61,10.59-13.93,0-27.85-.03-41.78-.04.56-7.26,1.63-14.45,2.93-21.6Z"/><path class="uuid-2c6a9120-665e-4311-9b7c-f6b26f714d9a" d="m327.89,259.78c.75,4.62,2.47,9.1,1.92,13.91-2.1-4.45-2.48-9.22-2.72-14.02.27.04.53.07.8.11Z"/><path class="uuid-9bdfaed8-0bab-46dc-8aba-9c4ae8d4176f" d="m319.67,248.42c-.21-.32-.42-.64-.63-.96,1.45-.34,2.93-1.61,4.33.12-1.29.11-2.69-.27-3.75.84h.04Z"/><path class="uuid-9bdfaed8-0bab-46dc-8aba-9c4ae8d4176f" d="m331.52,256.13c-.89.05-1.78.1-2.67.15.82-1.29,1.71-1.32,2.67-.15Z"/><path class="uuid-e0ddd91a-3c08-4e65-9a97-b533908744a4" d="m380.24,248.86c.8.57.49.88-.26,1.09-.13-.41-.15-.8.26-1.09Z"/><path class="uuid-67702ae5-397c-4e5a-9d0c-0658e3fa1c65" d="m384.6,216.96c.75.55.45.85-.25,1.06-.19-.42-.18-.79.25-1.06Z"/><path class="uuid-2c6a9120-665e-4311-9b7c-f6b26f714d9a" d="m315.18,276.53c-1.55-6.55-2.69-13.13-1.38-19.88.55,6.62,1.21,13.23,1.38,19.88Z"/><path class="uuid-2c6a9120-665e-4311-9b7c-f6b26f714d9a" d="m319.67,248.42h-.04c.13,2.8.27,5.6.4,8.4-.28-.14-.57-.28-.85-.43-.64-2.71-.58-8.17.49-7.98Z"/><path class="uuid-2c6a9120-665e-4311-9b7c-f6b26f714d9a" d="m321.62,271.77c-.42.3-.45.56.07.77.08.75.42,1.52-.13,2.46-1.28-1.81-1.8-12.19-1.95-13.69.27-.59.65.49.91-.11.1,1.16.31,3.36.41,4.52.22,1.58.52,4.48.68,6.04Z"/><path class="uuid-2c6a9120-665e-4311-9b7c-f6b26f714d9a" d="m319.17,256.4c.28.14.57.28.85.43.18,1.54.36,3.08.54,4.62-.31-.05-.63-.09-.94-.14-.51-1.6-.42-3.26-.44-4.91Z"/><path class="uuid-2c6a9120-665e-4311-9b7c-f6b26f714d9a" d="m321.62,271.77c-.42.3-.45.56.07.77l-.07-.77Z"/><path class="uuid-1bfb256c-f2a2-498b-a8d9-b622a8e68a46" d="m219.91,629.69c-2.13-1.03-2.71,9.76-5.61,10.76-2.68-1.03-2.2-3.56-2.97-5.99,1.14.75,1.9,1.25,2.88,1.9,2.37-3.09,1.85-7.79,5.73-9.76-.01,1.03-.03,2.06-.04,3.09Z"/><path class="uuid-1bfb256c-f2a2-498b-a8d9-b622a8e68a46" d="m220.14,626.2c.02-.73.03-1.46.05-2.18,1.44.76,1.45,1.49-.05,2.18Z"/><path class="uuid-1bfb256c-f2a2-498b-a8d9-b622a8e68a46" d="m287.49,604.52c0,.74,0,1.47.01,2.21-1.38-.73-1.38-1.46-.01-2.21Z"/><path class="uuid-aabba5bb-0624-4d67-9bd5-0c4d709a38b1" d="m294.98,625.51c2.22-.95,4.51-.8,6.82-.49-2.19,1.26-4.53.5-6.82.49Z"/><path class="uuid-67702ae5-397c-4e5a-9d0c-0658e3fa1c65" d="m290.09,632.5c-.41.05-.82.1-1.22.16-.73-.56-.62-1.36-.64-2.13h0c1.48-.15,1.48,1.09,1.86,1.98Z"/><path class="uuid-67702ae5-397c-4e5a-9d0c-0658e3fa1c65" d="m544.54,359.91v-11.53c.9-.74,1.93-.44,2.89-.44,81.54-.01,163.07-.01,244.61-.02,2.29,0,4.57.16,6.13,2.11,1.56,1.93,2.18,4.08,1.11,6.54-1.06,2.42-2.98,3.49-5.46,3.78-.71.08-1.44.02-2.16.02-81.17,0-162.35,0-243.52,0-1.07,0-2.16.19-3.59-.46Z"/><path class="uuid-67702ae5-397c-4e5a-9d0c-0658e3fa1c65" d="m544.56,422.86v-11.45c1.09-.9,2.12-.64,3.09-.64,56.63-.01,113.27-.01,169.9,0,5.6,0,8.37,2.51,8.14,7.33-.14,2.95-2.21,5-5.18,5.11-.81.03-1.62,0-2.43,0-56.63,0-113.27,0-169.9-.01-1.15,0-2.33.24-3.61-.33Z"/><path class="uuid-67702ae5-397c-4e5a-9d0c-0658e3fa1c65" d="m544.68,392.39c-.59-4.47-.42-8.52-.16-12.35,1.14-.93,2.18-.67,3.14-.67,36.27-.01,72.54,0,108.82-.02,7.78,0,8.82,6.01,6.55,10.03-1.08,1.91-2.69,2.44-4.74,2.44-12.27-.03-24.54-.01-36.81-.01-23.91,0-47.82,0-71.73,0-1.52,0-3.05-.11-5.06.59Z"/><path class="uuid-29cac0f8-6121-440e-8772-0868436e9012" d="m462.23,317.01c1.33.64.85,1.87.85,2.87.04,8.75-.05,17.5.04,26.24.08,7.81-3.49,10.17-10.4,10.38-10.36.33-20.74.09-31.11.09-21.56,0-43.11,0-64.67,0-1.17,0-2.34-.1-3.51-.15,4.17-4.48,9.02-9.19,14.75-11.61,6.05-2.54,12.14,2.34,18.31,2.74,4.97.32,9.93-.85,14.01-3.74,4.38-3.09,6.38-7.56,9.68-11.58,8.27-10.09,16.99,4.57,24.85,7.45,5.95,2.18,11.26-2.91,15.05-6.85,4.63-4.8,8.45-10.3,12.14-15.83Z"/><path class="uuid-bcb85ef9-6d8f-405b-a247-687091a0ef42" d="m462.23,317.01c-3.68,5.54-7.51,11.03-12.14,15.83-3.8,3.94-9.1,9.03-15.05,6.85-7.86-2.88-16.58-17.54-24.85-7.45-3.3,4.02-5.3,8.49-9.68,11.58-4.09,2.89-9.05,4.06-14.01,3.74-6.17-.4-12.26-5.28-18.31-2.74-5.74,2.42-10.58,7.13-14.75,11.61-3.11,2.55-4.37,2.34-5.51-.94.23-.47.46-.94.7-1.41,2.78-2.68,5.57-5.35,8.35-8.03.39-.14.66-.36.59-.82v.02c3.9-2.38,7.88-5.47,12.52-6.14,4.43-.65,8.14,1.54,12.31,2.5,7.72,1.79,15.41.59,19.79-6.69,1.3-1.04,1.92-2.58,2.76-3.94,2.58-4.23,6.17-6.9,11.13-7.6,9.19.9,13.94,9.67,22.24,12.14,5.5-2.04,9.26-6.97,12.69-11.47,2.03-2.67,3.86-5.51,5.93-8.16,1.97-2.53,3.23-2.83,5.46-.41-.06.51-.11,1.01-.17,1.52Z"/><path class="uuid-67702ae5-397c-4e5a-9d0c-0658e3fa1c65" d="m402.45,410.74c-17.07,0-34.14,0-51.2,0-2.38,0-8.38,1.23-8.8-2.15-.47-3.71,4.92-2.73,7.09-2.73,8.5,0,17,0,25.51,0,17,0,34.01,0,51.01,0,8.75,0,17.5,0,26.26,0,2.34,0,7.92-1.08,9.88.49,3.08,2.47-.77,4.32-2.93,4.4-18.88.67-37.91,0-56.8,0Z"/><path class="uuid-67702ae5-397c-4e5a-9d0c-0658e3fa1c65" d="m343.88,377.17c33.75,0,67.5,0,101.24,0,2.48,0,20-2.04,17.84,3.37-.98,2.46-5.69,1.51-7.68,1.51-4.25,0-8.51,0-12.76,0-17.27,0-34.53,0-51.8,0-9.51,0-19.02,0-28.53,0-4.75,0-9.51,0-14.26,0-3.19,0-7.94-.99-4.05-4.89Z"/><path class="uuid-3ee38c28-72f0-43eb-9980-c4f318b58ef9" d="m636.7,241.65c6.3,20.28-2,42.43-20.24,53.58-8.67,5.3-19.39,7.65-29.48,6.48-10.05-1.17-22.14-6.15-28.2-14.63,4.95-4.68,9.9-9.36,14.86-14.05.59.4,1.21.76,1.77,1.2,5.86,4.62,12.28,6.95,19.94,6.13,12.77-1.37,22.92-13.32,22.17-25.01-.16-2.51-.61-4.98-.7-7.49,6.63-2.07,13.26-4.14,19.89-6.21Z"/><path class="uuid-29cac0f8-6121-440e-8772-0868436e9012" d="m547.83,267.51c-1.54-1.75-1.55-4.05-1.73-6.09-.78-9.17-.06-18.17,4.4-26.5,7.93-14.84,20.13-23.45,36.93-25.67,6.9-.91,13.39.29,19.87,2.25.77.23,1.6.37,2.03,1.18-.08,1.37-.83,2.51-1.28,3.76-1.92,5.27-4.61,10.24-5.99,15.72-7.96-3.89-18.67-1.67-25.42,3.6-8.35,6.52-10.39,16.16-8.99,26.26-6.6,1.83-13.21,3.66-19.81,5.49Z"/><path class="uuid-bcb85ef9-6d8f-405b-a247-687091a0ef42" d="m602.05,232.16c1.38-5.47,4.07-10.45,5.99-15.72.45-1.24,1.21-2.38,1.28-3.76,2.08-.14,3.78.93,5.44,1.88,9.08,5.2,15.91,12.5,20.17,22.1.71,1.61,1.19,3.32,1.77,4.99-6.63,2.07-13.26,4.14-19.89,6.21-.29-.32-.7-.6-.85-.98-2.59-6.85-7.37-11.62-13.91-14.72Z"/><path class="uuid-ceaf377c-055b-41a3-a9fe-a3e8f63aa729" d="m547.83,267.51c6.6-1.83,13.21-3.66,19.81-5.49,1.54,3.92,3.88,7.41,6,11.01-4.95,4.68-9.9,9.36-14.86,14.05-2.77-.43-5.53-5.97-6.8-8.14-1.33-2.27-5.46-8.77-4.16-11.43Z"/><path class="uuid-3ee38c28-72f0-43eb-9980-c4f318b58ef9" d="m801.38,241.8c8.52,20.26-4.02,45.24-22.59,54.82-17.47,9.01-42.59,6.58-55.38-9.52,5.02-4.68,10.04-9.36,15.06-14.04,4.94,3.37,9.38,6.58,15.5,7.3,5.28.62,10.68-.44,15.31-3.05,11-6.21,14.3-17.56,12.12-29.43,6.66-2.02,13.32-4.05,19.98-6.07Z"/><path class="uuid-29cac0f8-6121-440e-8772-0868436e9012" d="m712.29,267.91c-12.13-35.35,28.66-70.99,62.13-55.39-1.12,2.72-2.34,5.4-3.34,8.16-1.39,3.84-3.44,7.44-4.36,11.46-9.42-3.53-19.81-1.78-27.19,5.2-6.97,6.59-8.53,15.61-6.96,24.75-6.76,1.94-13.63,3.5-20.28,5.83Z"/><path class="uuid-bcb85ef9-6d8f-405b-a247-687091a0ef42" d="m766.72,232.13c.92-4.02,2.96-7.62,4.36-11.46,1-2.76,2.22-5.44,3.34-8.16,13.73,5.39,22.67,15.21,26.96,29.29-6.66,2.02-13.32,4.05-19.98,6.07-3.06-6.96-7.53-12.6-14.68-15.74Z"/><path class="uuid-ceaf377c-055b-41a3-a9fe-a3e8f63aa729" d="m712.29,267.91c6.65-2.33,13.52-3.88,20.28-5.83,1.33,4,3.73,7.43,5.91,10.97-5.02,4.68-10.04,9.36-15.06,14.04-2.89-1.55-4.29-4.41-5.92-6.99-2.38-3.77-4.44-7.72-5.2-12.2Z"/><path class="uuid-14fa9af1-0372-4016-9de4-e4e15857338b" d="m416.08,323.38c-4.96.7-8.55,3.38-11.13,7.6-.83,1.36-1.45,2.9-2.76,3.94-5.54-.25-9.68-3.41-12.36-8.11-2.2-3.85-4.33-13.87-10.54-12.22-5.41,1.44-10.16,9.63-12.98,14-1.83,2.83-3.49,5.75-5.12,8.7-1.3,2.36-3.62,5.26-3.65,7.96v-.02c-.49.06-.6.4-.58.82-2.78,2.68-5.57,5.35-8.35,8.03-1.59-2.25.79-5.18,1.81-7.22,1.3-2.6,2.6-5.19,3.96-7.76,2.8-5.33,5.8-10.56,9.23-15.51,4.75-6.85,13.3-19.07,22.78-12.16,5.41,3.94,8.39,22.95,17.99,17.05,4.49-2.76,7.78-8.68,10.52-13.02,3.06-4.83,5.79-9.87,8.74-14.77,2.63-4.37,6.26-11.53,11.76-12.76,2.07-.46,4.23.01,5.76,1.53,2.21,2.21,1.58,5.35,2.98,7.91,6.19-10.21,9.32-21.42,13.9-31.81,2.3-.99,3.69-.47,4.42,2.1-3.69,9.82-7.24,19.72-12.06,29.06-1.48,2.86-4.35,9.52-8.73,7.84-4.66-1.79-1.43-8.41-4.1-11.19-3.76-1.91-9.17,9.34-10.61,11.79-3.57,6.11-7.25,12.15-10.89,18.22Z"/><path class="uuid-29cac0f8-6121-440e-8772-0868436e9012" d="m357.55,345.25c.04-2.71,2.35-5.61,3.65-7.96,1.62-2.95,3.29-5.87,5.12-8.7,2.82-4.36,7.57-12.56,12.98-14,6.21-1.65,8.34,8.37,10.54,12.22,2.68,4.7,6.82,7.86,12.36,8.11-4.38,7.28-12.08,8.47-19.79,6.69-4.18-.97-7.89-3.15-12.31-2.5-4.64.68-8.63,3.77-12.54,6.14Z"/><path class="uuid-e0ddd91a-3c08-4e65-9a97-b533908744a4" d="m356.97,346.06c-.02-.43.09-.77.59-.82.07.47-.2.69-.59.82Z"/></g></svg>