<?xml version="1.0" encoding="UTF-8"?><svg id="uuid-700b2762-888f-41de-b64b-9dedc8c2475c" xmlns="http://www.w3.org/2000/svg" viewBox="0 0 600 800"><defs><style>.uuid-07185901-8f05-449e-b070-9db5c54ac135{opacity:.2;}.uuid-07185901-8f05-449e-b070-9db5c54ac135,.uuid-39209c43-cc4a-4fcd-a400-0a0dd88298e3,.uuid-2b4832e2-cc6b-4a94-9a9f-858124927a8c{stroke-width:0px;}.uuid-07185901-8f05-449e-b070-9db5c54ac135,.uuid-2b4832e2-cc6b-4a94-9a9f-858124927a8c{fill:#fff;}.uuid-662e2baf-89aa-4418-8d72-c0926b1d3029{fill:none;stroke:#fff;stroke-miterlimit:10;stroke-width:.75px;}.uuid-39209c43-cc4a-4fcd-a400-0a0dd88298e3{fill:#3bbfad;}</style></defs><g id="uuid-d5bcc88a-0865-43dc-9cac-a4661621aa2c"><rect class="uuid-39209c43-cc4a-4fcd-a400-0a0dd88298e3" width="600" height="800"/><path class="uuid-2b4832e2-cc6b-4a94-9a9f-858124927a8c" d="m292.71,181.73h-59.39c-13.63,0-23.18-9.66-18.75-18.94l28.78-60.11c5.83-12.23,21.82-20.45,39.77-20.45l70.14-5.11c-1.36,5.24-3.57,10.22-6.55,14.73-4.09,5.15-12.69,7.95-20.26,7.95l-35.9-1.67c-12.95,0-24.47,5.95-28.67,14.77l-22.31,46.55c-1.48,3.11,1.7,6.32,6.25,6.32l53.97-2.01-7.08,17.95Z"/><path class="uuid-07185901-8f05-449e-b070-9db5c54ac135" d="m386.52,120.18l-14.01-.98c-12.39-.53-21.88,3.65-26.7,13.67-2.25-6.46-8.38-11.11-15.61-11.1l-46.09-1.86-14.54,25.53,46.85-1.59c.67,0,1.33.1,1.95.32,2.96,1.05,4.51,4.29,3.46,7.25l-18.94,59.54,17.16,27.5,14.19-52.11c8.36-27.9,27.05-51.57,52.28-66.17Z"/><path class="uuid-07185901-8f05-449e-b070-9db5c54ac135" d="m292.71,423.94h-59.39c-13.63,0-23.18-9.66-18.75-18.94l28.78-60.11c5.83-12.23,21.82-20.45,39.77-20.45l70.14-5.11c-1.36,5.24-3.57,10.22-6.55,14.73-4.09,5.15-12.69,7.95-20.26,7.95l-35.9-1.67c-12.95,0-24.47,5.95-28.67,14.77l-22.31,46.55c-1.48,3.11,1.7,6.32,6.25,6.32l53.97-2.01-7.08,17.95Z"/><path class="uuid-2b4832e2-cc6b-4a94-9a9f-858124927a8c" d="m386.52,362.39l-14.01-.98c-12.39-.53-21.88,3.65-26.7,13.67-2.25-6.46-8.38-11.11-15.61-11.1l-46.09-1.86-14.54,25.53,46.85-1.59c.67,0,1.33.1,1.95.32,2.96,1.05,4.51,4.29,3.46,7.25l-18.94,59.54,17.16,27.5,14.19-52.11c8.36-27.9,27.05-51.57,52.28-66.17Z"/><path class="uuid-2b4832e2-cc6b-4a94-9a9f-858124927a8c" d="m292.71,666.15h-59.39c-13.63,0-23.18-9.66-18.75-18.94l28.78-60.11c5.83-12.23,21.82-20.45,39.77-20.45l70.14-5.11c-1.36,5.24-3.57,10.22-6.55,14.73-4.09,5.15-12.69,7.95-20.26,7.95l-35.9-1.67c-12.95,0-24.47,5.95-28.67,14.77l-22.31,46.55c-1.48,3.11,1.7,6.32,6.25,6.32l53.97-2.01-7.08,17.95Z"/><path class="uuid-2b4832e2-cc6b-4a94-9a9f-858124927a8c" d="m386.52,604.6l-14.01-.98c-12.39-.53-21.88,3.65-26.7,13.67-2.25-6.46-8.38-11.11-15.61-11.1l-46.09-1.86-14.54,25.53,46.85-1.59c.67,0,1.33.1,1.95.32,2.96,1.05,4.51,4.29,3.46,7.25l-18.94,59.54,17.16,27.5,14.19-52.11c8.36-27.9,27.05-51.57,52.28-66.17Z"/><line class="uuid-662e2baf-89aa-4418-8d72-c0926b1d3029" x1="202.89" y1="128.27" x2="150.03" y2="128.27"/><path class="uuid-2b4832e2-cc6b-4a94-9a9f-858124927a8c" d="m59.39,133.47c.89-.2,2.12-.48,3.67-.84,1.55-.36,2.6-.62,3.15-.78l.12,1.96c-.41.07-1.37.28-2.88.63-1.51.35-2.73.64-3.66.87l-.4-1.84Zm.54-7.4l-.4-1.74c.28-.16.54-.38.78-.66.28-.32.73-1.1,1.35-2.34.62-1.24,1.16-2.41,1.63-3.5l1.58.76-.62,1.28c-.17.35-.53,1.06-1.06,2.13-.53,1.07-.95,1.84-1.24,2.31l2.1-.52c.63-1.09,1.11-2.01,1.46-2.74l1.54.84c-.69,1.35-1.45,2.75-2.28,4.21-.83,1.46-1.46,2.48-1.9,3.07,1.41-.4,2.47-.71,3.18-.92l.04,1.8-4.58,1.06-1.14.26-.5-1.84c.29-.11.53-.22.71-.33s.34-.28.49-.49c.39-.52,1.07-1.6,2.04-3.24-.48.08-1.2.21-2.16.4l-1.02.2Zm12.6-8.02c.6,1.31,1.35,2.5,2.24,3.58.89,1.08,1.98,2.11,3.26,3.08l-.92,1.64c-.75-.57-1.43-1.18-2.06-1.82v1.5h-6.48v-1.4c-.49.53-1.07,1.07-1.72,1.62l-1.12-1.48c2.33-1.89,4.09-4.13,5.26-6.72h1.54Zm-3.4,18.14h-1.7v-8h8.74v8.02h-1.68v-.96h-5.36v.94Zm5.74-11.84c-1.29-1.33-2.33-2.73-3.1-4.2-.75,1.49-1.73,2.89-2.94,4.2h6.04Zm-.38,9.24v-3.72h-5.36v3.72h5.36Z"/><path class="uuid-2b4832e2-cc6b-4a94-9a9f-858124927a8c" d="m96.81,125.31v1.84l-2.98,4.24-1.64-1.06c.16-.17.66-.81,1.5-1.9l1-1.28h-5.44v6.44c0,.67-.08,1.18-.23,1.54-.15.36-.41.62-.78.78-.37.16-.89.24-1.57.24-.97,0-1.8-.03-2.48-.1l-.36-1.8c.91.12,1.68.18,2.32.18.48,0,.8-.11.97-.33.17-.22.25-.62.25-1.21v-5.74h-7.8v-1.84h7.9c-.64-.53-1.33-1.08-2.08-1.65-.75-.57-1.35-1-1.8-1.31l1.12-1.38c.57.37,1.74,1.25,3.5,2.64,1.89-1.23,3.29-2.21,4.2-2.96h-11.36v-1.76h14.44v1.76c-1.31,1-3.25,2.37-5.82,4.12l.68.54h6.46Z"/><path class="uuid-2b4832e2-cc6b-4a94-9a9f-858124927a8c" d="m105.15,120.85l-1.4,4.68c.52.84.9,1.64,1.13,2.39.23.75.35,1.53.35,2.33,0,1.13-.19,1.94-.56,2.41s-.98.71-1.82.71c-.35,0-.69-.04-1.04-.12l-.38-1.78c.48.11.86.16,1.14.16.39,0,.66-.15.82-.44.16-.29.24-.75.24-1.38,0-1.2-.52-2.51-1.56-3.94l1.4-5.04h-2.24v15.44h-1.7v-17.22h5.62v1.8Zm11.72,4.54v1.74h-11.4v-1.74h2.62c-.28-1.44-.41-2.1-.38-1.98l-.26-1.38h-1.38v-1.74h4.3c-.27-.91-.48-1.57-.64-1.98l1.78-.28c.29.87.52,1.62.68,2.26h3.98v1.74h-1.46c-.17,1.01-.39,2.13-.64,3.36h2.8Zm-8.34,10.9h-1.76v-7.46h8.68v7.46h-1.76v-.96h-5.16v.96Zm5.16-2.64v-3.14h-5.16v3.14h5.16Zm-4.48-11.62c.28,1.45.49,2.57.62,3.36h2.56c.29-1.37.51-2.49.64-3.36h-3.82Z"/><path class="uuid-2b4832e2-cc6b-4a94-9a9f-858124927a8c" d="m124.09,118.73c-.53,1.64-1.08,3.04-1.64,4.2v13.38h-1.84v-10.04c-.6.93-1.26,1.85-1.98,2.74l-.96-1.94c.93-1.16,1.79-2.5,2.56-4.01.77-1.51,1.44-3.12,2-4.83l1.86.5Zm6.84,11.04h5.44v1.78h-5.44v4.86h-1.88v-4.86h-5.54v-1.78h5.54v-2.52h-4.54v-1.76h4.54v-7.52h1.88v7.52h4.66v1.76h-4.66v2.52Zm-4.42-5.26c-.28-.6-.66-1.35-1.13-2.24-.47-.89-.88-1.62-1.21-2.18l1.58-.82c.33.53.73,1.24,1.2,2.13.47.89.85,1.66,1.16,2.33l-1.6.78Zm9.34-4.52c-.24.56-.61,1.32-1.1,2.27s-.91,1.73-1.26,2.33l-1.64-.8c.4-.67.84-1.45,1.31-2.36.47-.91.83-1.65,1.07-2.22l1.62.78Z"/><path class="uuid-2b4832e2-cc6b-4a94-9a9f-858124927a8c" d="m49.67,151.15l1.01.59c-.29.66-.74,1.18-1.34,1.55-.61.37-1.31.56-2.1.56-.87,0-1.66-.22-2.37-.67-.71-.45-1.27-1.07-1.68-1.88-.41-.8-.62-1.72-.62-2.74s.21-1.94.62-2.74c.41-.8.97-1.43,1.68-1.87.71-.44,1.5-.67,2.37-.67.79,0,1.49.19,2.1.56.61.37,1.05.89,1.34,1.55l-1.01.59c-.52-1.04-1.34-1.55-2.46-1.55-.65,0-1.23.17-1.74.52s-.89.83-1.17,1.46c-.28.63-.41,1.34-.41,2.16s.14,1.53.41,2.16.67,1.12,1.17,1.46c.5.35,1.08.52,1.74.52,1.12,0,1.94-.52,2.46-1.55Z"/><path class="uuid-2b4832e2-cc6b-4a94-9a9f-858124927a8c" d="m51.78,148.09c.32-.58.75-1.03,1.28-1.35.53-.32,1.11-.48,1.72-.48s1.19.16,1.72.48.96.77,1.27,1.34.48,1.24.48,1.97-.16,1.39-.48,1.97c-.32.57-.74,1.02-1.27,1.34-.53.32-1.11.48-1.72.48s-1.19-.16-1.73-.48c-.54-.32-.96-.77-1.28-1.34-.32-.57-.48-1.23-.48-1.97s.16-1.38.48-1.96Zm1.07,3.39c.2.4.46.71.8.92.34.21.71.32,1.13.32s.8-.11,1.13-.32c.34-.21.6-.52.79-.92.19-.4.29-.88.29-1.43s-.1-1.03-.29-1.43c-.19-.4-.46-.71-.79-.92-.34-.21-.71-.32-1.13-.32s-.8.11-1.13.32c-.34.21-.6.52-.8.92s-.29.88-.29,1.43.1,1.03.29,1.43Z"/><path class="uuid-2b4832e2-cc6b-4a94-9a9f-858124927a8c" d="m68.91,147.01c.43.5.64,1.22.64,2.15v4.54h-1.18v-4.14c0-.7-.12-1.23-.36-1.6-.24-.37-.6-.55-1.08-.55s-.9.19-1.24.56c-.34.37-.51.91-.51,1.61v4.13h-1.18v-4.14c0-.69-.12-1.22-.36-1.6-.24-.37-.6-.56-1.06-.56s-.9.19-1.24.57c-.34.38-.51.91-.51,1.6v4.13h-1.19v-7.27h1.05c0,.32.03.69.07,1.11.24-.42.55-.74.92-.95.37-.21.77-.32,1.21-.32.49,0,.91.13,1.28.39.37.26.64.64.8,1.14.23-.51.55-.9.95-1.15.4-.25.83-.38,1.31-.38.69,0,1.25.25,1.68.75Z"/><path class="uuid-2b4832e2-cc6b-4a94-9a9f-858124927a8c" d="m76.38,146.72c.49.3.88.74,1.18,1.32.3.57.45,1.25.45,2.02s-.15,1.46-.45,2.04c-.3.57-.69,1.01-1.18,1.31-.49.3-1.01.45-1.56.45-.47,0-.91-.11-1.34-.33-.42-.22-.77-.54-1.04-.97v4.4h-1.19v-10.51h1.05c.02.47.05.88.08,1.23.26-.47.61-.82,1.04-1.05.43-.23.9-.35,1.39-.35.55,0,1.07.15,1.56.46Zm-.19,5.31c.38-.47.57-1.12.57-1.97s-.19-1.51-.57-1.97-.89-.7-1.53-.7c-.38,0-.74.09-1.08.27s-.61.47-.83.87c-.21.4-.32.92-.32,1.54s.11,1.14.32,1.54c.21.4.49.69.83.87s.7.27,1.08.27c.63,0,1.14-.23,1.53-.7Z"/><path class="uuid-2b4832e2-cc6b-4a94-9a9f-858124927a8c" d="m84.05,147.01c.52.5.78,1.21.78,2.14v4.55h-1.05c-.03-.48-.05-.78-.06-.92-.22.35-.53.62-.9.8-.38.18-.81.27-1.29.27s-.9-.09-1.31-.26c-.41-.17-.73-.43-.97-.77-.24-.34-.36-.75-.36-1.23,0-.72.29-1.29.88-1.7.58-.42,1.34-.62,2.26-.62.52,0,1.06.07,1.62.21v-.13c0-.68-.14-1.19-.41-1.52-.28-.33-.69-.5-1.25-.5-.45,0-.82.09-1.12.28-.3.19-.55.46-.76.83l-.91-.52c.22-.5.59-.91,1.1-1.21s1.09-.46,1.74-.46c.82,0,1.49.25,2.02.75Zm-.41,3.46c-.59-.15-1.12-.22-1.61-.22-.61,0-1.08.12-1.41.35-.33.23-.5.56-.5.98,0,.39.14.7.42.92.28.22.64.33,1.09.33.55,0,1.02-.16,1.41-.48.39-.32.59-.77.59-1.34v-.53Z"/><path class="uuid-2b4832e2-cc6b-4a94-9a9f-858124927a8c" d="m91.91,147.03c.47.51.7,1.24.7,2.18v4.48h-1.19v-4.14c0-.69-.14-1.22-.41-1.6-.28-.37-.68-.56-1.22-.56-.36,0-.69.08-1,.24-.31.16-.57.41-.76.73-.2.32-.29.72-.29,1.2v4.13h-1.19v-7.27h1.05c.02.47.05.87.08,1.2.24-.45.57-.79.99-1.02.42-.23.88-.35,1.39-.35.77,0,1.4.26,1.86.77Z"/><path class="uuid-2b4832e2-cc6b-4a94-9a9f-858124927a8c" d="m94.35,144.88c-.15-.16-.23-.35-.23-.57s.08-.4.23-.57c.15-.16.34-.25.55-.25s.41.08.57.24.23.35.23.57-.08.4-.24.57c-.16.16-.35.25-.56.25s-.4-.08-.55-.25Zm1.14,8.81h-1.19v-7.27h1.19v7.27Z"/><path class="uuid-2b4832e2-cc6b-4a94-9a9f-858124927a8c" d="m97.39,148.09c.32-.58.75-1.03,1.28-1.35.53-.32,1.11-.48,1.72-.48s1.19.16,1.72.48.96.77,1.27,1.34.48,1.24.48,1.97-.16,1.39-.48,1.97c-.32.57-.74,1.02-1.27,1.34-.53.32-1.11.48-1.72.48s-1.19-.16-1.73-.48c-.54-.32-.96-.77-1.28-1.34-.32-.57-.48-1.23-.48-1.97s.16-1.38.48-1.96Zm1.07,3.39c.2.4.46.71.8.92.34.21.71.32,1.13.32s.8-.11,1.13-.32c.34-.21.6-.52.79-.92.19-.4.29-.88.29-1.43s-.1-1.03-.29-1.43c-.19-.4-.46-.71-.79-.92-.34-.21-.71-.32-1.13-.32s-.8.11-1.13.32c-.34.21-.6.52-.8.92s-.29.88-.29,1.43.1,1.03.29,1.43Z"/><path class="uuid-2b4832e2-cc6b-4a94-9a9f-858124927a8c" d="m110.63,147.03c.47.51.7,1.24.7,2.18v4.48h-1.19v-4.14c0-.69-.14-1.22-.41-1.6-.28-.37-.68-.56-1.22-.56-.36,0-.69.08-1,.24-.31.16-.57.41-.76.73-.2.32-.29.72-.29,1.2v4.13h-1.19v-7.27h1.05c.02.47.05.87.08,1.2.24-.45.57-.79.99-1.02.42-.23.88-.35,1.39-.35.77,0,1.4.26,1.86.77Z"/><path class="uuid-2b4832e2-cc6b-4a94-9a9f-858124927a8c" d="m117.58,152.78c-.23.34-.55.6-.96.78-.41.19-.88.28-1.41.28-.71,0-1.32-.16-1.83-.48-.51-.32-.85-.75-1.01-1.3l.91-.52c.34.81.99,1.22,1.93,1.22.46,0,.82-.09,1.08-.28.26-.19.39-.44.39-.77,0-.25-.08-.46-.23-.62s-.35-.28-.57-.37-.55-.19-.96-.31c-.49-.14-.9-.28-1.2-.41-.31-.13-.57-.32-.78-.58-.21-.26-.32-.59-.32-1.01s.12-.82.36-1.15c.24-.33.56-.58.97-.75.41-.17.85-.26,1.34-.26.63,0,1.18.14,1.64.42.46.28.76.66.92,1.15l-.91.52c-.15-.32-.37-.56-.67-.73-.29-.17-.64-.26-1.04-.26s-.74.08-.99.24c-.25.16-.37.4-.37.71,0,.22.07.41.22.55.14.14.32.25.54.34s.52.18.91.29c.51.14.93.28,1.25.41.32.14.59.34.82.62.23.28.34.65.34,1.11s-.11.83-.34,1.16Z"/><path class="uuid-2b4832e2-cc6b-4a94-9a9f-858124927a8c" d="m124.4,147.03c.48.51.71,1.24.71,2.18v4.48h-1.19v-4.14c0-.69-.14-1.22-.41-1.6-.28-.37-.68-.56-1.22-.56-.36,0-.69.08-1,.24-.31.16-.57.41-.76.73-.2.32-.29.72-.29,1.2v4.13h-1.19v-10.65h1.19v4.48c.25-.41.58-.72.98-.94s.85-.32,1.34-.32c.76,0,1.37.26,1.85.77Z"/><path class="uuid-2b4832e2-cc6b-4a94-9a9f-858124927a8c" d="m126.86,144.88c-.15-.16-.23-.35-.23-.57s.08-.4.23-.57c.15-.16.34-.25.55-.25s.41.08.57.24.23.35.23.57-.08.4-.24.57c-.16.16-.35.25-.56.25s-.4-.08-.55-.25Zm1.14,8.81h-1.19v-7.27h1.19v7.27Z"/><path class="uuid-2b4832e2-cc6b-4a94-9a9f-858124927a8c" d="m134.96,146.72c.49.3.88.74,1.18,1.32.3.57.45,1.25.45,2.02s-.15,1.46-.45,2.04c-.3.57-.69,1.01-1.18,1.31-.49.3-1.01.45-1.56.45-.47,0-.91-.11-1.34-.33-.42-.22-.77-.54-1.04-.97v4.4h-1.19v-10.51h1.05c.02.47.05.88.08,1.23.26-.47.61-.82,1.04-1.05.43-.23.9-.35,1.39-.35.55,0,1.07.15,1.56.46Zm-.19,5.31c.38-.47.57-1.12.57-1.97s-.19-1.51-.57-1.97-.89-.7-1.53-.7c-.38,0-.74.09-1.08.27s-.61.47-.83.87c-.21.4-.32.92-.32,1.54s.11,1.14.32,1.54c.21.4.49.69.83.87s.7.27,1.08.27c.63,0,1.14-.23,1.53-.7Z"/><line class="uuid-662e2baf-89aa-4418-8d72-c0926b1d3029" x1="440.53" y1="395.69" x2="387.67" y2="395.69"/><path class="uuid-2b4832e2-cc6b-4a94-9a9f-858124927a8c" d="m454.55,400.89c.89-.2,2.12-.48,3.67-.84,1.55-.36,2.6-.62,3.15-.78l.12,1.96c-.41.07-1.37.28-2.88.63-1.51.35-2.73.64-3.66.87l-.4-1.84Zm.54-7.4l-.4-1.74c.28-.16.54-.38.78-.66.28-.32.73-1.1,1.35-2.34.62-1.24,1.16-2.41,1.63-3.5l1.58.76-.62,1.28c-.17.35-.53,1.06-1.06,2.13-.53,1.07-.95,1.84-1.24,2.31l2.1-.52c.63-1.09,1.11-2.01,1.46-2.74l1.54.84c-.69,1.35-1.45,2.75-2.28,4.21-.83,1.46-1.46,2.48-1.9,3.07,1.41-.4,2.47-.71,3.18-.92l.04,1.8-4.58,1.06-1.14.26-.5-1.84c.29-.11.53-.22.71-.33s.34-.28.49-.49c.39-.52,1.07-1.6,2.04-3.24-.48.08-1.2.21-2.16.4l-1.02.2Zm12.6-8.02c.6,1.31,1.35,2.5,2.24,3.58.89,1.08,1.98,2.11,3.26,3.08l-.92,1.64c-.75-.57-1.43-1.18-2.06-1.82v1.5h-6.48v-1.4c-.49.53-1.07,1.07-1.72,1.62l-1.12-1.48c2.33-1.89,4.09-4.13,5.26-6.72h1.54Zm-3.4,18.14h-1.7v-8h8.74v8.02h-1.68v-.96h-5.36v.94Zm5.74-11.84c-1.29-1.33-2.33-2.73-3.1-4.2-.75,1.49-1.73,2.89-2.94,4.2h6.04Zm-.38,9.24v-3.72h-5.36v3.72h5.36Z"/><path class="uuid-2b4832e2-cc6b-4a94-9a9f-858124927a8c" d="m491.97,392.73v1.84l-2.98,4.24-1.64-1.06c.16-.17.66-.81,1.5-1.9l1-1.28h-5.44v6.44c0,.67-.08,1.18-.23,1.54s-.41.62-.78.78c-.37.16-.89.24-1.57.24-.97,0-1.8-.03-2.48-.1l-.36-1.8c.91.12,1.68.18,2.32.18.48,0,.8-.11.97-.33.17-.22.25-.62.25-1.21v-5.74h-7.8v-1.84h7.9c-.64-.53-1.33-1.08-2.08-1.65-.75-.57-1.35-1-1.8-1.31l1.12-1.38c.57.37,1.74,1.25,3.5,2.64,1.89-1.23,3.29-2.21,4.2-2.96h-11.36v-1.76h14.44v1.76c-1.31,1-3.25,2.37-5.82,4.12l.68.54h6.46Z"/><path class="uuid-2b4832e2-cc6b-4a94-9a9f-858124927a8c" d="m512.25,398.43c-.2,1.07-.39,1.94-.56,2.62-.21.97-.52,1.65-.92,2.02-.4.37-.89.56-1.48.56-.52,0-.98-.18-1.39-.53-.41-.35-.9-.97-1.47-1.85-.19-.29-.37-.64-.56-1.04-1.16,1.24-2.49,2.4-3.98,3.48l-1.24-1.42c1.81-1.27,3.31-2.57,4.5-3.92-.65-1.99-1.15-4.67-1.5-8.04h-6.34v2.64h5.12c-.01.95-.05,1.83-.11,2.64-.06.81-.15,1.83-.27,3.04-.09.95-.34,1.62-.73,2.01-.39.39-1.07.6-2.03.61-.35,0-.84-.03-1.48-.08l-.38-1.78c.6.07,1.13.1,1.58.1s.76-.1.91-.29.27-.55.35-1.07c.08-.69.14-1.29.18-1.78s.06-1.05.06-1.66h-3.2c-.03,2.03-.2,3.71-.52,5.04-.32,1.33-.86,2.7-1.62,4.1l-1.82-.86c.57-.95,1.01-1.82,1.31-2.61.3-.79.51-1.69.64-2.7s.19-2.28.19-3.83v-5.32h8l-.22-3.08h1.84l.04.56c.03.28.05.62.08,1.03.03.41.07.9.12,1.49h3.32c-.81-.85-1.54-1.57-2.18-2.16l1.24-1.2c.68.63,1.5,1.43,2.46,2.42l-1,.94h2.52v1.8h-6.2c.24,2.55.57,4.65,1,6.3,1.05-1.49,1.91-3.22,2.56-5.18l1.66.68c-.88,2.49-2.07,4.69-3.56,6.58.31.75.63,1.39.98,1.94.25.36.47.61.64.75s.35.21.52.21c.2,0,.37-.09.51-.28.14-.19.27-.57.39-1.14.12-.51.27-1.27.44-2.3l1.6.56Z"/><path class="uuid-2b4832e2-cc6b-4a94-9a9f-858124927a8c" d="m523.39,394.91c.77,1.55,1.78,2.81,3.03,3.79s2.95,1.86,5.11,2.65l-.98,1.86c-2.35-.91-4.24-2.01-5.68-3.3-1.44-1.29-2.63-2.96-3.56-5h-3v6.34l4.86-1.88.06,2.04c-2.32.8-4,1.41-5.04,1.84-.71.29-1.23.53-1.56.72l-.94-2c.25-.15.44-.29.56-.44.12-.15.18-.32.18-.52v-6.1h-3.02v-1.84h3.02v-7.48h1.88v7.48h12.98v1.84h-7.9Zm6.2-7.2c-1.33.81-2.85,1.61-4.55,2.4-1.7.79-3.33,1.45-4.89,2l-.72-1.78c1.51-.51,3.08-1.16,4.72-1.95,1.64-.79,3.14-1.61,4.5-2.45l.94,1.78Z"/><path class="uuid-2b4832e2-cc6b-4a94-9a9f-858124927a8c" d="m459.64,416.87v-1.12h3.42v3.99c-.3.44-.76.8-1.39,1.09s-1.33.43-2.11.43c-.94,0-1.79-.22-2.54-.67-.75-.44-1.34-1.07-1.76-1.88-.42-.81-.64-1.73-.64-2.76s.21-1.94.64-2.74c.42-.8,1.01-1.42,1.75-1.86s1.57-.67,2.47-.67c.8,0,1.52.17,2.15.52.63.35,1.09.83,1.38,1.44l-1.01.59c-.22-.42-.56-.76-1.01-1.01-.45-.26-.97-.39-1.57-.39-.68,0-1.29.17-1.81.52-.53.34-.94.83-1.23,1.45-.29.62-.44,1.34-.44,2.15s.15,1.55.46,2.18c.31.63.74,1.12,1.3,1.46.56.35,1.21.52,1.95.52.95,0,1.68-.26,2.17-.78v-2.46h-2.17Z"/><path class="uuid-2b4832e2-cc6b-4a94-9a9f-858124927a8c" d="m468.12,413.77c.19.06.35.14.47.23l-.43.97c-.19-.11-.41-.17-.67-.17-.54,0-.99.22-1.33.67-.35.44-.52,1.09-.52,1.94v3.71h-1.19v-7.27h1.05c.02.47.05.86.08,1.19.41-.91,1.05-1.36,1.92-1.36.22,0,.43.03.62.09Z"/><path class="uuid-2b4832e2-cc6b-4a94-9a9f-858124927a8c" d="m468.94,415.51c.32-.58.75-1.03,1.28-1.35s1.11-.48,1.72-.48,1.19.16,1.72.48.96.77,1.27,1.34c.32.58.48,1.24.48,1.97s-.16,1.39-.48,1.97c-.32.57-.74,1.02-1.27,1.34s-1.11.48-1.72.48-1.19-.16-1.73-.48c-.54-.32-.96-.77-1.28-1.34-.32-.57-.48-1.23-.48-1.97s.16-1.38.48-1.96Zm1.07,3.39c.2.4.46.71.8.92s.71.32,1.13.32.8-.11,1.13-.32.6-.52.79-.92c.19-.4.29-.88.29-1.43s-.1-1.03-.29-1.43c-.19-.4-.46-.71-.79-.92s-.71-.32-1.13-.32-.8.11-1.13.32-.6.52-.8.92-.29.88-.29,1.43.1,1.03.29,1.43Z"/><path class="uuid-2b4832e2-cc6b-4a94-9a9f-858124927a8c" d="m481.45,413.85l1.9,5.46,1.78-5.46h1.12l-2.58,7.27h-.78l-1.93-5.32-1.85,5.32h-.81l-2.67-7.27h1.25l1.9,5.46,1.75-5.46h.92Z"/><path class="uuid-2b4832e2-cc6b-4a94-9a9f-858124927a8c" d="m491.07,420.88c-.38.26-.87.39-1.47.39-1.46,0-2.2-.83-2.2-2.51v-3.89h-1.2v-1.04h1.2v-2.03h1.19v2.03h2.11v1.04h-2.11v3.75c0,1.02.38,1.53,1.15,1.53.34,0,.65-.08.94-.25l.39.98Z"/><path class="uuid-2b4832e2-cc6b-4a94-9a9f-858124927a8c" d="m497.29,414.45c.48.51.71,1.24.71,2.18v4.48h-1.19v-4.14c0-.69-.14-1.22-.41-1.6s-.68-.56-1.22-.56c-.36,0-.69.08-1,.24-.31.16-.57.41-.76.73-.2.32-.29.72-.29,1.2v4.13h-1.19v-10.65h1.19v4.48c.25-.41.58-.72.98-.94s.85-.32,1.34-.32c.76,0,1.37.26,1.85.77Z"/><line class="uuid-662e2baf-89aa-4418-8d72-c0926b1d3029" x1="202.89" y1="620.65" x2="150.03" y2="620.65"/><path class="uuid-2b4832e2-cc6b-4a94-9a9f-858124927a8c" d="m98.39,625.85c.89-.2,2.12-.48,3.67-.84,1.55-.36,2.6-.62,3.15-.78l.12,1.96c-.41.07-1.37.28-2.88.63-1.51.35-2.73.64-3.66.87l-.4-1.84Zm.54-7.4l-.4-1.74c.28-.16.54-.38.78-.66.28-.32.73-1.1,1.35-2.34s1.16-2.41,1.63-3.5l1.58.76-.62,1.28c-.17.35-.53,1.06-1.06,2.13-.53,1.07-.95,1.84-1.24,2.31l2.1-.52c.63-1.09,1.11-2.01,1.46-2.74l1.54.84c-.69,1.35-1.45,2.75-2.28,4.21-.83,1.46-1.46,2.48-1.9,3.07,1.41-.4,2.47-.71,3.18-.92l.04,1.8-4.58,1.06-1.14.26-.5-1.84c.29-.11.53-.22.71-.33s.34-.28.49-.49c.39-.52,1.07-1.6,2.04-3.24-.48.08-1.2.21-2.16.4l-1.02.2Zm12.6-8.02c.6,1.31,1.35,2.5,2.24,3.58.89,1.08,1.98,2.11,3.26,3.08l-.92,1.64c-.75-.57-1.43-1.18-2.06-1.82v1.5h-6.48v-1.4c-.49.53-1.07,1.07-1.72,1.62l-1.12-1.48c2.33-1.89,4.09-4.13,5.26-6.72h1.54Zm-3.4,18.14h-1.7v-8h8.74v8.02h-1.68v-.96h-5.36v.94Zm5.74-11.84c-1.29-1.33-2.33-2.73-3.1-4.2-.75,1.49-1.73,2.89-2.94,4.2h6.04Zm-.38,9.24v-3.72h-5.36v3.72h5.36Z"/><path class="uuid-2b4832e2-cc6b-4a94-9a9f-858124927a8c" d="m135.81,617.69v1.84l-2.98,4.24-1.64-1.06c.16-.17.66-.81,1.5-1.9l1-1.28h-5.44v6.44c0,.67-.08,1.18-.23,1.54s-.41.62-.78.78c-.37.16-.89.24-1.57.24-.97,0-1.8-.03-2.48-.1l-.36-1.8c.91.12,1.68.18,2.32.18.48,0,.8-.11.97-.33.17-.22.25-.62.25-1.21v-5.74h-7.8v-1.84h7.9c-.64-.53-1.33-1.08-2.08-1.65-.75-.57-1.35-1-1.8-1.31l1.12-1.38c.57.37,1.74,1.25,3.5,2.64,1.89-1.23,3.29-2.21,4.2-2.96h-11.36v-1.76h14.44v1.76c-1.31,1-3.25,2.37-5.82,4.12l.68.54h6.46Z"/><path class="uuid-2b4832e2-cc6b-4a94-9a9f-858124927a8c" d="m64.19,637.37c-.33,1.35-.75,2.66-1.26,3.94h3.38v9.66h-5.04v-6.32c-.35.6-.71,1.17-1.08,1.72l-.86-1.94c.67-.91,1.27-1.99,1.82-3.25.55-1.26.95-2.53,1.22-3.81h-2.4v-1.7h7.08v1.7h-2.86Zm-1.28,11.9h1.8v-6.22h-1.8v6.22Zm13.92,3.44c-1.33-1.25-2.73-2.51-4.2-3.76-.41.71-1.01,1.36-1.79,1.96-.78.6-1.81,1.21-3.09,1.82l-1.04-1.58c1.49-.64,2.6-1.24,3.31-1.81.71-.57,1.19-1.19,1.42-1.88.23-.69.35-1.6.35-2.75v-2.82h1.72v3.16c0,.88-.07,1.63-.22,2.26.8.64,1.62,1.32,2.47,2.03s1.59,1.35,2.23,1.91l-1.16,1.46Zm-5.54-13.4c.16-.69.31-1.4.44-2.12h-4.02v-1.72h10v1.72h-4.1l-.44,2.12h3.94v8.88h-1.72v-7.3h-5.54v7.3h-1.72v-8.88h3.16Z"/><path class="uuid-2b4832e2-cc6b-4a94-9a9f-858124927a8c" d="m91.01,646.67c.88.79,1.83,1.48,2.86,2.08,1.03.6,2.23,1.17,3.6,1.72l-.84,1.76c-1.59-.73-2.99-1.53-4.2-2.4-1.21-.87-2.29-1.85-3.24-2.94v5.86h-1.82v-5.82c-.95,1.09-2.05,2.1-3.32,3.01-1.27.91-2.66,1.69-4.18,2.33l-.78-1.76c2.48-.91,4.63-2.19,6.44-3.84h-5.84v-1.64h7.68v-1.56h-6.1v-8.12h14v8.12h-6.08v1.56h7.66v1.64h-5.84Zm-3.64-8v-1.68h-4.28v1.68h4.28Zm-4.28,1.48v1.7h4.28v-1.7h-4.28Zm6.1-1.48h4.26v-1.68h-4.26v1.68Zm0,1.48v1.7h4.26v-1.7h-4.26Z"/><path class="uuid-2b4832e2-cc6b-4a94-9a9f-858124927a8c" d="m104.81,649.71c-1.59,1.01-3.45,1.96-5.58,2.84l-.72-1.62c.89-.32,1.85-.73,2.88-1.23,1.03-.5,1.87-.98,2.54-1.43l.88,1.44Zm5.44-1.82l-1.44.04v2.48c0,.59-.07,1.04-.22,1.35s-.39.54-.72.67c-.33.13-.81.2-1.44.2s-1.23-.04-1.86-.12l-.38-1.74c.67.12,1.21.18,1.64.18s.74-.09.89-.27.23-.48.23-.89v-1.8c-2.25.07-3.9.13-4.94.2-.55.03-1.23.07-2.04.14l-.22-1.52c.47,0,.85,0,1.14-.03.29-.02.59-.06.88-.13,1.32-.31,2.91-.89,4.78-1.76-1.65.03-3.05.07-4.2.12l-1.48.12-.24-1.28c.76-.07,1.29-.16,1.6-.28.64-.31,1.53-.81,2.66-1.52h-4.42v-6.9h14.54v6.9h-7.42c-1.28.83-2.19,1.38-2.72,1.66l4.24-.16c.8-.44,1.63-.93,2.5-1.46l1.18,1.16c-2.57,1.53-4.99,2.69-7.26,3.46l6.56-.3-.58-.46-.6-.48,1.16-1.1.74.6c1.25,1,2.33,1.89,3.24,2.66l-1.06,1.24c-.37-.33-.79-.69-1.24-1.06-1.57.03-2.74.05-3.5.08Zm-3.34-9.98v-1.28h-4.66v1.28h4.66Zm0,1.36h-4.66v1.36h4.66v-1.36Zm1.7-1.36h4.62v-1.28h-4.62v1.28Zm0,1.36v1.36h4.62v-1.36h-4.62Zm2.4,9.08c1.2.52,3.1,1.37,5.7,2.56l-.74,1.52c-.81-.4-1.76-.84-2.83-1.33s-2.03-.9-2.87-1.23l.74-1.52Z"/><path class="uuid-2b4832e2-cc6b-4a94-9a9f-858124927a8c" d="m124.31,649.71c-1.59,1.01-3.45,1.96-5.58,2.84l-.72-1.62c.89-.32,1.85-.73,2.88-1.23,1.03-.5,1.87-.98,2.54-1.43l.88,1.44Zm5.44-1.82l-1.44.04v2.48c0,.59-.07,1.04-.22,1.35s-.39.54-.72.67c-.33.13-.81.2-1.44.2s-1.23-.04-1.86-.12l-.38-1.74c.67.12,1.21.18,1.64.18s.74-.09.89-.27.23-.48.23-.89v-1.8c-2.25.07-3.9.13-4.94.2-.55.03-1.23.07-2.04.14l-.22-1.52c.47,0,.85,0,1.14-.03.29-.02.59-.06.88-.13,1.32-.31,2.91-.89,4.78-1.76-1.65.03-3.05.07-4.2.12l-1.48.12-.24-1.28c.76-.07,1.29-.16,1.6-.28.64-.31,1.53-.81,2.66-1.52h-4.42v-6.9h14.54v6.9h-7.42c-1.28.83-2.19,1.38-2.72,1.66l4.24-.16c.8-.44,1.63-.93,2.5-1.46l1.18,1.16c-2.57,1.53-4.99,2.69-7.26,3.46l6.56-.3-.58-.46-.6-.48,1.16-1.1.74.6c1.25,1,2.33,1.89,3.24,2.66l-1.06,1.24c-.37-.33-.79-.69-1.24-1.06-1.57.03-2.74.05-3.5.08Zm-3.34-9.98v-1.28h-4.66v1.28h4.66Zm0,1.36h-4.66v1.36h4.66v-1.36Zm1.7-1.36h4.62v-1.28h-4.62v1.28Zm0,1.36v1.36h4.62v-1.36h-4.62Zm2.4,9.08c1.2.52,3.1,1.37,5.7,2.56l-.74,1.52c-.81-.4-1.76-.84-2.83-1.33s-2.03-.9-2.87-1.23l.74-1.52Z"/><path class="uuid-2b4832e2-cc6b-4a94-9a9f-858124927a8c" d="m91.95,662.88h5.5v-4.37h1.25v10.25h-1.25v-4.76h-5.5v4.76h-1.25v-10.25h1.25v4.37Z"/><path class="uuid-2b4832e2-cc6b-4a94-9a9f-858124927a8c" d="m105.46,662.08c.52.5.78,1.21.78,2.14v4.55h-1.05c-.03-.48-.05-.78-.06-.92-.22.35-.53.62-.9.8s-.81.27-1.29.27-.9-.09-1.31-.26c-.41-.17-.73-.43-.97-.77-.24-.34-.36-.75-.36-1.23,0-.72.29-1.29.88-1.7.58-.42,1.34-.62,2.26-.62.52,0,1.06.07,1.62.21v-.13c0-.68-.14-1.19-.41-1.52s-.69-.5-1.25-.5c-.45,0-.82.09-1.12.28s-.55.46-.76.83l-.91-.52c.22-.5.59-.91,1.1-1.21.51-.3,1.09-.46,1.74-.46.82,0,1.49.25,2.02.75Zm-.41,3.46c-.59-.15-1.12-.22-1.61-.22-.61,0-1.08.12-1.41.35-.33.23-.5.56-.5.98,0,.39.14.7.42.92.28.22.64.33,1.09.33.55,0,1.02-.16,1.41-.48.39-.32.59-.77.59-1.34v-.53Z"/><path class="uuid-2b4832e2-cc6b-4a94-9a9f-858124927a8c" d="m111.68,661.48v1.16c-.19-.13-.43-.2-.73-.2-.54,0-.98.22-1.32.67-.34.44-.5,1.09-.5,1.94v3.71h-1.19v-7.27h1.05c.02.38.04.78.07,1.18.41-.9,1.03-1.34,1.86-1.34.28,0,.53.05.76.15Zm1.81.01l2.24,5.68,2.1-5.68h1.23l-2.93,7.27h-.97l-3.04-7.27h1.36Z"/><path class="uuid-2b4832e2-cc6b-4a94-9a9f-858124927a8c" d="m124.35,661.77c.47.29.83.69,1.08,1.2s.38,1.06.38,1.68c0,.26-.02.5-.06.71h-5.24c.05.83.28,1.45.71,1.86.43.41.97.61,1.62.61.81,0,1.4-.33,1.76-.98l.91.52c-.19.5-.53.88-1.04,1.15s-1.08.41-1.7.41-1.25-.15-1.78-.45c-.54-.3-.96-.74-1.27-1.31-.31-.57-.47-1.26-.47-2.06s.16-1.45.47-2.02.73-1,1.25-1.3,1.1-.45,1.72-.45,1.17.15,1.65.44Zm-3.05,1.16c-.39.34-.63.83-.74,1.47h3.96c-.03-.62-.21-1.11-.55-1.46-.34-.34-.77-.52-1.32-.52s-.98.17-1.36.5Z"/><path class="uuid-2b4832e2-cc6b-4a94-9a9f-858124927a8c" d="m131.72,667.85c-.23.34-.55.6-.96.78-.41.19-.88.28-1.41.28-.71,0-1.32-.16-1.83-.48-.51-.32-.85-.75-1.01-1.3l.91-.52c.34.81.99,1.22,1.93,1.22.46,0,.82-.09,1.08-.28s.39-.44.39-.77c0-.25-.08-.46-.23-.62-.15-.16-.35-.28-.57-.37s-.55-.19-.96-.32c-.49-.14-.9-.28-1.2-.41-.31-.13-.57-.32-.78-.58-.21-.26-.32-.59-.32-1.01s.12-.82.36-1.15c.24-.33.56-.58.97-.75.41-.17.85-.26,1.34-.26.63,0,1.18.14,1.64.42.46.28.76.66.92,1.15l-.91.52c-.15-.32-.37-.56-.67-.73s-.64-.26-1.04-.26-.74.08-.99.24c-.25.16-.37.4-.37.71,0,.22.07.41.22.55.14.14.32.25.54.34s.52.18.91.29c.51.14.93.28,1.25.41.32.13.59.34.82.62.23.28.34.65.34,1.11s-.11.83-.34,1.16Z"/><path class="uuid-2b4832e2-cc6b-4a94-9a9f-858124927a8c" d="m137.13,668.52c-.38.26-.87.39-1.47.39-1.46,0-2.2-.83-2.2-2.51v-3.89h-1.2v-1.04h1.2v-2.03h1.19v2.03h2.11v1.04h-2.11v3.75c0,1.02.38,1.53,1.15,1.53.34,0,.65-.08.94-.25l.39.98Z"/></g></svg>