<?xml version="1.0" encoding="UTF-8"?><svg id="uuid-0f18c4ca-47f2-4d53-86f9-29d873d642ad" xmlns="http://www.w3.org/2000/svg" viewBox="0 0 600 802.1"><defs><style>.uuid-21770709-e916-4def-a624-5995a535a56e{fill:#f7cabf;}.uuid-21770709-e916-4def-a624-5995a535a56e,.uuid-e128fb38-fa7d-4544-a2a0-b729b97c2bbb,.uuid-6a76753a-046b-47ba-9e88-63434feaed9f,.uuid-45423f05-7388-4f7f-8ee0-eb9f32074b93,.uuid-80fd68c8-7513-42c3-83fa-e2514302636a,.uuid-a67b8c30-e4bd-4627-85a2-f3ec75029fda,.uuid-a938886a-0937-47f9-8c81-72514c29511c,.uuid-474ece01-884e-4d3f-9119-3f4fe5312566,.uuid-32581459-fe81-4379-bb5a-b974de29567a,.uuid-9d61d8b3-9a2f-4f8c-9c3e-ca966f533cd6,.uuid-7ba00292-0d4d-4b80-be3e-bf31addc5533,.uuid-7a49273c-595e-4e2a-b06e-389cfdaedebe,.uuid-a5c397d5-b37c-4d3b-b907-7c09ef999f87,.uuid-39018062-29d4-4741-a6a0-90867b1b39b7,.uuid-8fd4177e-cd05-4117-bc29-79f967247abd,.uuid-a8030860-22a1-41a0-ab06-27f29e97ea84,.uuid-654c5827-f29f-47ae-818f-dab43f27dc51{stroke-width:0px;}.uuid-e128fb38-fa7d-4544-a2a0-b729b97c2bbb{fill:#f9f0ea;}.uuid-6a76753a-046b-47ba-9e88-63434feaed9f{fill:#2b7270;}.uuid-45423f05-7388-4f7f-8ee0-eb9f32074b93{fill:#27b780;}.uuid-80fd68c8-7513-42c3-83fa-e2514302636a{fill:#30915e;}.uuid-a67b8c30-e4bd-4627-85a2-f3ec75029fda{fill:#2da890;}.uuid-a938886a-0937-47f9-8c81-72514c29511c{fill:#0d4439;}.uuid-474ece01-884e-4d3f-9119-3f4fe5312566{fill:#113a37;}.uuid-32581459-fe81-4379-bb5a-b974de29567a{fill:#1a5645;}.uuid-9d61d8b3-9a2f-4f8c-9c3e-ca966f533cd6{fill:#20634c;}.uuid-7ba00292-0d4d-4b80-be3e-bf31addc5533{fill:#217f67;}.uuid-7a49273c-595e-4e2a-b06e-389cfdaedebe{fill:#209e6e;}.uuid-a5c397d5-b37c-4d3b-b907-7c09ef999f87{fill:#2fa589;}.uuid-39018062-29d4-4741-a6a0-90867b1b39b7{fill:#fff;}.uuid-8fd4177e-cd05-4117-bc29-79f967247abd{fill:#ef9c89;}.uuid-a8030860-22a1-41a0-ab06-27f29e97ea84{fill:#ee7c99;}.uuid-654c5827-f29f-47ae-818f-dab43f27dc51{fill:#f19d85;}</style></defs><g id="uuid-a5ba8624-2ecd-4ada-8209-dfc6d252c37e"><g id="uuid-2c5fc51a-56f5-4455-9acb-9bf91d996957"><path class="uuid-474ece01-884e-4d3f-9119-3f4fe5312566" d="m600,799.97c0,1.61-.23,2.12-2.03,2.12-198.63-.05-397.28-.05-595.92,0-1.75,0-2.05-.45-2.05-2.1.06-27.17.04-155.94.04-183.12,1.54-.17,2.98.34,4.45.65,6.09,1.28,12.25,2.4,18.38,3.21,11.24,1.49,22.48,2.95,33.76,4.03,10.63,1.01,21.26,1.82,31.9,2.39,12.08.65,24.2.84,36.3.89,8.33.04,16.68-.46,25.02-.82,5.48-.23,10.96-.48,16.42-.96,12.19-1.1,24.38-2.31,36.56-3.55,10.69-1.1,21.33-2.59,31.92-4.36,9.85-1.66,19.62-3.79,29.48-5.42,11.49-1.9,22.83-4.55,34.18-7.13,10.69-2.43,21.33-5.11,31.95-7.86,11.12-2.89,22.2-5.95,33.26-9.01,6.16-1.71,12.28-3.54,18.4-5.33,8.66-2.54,17.32-5.08,25.95-7.65,7.05-2.1,14.09-4.28,21.16-6.37,5.17-1.53,10.46-2.77,15.58-4.48,8.47-2.82,17.16-4.87,25.7-7.44,6.97-2.11,14.07-3.75,21.06-5.77,6.42-1.85,12.89-3.51,19.32-5.33,9.75-2.75,19.62-5.06,29.49-7.31,16.63-3.79,33.33-7.36,50.09-10.48,3.17-.59,6.3-1.53,9.58-1.34,0,56.99,0,215.55.04,272.54Z"/><path class="uuid-7ba00292-0d4d-4b80-be3e-bf31addc5533" d="m599.96,486.34v41.1c-3.28-.18-6.41.76-9.58,1.34-16.77,3.12-33.46,6.69-50.09,10.48-9.87,2.25-19.74,4.56-29.49,7.31-6.43,1.82-12.9,3.48-19.32,5.33-6.99,2.03-14.09,3.66-21.06,5.77-8.54,2.57-17.23,4.62-25.7,7.44-5.13,1.71-10.41,2.95-15.58,4.48-7.07,2.09-14.11,4.27-21.16,6.37-8.64,2.57-17.29,5.11-25.95,7.65-6.13,1.79-12.24,3.62-18.4,5.33-11.07,3.05-22.15,6.11-33.26,9.01-10.62,2.75-21.26,5.43-31.95,7.86-11.35,2.57-22.68,5.22-34.18,7.13-9.86,1.62-19.63,3.76-29.48,5.42-10.59,1.77-21.23,3.26-31.92,4.36-12.18,1.24-24.37,2.45-36.56,3.55-5.47.49-10.95.73-16.42.96-8.33.35-16.68.85-25.02.82-12.1-.05-24.22-.24-36.3-.89-10.64-.57-21.27-1.38-31.9-2.39-11.29-1.07-22.53-2.54-33.76-4.03-6.13-.81-12.29-1.93-18.38-3.21-1.48-.31-2.92-.82-4.45-.65v-42.46c3.71.09,7.24,1.37,10.88,1.76,6.56.7,13.04,1.96,19.63,2.62,9.86.96,19.73,1.79,29.57,2.89,4.2.48,8.4.29,12.59.65,5.76.48,11.56.46,17.32,1.06.81.09,1.4-.38,2-.88,5.11-4.19,9.43-9.2,14.11-13.84,6.46-6.39,12.64-13.06,18.87-19.67,5.67-6.02,11.36-12.01,16.82-18.22,2.46-2.81,5.38-5.2,7.47-8.35.35-.55.93-1.17.44-1.84-.46-.62-1.27-.46-1.89-.28-5.83,1.71-11.7,3.32-17.47,5.21-5.69,1.87-11.29,4.06-16.94,6.05-5.74,2.01-11.54,3.82-17.22,5.98-5.31,2.01-10.79,3.5-16.05,5.67-4.86,1.99-9.96,3.39-14.91,5.15-6.8,2.4-13.51,5.06-20.35,7.31-8.83,2.92-17.54,6.17-26.31,9.25-6.16,2.17-12.21,4.62-18.55,6.31v-26.2c2.49-.29,4.77-1.32,7.11-2.06,10.81-3.45,21.56-7.05,32.37-10.51,14.18-4.51,28.38-8.94,42.57-13.41,16.42-5.17,32.82-10.4,49.25-15.52,14.78-4.61,29.6-9.1,44.27-14.08,2.43-.82,4.76-1.82,6.85-3.37,4.59-3.39,9.18-6.8,13.85-10.07,1.84-1.28,3.34-3.05,5.56-3.76,1.49.56.98,1.88.98,2.92.02,31.36.02,62.73.01,94.09,0,2.03.13,4.04-.29,6.06-.37,1.76,1.01,3.53,2.59,3.15,1.62-.38,3.23-.06,4.84-.48,2.53-.66,5.15-.98,7.74-1.33,4.23-.59,8.48-1,12.7-1.62,6.22-.92,12.41-2.1,18.71-2.5,2.31-.15,4.81-.26,6.82-1.22,3.01-1.45,6.25-1.7,9.35-2.22,8.33-1.38,16.62-3.01,24.92-4.54,7.21-1.32,14.35-3.1,21.53-4.65.76-.17,1.2-.56,1.39-1.28,3.86.23,7.43-1.18,11.13-1.85.62-.12,1.13-.34,1.46-.89.26-.02.51-.05.76-.09,1.66-.05,3.4.21,4.67-1.26.55-.39,1.17-.5,1.84-.41.79.57,1.71.44,2.56.34.89-.1.24-.56.1-.88l.15-.07.16.04c2.51-.34,5.14-.2,7.36-1.76h.04c2.07,0,4.2.26,5.82-1.48,4.62-1.83,9.54-2.61,14.31-3.86,12.92-3.38,25.8-6.88,38.63-10.53,2.05-.76,4.39-.44,6.27-1.76,9.23-2.04,18.15-5.22,27.27-7.61,6.67-1.74,13.23-3.97,19.88-5.83,11.04-3.11,22.11-6.14,33.18-9.16,7.02-1.93,14.03-3.86,21.09-5.66,3.99-1.03,8-1.92,11.9-3.28,4.61-.29,8.91-2.06,13.36-3.08,18.02-4.1,36.01-8.37,54.23-11.53,3.54-.62,6.97-1.96,10.64-1.71Z"/><path class="uuid-9d61d8b3-9a2f-4f8c-9c3e-ca966f533cd6" d="m208.34,175.58h0s0-.01,0-.01c0,0,0,.01,0,.01Z"/><path class="uuid-6a76753a-046b-47ba-9e88-63434feaed9f" d="m599.96,121.77c-.59.08-1.2.1-1.77.26-6.23,1.68-12.44,3.46-18.56,5.44-7.36,2.38-14.86,4.23-22.28,6.33-8.02,2.27-16.18,4.02-24.27,6-2.63-.38-5.03.19-7.19,1.74-.32.02-.63.04-.95.06-1.34-.3-2.59-.19-3.78.15-.47.14-.93.31-1.39.52-.23.1-.45.21-.68.32-.45.23-.89.48-1.33.75-.31.03-.63.06-.94.08-.54-.49-1.11-.21-1.69-.1-6.09,1.19-12.18,2.38-18.18,3.98-1.37.36-2.78.52-4.18.75-2.14.35-4.52.21-6.18,2.06-.32.02-.64.04-.96.05-1.88.03-3.82-.18-5.36,1.27-.47.03-.94.07-1.41.1-1.23-.5-2.26-.21-3.11.79-.47.04-.94.08-1.41.12-2.53-.1-5,.16-7.4.7-1.04.23-2.06.51-3.08.84-.25.08-.5.17-.76.25-.76.26-1.51.54-2.26.84-.32.02-.64.04-.96.05-.73-.47-1.36-.53-1.75.41-.47.02-.94.05-1.41.07-1.09-.7-2.25-.08-3.23.14-2.39.55-5.05.3-7.1,2.05-.32.02-.64.05-.95.08-.85-.51-1.65-.74-2.22.38-.32.03-.63.05-.95.07-.27-.1-.57-.32-.82-.27-3.15.66-6.34,1.01-9.53,1.39-1.38.17-3.02.17-4.06,1.51-.46.02-.93.05-1.4.07-.62-.49-1.06-.36-1.31.4-.47.02-.93.04-1.4.06-1.7-.43-3.45-.12-5.07.16-13.51,2.37-27.14,3.9-40.67,6.11-1.58.26-2.93.13-4.26-1.24-2.55-2.62-5.23-5.24-8.26-7.26-2.75-1.83-5.32-3.86-8-5.75-2.2-1.55-4.52-2.94-7.16-3.63h-.18c-.32-1.46-1.57-2.09-2.68-2.56-2.51-1.06-4.91-2.35-7.5-3.3-7.47-2.75-14.9-5.43-22.94-5.89-3.22-.18-6.46-.64-9.65-.45-8.51.51-16.97,1.24-25.37,2.95-10.13,2.07-19.98,4.84-29.58,8.7-5.7,2.29-11.01,5.4-16.72,7.65-5.41,2.13-10,5.73-14.9,8.7-3.57,2.16-7.32,4.37-10.36,7.4-.78.78-1.96,1.2-2.11,2.5-1.02-.08-1.88.03-1.81,1.38-.16.13-.31.27-.46.4-.46.04-.79.26-.93.71-1.77,1.44-3.55,2.87-5.32,4.31-2.42-.34-4.79.32-7.19.33-19.99.06-39.97.04-59.96-.69-14.56-.53-29.06-1.59-43.58-2.75-11.08-.88-22.08-2.25-33.06-3.89-11.42-1.71-22.8-3.66-34.08-6.16-4.75-1.06-9.56-1.87-14.24-3.26-2.51-.74-4.99-1.7-7.67-1.72C.04,143.68.07,22.63,0,2.07,0,.38.38,0,2.08,0c191.09.04,382.18.04,573.26.04,7.76,0,15.51.03,23.27-.03,1.13-.01,1.4.25,1.39,1.38-.07,6.63-.04,113.76-.04,120.38Z"/><path class="uuid-a67b8c30-e4bd-4627-85a2-f3ec75029fda" d="m599.96,266.79v219.55c-.31-.02-.61-.03-.92-.03-.25,0-.5.01-.75.02-.05,0-.11.01-.16.01-.24.01-.47.03-.71.06-.17.01-.34.03-.51.06-.11.01-.22.02-.33.04-.41.06-.81.13-1.22.21-.2.04-.41.08-.61.12-.6.13-1.21.27-1.81.42-.2.04-.4.09-.6.14-1,.24-2.01.47-3.02.65-2.28.4-4.55.81-6.82,1.24-1.14.21-2.28.43-3.41.66-1.13.22-2.27.44-3.4.67-1.11.22-2.2.44-3.3.67-.2.04-.41.09-.61.13-.96.19-1.92.39-2.87.6-1.13.23-2.26.48-3.39.72-.93.2-1.85.4-2.78.6-9.23,2.01-18.43,4.15-27.64,6.25-.06.01-.13.03-.19.04-.4.1-.8.19-1.19.3-.51.13-1.02.27-1.53.41-.5.14-1.01.29-1.51.43-.19.05-.38.11-.56.16-.46.13-.92.27-1.39.4-.36.1-.73.19-1.09.29-.55.14-1.1.28-1.66.41-1.11.25-2.24.46-3.39.57-.28.03-.57.05-.86.07-.91-.35-1.8-.77-2.74-1.04-13.49-3.89-27.01-7.7-40.49-11.65-20.69-6.06-41.34-12.24-62.04-18.28-4.39-1.28-8.69-2.91-13.24-3.59-.86-.9-.74-2.04-.75-3.16-.07-4.46.26-8.93-.19-13.38.29-1.19.95-2.18,1.58-3.21,4.19-6.88,7.31-14.23,9.57-21.96,1.53-5.26,2.47-10.65,3.61-15.99,2.9-.06,5.65-.7,8.15-2.23,5.44-3.31,8.28-8.43,9.42-14.46,1.85-9.73,2.94-19.6,6.19-29.05,2.09-6.1,4.32-12.16,5.95-18.42,2.24-8.59,4.54-17.17,4-26.17-.26-4.35-.65-8.68-2.97-12.37-.18-.29-.37-.57-.57-.84-.1-.14-.2-.28-.31-.41-.33-.41-.68-.81-1.06-1.2h0s.03-.06.05-.08c.01-.03.03-.05.04-.07.03-.05.06-.1.1-.14.07-.09.14-.17.22-.22.46-.4,1.09-.48,1.69-.62,3.35-.81,6.71-1.57,10.04-2.45,8.4-2.23,16.79-4.52,25.18-6.78,9.04-2.43,18.09-4.83,27.13-7.28,14.78-4,29.66-7.6,44.57-11.1,11.4-2.68,22.83-5.22,34.29-7.63,3.59-.75,7.12-1.88,10.81-2.09Z"/><path class="uuid-a67b8c30-e4bd-4627-85a2-f3ec75029fda" d="m201.88,472.27c-2.21.72-3.72,2.49-5.55,3.76-4.68,3.27-9.27,6.67-13.86,10.07-2.09,1.54-4.41,2.55-6.84,3.37-14.67,4.97-29.49,9.46-44.27,14.07-16.43,5.13-32.83,10.35-49.25,15.52-14.19,4.47-28.4,8.9-42.58,13.42-10.81,3.45-21.57,7.05-32.38,10.5-2.35.75-4.63,1.77-7.11,2.06,0-22.14,0-44.27,0-66.41,4.77-1.36,9.61-2.5,14.28-4.14,7.64-2.69,15.37-5.13,22.89-8.22,8.6-3.54,17.22-6.99,25.28-11.67,4.67-2.71,9.44-5.33,13.15-9.39,2.19-2.4,1.43-4.95-1.7-5.82-6.11-1.7-12.37-1.71-18.59-1.26-6.51.47-12.99,1.33-19.47,2.13-8.42,1.04-16.75,2.65-25.02,4.55-3.58.83-7.21,1.47-10.81,2.19,0-35.84,0-71.68,0-107.51,2.13.08,4.09,1.01,6.17,1.27,12.13,1.53,24.14,3.79,36.29,5.24,11.55,1.38,23.1,2.6,34.69,3.34,11.98.76,24,1.04,36,1.42,12.25.39,24.5-.46,36.75-.45,1.55,0,3.12-.71,4.65.09,0,0-.04.13-.04.13.14.23.28.47.42.7v.03c.02.64-.09,1.32.57,1.74.62.46.85,1.09.83,1.84-.62.7-.19,1.03.46,1.28,1.18,1.58,1.8,3.44,2.6,5.22,3.12,6.92,6.38,13.8,8.19,21.22,1.09,4.45,1.78,9,2.84,13.46.71,3.02,1.93,5.87,4.3,8.03,3,2.74,6.68,2.81,10.42,2.51,2.97-.23,2.98-.26,3.3,2.7,1.38,12.92,4.8,25.23,10.89,36.76l-.04-.09.97,1.48-.07-.07,1.11,2.53c.15.31.29.63.44.94.26.22.53.44.79.66l-.07-.07c.17.31.33.61.5.92l-.04-.08c.33.57.57,1.17.54,1.85,0,3.89-.04,7.79.02,11.68.04,2.33.15,4.64-1.64,6.48Z"/><path class="uuid-80fd68c8-7513-42c3-83fa-e2514302636a" d="m154.6,350.42c-1.54-.79-3.1-.09-4.65-.09-12.25-.01-24.5.84-36.75.45-12-.38-24.02-.66-36-1.42-11.59-.73-23.14-1.96-34.69-3.34-12.15-1.45-24.16-3.71-36.29-5.24-2.08-.26-4.04-1.19-6.17-1.27v-175.28c2.68.01,5.15.97,7.67,1.72,4.68,1.39,9.49,2.2,14.24,3.26,11.28,2.51,22.66,4.45,34.08,6.16,10.98,1.64,21.98,3.01,33.06,3.89,14.51,1.16,29.01,2.22,43.57,2.75,19.99.73,39.97.75,59.97.69,2.4,0,4.77-.67,7.19-.33-.17.24-.29.54-.51.72-8.33,7.12-15.08,15.56-20.72,24.9-2.11,3.51-4.03,7.14-5.41,11.01-.06.13-.15.24-.27.32-.08.14-.16.28-.23.42-3.2,7.46-6.17,15-8.13,22.9-2.39,9.65-2.43,19.52-2.55,29.36-.12,10.15-.12,20.3-.18,30.45-4.74,1.17-7.61,4.35-9.07,8.81-2.92,8.94-2.24,18.06-1.14,27.2.5,4.12,2.09,7.95,2.99,11.96Z"/><path class="uuid-7a49273c-595e-4e2a-b06e-389cfdaedebe" d="m461.78,200.38c2.66-1.6,5.59-2.6,8.48-3.66,15.8-5.81,31.92-10.66,47.93-15.86,10.5-3.41,21.02-6.78,31.52-10.2,15.65-5.1,31.29-10.24,46.94-15.36,1.08-.35,2.16-.67,3.31-.55v-32.98c-.59.08-1.2.1-1.77.26-6.23,1.68-12.44,3.46-18.56,5.44-7.36,2.38-14.86,4.23-22.28,6.33-8.02,2.27-16.18,4.02-24.27,6-2.33.86-4.76,1.29-7.19,1.74-.32.02-.63.04-.95.06-2.32.89-4.7,1.5-7.18,1.75-.31.02-.63.05-.94.07-4.27,1.76-8.88,2.08-13.31,3.16-4.44,1.08-8.89,2.1-13.33,3.15-.3,0-.6.02-.9.04-.89.11-1.79.23-2.69.34-.32.02-.64.04-.96.05-1.66.96-3.52,1.09-5.36,1.27-.47.03-.94.07-1.41.1-.94.66-1.99.86-3.11.79-.47.04-.94.08-1.41.12-4.41,1.34-8.93,2.13-13.5,2.64-.32.01-.64.03-.96.04-.49.56-1.11.52-1.75.41-.47.02-.94.05-1.41.07-3.31,1.37-6.83,1.74-10.33,2.19-.32.02-.64.05-.95.08-.66.6-1.45.45-2.22.38-.32.03-.63.05-.95.07-4.67,1.59-9.56,1.97-14.41,2.63-.46.02-.93.05-1.4.07-.34.44-.81.48-1.31.4-.47.02-.93.04-1.4.06-2.87,1.49-6.11,1.03-9.15,1.7-5,1.1-10.13,1.62-15.21,2.39-.45.01-.91.03-1.36.04-5.16.74-10.34,1.35-15.46,2.3-2.25.41-4.71.17-6.72,1.65,1.84,2.58,3.95,4.92,6.37,6.96.08.1.15.21.21.32.13,1.08.9,1.72,1.71,2.24.74.47,1.01,1.03.79,1.85,0,.01.01.01.01.01l.08.1-.1-.08s.01-.02.01-.03c-3.57-1.77-6.5-4.46-9.79-6.64-7.48-4.93-15.13-9.44-23.44-12.85-6.62-2.72-13.34-5-20.37-6.36-.99-.19-2.13-.15-2.92-1.01-5.05-.14-9.98-1.36-15.01-1.66-1.34-.08-2.69-.09-4.04-.13-3.46-.3-6.91-.21-10.36.25,6.69,1.67,13.55,2.58,20.01,5.25,14.97,6.18,25.15,17.04,31.59,31.68,2.54,5.78,4.25,11.8,5.44,17.97-.31-3.21-.02-2.05.32,1.68.01.06.02.12.03.18.21,1.18.47,2.36.25,3.58.34.6.47,1.24.47,1.88.75,1.41,2.4,1.73,4.98,2.2.18.02.36.06.55.09,4,.72,7.77,2.22,11.6,3.5,5.1,1.71,9.97,4.23,15.56,4.23,4.31,0,7.96-1.4,10.8-4.66.67-.77,1.24-1.28,2.25-.69-.66-5.87-2.62-11.38-4.71-16.85-2.52-6.64-6.25-12.6-10.39-18.31-.26-.35-.42-.77-.83-1.53,3.04.51,5.37,1.89,7.75,2.98,9.46,4.33,17.37,10.81,23.35,19.2,4.46,6.27,7.8,13.32,10.49,20.61,4.15,11.28,6.93,22.92,8.19,34.8,1.02,9.69,1.88,19.45,1.59,29.24-.09,2.85-.19,5.71.32,8.56.32,1.73.13,3.46-1.23,4.82,3.08-.19,5.96.34,8.46,2.29.02-.02.03-.05.05-.07.01-.03.03-.05.04-.07.03-.05.06-.1.1-.14.07-.09.14-.17.22-.22.46-.4,1.09-.48,1.69-.62,3.35-.81,6.71-1.57,10.04-2.45,8.4-2.23,16.79-4.52,25.18-6.78,9.04-2.43,18.09-4.83,27.13-7.28,14.78-4,29.66-7.6,44.57-11.1,11.4-2.68,22.83-5.22,34.29-7.63,3.59-.75,7.12-1.88,10.81-2.09v-59.18c-4.75.66-9.5,1.44-14.27,1.95-6.12.67-12.2,1.58-18.33,2.23-6.64.7-13.28,1.38-19.94,1.95-2.24.2-4.48.49-6.73.58-5.33.23-10.67.35-16,.52-3.68.13-7.37.52-11.04.35-10.94-.5-21.9-.66-32.76-2.48-5.66-.95-11.26-1.84-16.52-4.27-1.12-.52-2.04-1.27-3.01-1.97-3.12-2.27-2.99-4.02.42-6.08Zm-58.4-32.99c-.59-.07-1.41-.04-1.37-.78.04-.96.99-.94,1.71-.98.56-.04,1.35-.1,1.32.74-.04,1.01-.93.96-1.66,1.02Zm9.11-.31c-.37-.02-.38-.33-.45-.58h0c.26.06.57.08.58.45.01.04-.08.13-.13.13Zm3.69.03c-.08-.07-.17-.13-.24-.21,0-.02.07-.1.1-.15.09.07.17.14.25.21-.04.05-.07.1-.11.15Zm25.43,113.06c-.44-.03-.57-.38-.66-.74.33.11.72.14.96.34.19.16-.06.41-.3.4Z"/><path class="uuid-6a76753a-046b-47ba-9e88-63434feaed9f" d="m599.96,154.75v52.85c-4.75.66-9.5,1.44-14.27,1.95-6.12.67-12.2,1.58-18.33,2.23-6.64.7-13.28,1.38-19.94,1.95-2.24.2-4.48.49-6.73.58-5.33.23-10.67.35-16,.52-3.68.13-7.37.52-11.04.35-10.94-.5-21.9-.66-32.76-2.48-5.66-.95-11.26-1.84-16.52-4.27-1.12-.52-2.04-1.27-3.01-1.97-3.12-2.27-2.99-4.02.42-6.08,2.66-1.6,5.59-2.6,8.48-3.66,15.8-5.81,31.92-10.66,47.93-15.86,10.5-3.41,21.02-6.78,31.52-10.2,15.65-5.1,31.29-10.24,46.94-15.36,1.08-.35,2.16-.67,3.31-.55Z"/><path class="uuid-474ece01-884e-4d3f-9119-3f4fe5312566" d="m.04,571.26c6.32-1.68,12.38-4.14,18.54-6.31,8.77-3.08,17.48-6.34,26.31-9.25,6.85-2.25,13.55-4.91,20.35-7.32,4.96-1.76,10.05-3.15,14.91-5.15,5.26-2.17,10.74-3.65,16.05-5.67,5.67-2.16,11.48-3.96,17.21-5.98,5.66-1.99,11.25-4.18,16.95-6.05,5.77-1.89,11.63-3.5,17.46-5.21.63-.18,1.44-.34,1.89.28.49.67-.08,1.29-.44,1.84-2.08,3.14-5,5.55-7.47,8.35-5.45,6.2-11.14,12.2-16.81,18.21-6.23,6.61-12.42,13.27-18.87,19.67-4.68,4.64-8.99,9.65-14.11,13.85-.6.49-1.19.96-2.01.88-5.76-.6-11.55-.59-17.31-1.07-4.2-.35-8.4-.17-12.6-.64-9.84-1.1-19.71-1.94-29.57-2.9-6.59-.65-13.07-1.92-19.63-2.62-3.65-.39-7.17-1.67-10.88-1.75v-3.16Z"/><path class="uuid-7a49273c-595e-4e2a-b06e-389cfdaedebe" d="m362.09,216.95c-2.54-.39-4.24-.26-5.04-1.36-.3-.41-.48-.98-.53-1.82-.13-1.98-.27-4.15-.48-6.34-.31-3.21-.77-6.48-1.55-9.33,1,3.51,1.53,7.28,1.87,11.01.01.06.02.12.03.18.21,1.18.47,2.36.25,3.58.34.6.47,1.24.47,1.88.75,1.41,2.4,1.73,4.98,2.2Z"/><path class="uuid-7a49273c-595e-4e2a-b06e-389cfdaedebe" d="m385.02,181.05l-.1-.08s.01-.02.01-.03c0,.01.01.01.01.01l.08.1Z"/><path class="uuid-7a49273c-595e-4e2a-b06e-389cfdaedebe" d="m445.93,305.1s-.05.1-.08.15h0c.03-.06.06-.11.09-.15Z"/><path class="uuid-6a76753a-046b-47ba-9e88-63434feaed9f" d="m.04,447.03c3.61-.73,7.23-1.37,10.81-2.19,8.27-1.91,16.59-3.52,25.02-4.55,6.48-.8,12.96-1.65,19.47-2.13,6.23-.45,12.49-.44,18.59,1.26,3.13.87,3.9,3.42,1.7,5.82-3.7,4.06-8.48,6.68-13.15,9.39-8.06,4.67-16.68,8.13-25.28,11.67-7.52,3.09-15.24,5.53-22.89,8.22-4.67,1.64-9.51,2.78-14.28,4.14,0-10.54,0-21.08,0-31.62Z"/><path class="uuid-a938886a-0937-47f9-8c81-72514c29511c" d="m403.22,468.1c4.55.68,8.85,2.31,13.24,3.59,20.7,6.03,41.35,12.22,62.04,18.28,13.48,3.95,27,7.76,40.49,11.65.93.27,1.82.69,2.74,1.04-3.89,1.37-7.91,2.26-11.89,3.28-7.05,1.8-14.06,3.74-21.08,5.66-11.07,3.03-22.14,6.05-33.18,9.16-6.65,1.87-13.2,4.09-19.88,5.84-9.14,2.39-18.05,5.57-27.28,7.61-2.06,0-4.12.02-6.17.03-.03-.75-.09-1.5-.09-2.24,0-21.09,0-42.18.01-63.27.35-.21.7-.41,1.05-.62Z"/><path class="uuid-45423f05-7388-4f7f-8ee0-eb9f32074b93" d="m402.17,468.72c0,21.09-.01,42.18-.01,63.27,0,.75.06,1.5.09,2.24-.03.58-.06,1.16-.09,1.73-12.84,3.64-25.72,7.15-38.64,10.53-4.78,1.25-9.69,2.03-14.31,3.86-2.01.19-3.98.58-5.82,1.46,0,0-.04.02-.04.02-2.5.4-5.1.38-7.36,1.76l-.16-.03s-.15.06-.15.06c-.93-.04-1.85,0-2.66.54-.66-.09-1.29.02-1.84.41-1.63.15-3.22.45-4.66,1.27-.25.03-.51.05-.76.08-2.46.19-4.81.94-7.2,1.46-.78.17-1.57.61-2.31-.12.93-.76,1.86-1.52,2.78-2.28,15.1-12.38,29.54-25.49,43.12-39.51,13.32-13.75,25.71-28.29,37.12-43.67.83-1.12,1.57-2.4,2.9-3.07Z"/><path class="uuid-7ba00292-0d4d-4b80-be3e-bf31addc5533" d="m201.88,472.27c1.8-1.85,1.68-4.15,1.64-6.48-.07-3.89-.02-7.79-.02-11.69.53,4.08,0,8.19.21,12.28.04.86-.31,1.81.49,2.53-.76.92-.42,2.02-.42,3.04,0,19.49.02,38.97.03,58.46,0,15.05.02,30.09-.06,45.14,0,1.84.44,2.3,2.27,1.96,3.18-.58,6.4-.89,9.61-1.31,24.24-3.16,48.28-7.46,72.24-12.27,6.61-1.37,13.24-2.67,19.83-4.14,1.54-.35,3.35-.13,4.57-1.54l.86.36.04.04c-.19.72-.63,1.11-1.39,1.28-7.17,1.55-14.3,3.34-21.52,4.66-8.3,1.52-16.58,3.15-24.91,4.54-3.11.52-6.33.76-9.35,2.22-2.01.97-4.51,1.07-6.82,1.22-6.3.41-12.48,1.59-18.7,2.5-4.22.62-8.47,1.04-12.7,1.62-2.59.36-5.21.68-7.74,1.33-1.61.42-3.22.1-4.84.48-1.58.37-2.95-1.4-2.59-3.15.42-2.03.29-4.05.29-6.07.02-31.37.02-62.73,0-94.1,0-1.03.52-2.35-.98-2.92Z"/><path class="uuid-7ba00292-0d4d-4b80-be3e-bf31addc5533" d="m316.24,557.25c.73.72,1.53.29,2.31.12,2.39-.52,4.74-1.27,7.2-1.46-.33.56-.84.77-1.47.89-3.7.67-7.28,2.09-11.13,1.86,0,0-.04-.04-.04-.04.65-1.35,2.15-.77,3.13-1.37Z"/><path class="uuid-a938886a-0937-47f9-8c81-72514c29511c" d="m402.15,535.97c.03-.58.06-1.16.09-1.73,2.06,0,4.12-.02,6.17-.03-1.88,1.31-4.22,1.01-6.26,1.76Z"/><path class="uuid-7ba00292-0d4d-4b80-be3e-bf31addc5533" d="m335.99,553.58c2.26-1.38,4.86-1.36,7.36-1.76-2.22,1.57-4.85,1.42-7.36,1.76Z"/><path class="uuid-7ba00292-0d4d-4b80-be3e-bf31addc5533" d="m343.38,551.81c1.84-.88,3.81-1.27,5.82-1.46-1.63,1.73-3.76,1.48-5.82,1.46Z"/><path class="uuid-7ba00292-0d4d-4b80-be3e-bf31addc5533" d="m326.51,555.84c1.45-.82,3.03-1.12,4.66-1.27-1.27,1.47-3.01,1.21-4.66,1.27Z"/><path class="uuid-7ba00292-0d4d-4b80-be3e-bf31addc5533" d="m333.02,554.16c.81-.55,1.73-.58,2.66-.54.15.32.8.78-.09.88-.86.1-1.78.23-2.57-.34Z"/><path class="uuid-e128fb38-fa7d-4544-a2a0-b729b97c2bbb" d="m337.1,144.11c-3.31,2.96-5.94,6.52-8.69,9.96-5.05-.14-9.98-1.36-15.01-1.66-1.34-.08-2.69-.09-4.04-.13-3.46-.3-6.91-.21-10.36.25-.83-.02-1.66-.1-2.48-.06-7.51.41-15,1.05-22.38,2.65-11.11,2.4-21.62,6.35-31.59,11.79-2.26,1.18-4.47,2.44-6.69,3.69-3.6,2.01-6.71,4.84-10.61,6.32-4.39.27-8.78.62-13.18.76-2.05.07-4.09.99-6.16.12.05-.15.11-.3.16-.45.15-.13.3-.27.46-.4.73-.29,1.42-.63,1.81-1.37,0,0,0-.01,0-.01.51-.31,1.03-.58,1.5-.94,15.79-11.55,32.63-21.1,51.21-27.47,12.99-4.45,26.3-7.39,40.02-8.3,12.36-.82,24.46.43,36.02,5.25Z"/><path class="uuid-a5c397d5-b37c-4d3b-b907-7c09ef999f87" d="m218.65,183.59c-.16.17-.32.34-.48.51,0,0-.55.35-.75.43-1.71.86-2.85,2.36-4.17,3.67-4.91,4.87-8.63,10.66-12.66,16.22-2.92,1.14-5.89,2.18-8.76,3.43-6.7,2.9-12.66,7.07-18.65,11.16,1.38-3.88,3.3-7.51,5.41-11.01,5.64-9.35,12.4-17.78,20.72-24.9.22-.19.34-.48.51-.72,1.77-1.44,3.55-2.87,5.32-4.31.26-.09.52-.17.77-.26,2.06.86,4.11-.05,6.16-.12,4.4-.14,8.79-.5,13.18-.77.02.28.04.56.06.84-.95.66-1.29,1-2.41,2.06l-.11.14c-.29.15-.62.33-.91.49l-.09.08c-1.05.85-1.27,1.15-2.54,2.19l-.14.21"/><path class="uuid-a5c397d5-b37c-4d3b-b907-7c09ef999f87" d="m384.94,180.94l-.02.02s.01-.02.01-.03c0,.01.01.01.01.01Z"/><path class="uuid-a5c397d5-b37c-4d3b-b907-7c09ef999f87" d="m384.93,180.93c-3.57-1.77-6.5-4.46-9.79-6.64-7.48-4.93-15.13-9.44-23.44-12.85-6.62-2.72-13.34-5-20.37-6.36-.99-.19-2.13-.15-2.92-1.01,2.75-3.44,5.38-7,8.69-9.96,1.75.43,3.34,1.26,5.01,1.89,2.8,1.06,5.14,3.05,8.04,3.86h.18c.5.79,1.31,1.2,2.06,1.7,5.37,3.56,10.74,7.08,15.59,11.39,2.55,2.27,4.82,4.93,7.87,6.61,1.84,2.58,3.95,4.92,6.37,6.96.08.1.15.21.21.32.13,1.08.9,1.72,1.71,2.24.74.47,1.01,1.03.79,1.85Z"/><path class="uuid-6a76753a-046b-47ba-9e88-63434feaed9f" d="m350.15,149.87c-2.9-.81-5.24-2.8-8.04-3.86-1.67-.63-3.26-1.46-5.01-1.89-11.56-4.83-23.66-6.08-36.02-5.26-13.71.91-27.02,3.85-40.02,8.31-18.57,6.37-35.42,15.92-51.2,27.47-.48.35-1.01.63-1.51.94.14-1.31,1.33-1.73,2.11-2.5,3.04-3.04,6.8-5.24,10.36-7.4,4.9-2.97,9.49-6.58,14.9-8.71,5.71-2.25,11.02-5.36,16.72-7.65,9.6-3.86,19.45-6.63,29.58-8.7,8.4-1.71,16.86-2.44,25.37-2.95,3.2-.19,6.44.27,9.66.45,8.03.46,15.47,3.14,22.94,5.89,2.59.96,4.99,2.24,7.5,3.31,1.11.47,2.36,1.1,2.68,2.55Z"/><path class="uuid-6a76753a-046b-47ba-9e88-63434feaed9f" d="m423.75,161.49c-2.87,1.49-6.11,1.03-9.15,1.7-5,1.1-10.13,1.62-15.21,2.39-.45.01-.91.03-1.36.04-5.16.74-10.34,1.35-15.46,2.3-2.25.41-4.71.17-6.72,1.65-3.05-1.68-5.32-4.34-7.87-6.61-4.85-4.31-10.22-7.83-15.59-11.39-.75-.5-1.56-.91-2.06-1.69,2.64.69,4.96,2.08,7.16,3.63,2.68,1.89,5.25,3.92,8,5.75,3.03,2.02,5.71,4.64,8.26,7.26,1.33,1.37,2.68,1.5,4.26,1.24,13.53-2.21,27.16-3.74,40.67-6.11,1.62-.28,3.37-.59,5.07-.16Z"/><path class="uuid-6a76753a-046b-47ba-9e88-63434feaed9f" d="m516.82,143.43c-4.27,1.76-8.88,2.08-13.31,3.16-4.44,1.08-8.89,2.1-13.33,3.15-.3,0-.6.02-.9.04-.89.11-1.79.23-2.69.34,1.66-1.85,4.04-1.71,6.18-2.06,1.4-.23,2.81-.39,4.18-.75,6-1.6,12.09-2.79,18.18-3.98.58-.11,1.15-.39,1.69.1Z"/><path class="uuid-6a76753a-046b-47ba-9e88-63434feaed9f" d="m442.27,158.32c-4.67,1.59-9.56,1.97-14.41,2.63,1.04-1.34,2.68-1.34,4.06-1.51,3.19-.38,6.38-.73,9.53-1.39.25-.05.55.17.82.27Z"/><path class="uuid-6a76753a-046b-47ba-9e88-63434feaed9f" d="m474.34,152.44c-4.41,1.34-8.93,2.13-13.5,2.64.75-.3,1.5-.59,2.26-.85.26-.08.51-.17.76-.25,1.02-.32,2.04-.61,3.08-.84,2.4-.54,4.87-.8,7.4-.7Z"/><path class="uuid-6a76753a-046b-47ba-9e88-63434feaed9f" d="m456.72,155.61c-3.31,1.37-6.83,1.74-10.33,2.19,2.05-1.75,4.71-1.5,7.1-2.05.98-.22,2.14-.84,3.23-.14Z"/><path class="uuid-6a76753a-046b-47ba-9e88-63434feaed9f" d="m524.94,141.61c-2.32.89-4.7,1.5-7.18,1.75.44-.27.88-.52,1.33-.76.23-.11.45-.22.68-.32.46-.21.92-.38,1.39-.52,1.19-.34,2.44-.45,3.78-.15Z"/><path class="uuid-6a76753a-046b-47ba-9e88-63434feaed9f" d="m533.08,139.8c-2.33.86-4.76,1.29-7.19,1.74,2.16-1.55,4.56-2.12,7.19-1.74Z"/><path class="uuid-6a76753a-046b-47ba-9e88-63434feaed9f" d="m485.63,150.17c-1.66.96-3.52,1.09-5.36,1.27,1.54-1.45,3.48-1.24,5.36-1.27Z"/><path class="uuid-6a76753a-046b-47ba-9e88-63434feaed9f" d="m478.86,151.54c-.94.66-1.99.86-3.11.79.85-1,1.88-1.29,3.11-.79Z"/><path class="uuid-6a76753a-046b-47ba-9e88-63434feaed9f" d="m445.44,157.87c-.66.6-1.45.45-2.22.38.57-1.12,1.37-.89,2.22-.38Z"/><path class="uuid-9d61d8b3-9a2f-4f8c-9c3e-ca966f533cd6" d="m208.35,175.58c-.39.74-1.09,1.08-1.82,1.38-.07-1.35.8-1.46,1.82-1.38Z"/><path class="uuid-6a76753a-046b-47ba-9e88-63434feaed9f" d="m459.88,155.12c-.49.56-1.11.52-1.75.41.39-.94,1.02-.88,1.75-.41Z"/><path class="uuid-6a76753a-046b-47ba-9e88-63434feaed9f" d="m426.46,161.02c-.34.44-.81.48-1.31.4.25-.76.69-.89,1.31-.4Z"/><path class="uuid-9d61d8b3-9a2f-4f8c-9c3e-ca966f533cd6" d="m205.91,177.81c-.26.09-.52.17-.77.26.15-.45.47-.67.93-.71-.05.15-.11.3-.16.45Z"/><path class="uuid-9d61d8b3-9a2f-4f8c-9c3e-ca966f533cd6" d="m357.11,214.75c0,.28-.02.56-.06.84.8,1.1,2.5.97,5.04,1.36-2.58-.47-4.23-.79-4.98-2.2Zm-.47-1.88c.05.79.2,1.4.47,1.88,0-.64-.13-1.28-.47-1.88Zm-.25-3.58c-.01-.06-.02-.12-.03-.18.11,1.26.2,2.52.28,3.76.22-1.22-.04-2.4-.25-3.58Z"/><path class="uuid-9d61d8b3-9a2f-4f8c-9c3e-ca966f533cd6" d="m403.96,272.18c-.16-.45-.32-.9-.47-1.35-.66-2.5-1.04-2.83-1.44-4.44-.05-.13-.09-.27-.12-.41.09-1.82.09-3.08-.51-6.99.04-.4.35-3.6.89-7.23.05-1.01.53-10.12.64-11.62l.09-2.28c.1-1.18.2-2.37.31-3.55.26-3.65.12-4.57.05-8.64-.13-1.35-.25-2.7-.38-4.06l-.08-1.37c-.03-.27-.06-.54-.09-.81-1.01-.59-1.58-.08-2.25.69-2.84,3.26-6.49,4.66-10.8,4.66-5.59,0-10.46-2.52-15.56-4.23-3.83-1.28-7.6-2.78-11.6-3.5-.19-.03-.37-.07-.55-.09-2.54-.39-4.24-.26-5.04-1.36,0,.02-.01.05-.01.07l-.03.06c.92,4.19.91,8.48,1.3,12.73.27,2.92.37,5.85.54,8.78.77-2.75.95-2.71,3.89-2.34,6.11.75,11.76,2.8,17.16,5.66,2.79,1.47,5.01,3.57,6.59,6.26.85,1.45,1.41,3.23-.1,4.55-1.41,1.22-2.77.26-4-.72-6.05-4.81-12.84-7.91-20.56-8.85-1.28-.16-2.5-.54-3.01-1.95-.13,2.36-.15,4.71.13,7.06.73-.78,1.64-.97,2.67-.92,8.36.42,14.83,4.23,19.06,11.34,2.19,3.67,4.09,7.59,4.93,11.92.44,2.28,2.03,3.84,4.12,5,3.31,1.82,5.71,4.45,6.89,8.18,1.43,4.56,2.39,9.09,1.39,13.92-1.43,6.95-10.14,9.37-15.56,7.23-1.31-.51-1.97-1.88-2.59-3.03-1.13-2.1-1.97-4.34-2.93-6.52-2.43-1.7-4.86-3.38-7.26-5.1-.39-.28-.77-.44-1.23-.45.27,3.02-1.07,5.45-2.78,7.77-.52.7-1.4,1.16-1.51,2.15,1.7,1.23,3.5,2.34,5.06,3.74,2.39,2.14,4.72,4.4,5.26,7.81-.02.8-.56,1.08-1.19,1.45-4.62,2.72-9.58,4.3-14.93,4.7-1.03.08-2.46-.31-2.78,1.25-.32,1.55.58,2.64,1.84,3.31,2.35,1.25,4.87,1.48,7.46.91,2.66-.59,5.15-1.64,7.64-2.72,1.45-.63,2.93-1.17,4.53-1.33.91-.1,1.87-.19,2.36.83.45.95-.02,1.72-.6,2.47-2.42,3.11-5.79,4.74-9.43,5.76-7.87,2.22-15.66,1.37-23.36-.95-.15-.05-.29-.1-.43-.14-1.64-.36-3.63-1.53-4.74.34-1.08,1.8.68,3.27,1.82,4.45,4.12,4.24,9.43,5.7,15.13,6.09,5.4.37,10.73-.4,15.13-3.52,5.38-3.82,10.94-.66,14.79,2.69,1.18,1.03,2.49,2.02,2.29,3.88,1.13-.18,1.87.56,2.54,1.22,6.05,6,10.06,13.13,10.88,21.69,1.22,12.82.36,25.7.44,38.55.08,14.48-1.37,28.79-5.74,42.7-2.49,7.9-6.53,14.94-11.57,21.45-.46.59-1.09,1.06-1.19,1.87,1.22.1,1.91-.81,2.62-1.51,4.28-4.22,9.01-8.01,12.59-12.92.43-.59,1-.88,1.71-.91.29-1.19.95-2.18,1.58-3.21,4.19-6.88,7.31-14.23,9.57-21.96,1.53-5.26,2.47-10.65,3.61-15.99.85-9.64.89-19.31,1.32-28.97.04-.91.41-1.57,1.17-2.05,3.81-2.43,5.68-6.16,7.17-10.26,2.62-7.19,1.23-13.49-3.78-19.11-.49-.56-1.03-1.23-1.68-1.45-2.7-.9-3.01-2.88-2.94-5.34.14-4.88.06-9.77.09-14.65,0-.9.02-1.81-.55-2.59-.19-1.4-1.02-4.62-1.37-7.23-.1-1.5.03-2.71-.07-4.21-.07-1.76-.29-2.6-.36-3.48-.06-.86-.13-1.73-.19-2.6,0-1.12-.77-7.33-.77-7.33-.01-.27-.02-.55-.03-.82-.06-2.52.02-1.89-.79-4.6-.06-.72-.12-1.43-.18-2.16-.05-.03-.1-.07-.15-.11-.25-.77,0,0-.39-1.44-.18-.44-.37-.87-.56-1.31-.47-1.45-.71-1.76-.89-2.93-.2-.42-4.24-7.07-4.32-7.34-.09-.16-.18-.32-.27-.47-.2-.45-.39-.89-.59-1.33-.31-.65-1.79-4.2-1.88-4.62m-21.31,36.06c.41-1.56,1.98-1.65,3.35-1.67,3.74-.04,7.49.18,11.12-1.18,1.68-.64,3.12-1.84,4.97-2.08.87-.11,1.76-.56,2.5.33.72.86.58,1.82.28,2.78-.55,1.77-2,2.74-3.39,3.78-2.65,1.96-5.44,3.48-8.98,3.07-2.71.32-5.25-.52-7.72-1.75-1.38-.69-2.56-1.64-2.13-3.28Zm12.81,23.61c-2.67.17-4.98-.91-7.19-2.19-1.49-.86-2.93-1.82-4.35-2.79-1.01-.7-2.55-1.28-2.05-2.83.5-1.55,1.99-1.89,3.58-1.75,4.83.85,8.48,3.48,11.07,7.62.71,1.13.31,1.86-1.06,1.94Zm9.05-7.3c-2.31-.16-4.62-.69-6.67-1.83-1.08-.6-1.89-1.53-1.59-2.95.29-1.36,1.02-2.46,2.43-2.65,2.3-.32,4.61-.54,6.88.43,1.6.69,2.34,1.79,2.28,3.48.03,2.41-1.02,3.68-3.33,3.52Z"/><path class="uuid-474ece01-884e-4d3f-9119-3f4fe5312566" d="m403.22,468.1c-.35.21-.7.42-1.05.62-1.33.68-2.07,1.96-2.9,3.07-11.41,15.38-23.8,29.93-37.12,43.68-13.59,14.02-28.03,27.13-43.13,39.51-.92.76-1.85,1.52-2.78,2.28-.98.6-2.48.02-3.13,1.37-.28-.12-.57-.24-.86-.37.01-10.51.01-21.02.05-31.53.01-1.34-.07-2.31-1.77-2.45-7.24-.58-14.48-1.94-21.64.51-.58-.03-1.15-.04-1.43.63l.09.02c-2.11-.25-4.42,1.6-5.22,4.2-1.42.12-1.68,1.14-1.8,2.28-2.16,1.37-2.78,3.57-3.14,5.9-1.41,1.75-1.87,3.83-2.04,6h.03c-1.36,1.22-1.66,2.81-1.53,4.54-.06.13-.11.25-.17.37-.98.51-1.16,1.36-.99,2.35l.06.13-.11.09c-1.01-1.07-1.09-2.39-1.11-3.78-.11-9.89,2.78-19.41,3.52-29.21.33-4.47-1.33-7.72-5.73-8.97-.41-1.34-1.26-2.16-2.7-2.27-.35-1.17-1.09-1.94-2.3-2.23-.29-.16-.58-.31-.87-.47-.25-.45-.47-.92-.76-1.35-.36-.53-1.26-.96-.83-1.67.46-.78,1.25-.14,1.81.08,3.64,1.39,7.42,1.79,11.28,1.61,3.04.96,6.18,1.21,9.33,1.54,10.48,1.11,20.93,1.67,31.48.28,14.48-1.91,27.05-7.23,36.58-18.69,6.8-8.18,11.71-17.33,13.42-27.89.54-3.32,1.48-6.82.15-10.25,3.71.28,6.53-1.19,8.5-4.33,1.46.4,2.24-.71,3.08-1.49,4.42-4.14,6.11-9.64,7.4-15.29,1.1-4.84,1.01-9.84,1.62-14.73.94-7.61.79-14.95-2.48-22.03-.6-1.3-.92-2.67-.94-4.14-.01-1.66.03-3.3,1.98-3.8,1.74-.44,3.58-.82,4.79,1.21.38.63.97,1.16,1.78,1.28.15.34.34.68.45,1.03,3.56,11.28,3.76,22.79,2.13,34.37-1.59,11.3-4.86,22.09-10.06,32.3-3.96,7.8-9.15,14.77-14.15,21.88-1.11,1.59-2.61,2.96-3.61,5.2,2.23-.59,3.84-1.31,5.35-2.27,4.81-3.08,9.54-6.27,13.61-10.32,1.22.1,1.91-.81,2.62-1.51,4.28-4.22,9.01-8.01,12.59-12.92.43-.59,1-.88,1.71-.91.45,4.45.12,8.92.19,13.38.01,1.12-.11,2.26.75,3.16Z"/><path class="uuid-474ece01-884e-4d3f-9119-3f4fe5312566" d="m446.75,346.24c-1.63,6.26-3.86,12.32-5.95,18.42-3.25,9.45-4.34,19.32-6.19,29.05-1.14,6.03-3.98,11.15-9.42,14.46-2.5,1.53-5.25,2.17-8.15,2.23.85-9.64.89-19.31,1.32-28.97.04-.91.41-1.57,1.17-2.05,3.81-2.43,5.68-6.16,7.17-10.26,2.62-7.19,1.23-13.49-3.78-19.11-.49-.56-1.03-1.23-1.68-1.45-2.7-.9-3.01-2.88-2.94-5.34.14-4.88.06-9.77.09-14.65,0-.9.02-1.81-.55-2.59.06-.39.13-.79.19-1.18l.05-.07c.91-.29,1.28-.96,1.32-1.86.06-.1.08-.2.06-.32.13-.18.27-.36.4-.54,1.43-2.54,2.71-5.18,4.31-7.6,3.32-5.03,6.84-9.91,13.21-11.46,3.08-.19,5.96.34,8.46,2.29h0s0,0,0,0c.38.39.73.79,1.05,1.2.11.13.21.27.31.41.2.27.39.55.57.84,2.32,3.69,2.71,8.02,2.97,12.37.54,9-1.76,17.58-4,26.17Z"/><path class="uuid-21770709-e916-4def-a624-5995a535a56e" d="m200.59,204.42c4.02-5.56,7.74-11.35,12.66-16.22,1.32-1.31,2.46-2.81,4.17-3.67.14-.07.21-.11.47-.28,0,0,.27-.15.27-.15.16-.17.32-.34.48-.51,0,0,.26-.52.6-.87s2.17-2.04,2.17-2.04c.29-.15,1.04-.54,1.32-.69,0,0,1-1.42,2.57-2.22-.02-.28-.04-.56-.06-.84,3.9-1.48,7.01-4.31,10.61-6.32,2.22-1.25,4.43-2.51,6.69-3.69.29,1.16,1.1,1.91,1.96,2.67,5.47,4.82,9.91,10.48,13.1,17.02,4,8.19,5.76,17.03,7.06,25.96.57,3.89-.33,5.17-4.19,6.15-6.81,1.72-13.32,4.22-19.53,7.47-5,2.62-9.92,5.36-13.74,9.68-.98,1.1-1.2,2.37-.56,3.54.68,1.23,1.98.76,3.05.43.56-.17,1.1-.48,1.62-.77,7.28-4.06,14.56-8.06,22.56-10.63,8.54-2.74,17.2-3.36,26.06-2.41,5.61.6,11.08,1.93,16.6,2.99,2.46.47,4.85.93,7.07,2.1,2.16,1.94,4.62,3.55,6.49,5.82-.68.88-1.53,1.28-2.68,1.41-2.53.28-5.04.75-7.56,1.16-5.75.93-11.58,1.04-17.32.43-6.77-.72-13.5-.91-20.23-.12-9.94,1.17-19.4,3.98-28.22,8.84-7.25,4-13.78,8.88-18.76,15.55-4.74,6.34-7.11,13.68-8.32,21.43-.05.29-.06.61-.02.9.09.66.05,1.49.87,1.65.69.13,1.03-.53,1.3-1.06.7-1.33,1.41-2.66,2-4.04,2.44-5.71,5.68-10.94,9.79-15.55,8.67-9.75,19.83-15.21,32.39-17.89,11.59-2.47,23.14-1.54,34.61,1.12,2.26.52,4.61,1.02,6.9.94,5.17-.19,10.3-.99,15.4-1.92,7.75-1.42,15.28-3.97,23.21-4.4,2.43,0,4.36,1.04,5.9,2.87.16.88.28,1.76.49,2.63,1.4,5.99,1.2,6.22-4.76,7.82-8.23,2.21-16.53,4.22-23.86,8.86-1.87-2.49-3.38-3.2-5.37-2.52-2.35.8-2.94,1.84-3.06,5.28-.03.96-.14,1.92-.21,2.88-1.21-.2-2.12.43-3.1,1.01-3.09,1.83-6.39,3.18-9.94,3.87.25-2.08.55-4.16.72-6.25.28-3.44.63-6.91-.37-10.3-.85-2.88-3.34-4.01-6-2.77-2.16,1-2.62,2.98-2.75,5.06-.12,1.95.05,3.92-.16,5.86-.26,2.43-.24,4.96-1.7,7.12-3.91-1.11-7.81-2.21-11.72-3.32-2.86-1.54-5.91-2.13-9.11-1.7-9.78,1.29-19.61,2.54-29.02,5.61-3.14,1.02-6.68,2.67-6.91,7.03-1.17.23-1.71,1.09-2.17,2.08-3.24,6.89-4.77,14.21-5.21,21.76-.11,1.86-.63,2.63-2.5,2.41-3.15-.38-6.13-1.33-9.01-2.61-.69-.31-1.37-.6-2.15-.59-.91.01-1.62.34-2.01,1.18-.39.87.19,1.35.74,1.91,3.18,3.2,7.01,4.41,11.47,4.17,3.69-.2,4.75-.84,5.94-4.27.27-.78.41-1.64.82-2.33,4.49-7.5,9.69-14.23,18.32-17.46,9.87-3.69,19.52-3.45,28.93,1.35,3.58,1.83,3.68,3.13.86,5.72-.05.05-.06.14-.08.21-1.62.11-3.23-.64-4.85,0-16.34-.74-36.08,12.55-37.24,19.81,1.94-.61,3.5-1.77,5.12-2.8,3.87-2.45,7.73-4.92,11.63-7.34,1.22-.76,2.35-1.49,2.47,1.05.08,1.84,1.23,3.43,3.13,4.06,4.72,1.56,9.4,1.87,13.86-.87.92,1.19,2.17,1.1,3.43.84,1.58-.33,3.15-.31,5.14-.17-.82.74-1.3,1.16-1.78,1.59-5,1.65-10.01,3.1-15.37,3.04-2.99-.03-5.99.48-8.79,1.63-1,.41-2.37.79-2.33,2.12.04,1.36,1.38,1.8,2.46,2.3.2.09.44.1.65.16,5.23,1.35,10.47,1.64,15.7-.02-.45,1.11-1.57,1.35-2.48,1.74-5.26,2.25-10.82,3.52-16.35,4.84-2.01.48-3.49,1.48-3.63,3.7-.12,1.81,1.61,3.51,3.68,4.27,3.15,1.16,6.27.56,9.34.02,8.14-1.44,15.44-4.93,21.82-10.13,4.05-3.3,7.48-7.18,8.73-12.53.22-.94.86-1.79.17-2.76,2.84-2.62,5.52-5.34,5.84-9.51.36-.37.78-.7,1.06-1.13,2.54-3.76,6.2-6.18,9.97-8.49,3.14,1.07,6.28,2.13,8.99,4.13-1.46.74-2.84,1.76-4.39,2.17-3.61.95-4.32,1.76-4.79,5.56-.43,3.53.01,7.05-.15,10.54-.35,7.29-.06,14.57-.22,21.85-.04,1.88.02,3.77-.18,5.63-.46,4.18-.95,8.35-.65,12.56,0,.46,0,.91,0,1.37-.46,2.32.02,3.91,2.85,3.78.35-.02.71.19,1.06.3.04,1.2.07,2.4.11,3.59-.31,1.63-1.26,2.98-1.88,4.48-1.06.65-1.62,1.72-2.23,2.74-3.56,2.24-7.39,3.87-11.39,5.1-2.94-1.16-5.9-2.13-9.14-1.91-2.7.18-4.89,1.24-4.86,2.71.05,2.45,2.09,3.01,3.92,3.64,4.24,1.46,8.69,1.46,13.09,1.72,1.17.07,2.4,1.1,3.6.05.33.39.3,1.14.9,1.22,2.77.39,2.25,2.47,2,4.15-1.31,8.97-2.29,17.94-1.26,27.01-1.87-.01-3.76-.17-5.62-.02-10.1.82-20.17,1.98-30.33,1.68-1.12-.03-2.25.13-3.36.34-2.24.43-4.08,1.49-5.12,3.63-.36.74-.77,1.57-.07,2.3.68.72,1.4.15,2.04-.18,4.12-2.07,8.21-2.09,12.3.07,1.63,3.51,4.79,5.57,7.74,7.67,6.15,4.36,13.11,6.9,20.53,8.17-.79,1.45-2.27,1.49-3.63,1.79-3.24.71-6.39,1.62-9.21,3.45-4.25,2.77-4.17,5.05-1.31,9.14.5.72,1.27,1.28,1.99,1.81,3.32,2.47,7.12,3.85,11.14,4.58,2.46.45,4.97,1.04,7.5.34.59.25,1.18.5,1.77.74.12,2.93,1.56,5.63,1.32,8.65-.58,7.36-2.22,11.4-9.07,13.83-5.64,2.01-11.55,3.28-17.6,3.48-6.24.2-12.45-.63-18.68-.8-1.98-.05-3.56-.73-4.85-2.01-7.59-7.54-14.4-15.65-20.06-24.81-4.46-7.23-8.13-14.7-10.85-22.71-.66-1.94-.56-4.23-2.24-5.79.23-1.57.32-3.17.04-4.72-1.84-9.92-1.39-19.91-1.09-29.9.06-1.87.32-3.72-.09-5.6-.39-1.79-1.19-3.22-3.16-3.24-1.95-.02-3.5.92-4.07,2.93-.35,1.22-.71,2.5-.73,3.75-.2,12.52-1.24,25.11,2.75,37.33-.25.91.05,1.78.2,2.67,1.26,7.81,4.47,14.95,7.87,21.96,5.67,11.72,13.2,22.17,22.43,31.37.99.99,1.82,2.09,1.82,3.72-.06,13.39-.04,26.79-.04,40.18-.81-.11-1.29-.72-1.83-1.24-7.43-7.23-14.18-15.05-19.99-23.65-4.49-6.65-8.57-13.53-11.65-20.95-2.19-5.27-5.36-10.2-5.56-16.16,0-.21-.18-.41-.28-.61-.8-.72-.45-1.68-.49-2.53-.21-4.09.32-8.2-.21-12.28.03-.67-.21-1.27-.54-1.85,0,0,.04.08.04.08-.17-.31-.33-.61-.5-.92,0,0,.09-.02.09-.02l-.02.09c-.26-.22-.53-.44-.79-.65-.15-.31-.29-.63-.44-.94-.37-.84-.74-1.69-1.11-2.53,0,0,.09-.02.09-.02l-.02.09c-.32-.49-.65-.98-.97-1.48,0,0,.04.09.04.09-6.09-11.52-9.51-23.84-10.89-36.76-.32-2.96-.33-2.94-3.3-2.7-3.74.3-7.41.23-10.42-2.51-2.37-2.16-3.59-5.01-4.3-8.03-1.06-4.46-1.74-9.01-2.84-13.46-1.82-7.41-5.08-14.29-8.19-21.22-.8-1.77-1.42-3.63-2.6-5.21.03-.49,0-.97-.46-1.29.02-.75-.21-1.38-.83-1.84.02-.65.05-1.3-.56-1.74,0,0-.01-.03-.01-.03-.14-.23-.28-.47-.42-.7,0,0,.04-.13.04-.13-.9-4.01-2.49-7.84-2.99-11.96-1.1-9.13-1.78-18.26,1.14-27.2,1.45-4.46,4.33-7.64,9.07-8.81,7.52-.43,12.81,3.06,16.7,9.25,1.68,2.68,3.21,5.41,4.52,8.27.3.66.58,1.66,1.4,1.55,1.12-.14.72-1.28.83-2.04.4-2.91.39-5.83.48-8.76.07-2.24.33-4.49.74-6.69.77-4.15,2.63-7.94,4.09-11.87,2.01-5.4,4.05-10.8,6.07-16.2,1.28-3.43,1.86-6.58-1.09-9.77-2.1-2.27-3.4-5.28-4.57-8.2-2.58-6.47-2.58-13.19-1.69-19.95,1.39-10.51,4.84-20.36,9.46-29.87.6-1.24,2.32-2,1.82-3.77Zm43.44,229.08c.09-1.15-.26-2.22-.63-3.29-2.42-7.03-4.41-14.14-3.74-21.71.06-.63-.27-.97-.78-1.22.79-1.52,1.57-3.04,2.39-4.55,4.11-7.61,8.58-15,13.43-22.15,5.78-8.52,12.4-16.39,18.81-24.42.94-1.17,2.73-2.64,1.62-3.96-1.12-1.32-2.98.17-4.28.86-8.89,4.78-17.36,10.16-23.72,18.25-.9-1.03-1.31.08-1.77.47-7.34,6.19-12.83,13.73-16.59,22.57-2.15,5.06-3.42,10.23-2.43,15.75.72,4.02,1.72,4.83,5.89,4.84.36,7.44,1.34,14.79,2.87,22.09.93,4.42,1.85,8.79,3.94,12.84.82,1.59,1.99,2.59,3.7,2.41,1.6-.16,2.57-1.33,3.11-2.9,1.86-5.47-.05-10.48-1.77-15.53,0-.12-.01-.25-.05-.37Zm-74.48-77.44c-.02,5.51,1.64,10.7,5.49,15.07,1.33,1.51,2.82,2.97,5.07,3.04,2.07.06,2.48-.47,1.77-2.33-.38-.98-.77-1.97-1.27-2.89-3.79-7-2.71-13.44,2.17-19.46.91-1.12,1.44-2.28.95-3.73-1.02-3.06-2.05-6.12-3.07-9.18-.38-1.13-.88-1.15-1.73-.34-5.57,5.35-9.26,11.58-9.38,19.82Zm-12.73-29.05c-.04,6.45.52,12.1,2.18,17.61.27.89.23,2.2,1.61,2.01,1.23-.16,1.81-1.14,2.03-2.38.95-5.39,1.51-10.82,1.89-16.29.25-3.66-.11-7.6,2.8-10.64.51-.53.38-1.28.08-1.92-.62-1.35-4.04-3.53-5.32-3.34-2.33.35-3.38,2.01-3.97,4.09-1.07,3.79-1.44,7.66-1.3,10.86Zm42.93,26c-.02,1.33-.08,2.32,1.05,2.63,1.22.33,2.01-.44,2.61-1.34,1.75-2.62,3.41-5.3,5.18-7.91,3.53-5.22,8.23-9.1,13.8-11.99,1.31-.68,3.87-.98,3.4-2.48-.46-1.47-2.92-.83-4.53-.61-9.83,1.36-15.51,7.83-19.62,16.14-.92,1.87-1.77,3.83-1.89,5.56Zm32.91-15.76c-4.63-.22-7.77,2.32-10.35,5.73-1.31,1.73-.66,3.23,1.56,4.2,4.7,2.05,10.1.57,13.03-3.6,2.32-3.3,1.29-5.73-2.67-6.23-.52-.07-1.05-.06-1.57-.09Zm-10.14-15.83c-2.94-1.65-5.9-1.91-8.87-1.66-4.59.39-9.1,1.16-12.52,4.73-.48.5-.97,1.03-.59,1.77.39.78,1.04,1.33,1.96,1.24.66-.06,1.34-.24,1.95-.5,4.43-1.91,9-3.28,13.8-3.93,1.42-.19,2.9-.53,4.28-1.66Z"/><path class="uuid-80fd68c8-7513-42c3-83fa-e2514302636a" d="m156.38,354.86c.47.32.49.79.46,1.29-.65-.25-1.08-.58-.46-1.29Z"/><path class="uuid-9d61d8b3-9a2f-4f8c-9c3e-ca966f533cd6" d="m201.33,449.89c.15.32.29.63.44.94-.15-.32-.29-.63-.44-.94Z"/><path class="uuid-80fd68c8-7513-42c3-83fa-e2514302636a" d="m154.99,351.28c.61.45.58,1.1.56,1.74-.66-.43-.55-1.11-.56-1.74Z"/><path class="uuid-9d61d8b3-9a2f-4f8c-9c3e-ca966f533cd6" d="m199.37,446.04s-.04-.09-.04-.09c0,0,.04.09.04.09Z"/><path class="uuid-80fd68c8-7513-42c3-83fa-e2514302636a" d="m154.56,350.55c.14.23.28.47.42.7-.14-.23-.28-.47-.42-.7Z"/><polygon class="uuid-9d61d8b3-9a2f-4f8c-9c3e-ca966f533cd6" points="200.3 447.42 200.32 447.33 200.23 447.35 200.3 447.42"/><polygon class="uuid-9d61d8b3-9a2f-4f8c-9c3e-ca966f533cd6" points="202.56 451.48 202.58 451.39 202.49 451.41 202.56 451.48"/><path class="uuid-9d61d8b3-9a2f-4f8c-9c3e-ca966f533cd6" d="m202.99,452.34s-.04-.08-.04-.08c0,0,.04.08.04.08Z"/><path class="uuid-e128fb38-fa7d-4544-a2a0-b729b97c2bbb" d="m200.59,204.42c.5,1.76-1.21,2.52-1.82,3.77-4.62,9.51-8.07,19.36-9.46,29.87-.89,6.76-.89,13.48,1.69,19.95,1.17,2.93,2.47,5.94,4.57,8.2,2.95,3.19,2.37,6.34,1.09,9.77-2.02,5.4-4.06,10.79-6.07,16.2-1.46,3.92-3.32,7.72-4.09,11.87-.41,2.2-.67,4.45-.74,6.69-.09,2.93-.08,5.85-.48,8.76-.11.76.3,1.9-.83,2.04-.82.1-1.1-.89-1.4-1.55-1.31-2.86-2.84-5.6-4.52-8.27-3.89-6.2-9.19-9.68-16.7-9.25.05-10.15.05-20.3.18-30.45.12-9.85.15-19.71,2.55-29.36,1.96-7.9,4.93-15.44,8.13-22.89.08-.14.16-.28.23-.42.12-.08.21-.19.27-.32,6-4.09,11.96-8.26,18.65-11.16,2.88-1.25,5.84-2.29,8.76-3.43Z"/><path class="uuid-a5c397d5-b37c-4d3b-b907-7c09ef999f87" d="m172.91,219.33c-.08.14-.16.28-.23.42.08-.14.16-.28.23-.42Z"/><path class="uuid-7a49273c-595e-4e2a-b06e-389cfdaedebe" d="m441.61,280.18c-.44-.03-.57-.38-.66-.74.33.11.72.14.96.34.19.16-.06.41-.3.4Z"/><path class="uuid-45423f05-7388-4f7f-8ee0-eb9f32074b93" d="m437.38,302.94c-6.37,1.55-9.89,6.43-13.21,11.46-1.6,2.42-2.88,5.06-4.31,7.6-.13.18-.27.36-.4.54.02.12,0,.22-.06.32.26,1.52-1.56,3.11-1.56,3.11-.8-1.7-.77-2.68-.85-3.62-.1-1.22-.4-1.59-.52-3.61-.1-1.5-1.36-21.61-2.21-23.04-.06-.72-1.09-4.58-1.28-5.02-.1-1.2-5.13-10-5.21-10.27-.09-.16-.18-.32-.27-.47-.2-.45-1.46-2.98-1.51-3.11-.76-1.99-1.67-3.39-2.03-4.66-.16-.45-2.1-5.51-2.13-5.65-.55-2.3-.69-5.18-.41-7.54.04-.4,1.42-17.35,1.53-18.85l.09-2.28c.1-1.18.2-2.37.31-3.55.26-3.65.12-4.57.05-8.64-.13-1.35-.25-2.7-.38-4.06-.03-.58-.09-.78-.08-1.37-.03-.27-.06-.54-.09-.81-.66-5.87-2.62-11.38-4.71-16.85-2.52-6.64-6.25-12.6-10.39-18.31-.26-.35-.42-.77-.83-1.53,3.04.51,5.37,1.89,7.75,2.98,9.46,4.33,17.37,10.81,23.35,19.2,4.46,6.27,7.8,13.32,10.49,20.61,4.15,11.28,6.93,22.92,8.19,34.8,1.02,9.69,1.88,19.45,1.59,29.24-.09,2.85-.19,5.71.32,8.56.32,1.73.13,3.46-1.23,4.82Z"/><polygon class="uuid-a5c397d5-b37c-4d3b-b907-7c09ef999f87" points="385.02 181.05 384.92 180.96 384.94 180.94 385.02 181.05"/><path class="uuid-e128fb38-fa7d-4544-a2a0-b729b97c2bbb" d="m204.19,468.92c.1.2.27.4.28.61.19,5.96,3.37,10.89,5.56,16.16,3.08,7.43,7.15,14.31,11.65,20.95,5.82,8.6,12.56,16.41,19.99,23.65.53.52,1.01,1.13,1.83,1.24.76.76,1.51,1.52,2.27,2.28.15.14.31.28.46.41l.17.03h.17c.2.14.41.3.61.45.12.14.24.27.37.41.26.84.92,1.36,1.55,1.89,4.82,4.06,9.7,8.04,14.93,11.57,3.34,2.26,6.49,4.83,10.26,6.39.41.77,1.16,1.11,1.86,1.55,3.92,2.46,7.82,4.94,11.72,7.42-23.96,4.81-48,9.11-72.24,12.27-3.21.42-6.43.73-9.61,1.31-1.83.33-2.28-.13-2.27-1.96.08-15.05.06-30.09.06-45.14,0-19.49-.03-38.97-.03-58.46,0-1.01-.34-2.11.42-3.04Z"/><path class="uuid-8fd4177e-cd05-4117-bc29-79f967247abd" d="m287.86,563.94c-3.91-2.48-7.8-4.96-11.72-7.42-.7-.44-1.45-.78-1.86-1.55l.02-.02c.86.26,1.82.35,2.56.8,3.2,1.93,6.37,3.92,9.48,5.99,1.22.81,2.47,1.16,3.84.87,6.53-1.4,13.04-2.88,19.57-4.29,1.19-.26,1.56-.9,1.56-2.06-.03-9.56-.03-19.11,0-28.67,0-1.47-.6-2.1-2-2.49-2.38-.66-4.8-.16-7.18-.5-3.82-.54-7.58-.66-11.33.76-1.57.6-3.03,1.78-4.88,1.51l1.62-1.44s-.09-.03-.09-.03c.57,0,1.1-.07,1.43-.62,7.16-2.46,14.4-1.1,21.64-.51,1.7.14,1.78,1.11,1.77,2.46-.05,10.51-.04,21.02-.05,31.53-1.21,1.41-3.02,1.2-4.57,1.54-6.59,1.47-13.21,2.78-19.83,4.14Z"/><path class="uuid-654c5827-f29f-47ae-818f-dab43f27dc51" d="m357.01,215.73c-.69,2.2-.52,4.46-.53,6.72-.02,2.79-.41,3.35-3.28,3.2-4.79-.26-9.57-.59-14.37-.48-3.73.08-7.5-.25-11.19.42-3.73.68-7.51,1.11-11.25,1.8-3.81.71-7.6,1.54-11.41,2.26-.85.16-1.39.53-1.36,1.47-2.22-1.17-4.61-1.62-7.07-2.1-5.52-1.06-10.99-2.39-16.6-2.99-8.86-.95-17.52-.33-26.06,2.41-8.01,2.57-15.29,6.57-22.56,10.63-.52.29-1.06.6-1.62.77-1.08.33-2.37.8-3.05-.43-.65-1.16-.43-2.43.55-3.54,3.82-4.31,8.74-7.05,13.74-9.67,6.21-3.26,12.72-5.75,19.53-7.48,3.86-.97,4.76-2.25,4.19-6.15-1.29-8.93-3.06-17.77-7.06-25.96-3.19-6.54-7.62-12.2-13.1-17.02-.86-.76-1.66-1.52-1.96-2.67,9.97-5.44,20.48-9.39,31.59-11.79,7.38-1.6,14.87-2.24,22.38-2.65.82-.04,1.65.04,2.48.06,6.69,1.67,13.55,2.58,20.01,5.25,14.97,6.18,25.15,17.04,31.59,31.68,2.54,5.78,4.25,11.8,5.44,17.97.11.56.22,1.12.32,1.68.01.06.02.12.03.18.21,1.18.47,2.36.25,3.58-.02.3-.08.6-.12.9-.09.67-.09,1.32.52,1.89l-.03.06Z"/><path class="uuid-e128fb38-fa7d-4544-a2a0-b729b97c2bbb" d="m222.74,179.98c-.29.15-.57.31-.86.46.29-.16.57-.31.86-.46Z"/><path class="uuid-7a49273c-595e-4e2a-b06e-389cfdaedebe" d="m405.04,166.37c-.04,1.01-.93.96-1.66,1.02-.59-.07-1.41-.04-1.37-.78.04-.96.99-.94,1.71-.98.56-.04,1.35-.1,1.32.74Z"/><path class="uuid-80fd68c8-7513-42c3-83fa-e2514302636a" d="m416.29,166.96s-.07.1-.11.15c-.08-.07-.17-.13-.24-.21,0-.02.07-.1.1-.15.09.07.17.14.25.21Z"/><path class="uuid-80fd68c8-7513-42c3-83fa-e2514302636a" d="m412.62,166.95s-.08.13-.13.13c-.37-.02-.38-.33-.45-.58h0c.26.06.57.08.58.45Z"/><path class="uuid-8fd4177e-cd05-4117-bc29-79f967247abd" d="m390,339.42c-1.94,2.22-4.56,3.08-7.33,3.51-1.61.24-3.27.22-4.92.23-1.39.02-1.87.39-.93,1.69,2.41,3.32,3.85,7.06,4.63,11.07l.03.16c.08,1.6.15,3.2.23,4.79-.68,3.48-1.71,6.8-3.65,9.82-3.83,5.94-11.02,7.69-17.1,4.22-4.22-2.41-7.01-6.24-10.1-9.78-1.61-1.85-3.1-3.81-5.15-5.23-2.31-2.85-5.03-5.28-7.77-7.69.01-3.07.06-6.14.01-9.21-.04-2.81-.6-5.51-2.05-7.95-3.61-6.09-7.74-11.88-11.04-18.16-1.45-5.84-.34-8.34,4.62-10.35.78-.25,1.55-.5,2.33-.73,1.01-.3,1.59.03,1.65,1.12-.73.94-1.5,1.87-2.18,2.85-.4.57-.58,1.27-.09,1.88.47.58,1.12.29,1.66.1,1.42-.49,2.74-1.19,4-2.02,2.93-1.95,5.88-3.87,8.85-5.76,1.43-.91,2.35-.95,2.53,1.22.27,3.14,2.03,5.12,5.17,6.03,4.97,1.45,9.8.51,14.67-.43,2.12-.41,4.16-1.38,6.4-.85-.02.8-.56,1.08-1.19,1.45-4.62,2.72-9.58,4.3-14.93,4.7-1.03.08-2.46-.31-2.78,1.25-.32,1.55.58,2.64,1.84,3.31,2.35,1.25,4.87,1.48,7.46.91,2.66-.59,5.15-1.64,7.64-2.72,1.45-.63,2.93-1.17,4.53-1.33.91-.1,1.87-.19,2.36.83.45.95-.02,1.72-.6,2.47-2.42,3.11-5.79,4.74-9.43,5.76-7.87,2.22-15.66,1.37-23.36-.95-.15-.05-.29-.1-.43-.14-1.64-.36-3.63-1.53-4.74.34-1.08,1.8.68,3.27,1.82,4.45,4.12,4.24,9.43,5.7,15.13,6.09,5.4.37,10.73-.4,15.13-3.52,5.38-3.82,10.94-.66,14.79,2.69,1.18,1.03,2.49,2.02,2.29,3.88Z"/><path class="uuid-32581459-fe81-4379-bb5a-b974de29567a" d="m386.71,289.88c-1.51,3.64-4.54,4.92-9.78,4.14-2.43-1.7-4.86-3.38-7.26-5.1-.39-.28-.77-.44-1.23-.45-2.36-3.07-5.88-3.46-9.3-3.71-7.69-.56-14.92,1.28-21.77,4.7-4.74,2.37-9.15,5.16-12.12,9.76-.48.74-.79,1.5-.39,2.31.42.85,1.31.91,2.15.9,1.96-.03,3.6-.96,5.14-2.03,6.25-4.36,13.07-5.61,20.58-4.39,3.86.62,7.59,1.75,11.42,2.38,1.7,1.23,3.5,2.34,5.06,3.74,2.39,2.14,4.72,4.4,5.26,7.81-2.24-.53-4.28.44-6.4.85-4.87.94-9.7,1.88-14.67.43-3.14-.91-4.9-2.89-5.17-6.03-.18-2.17-1.1-2.13-2.53-1.22-2.97,1.89-5.92,3.81-8.85,5.76-1.26.83-2.58,1.53-4,2.02-.54.19-1.19.48-1.66-.1-.49-.61-.31-1.31.09-1.88.68-.98,1.45-1.91,2.18-2.85,1.81-1.62,3.61-3.23,5.77-5.16-4.18.59-7.13,2.36-9.75,4.77-4.96,2.01-6.07,4.51-4.62,10.35-1.1-.04-1.84.59-2.43,1.41-3.56,4.98-7.54,9.69-10.08,15.33-.69-8.01-1.51-16.01-2.01-24.03-.23-3.64-.58-7.33-.02-10.99.16-.17.33-.33.51-.49.83-.76,1.76-1.42,2.63-2.15.42-.35.82-.72,1.19-1.12.18-.21.36-.42.53-.64.76-.42,1.46-.88,2.13-1.38,1.71-1.26,3.13-2.74,4.33-4.37.25-.34.49-.69.72-1.05.19-.27.36-.54.53-.83.19-.32.38-.64.56-.97.33-.58.63-1.17.91-1.78.11-.21.21-.43.3-.64.38-.82.72-1.67,1.05-2.53.11-.28.22-.57.32-.86.11-.29.21-.58.31-.87,2.1.58,4.17.88,6.41.57,3.82-.55,7.41-1.85,11.01-3.06,5.25-1.76,10.44-3.75,15.08-6.87.79-.53,1.56-.68,2.28-.11,1.1.88,2.36,1.47,3.39,2.53,2.08,2.13,4.32,4.13,6.8,5.85,4.4,3.06,7.91,2.73,11.23-1.11.23-.26.63-.37.96-.55,1.96,2.39,2.66,5.29,3.3,8.21.41,1.84.67,3.68-.09,5.5Z"/><path class="uuid-7a49273c-595e-4e2a-b06e-389cfdaedebe" d="m403.86,400.87c.08,14.48-1.37,28.79-5.74,42.7-2.49,7.9-6.53,14.94-11.57,21.45-.46.59-1.09,1.06-1.19,1.87-4.07,4.05-8.8,7.24-13.61,10.32-1.51.96-3.12,1.68-5.35,2.27,1-2.24,2.5-3.61,3.61-5.2,5-7.11,10.19-14.08,14.15-21.88,5.2-10.21,8.47-21,10.06-32.3,1.63-11.58,1.43-23.09-2.13-34.37-.11-.35-.3-.69-.45-1.03-.25-1.16-.44-2.35-.78-3.49-2.12-7.2-5.69-13.74-9.15-20.35-.08-1.59-.15-3.19-.23-4.79l.08-.09-.11-.07c-.78-4.01-2.22-7.75-4.63-11.07-.94-1.3-.46-1.67.93-1.69,1.65-.01,3.31.01,4.92-.23,2.77-.43,5.39-1.29,7.33-3.51,1.13-.18,1.87.56,2.54,1.22,6.05,6,10.06,13.13,10.88,21.69,1.22,12.82.36,25.7.44,38.55Z"/><path class="uuid-a8030860-22a1-41a0-ab06-27f29e97ea84" d="m358.95,246.9c-.35,1.33-.09,2.76-.71,4.04-6.29-.9-12.58-1.8-18.87-2.7-.16-.19-.32-.36-.48-.53-.1-.11-.19-.2-.3-.3-.02-.02-.05-.04-.07-.06s-.04-.04-.06-.05c-.08-.08-.16-.15-.24-.21-.06-.06-.12-.11-.18-.14-.08-.07-.15-.13-.23-.18-.11-.09-.23-.17-.34-.24-.07-.05-.14-.09-.21-.13-.16-.11-.33-.2-.5-.28-.12-.06-.23-.11-.35-.16-.03-.01-.07-.03-.1-.04-.1-.05-.2-.09-.3-.12-.19-.07-.38-.13-.57-.18-.21-.06-.42-.1-.64-.14-.28-.05-.57-.09-.87-.1-.15-.01-.3-.01-.45-.01h0c-.01-.58.2-1,.52-1.29.08-.08.17-.14.25-.2.13-.09.28-.17.43-.23.15-.07.3-.12.46-.16,5.47-1.42,11.09-2.03,16.68-1.59,5.57.43,6.07.33,6.02-5.11,0-.3-.01-.6,0-.9.05-1.38-.57-1.92-1.98-2.13-6.67-.96-13.34-1.51-20.07-.85-3.35.33-6.8.36-10.01,1.24-5.16,1.42-10.42,2.03-15.67,2.78-1.87-2.27-4.33-3.88-6.49-5.82-.03-.94.51-1.31,1.36-1.47,3.81-.72,7.6-1.55,11.41-2.26,3.74-.69,7.52-1.12,11.25-1.8,3.69-.67,7.46-.34,11.19-.42,4.8-.11,9.58.22,14.37.48,2.87.15,3.26-.41,3.28-3.2.01-2.26-.16-4.52.53-6.72.92,4.19.91,8.48,1.3,12.73.27,2.92.37,5.85.54,8.78,0,.87-.02,1.74-.03,2.61-.13,2.36-.15,4.71.13,7.06Z"/><path class="uuid-7a49273c-595e-4e2a-b06e-389cfdaedebe" d="m398.01,296.35c-1.43,6.95-10.14,9.37-15.56,7.23-1.31-.51-1.97-1.88-2.59-3.03-1.13-2.1-1.97-4.34-2.93-6.52,5.24.78,8.27-.5,9.78-4.14.76-1.82.5-3.66.09-5.5-.64-2.92-1.34-5.82-3.3-8.21-.76-1.23-1.64-2.42-1.3-4.01.11-.51.21-1.01.31-1.52.09-.31.23-.84.15-1.23,0-.1-.04-.19-.08-.28-.06-.13-.14-.26-.26-.38-.04-.05-.08-.09-.13-.13h-.01c-.11-.15-.22-.28-.34-.42-4.62-8.7-11.98-13.8-21.35-16.29-.8-.21-1.61-.4-2.25-.97.62-1.28.36-2.71.71-4.04.73-.78,1.64-.97,2.67-.92,8.36.42,14.83,4.23,19.06,11.34,2.19,3.67,4.09,7.59,4.93,11.92.44,2.28,2.03,3.84,4.12,5,3.31,1.82,5.71,4.45,6.89,8.18,1.43,4.56,2.39,9.09,1.39,13.92Z"/><path class="uuid-8fd4177e-cd05-4117-bc29-79f967247abd" d="m365.66,296.24c-.52.7-1.4,1.16-1.51,2.15-3.83-.63-7.56-1.76-11.42-2.38-7.51-1.22-14.33.03-20.58,4.39-1.54,1.07-3.18,2-5.14,2.03-.84.01-1.73-.05-2.15-.9-.4-.81-.09-1.57.39-2.31,2.97-4.6,7.38-7.39,12.12-9.76,6.85-3.42,14.08-5.26,21.77-4.7,3.42.25,6.94.64,9.3,3.71.27,3.02-1.07,5.45-2.78,7.77Z"/><path class="uuid-7a49273c-595e-4e2a-b06e-389cfdaedebe" d="m386.39,251.36c-1.41,1.22-2.77.26-4-.72-6.05-4.81-12.84-7.91-20.56-8.85-1.28-.16-2.5-.54-3.01-1.95.01-.87.02-1.74.03-2.61.77-2.75.95-2.71,3.89-2.34,6.11.75,11.76,2.8,17.16,5.66,2.79,1.47,5.01,3.57,6.59,6.26.85,1.45,1.41,3.23-.1,4.55Z"/><path class="uuid-7a49273c-595e-4e2a-b06e-389cfdaedebe" d="m405.94,308.24c-.55,1.77-2,2.74-3.39,3.78-2.65,1.96-5.44,3.48-8.98,3.07-2.71.32-5.25-.52-7.72-1.75-1.38-.69-2.56-1.64-2.13-3.28.41-1.56,1.98-1.65,3.35-1.67,3.74-.04,7.49.18,11.12-1.18,1.68-.64,3.12-1.84,4.97-2.08.87-.11,1.76-.56,2.5.33.72.86.58,1.82.28,2.78Z"/><path class="uuid-a8030860-22a1-41a0-ab06-27f29e97ea84" d="m396.53,333.67c-2.67.17-4.98-.91-7.19-2.19-1.49-.86-2.93-1.82-4.35-2.79-1.01-.7-2.55-1.28-2.05-2.83.5-1.55,1.99-1.89,3.58-1.75,4.83.85,8.48,3.48,11.07,7.62.71,1.13.31,1.86-1.06,1.94Z"/><path class="uuid-7a49273c-595e-4e2a-b06e-389cfdaedebe" d="m408.91,322.85c.03,2.41-1.02,3.68-3.33,3.52-2.31-.16-4.62-.69-6.67-1.83-1.08-.6-1.89-1.53-1.59-2.95.29-1.36,1.02-2.46,2.43-2.65,2.3-.32,4.61-.54,6.88.43,1.6.69,2.34,1.79,2.28,3.48Z"/><path class="uuid-a8030860-22a1-41a0-ab06-27f29e97ea84" d="m357.11,214.75c0,.28-.02.56-.06.84,0,.02-.01.05-.01.07-.61-.57-.61-1.22-.52-1.89.04-.3.1-.6.12-.9.34.6.47,1.24.47,1.88Z"/><path class="uuid-7a49273c-595e-4e2a-b06e-389cfdaedebe" d="m365.91,448.03c1.33,3.43.39,6.93-.14,10.24-1.71,10.56-6.62,19.71-13.42,27.89-9.53,11.46-22.1,16.78-36.58,18.69-10.55,1.39-21,.83-31.48-.28-3.14-.33-6.29-.58-9.33-1.54,1.09-.88,2.49-.25,3.65-.76,3.36-.34,6.73-.68,10.09-1.02,7.7-.78,15.48-.94,22.97-3.22,6.05-1.84,11.77-4.19,15.69-9.52,2.34-3.19,3.38-6.84,3.67-10.74.76-1.1,1.47-2.23,2.28-3.29,4.22-5.52,8.66-10.89,12.66-16.57,5.21-7.4,10.94-14.43,15.85-22.05.86-1.33,1.4-3.42,3.55-3.71-.41,3.59-1.91,6.98-1.65,10.71.14,2.06.55,3.82,2.19,5.16Z"/><path class="uuid-9d61d8b3-9a2f-4f8c-9c3e-ca966f533cd6" d="m381.71,360.87c3.45,6.6,7.03,13.15,9.15,20.34.34,1.14.52,2.33.78,3.49-.81-.12-1.4-.65-1.78-1.28-1.21-2.03-3.05-1.65-4.79-1.21-1.95.5-2,2.13-1.98,3.8.02,1.47.33,2.83.94,4.14,3.27,7.07,3.42,14.42,2.48,22.02-.61,4.89-.52,9.89-1.63,14.73-1.29,5.65-2.98,11.16-7.4,15.29-.84.78-1.62,1.89-3.07,1.48.54-1.55,1.07-3.11,1.61-4.66,5.25-15.13,4.26-33.83-11.29-45.24-.65-.49-1.3-.98-1.95-1.47-.08-.44-.06-.93-.26-1.31-2.94-5.42-5.92-10.83-8.86-16.25-1.32-2.42-2.95-4.66-3.96-7.25.57-1.41.11-2.3-1.36-2.68v-.02c-.07-.45-.29-.77-.74-.89-1.01-1.17-2.02-2.33-1.88-4.03,2.05,1.42,3.54,3.38,5.15,5.23,3.09,3.54,5.88,7.37,10.1,9.78,6.08,3.48,13.28,1.72,17.1-4.22,1.94-3.02,2.97-6.34,3.66-9.82Z"/><path class="uuid-8fd4177e-cd05-4117-bc29-79f967247abd" d="m364.74,393.79c15.55,11.41,16.54,30.11,11.29,45.24-.54,1.55-1.07,3.11-1.61,4.66-1.97,3.14-4.79,4.61-8.5,4.34-1.64-1.34-2.05-3.1-2.19-5.16-.25-3.73,1.24-7.12,1.65-10.71.57-1.61,1.24-3.2,1.7-4.85,1.19-4.31,2.69-8.59,2.06-13.2.35-5.89-1.29-11.36-3.49-16.71-.48-1.16-1.18-2.27-.91-3.62Z"/><path class="uuid-8fd4177e-cd05-4117-bc29-79f967247abd" d="m274.28,554.97c-3.77-1.56-6.92-4.13-10.26-6.39-5.22-3.54-10.11-7.52-14.93-11.57-.63-.53-1.29-1.05-1.55-1.89,3.04.82,5.1,3.2,7.2,5.17,3.65,3.41,8.04,5.66,11.92,8.68.96.75,2.1,2.45,3.01,1.91,1.16-.69.01-2.44,0-3.72-.06-3.8,1.05-7.42,1.38-11.14.68-7.53,2.12-14.96,2.56-22.52,1.29,1.2.6,2.71.45,4.02-.7,6.27-1.58,12.53-2.35,18.79-.61,4.97-1.98,9.92-.62,14.98.13.47-.09,1.21.67,1.18.59-.03.72-.68.87-1.18l.11-.09s-.06-.13-.06-.13c.77-.6.74-1.53.99-2.35.06-.12.11-.25.17-.37.86-1.4,1.3-2.94,1.53-4.55,0,0-.03,0-.03,0,.64-1.42,1.28-2.84,1.91-4.26-.13,3.32-1.24,6.36-2.53,9.39-.8,1.88-2.69,3.84-.44,6.01l-.02.02Z"/><path class="uuid-32581459-fe81-4379-bb5a-b974de29567a" d="m272.64,551.3c-.15.5-.28,1.15-.87,1.18-.76.03-.54-.71-.67-1.18-1.36-5.06,0-10.01.62-14.98.77-6.27,1.65-12.52,2.35-18.79.15-1.31.84-2.82-.45-4.02,0,0-.03,0-.03,0-.47-.73-1.11-1.26-1.92-1.56l-.05.09c-.16-.19-.32-.38-.48-.57-.12-.11-.24-.23-.37-.34-.19-.16-.38-.32-.56-.48-.16-.13-.31-.26-.47-.38-.19-.26-.37-.52-.56-.78l.14-.16c4.4,1.25,6.06,4.5,5.72,8.97-.74,9.8-3.63,19.32-3.51,29.21.02,1.39.09,2.71,1.11,3.78Z"/><path class="uuid-32581459-fe81-4379-bb5a-b974de29567a" d="m278.6,502.28c-1.16.51-2.56-.12-3.65.76-3.87.18-7.64-.22-11.28-1.62-.56-.21-1.35-.85-1.81-.08-.42.71.47,1.14.83,1.67.29.43.51.9.77,1.35,0,0-.12.13-.12.13-.27-.05-.54-.1-.8-.15-.15-.14-.29-.27-.44-.41-.96-1.27-2.13-2.3-3.56-3l-.07-.14c-.24-.58-.74-.84-1.28-1.04v.04c-.28-.2-.58-.39-.87-.59l.08-.02c-.36-.8-1.57-.95-1.58-2.02.29.07.59.09.86.21,7.3,3.23,14.69,6.02,22.92,4.92Z"/><path class="uuid-32581459-fe81-4379-bb5a-b974de29567a" d="m287.55,525.44c-.54.48-1.08.96-1.62,1.44,0,0,0,.01,0,.01-.77.25-1.38.69-1.78,1.4h0c-.58.47-1.17.94-1.75,1.41l-.06-.07c.8-2.6,3.11-4.45,5.22-4.19Z"/><path class="uuid-32581459-fe81-4379-bb5a-b974de29567a" d="m277.39,537.82c.35-2.34.98-4.53,3.14-5.9l.15.14c-1.05,1.95-2.1,3.91-3.15,5.86l-.14-.1Z"/><path class="uuid-32581459-fe81-4379-bb5a-b974de29567a" d="m277.26,539.55c-.64,1.42-1.28,2.84-1.91,4.26.16-2.17.63-4.25,2.04-6,0,0,.14.1.14.1-.09.56-.18,1.12-.26,1.68,0,0,0-.04,0-.04Z"/><path class="uuid-32581459-fe81-4379-bb5a-b974de29567a" d="m264.32,504.83c1.21.29,1.95,1.06,2.29,2.23l-.15.17c-.33-.13-.66-.26-.99-.38l-.05.03c-.17-.15-.34-.29-.5-.44l.04.05c-.05-.3-.24-.45-.54-.47l.08-.02c-.16-.29-.31-.58-.47-.86.09-.1.19-.2.28-.31Z"/><path class="uuid-32581459-fe81-4379-bb5a-b974de29567a" d="m275.38,543.81c-.23,1.61-.67,3.15-1.53,4.55-.13-1.73.17-3.32,1.53-4.55Z"/><path class="uuid-32581459-fe81-4379-bb5a-b974de29567a" d="m266.62,507.07c1.45.11,2.29.93,2.71,2.27,0,0-.14.16-.14.16-.23-.09-.46-.17-.69-.26v.08c-.16-.17-.34-.34-.52-.51l.05.07c-.18-.16-.36-.31-.54-.47l.04.02c-.36-.4-.71-.79-1.07-1.19l.15-.17Z"/><path class="uuid-32581459-fe81-4379-bb5a-b974de29567a" d="m280.53,531.92c.12-1.14.38-2.16,1.79-2.29,0,0,.06.07.06.07-.39.67-.79,1.35-1.18,2.02,0,0-.02.02-.02.02-.17.1-.34.21-.51.31l-.15-.14Z"/><path class="uuid-32581459-fe81-4379-bb5a-b974de29567a" d="m273.68,548.73c-.25.82-.22,1.75-.99,2.35-.17-.99,0-1.84.99-2.35Z"/><path class="uuid-32581459-fe81-4379-bb5a-b974de29567a" d="m288.89,524.79c-.33.55-.86.63-1.43.62.28-.67.85-.66,1.43-.62Z"/><path class="uuid-32581459-fe81-4379-bb5a-b974de29567a" d="m263.45,504.36c.29.16.58.31.87.47-.09.1-.18.2-.28.31-.24-.21-.48-.43-.71-.64,0,0,.12-.13.12-.13Z"/><path class="uuid-7a49273c-595e-4e2a-b06e-389cfdaedebe" d="m419.46,322.55c.13-.18.27-.36.4-.54-.13.18-.27.36-.4.54Z"/><path class="uuid-654c5827-f29f-47ae-818f-dab43f27dc51" d="m258.47,500.79s.07.14.07.14c.52,1.79,1.74,2.76,3.56,3,.15.14.29.27.44.41.19,1.11.7,1.85,1.98,1.66,0,0-.08.02-.08.02.18.16.36.32.54.47,0,0-.04-.05-.04-.04.17.15.34.29.5.44,0,0,.05-.03.04-.03.05,1.37.97,1.58,2.07,1.57,0,0-.04-.02-.04-.02.18.16.36.31.54.47,0,0-.05-.07-.05-.07.18.17.35.34.53.51,0,0-.01-.08-.01-.08-.03.88.56,1.02,1.25,1.04.16.13.31.26.47.38.19.16.38.32.56.48.12.11.24.23.37.34.16.19.32.38.48.57,0,0,.05-.09.05-.09.1,1.19.5,2,1.92,1.56,0,0,.03,0,.03,0-.44,7.55-1.88,14.99-2.56,22.52-.34,3.72-1.44,7.34-1.38,11.14.02,1.29,1.16,3.04,0,3.72-.91.54-2.05-1.17-3.01-1.91-3.87-3.02-8.27-5.27-11.92-8.68-2.1-1.97-4.17-4.35-7.2-5.17-.12-.14-.24-.27-.37-.41-.2-.16-.41-.31-.61-.47h-.17s-.17-.02-.17-.02c-.15-.14-.31-.28-.46-.41-.76-.76-1.51-1.52-2.27-2.28,0-13.39-.02-26.79.04-40.18,0-1.64-.82-2.73-1.82-3.72-9.24-9.2-16.76-19.65-22.43-31.37-3.39-7.02-6.6-14.16-7.87-21.96-.14-.89-.44-1.76-.2-2.67,2.24,1.28,4.36,1.15,6.35-.55,1.68,1.56,1.58,3.85,2.24,5.79,2.73,8.01,6.4,15.48,10.85,22.71,5.65,9.17,12.47,17.28,20.06,24.81,1.29,1.28,2.87,1.96,4.85,2.01,6.23.17,12.44,1,18.68.8,6.05-.2,11.96-1.47,17.6-3.48,6.84-2.44,8.49-6.48,9.07-13.83.24-3.02-1.2-5.72-1.32-8.65,4.19-.02,8.39-.2,12.57-.02,4.06.18,8,1.05,11.42,3.52,4.48,3.23,6.77,7.66,7.44,13.05-.29,3.9-1.33,7.55-3.67,10.74-3.91,5.32-9.64,7.68-15.69,9.52-7.49,2.28-15.27,2.44-22.97,3.22-3.36.34-6.73.68-10.09,1.02-8.23,1.1-15.62-1.69-22.92-4.92-.26-.12-.57-.14-.86-.21,0,0,.04.04.04.04-.17-.33-.41-.29-.68-.13-.92,2.45.94,1.99,2.22,2.12,0,0-.08.02-.08.02.11.47.44.61.88.59,0,0,0-.04,0-.04,0,.88.59,1.02,1.28,1.04Z"/><path class="uuid-9d61d8b3-9a2f-4f8c-9c3e-ca966f533cd6" d="m331.02,477.78c-.66-5.38-2.96-9.82-7.44-13.05-3.42-2.47-7.36-3.34-11.42-3.52-4.18-.18-8.38,0-12.57.02-.59-.25-1.18-.5-1.76-.74-.41-.62-.8-1.26-1.24-1.86-3.49-4.7-3.72-11.15-.57-16.03,1.54-.76,3.02-1.56,4.84-1.58,6.01-.07,11.97-.56,17.94-1.45,11.1-1.65,20.31-6.51,27.79-14.79.67-.74,1.3-1.46,1.33-2.52.9-.03,1.79-.09,2.69-.1,5.17-.08,5.5-.34,6.74-5.31,2.87-.15,5.83.22,8.38-1.64.24-.18.76-.16,1.06-.03,1.21.51,1.77-.28,2.35-1.06.63,4.6-.88,8.88-2.06,13.19-.45,1.65-1.13,3.23-1.7,4.85-2.14.28-2.69,2.38-3.54,3.71-4.92,7.62-10.64,14.65-15.85,22.05-4,5.68-8.44,11.05-12.66,16.57-.81,1.06-1.52,2.19-2.28,3.29Z"/><path class="uuid-654c5827-f29f-47ae-818f-dab43f27dc51" d="m310.11,236.94c5.25-.75,10.51-1.36,15.67-2.78,3.21-.88,6.66-.91,10.01-1.24,6.72-.66,13.4-.11,20.06.85,1.42.21,2.04.75,1.98,2.13-.01.3,0,.6,0,.9.04,5.44-.46,5.54-6.02,5.1-5.58-.44-11.21.17-16.67,1.59-.83.22-1.69.74-1.67,1.87-7.93.42-15.47,2.98-23.21,4.4-5.1.93-10.23,1.73-15.4,1.92-2.29.08-4.64-.42-6.9-.94-11.47-2.65-23.02-3.59-34.61-1.12-12.56,2.68-23.72,8.15-32.39,17.89-4.1,4.62-7.35,9.85-9.79,15.55-.59,1.38-1.31,2.71-2,4.04-.27.52-.61,1.19-1.3,1.06-.82-.16-.78-.99-.87-1.65-.04-.29-.03-.61.02-.9,1.21-7.75,3.58-15.09,8.32-21.43,4.98-6.67,11.51-11.55,18.76-15.55,8.82-4.86,18.28-7.67,28.22-8.84,6.73-.79,13.46-.6,20.23.12,5.74.61,11.57.5,17.32-.43,2.52-.41,5.03-.88,7.56-1.16,1.15-.13,2-.53,2.68-1.41Z"/><path class="uuid-8fd4177e-cd05-4117-bc29-79f967247abd" d="m266.49,297.95c.03-.07.03-.16.08-.21,2.82-2.59,2.72-3.9-.86-5.72-9.41-4.8-19.06-5.04-28.93-1.35-8.63,3.23-13.83,9.95-18.32,17.46-.41.69-.55,1.55-.82,2.33-1.19,3.42-2.25,4.07-5.94,4.27-4.46.24-8.29-.97-11.47-4.17-.56-.56-1.14-1.04-.74-1.91.38-.85,1.09-1.17,2.01-1.18.78-.01,1.46.28,2.15.59,2.88,1.28,5.86,2.23,9.01,2.61,1.87.22,2.39-.55,2.5-2.41.43-7.55,1.97-14.86,5.21-21.76.47-1,1-1.85,2.17-2.08,1.64,2.45,3.85,3.37,6.77,2.73,1.9-.42,3.84-.63,5.76-.97,11.39-1.99,21.47-7.46,31.86-12.09.26-.11.43-.4.65-.61,3.91,1.11,7.81,2.21,11.72,3.32.13,1.58-.65,2.89-1.3,4.23-.82,1.7-1.29,3.49-1.63,5.34-.37,1.98.52,3.34,1.98,4.43,1.45,1.07,3,.8,4.44-.01,1.66-.93,2.96-2.2,3.72-4.04,1.16-2.84,2.16-5.73,3.05-8.66,3.55-.68,6.84-2.04,9.94-3.87.98-.58,1.89-1.21,3.1-1.01.35,1.78.15,3.57,0,5.35-.48,5.29-2.07,10.21-4.72,14.8-3.77,2.31-7.43,4.73-9.97,8.49-.28.42-.7.75-1.06,1.13-2.01-2.09-4.53-2.51-7.3-2.47-4.51.07-8.87-.78-13.04-2.54Z"/><path class="uuid-654c5827-f29f-47ae-818f-dab43f27dc51" d="m296.49,357.14c0-.46,0-.91-.01-1.37,1.16-.27,1.37-1.06,1.09-2.06-.4-1.42-.23-2.8.03-4.23.4-2.19,1.39-4.52,1.14-6.52-.36-2.88-.17-5.67-.05-8.48.19-4.82-.64-9.59-.47-14.4.05-1.57.33-3.13.36-4.7.08-3.37-.06-6.75.15-10.11.21-3.43.86-3.91,4.47-4.66.87-.18,1.7-.57,2.51-.96,2.02-.98,3.2-.36,3.32,1.92.49,9.28.94,18.57,1.37,27.86.1,2.08.68,4.15,0,6.24-.95,2.91-1.16,5.32.92,8.32,1.57,2.26,2.51,5.28,3.98,7.85.72,1.26.91,2.57-.12,3.76-.6.7-.38,1.06.36,1.29,2.91.93,3.72,2.37,2.88,5.31-.37,1.29-.61,2.46.62,3.49.6.5.66,1.24.58,2.06-.3,3.16-2.78,4.84-4.74,6.71-2.96,2.82-7.06,2.99-10.82,3.95-3.2.82-6.49,1.47-9.22,3.72-1.53,1.26-1.84-1.7-3.35-1.56-.43.04-.93-.55-.73-1.18.07-.22.4-.48.65-.52,1.28-.18,1.52-.74.83-1.83-.81-1.27-.37-1.77,1.08-2.01,1.61-.27,3.04-1,3.09-3.01.62-1.02,1.17-2.09,2.23-2.74,2.21.42,2.2-1.8,3.1-2.82.66-.74-.48-1.32-1.22-1.66-.04-1.2-.07-2.4-.1-3.59.46-.11,1.19.08,1.1-.71-.06-.54-.61-1.07-1.1-.81-1.63.86-2.06-.45-2.71-1.36-.34-.48-.55-1.05-1.21-1.2Z"/><path class="uuid-8fd4177e-cd05-4117-bc29-79f967247abd" d="m358.24,250.95c.64.57,1.45.76,2.25.97,9.37,2.48,16.73,7.59,21.35,16.29l.35.41s-.01-.02-.01-.01c.75.6.47,1.49.33,2.04-.1.51-.21,1.01-.31,1.52-1.9.33-3.42-.29-4.87-1.57-4.61-4.07-9.79-4.95-15.43-2.34-1.1.51-2.08.43-3.24.1-10.18-2.95-20.05-1.84-29.6,2.55-2.85,1.31-3.52,2.89-3.05,6.03.1.67.22,1.33.33,2-2.16,6.23-5.1,11.89-11.16,15.28-3.34-1.23-4.81-3.4-4.24-6.94,1.06-6.57,1.5-13.11.3-19.7,7.33-4.64,15.63-6.66,23.86-8.86,5.96-1.6,6.16-1.83,4.76-7.82-.2-.87-.33-1.75-.49-2.63,6.29.9,12.58,1.8,18.87,2.71Z"/><path class="uuid-8fd4177e-cd05-4117-bc29-79f967247abd" d="m296.39,372.03c-.05,2-1.48,2.74-3.09,3.01-1.44.24-1.89.75-1.08,2.01.69,1.09.45,1.65-.83,1.83-.24.03-.58.29-.65.52-.2.62.3,1.22.73,1.18,1.51-.14,1.82,2.82,3.35,1.56,2.73-2.25,6.02-2.9,9.22-3.72,3.77-.97,7.86-1.14,10.82-3.95,1.97-1.87,4.44-3.55,4.74-6.71.08-.82.02-1.56-.58-2.06-1.22-1.02-.98-2.2-.62-3.49.84-2.94.02-4.38-2.88-5.31-.74-.24-.97-.6-.36-1.29,1.03-1.19.84-2.51.12-3.76-1.47-2.57-2.41-5.59-3.98-7.85-2.08-3-1.87-5.42-.92-8.32.68-2.08.1-4.16,0-6.24-.43-9.29-.88-18.57-1.37-27.86-.12-2.28-1.31-2.9-3.32-1.92-.8.39-1.64.78-2.51.96-3.61.75-4.25,1.23-4.47,4.66-.21,3.36-.06,6.74-.15,10.11-.04,1.57-.31,3.13-.36,4.7-.16,4.81.66,9.58.47,14.4-.11,2.81-.3,5.6.05,8.48.25,2-.74,4.33-1.14,6.52-.26,1.43-.43,2.81-.03,4.23.28,1.01.07,1.8-1.09,2.06-.3-4.22.19-8.38.65-12.56.2-1.86.14-3.75.18-5.63.17-7.28-.13-14.56.22-21.85.17-3.49-.28-7.01.15-10.54.46-3.81,1.17-4.62,4.79-5.56,1.55-.41,2.93-1.43,4.39-2.17,1.31-.12,2.19,1.11,3.46,1.13-.56,3.66-.21,7.35.02,10.99.5,8.02,1.32,16.02,2.01,24.03-.15,2.44.14,4.85.4,7.26-.27,1.85.15,3.54.99,5.22,1.83,3.62,3.62,7.26,5.31,10.95,4.79,10.47,1.47,17.8-9.44,21.36-3.87,1.26-7.88,1.94-11.77,3.1-1.05.32-1.72.85-1.89,1.96-.17,1.09.44,1.67,1.31,2.11.4.2.77.46,1.16.69,2.22,2.55,4.84,4.66,7.66,6.48,4.37,2.83,8.85,5.5,13.28,8.23,1.9,4.92,1.77,9.52-2.09,13.55-1.31.5-2.61,1.02-3.93,1.49-2.51.9-5.12,1.56-7.37,3.09-2.36-.71-4.71-1.42-7.07-2.12-1.86-.55-3.89-.28-5.65-1.27-1.04-9.07-.05-18.04,1.26-27.01.24-1.67.77-3.76-2-4.15-.59-.08-.57-.83-.9-1.22-1.25-3.08-4.24-4.31-6.61-6.21,4.01-1.23,7.84-2.86,11.39-5.1Z"/><path class="uuid-a8030860-22a1-41a0-ab06-27f29e97ea84" d="m347.91,422.27c-.03,1.06-.66,1.78-1.33,2.52-7.48,8.29-16.7,13.14-27.79,14.79-5.97.89-11.93,1.38-17.94,1.45-1.82.02-3.3.82-4.84,1.58-.66-2.36-2.65-2.79-4.65-3.22-7.42-1.27-14.39-3.81-20.53-8.17-2.95-2.09-6.11-4.15-7.74-7.67.59.05,1.21.03,1.78.17,6.44,1.56,12.99,2.53,19.57,3.23,7.85.83,15.72,1.53,23.64,1.08,1.58-.04,3.16-.03,4.73-.13,11.88-.76,23.55-2.85,35.11-5.62Z"/><path class="uuid-9d61d8b3-9a2f-4f8c-9c3e-ca966f533cd6" d="m247.15,371.32c6.36-8.09,14.83-13.47,23.72-18.25,1.3-.7,3.16-2.19,4.28-.86,1.11,1.31-.69,2.78-1.62,3.96-6.41,8.03-13.03,15.91-18.81,24.42-4.86,7.15-9.32,14.55-13.43,22.15-.81,1.51-1.59,3.03-2.39,4.55-.1.15-.21.3-.31.45-.38.18-.47.54-.53.9-1.77,1.89-2.87,4.41-5.26,5.73-.36-9.35,2.19-18.09,5.53-26.67,2.27-5.82,5.49-11.14,8.82-16.39Z"/><path class="uuid-9d61d8b3-9a2f-4f8c-9c3e-ca966f533cd6" d="m308.07,428.02c-7.92.46-15.78-.25-23.63-1.08-6.58-.69-13.13-1.66-19.57-3.23-.57-.14-1.19-.11-1.78-.17-4.09-2.15-8.18-2.14-12.3-.07-.65.33-1.36.9-2.04.18-.69-.73-.29-1.56.07-2.3,1.04-2.14,2.88-3.2,5.12-3.63,1.1-.21,2.24-.37,3.36-.34,10.16.3,20.24-.85,30.33-1.68,1.86-.15,3.74,0,5.62.02,1.76.99,3.8.72,5.65,1.27,2.36.7,4.72,1.41,7.07,2.12,3,1.9,4.42,5.97,2.1,8.9Z"/><path class="uuid-8fd4177e-cd05-4117-bc29-79f967247abd" d="m267.4,314.1c.48-.43.96-.85,1.78-1.59-1.99-.13-3.56-.15-5.14.17-1.27.26-2.51.35-3.43-.84.65-.98,1.43-1.9,1.94-2.95.85-1.75,2.05-1.71,3.42-.83,1.74,1.11,3.43,2.29,5.14,3.45,1.43,2.08,3.58,2.29,5.78,2.01,1.39-.18,2.75-.69,4.12-1.06.69.97.05,1.82-.17,2.76-1.25,5.35-4.68,9.23-8.73,12.53-6.38,5.2-13.68,8.69-21.82,10.13-3.07.54-6.2,1.14-9.34-.02-2.07-.76-3.8-2.46-3.68-4.27.14-2.22,1.62-3.22,3.63-3.7,5.54-1.32,11.09-2.59,16.35-4.84.91-.39,2.03-.63,2.48-1.74,2.82-1.72,5.97-2.89,8.18-5.61,1.78-2.2,1.92-2.21-.49-3.62Z"/><path class="uuid-32581459-fe81-4379-bb5a-b974de29567a" d="m271.1,311.52c-1.71-1.15-3.4-2.34-5.14-3.45-1.38-.88-2.57-.92-3.42.83-.51,1.05-1.28,1.97-1.94,2.95-4.47,2.74-9.14,2.43-13.86.87-1.9-.63-3.04-2.21-3.13-4.06-.12-2.55-1.25-1.81-2.47-1.05-3.89,2.42-7.75,4.89-11.63,7.34-1.62,1.03-3.18,2.19-5.12,2.8,1.16-7.26,20.9-20.54,37.24-19.81-.51.46-.51.67.16,1.1,1.76,1.13,3.44,2.38,5.09,3.65,2.89,2.22,5.63,4.53,4.2,8.82Z"/><path class="uuid-9d61d8b3-9a2f-4f8c-9c3e-ca966f533cd6" d="m267.58,273.46c-.21.21-.39.5-.65.61-10.39,4.63-20.47,10.1-31.86,12.09-1.92.33-3.86.55-5.76.97-2.92.64-5.13-.28-6.77-2.73.23-4.36,3.77-6.01,6.91-7.03,9.4-3.07,19.23-4.31,29.02-5.61,3.2-.42,6.25.17,9.11,1.7Z"/><path class="uuid-a5c397d5-b37c-4d3b-b907-7c09ef999f87" d="m217.57,431.08c-1.98,1.7-4.11,1.83-6.35.55-3.99-12.22-2.95-24.81-2.75-37.33.02-1.26.38-2.53.73-3.75.57-2.01,2.12-2.95,4.07-2.93,1.97.02,2.77,1.45,3.16,3.24.41,1.88.14,3.73.09,5.6-.3,9.99-.75,19.98,1.09,29.9.29,1.55.19,3.15-.04,4.72Z"/><path class="uuid-45423f05-7388-4f7f-8ee0-eb9f32074b93" d="m169.56,356.05c.12-8.24,3.82-14.47,9.38-19.82.85-.82,1.35-.8,1.73.34,1.02,3.06,2.05,6.12,3.07,9.18.48,1.45-.05,2.61-.95,3.73-4.88,6.01-5.96,12.46-2.17,19.46.5.92.89,1.91,1.27,2.89.72,1.87.3,2.4-1.77,2.33-2.25-.07-3.74-1.52-5.07-3.04-3.85-4.37-5.51-9.56-5.49-15.07Z"/><path class="uuid-7a49273c-595e-4e2a-b06e-389cfdaedebe" d="m310.32,298.6c-1.27-.03-2.14-1.25-3.46-1.13-2.71-1.99-5.85-3.06-8.99-4.13,2.65-4.59,4.24-9.52,4.72-14.8.16-1.79.36-3.57,0-5.35.07-.96.17-1.92.21-2.88.12-3.44.72-4.48,3.06-5.28,1.99-.68,3.51.03,5.37,2.52,1.2,6.59.76,13.14-.3,19.7-.57,3.54.9,5.71,4.24,6.94-1.34,1.79-3.34,2.83-4.86,4.4Z"/><path class="uuid-a5c397d5-b37c-4d3b-b907-7c09ef999f87" d="m289.56,278.07c-.89,2.93-1.88,5.82-3.05,8.66-.76,1.84-2.06,3.11-3.72,4.04-1.44.81-3,1.08-4.44.01-1.46-1.08-2.35-2.44-1.98-4.43.34-1.85.81-3.64,1.63-5.34.65-1.34,1.44-2.65,1.3-4.23,1.47-2.15,1.44-4.69,1.71-7.11.21-1.94.03-3.91.16-5.86.13-2.08.59-4.05,2.75-5.06,2.66-1.24,5.15-.11,6,2.77,1,3.39.65,6.86.37,10.3-.17,2.09-.48,4.17-.72,6.25Z"/><path class="uuid-8fd4177e-cd05-4117-bc29-79f967247abd" d="m291.36,439.38c2,.43,3.99.86,4.65,3.22-3.15,4.88-2.92,11.33.57,16.03.44.6.83,1.24,1.24,1.86-2.53.71-5.04.11-7.5-.34-4.02-.73-7.82-2.11-11.14-4.58-.72-.53-1.48-1.1-1.99-1.81-2.86-4.09-2.94-6.38,1.31-9.14,2.82-1.84,5.98-2.74,9.21-3.45,1.36-.3,2.84-.33,3.63-1.79Z"/><path class="uuid-8fd4177e-cd05-4117-bc29-79f967247abd" d="m247.15,371.32c-3.33,5.25-6.55,10.57-8.82,16.39-3.34,8.57-5.89,17.32-5.53,26.67-.06.07-.12.14-.19.21-.13.13-.26.26-.38.38l.02-.02c-4.17-.01-5.17-.82-5.89-4.84-.99-5.53.28-10.69,2.43-15.75,3.76-8.84,9.25-16.38,16.59-22.57.47-.39.88-1.5,1.77-.47Z"/><path class="uuid-a8030860-22a1-41a0-ab06-27f29e97ea84" d="m156.83,327.01c-.14-3.2.23-7.07,1.3-10.86.59-2.08,1.63-3.73,3.97-4.09,1.28-.19,4.69,1.99,5.32,3.34.3.65.43,1.39-.08,1.92-2.91,3.03-2.55,6.97-2.8,10.64-.38,5.47-.94,10.9-1.89,16.29-.22,1.24-.81,2.22-2.03,2.38-1.38.19-1.34-1.12-1.61-2.01-1.66-5.51-2.22-11.16-2.18-17.61Z"/><path class="uuid-654c5827-f29f-47ae-818f-dab43f27dc51" d="m244.04,433.5c.03.12.05.24.05.37-1.2,1.45.18,2.88.04,4.31-.35,3.63,2.8,7.22.07,10.9-.49.66-.25,1.89-1.51,1.94-1.05.04-1.5-.84-2.16-1.44-2.17-2-1.97-5.05-3.36-7.39-.4-.69-.68-1.59-.64-2.37.34-5.97-2.64-11.49-2.35-17.45.06-1.23-.76-2.78.5-3.55,1.29-.78,1.02-1.57.82-2.63-.43-2.23.77-3.59,2.7-4.89.13,2.39,1.1,4.4.04,6.47-.14.27-.06.8.13,1.08,2.18,3.28,2.21,7.25,3.53,10.8.52,1.39.91,2.86,2.15,3.87Z"/><path class="uuid-9d61d8b3-9a2f-4f8c-9c3e-ca966f533cd6" d="m271.1,311.52c1.43-4.29-1.31-6.6-4.2-8.82-1.66-1.27-3.34-2.52-5.09-3.65-.67-.43-.67-.65-.16-1.1,1.62-.65,3.23.11,4.85,0,4.17,1.77,8.53,2.61,13.04,2.54,2.78-.04,5.29.38,7.3,2.47-.32,4.17-3,6.89-5.84,9.51-1.37.37-2.72.88-4.12,1.06-2.2.28-4.34.07-5.78-2.01Z"/><path class="uuid-a5c397d5-b37c-4d3b-b907-7c09ef999f87" d="m199.75,353.01c.12-1.74.97-3.7,1.89-5.56,4.1-8.3,9.79-14.78,19.62-16.14,1.61-.22,4.07-.86,4.53.61.47,1.5-2.09,1.8-3.4,2.48-5.57,2.89-10.27,6.77-13.8,11.99-1.77,2.61-3.43,5.29-5.18,7.91-.6.9-1.39,1.68-2.61,1.34-1.13-.31-1.07-1.3-1.05-2.63Z"/><path class="uuid-a8030860-22a1-41a0-ab06-27f29e97ea84" d="m267.4,314.1c2.42,1.41,2.28,1.42.49,3.62-2.2,2.72-5.35,3.89-8.18,5.61-5.23,1.66-10.46,1.37-15.7.02-.22-.06-.45-.07-.65-.16-1.09-.49-2.42-.94-2.46-2.3-.04-1.33,1.34-1.72,2.33-2.12,2.81-1.15,5.8-1.66,8.79-1.63,5.36.06,10.37-1.4,15.37-3.04Z"/><path class="uuid-8fd4177e-cd05-4117-bc29-79f967247abd" d="m232.66,337.24c.52.03,1.05.03,1.57.09,3.95.5,4.99,2.94,2.67,6.23-2.94,4.16-8.33,5.65-13.03,3.6-2.22-.97-2.88-2.47-1.56-4.2,2.58-3.4,5.72-5.95,10.35-5.73Z"/><path class="uuid-8fd4177e-cd05-4117-bc29-79f967247abd" d="m244.04,433.5c-1.23-1-1.63-2.47-2.15-3.87-1.32-3.55-1.35-7.52-3.53-10.8-.18-.28-.27-.8-.13-1.08,1.06-2.07.1-4.08-.04-6.47-1.92,1.3-3.12,2.66-2.7,4.89.2,1.06.47,1.85-.82,2.63-1.26.77-.44,2.32-.5,3.55-.29,5.96,2.69,11.48,2.35,17.45-.04.78.24,1.69.64,2.37,1.38,2.35,1.18,5.4,3.36,7.39.66.6,1.11,1.48,2.16,1.44,1.25-.05,1.02-1.28,1.51-1.94,2.73-3.68-.42-7.27-.07-10.9.14-1.43-1.24-2.86-.04-4.31,1.73,5.04,3.63,10.06,1.77,15.53-.53,1.57-1.51,2.74-3.11,2.9-1.71.17-2.88-.82-3.7-2.41-2.09-4.06-3.01-8.42-3.94-12.84-1.53-7.3-2.51-14.65-2.87-22.09,0,0-.02.02-.02.02.13-.13.26-.26.38-.38.06-.07.13-.14.19-.21,2.39-1.32,3.49-3.84,5.26-5.73.18-.3.35-.6.53-.9.1-.15.21-.3.31-.45.51.24.84.59.78,1.22-.68,7.57,1.32,14.67,3.74,21.71.37,1.07.71,2.13.63,3.29Z"/><path class="uuid-32581459-fe81-4379-bb5a-b974de29567a" d="m285,377.14c2.36,1.9,5.35,3.13,6.61,6.21-1.19,1.06-2.43.02-3.6-.05-4.39-.27-8.85-.26-13.09-1.72-1.83-.63-3.86-1.19-3.92-3.64-.03-1.47,2.15-2.52,4.86-2.71,3.24-.22,6.21.75,9.14,1.91Z"/><path class="uuid-a5c397d5-b37c-4d3b-b907-7c09ef999f87" d="m222.52,321.41c-1.38,1.13-2.86,1.47-4.28,1.66-4.8.65-9.37,2.02-13.8,3.93-.61.26-1.29.44-1.95.5-.92.09-1.57-.46-1.96-1.24-.38-.74.11-1.27.59-1.77,3.42-3.56,7.93-4.34,12.52-4.73,2.97-.25,5.94.01,8.87,1.66Z"/><path class="uuid-8fd4177e-cd05-4117-bc29-79f967247abd" d="m296.49,357.14c.66.15.87.73,1.21,1.2.64.91,1.08,2.22,2.71,1.36.49-.26,1.04.26,1.1.81.09.8-.64.6-1.1.71-.35-.1-.71-.31-1.06-.3-2.82.13-3.3-1.47-2.85-3.78Z"/><path class="uuid-8fd4177e-cd05-4117-bc29-79f967247abd" d="m300.5,364.81c.74.35,1.88.92,1.22,1.66-.9,1.02-.89,3.24-3.1,2.82.61-1.5,1.57-2.85,1.88-4.48Z"/><path class="uuid-8fd4177e-cd05-4117-bc29-79f967247abd" d="m246.57,534.25c.2.16.41.31.61.47-.2-.16-.41-.31-.61-.47Z"/><path class="uuid-21770709-e916-4def-a624-5995a535a56e" d="m245.77,533.81c.15.14.31.28.46.41-.15-.14-.31-.28-.46-.41Z"/><path class="uuid-654c5827-f29f-47ae-818f-dab43f27dc51" d="m274.3,554.95c-2.25-2.17-.35-4.13.44-6.01,1.29-3.03,2.39-6.07,2.53-9.39,0,0,0,.04,0,.04,1.94-2.3,3.29-4.9,3.92-7.85,0,0,.02-.02.02-.02,1.82-.43,2.6-1.74,2.93-3.43,0,0,0,0,0,0,1.02.07,1.75-.22,1.78-1.4,0,0,0-.01,0-.01,1.86.26,3.31-.92,4.88-1.51,3.74-1.42,7.51-1.31,11.33-.76,2.38.34,4.8-.16,7.18.5,1.4.39,2,1.01,2,2.49-.04,9.56-.03,19.11,0,28.67,0,1.15-.36,1.8-1.56,2.06-6.53,1.41-13.04,2.89-19.57,4.29-1.37.29-2.62-.06-3.84-.87-3.11-2.07-6.28-4.06-9.48-5.99-.74-.45-1.7-.54-2.56-.8Z"/><path class="uuid-474ece01-884e-4d3f-9119-3f4fe5312566" d="m319.36,400.99c-4.43-2.74-8.91-5.41-13.28-8.23-2.82-1.82-5.44-3.92-7.66-6.47.44-.11.87-.28,1.31-.32,6.36-.59,11.75-3.07,16.43-7.51,2.47-2.34,4.7-5.04,8.02-6.46,4.4-1.88,7.28-1.09,9.72,3,.38.64.88,1.21,1.3,1.83.67.97,1.32.97,2.19.17,1.82-1.67,2.75-3.73,2.84-6.15.29-7.3-2.12-13.39-8.19-17.77.29-1,1.17-1.35,2.01-1.58,1.38-.39,2.56.68,3.9.71,2.74,2.42,5.46,4.85,7.77,7.7-.14,1.7.88,2.86,1.88,4.03-.04.53.26.78.73.89,0,0,.01.02.01.02.05,1.1.43,2.03,1.36,2.68,1.01,2.59,2.65,4.83,3.96,7.25,2.95,5.42,5.92,10.82,8.86,16.25.2.37.18.87.26,1.31-5.86-2.72-10.97-1.01-15.65,2.78-5.97,4.82-12.68,7.32-20.4,6.73-2.46-.19-4.91-.55-7.37-.84Z"/><path class="uuid-9d61d8b3-9a2f-4f8c-9c3e-ca966f533cd6" d="m337.94,352.2c-1.34-.04-2.51-1.1-3.9-.71-.84.24-1.72.58-2.01,1.58-1.57-.25-3.31,1.08-4.7-.93-3.35-4.83-8.54-7.71-12.75-11.64-.81-.75-1.41-.6-1.84.39-.26-2.41-.56-4.83-.4-7.26,2.55-5.65,6.52-10.36,10.09-15.34.58-.82,1.32-1.45,2.43-1.4,3.3,6.28,7.43,12.06,11.04,18.15,1.45,2.44,2.01,5.15,2.05,7.95.05,3.07,0,6.14-.01,9.21Z"/><path class="uuid-a8030860-22a1-41a0-ab06-27f29e97ea84" d="m329.48,306.53c2.62-2.41,5.57-4.17,9.75-4.77-2.16,1.93-3.96,3.55-5.76,5.16-.07-1.08-.65-1.42-1.65-1.12-.78.23-1.55.49-2.33.73Z"/><polygon class="uuid-9d61d8b3-9a2f-4f8c-9c3e-ca966f533cd6" points="381.45 355.92 381.56 355.98 381.48 356.07 381.45 355.92"/><path class="uuid-9d61d8b3-9a2f-4f8c-9c3e-ca966f533cd6" d="m326.34,278.92c-.11-.67-.23-1.33-.33-2-.47-3.14.2-4.72,3.05-6.03,9.54-4.39,19.42-5.49,29.6-2.55,1.16.34,2.14.41,3.24-.1,5.65-2.61,10.82-1.73,15.43,2.34,1.45,1.28,2.98,1.9,4.87,1.57-.35,1.59.53,2.79,1.3,4.02-.32.18-.73.29-.96.55-3.32,3.84-6.83,4.16-11.23,1.1-2.47-1.72-4.72-3.72-6.8-5.85-1.03-1.06-2.29-1.65-3.39-2.53-.72-.57-1.49-.41-2.28.11-4.65,3.12-9.84,5.11-15.08,6.87-3.6,1.21-7.19,2.51-11.01,3.05-2.24.32-4.31.02-6.41-.57Z"/><path class="uuid-7a49273c-595e-4e2a-b06e-389cfdaedebe" d="m319.36,400.99c2.46.28,4.91.65,7.37.84,7.72.59,14.43-1.91,20.4-6.73,4.68-3.78,9.79-5.49,15.65-2.78.65.49,1.3.98,1.95,1.47-.27,1.35.43,2.46.91,3.62,2.2,5.36,3.83,10.83,3.49,16.71-.59.79-1.14,1.58-2.35,1.06-.3-.13-.82-.14-1.06.03-2.54,1.87-5.51,1.49-8.38,1.64-2.6-.83-5.25-1.21-7.99-.97-2.01.17-4.04.35-6.06.31-8.24-.17-16.45-1.11-24.71-.94-.61.01-.97-.31-1.32-.72,3.86-4.03,3.99-8.63,2.09-13.55Z"/><path class="uuid-6a76753a-046b-47ba-9e88-63434feaed9f" d="m349.7,367.51c-.93-.65-1.32-1.58-1.36-2.68,1.47.38,1.93,1.27,1.36,2.68Z"/><path class="uuid-6a76753a-046b-47ba-9e88-63434feaed9f" d="m348.32,364.82c-.47-.11-.78-.36-.73-.89.46.12.68.44.73.89Z"/><path class="uuid-8fd4177e-cd05-4117-bc29-79f967247abd" d="m273.59,513.51c-1.42.44-1.83-.37-1.92-1.56.82.3,1.45.83,1.92,1.56Z"/><path class="uuid-8fd4177e-cd05-4117-bc29-79f967247abd" d="m269.74,510.27c-.69-.01-1.27-.16-1.25-1.04.23.09.46.17.69.26.19.26.37.52.56.78Z"/><path class="uuid-8fd4177e-cd05-4117-bc29-79f967247abd" d="m271.62,512.05c-.16-.19-.32-.38-.48-.57.16.19.32.38.48.57Z"/><path class="uuid-8fd4177e-cd05-4117-bc29-79f967247abd" d="m270.77,511.14c-.19-.16-.38-.32-.56-.48.19.16.38.32.56.48Z"/><path class="uuid-8fd4177e-cd05-4117-bc29-79f967247abd" d="m262.1,503.93c-1.83-.24-3.04-1.21-3.56-3,1.43.71,2.6,1.74,3.56,3Z"/><path class="uuid-8fd4177e-cd05-4117-bc29-79f967247abd" d="m256.4,499.18c-1.29-.13-3.14.33-2.22-2.12.23.04.45.09.68.13,0,0-.04-.04-.04-.04.02,1.08,1.22,1.22,1.58,2.02Z"/><path class="uuid-8fd4177e-cd05-4117-bc29-79f967247abd" d="m264.52,506c-1.28.19-1.79-.54-1.98-1.66.27.05.54.1.8.15.24.21.48.43.71.64.16.29.31.58.47.86Z"/><path class="uuid-8fd4177e-cd05-4117-bc29-79f967247abd" d="m258.47,500.79c-.69-.02-1.29-.16-1.28-1.04.54.2,1.04.46,1.28,1.04Z"/><path class="uuid-8fd4177e-cd05-4117-bc29-79f967247abd" d="m257.2,499.79c-.43.02-.77-.12-.88-.59.29.2.58.39.88.59Z"/><path class="uuid-8fd4177e-cd05-4117-bc29-79f967247abd" d="m284.14,528.29c-.34,1.69-1.11,3-2.93,3.43.39-.68.79-1.35,1.18-2.02l1.75-1.41Z"/><path class="uuid-8fd4177e-cd05-4117-bc29-79f967247abd" d="m285.93,526.89c-.03,1.18-.76,1.47-1.78,1.4.4-.71,1.02-1.15,1.78-1.4Z"/><path class="uuid-8fd4177e-cd05-4117-bc29-79f967247abd" d="m281.19,531.75c-.63,2.95-1.98,5.55-3.92,7.85.09-.56.17-1.12.26-1.68,1.05-1.95,2.1-3.91,3.15-5.86.17-.1.34-.21.51-.31Z"/><path class="uuid-8fd4177e-cd05-4117-bc29-79f967247abd" d="m267.54,508.42c-1.09.01-2.02-.2-2.07-1.57.33.13.66.25,1,.38.36.4.71.79,1.07,1.19Z"/><path class="uuid-8fd4177e-cd05-4117-bc29-79f967247abd" d="m264.97,506.49c-.18-.16-.36-.31-.54-.47.3.02.48.17.54.47Z"/><path class="uuid-8fd4177e-cd05-4117-bc29-79f967247abd" d="m265.43,506.89c-.17-.15-.34-.29-.5-.44.17.15.34.29.5.44Z"/><path class="uuid-8fd4177e-cd05-4117-bc29-79f967247abd" d="m268.51,509.31c-.18-.17-.35-.34-.53-.51.18.17.35.34.53.51Z"/><path class="uuid-8fd4177e-cd05-4117-bc29-79f967247abd" d="m268.03,508.87c-.18-.16-.36-.31-.54-.47.18.16.36.31.54.47Z"/><path class="uuid-32581459-fe81-4379-bb5a-b974de29567a" d="m254.85,497.19c-.23-.04-.45-.09-.68-.13.26-.16.51-.2.68.13Z"/><path class="uuid-474ece01-884e-4d3f-9119-3f4fe5312566" d="m317.26,414.54c.34.41.7.73,1.32.72,8.25-.17,16.47.77,24.71.94,2.02.04,4.05-.13,6.06-.31,2.74-.24,5.39.15,7.99.97-1.24,4.97-1.57,5.23-6.74,5.31-.9.01-1.79.07-2.69.1-11.56,2.77-23.23,4.86-35.1,5.62-1.57.1-3.15.09-4.73.13,2.31-2.93.89-7-2.11-8.9,2.25-1.53,4.85-2.2,7.37-3.09,1.32-.47,2.62-.99,3.93-1.49Z"/><path class="uuid-7a49273c-595e-4e2a-b06e-389cfdaedebe" d="m312.75,340.89c.43-.99,1.03-1.15,1.84-.39,4.21,3.93,9.4,6.81,12.75,11.64,1.39,2.01,3.13.68,4.7.93,6.07,4.38,8.48,10.46,8.19,17.77-.1,2.42-1.03,4.48-2.84,6.15-.88.81-1.52.81-2.19-.17-.42-.62-.92-1.19-1.3-1.83-2.43-4.09-5.32-4.87-9.72-3-3.32,1.42-5.55,4.12-8.02,6.46-4.68,4.44-10.08,6.92-16.43,7.51-.44.04-.87.21-1.31.32-.39-.23-.76-.49-1.16-.69-.87-.44-1.48-1.02-1.31-2.11.18-1.1.84-1.64,1.89-1.96,3.89-1.17,7.9-1.84,11.77-3.1,10.92-3.55,14.23-10.89,9.44-21.36-1.69-3.69-3.48-7.33-5.31-10.95-.84-1.67-1.26-3.36-.99-5.22Z"/><path class="uuid-21770709-e916-4def-a624-5995a535a56e" d="m238.59,407.74c-.18.3-.35.6-.53.9.06-.37.14-.72.53-.9Z"/><path class="uuid-21770709-e916-4def-a624-5995a535a56e" d="m232.62,414.58c-.13.13-.26.26-.38.38.13-.13.26-.26.38-.38Z"/></g><path class="uuid-39018062-29d4-4741-a6a0-90867b1b39b7" d="m26.94,91.75c-3.23-.43-5.94-.95-8.12-1.56-2.19-.61-3.63-1.17-4.32-1.69v-15.99c2.04,1.04,3.79,1.87,5.27,2.5,1.47.63,3.24,1.18,5.3,1.66,2.06.48,4.34.72,6.86.72,1.86,0,3.36-.07,4.48-.2,1.13-.13,2.19-.58,3.19-1.37,1-.78,1.49-2.06,1.49-3.83,0-1.13-.48-2.11-1.43-2.96-.95-.85-2.12-1.57-3.51-2.18-1.39-.61-3.31-1.34-5.78-2.21-3.16-1.13-5.7-2.12-7.6-2.99-1.91-.87-3.54-2.01-4.91-3.45-1.36-1.43-2.05-3.18-2.05-5.26,0-2.34.66-4.62,1.98-6.83,1.32-2.21,3.42-4.05,6.31-5.52,2.88-1.47,6.58-2.21,11.08-2.21s9.1.39,13.39,1.17c4.29.78,7.24,1.47,8.84,2.08v15.14c-2.38-.95-4.9-1.79-7.54-2.5-2.64-.72-5.09-1.07-7.35-1.07-2.12,0-3.93.3-5.43.91-1.5.61-2.24,1.6-2.24,2.99,0,1.17.46,2.17,1.36,2.99.91.82,2.04,1.51,3.38,2.05,1.34.54,3.27,1.23,5.78,2.05,3.12,1,5.66,1.93,7.6,2.79,1.95.87,3.61,2.03,4.97,3.48,1.37,1.45,2.05,3.28,2.05,5.49s-.55,4.54-1.66,6.99c-1.1,2.45-3.35,4.64-6.73,6.57s-8.19,2.89-14.43,2.89c-3.6,0-7.01-.22-10.24-.65Z"/><path class="uuid-39018062-29d4-4741-a6a0-90867b1b39b7" d="m68.7,86.26c-1.43-1.67-2.7-3.82-3.8-6.47-1.1-2.64-1.66-5.7-1.66-9.17,0-5.68,1.31-10.23,3.93-13.65,2.62-3.42,5.76-5.82,9.43-7.18,3.66-1.37,7.18-2.05,10.56-2.05,4.77,0,8.82.62,12.15,1.85,3.34,1.24,5.84,2.92,7.51,5.07,1.67,2.14,2.52,4.56,2.57,7.25,0,2.04-.33,3.7-.98,4.97-.65,1.28-1.47,2.55-2.47,3.8h-17.16c1.39-1.69,2.4-3.43,3.05-5.23.65-1.8.98-3.52.98-5.17,0-2.04-.44-3.71-1.33-5-.89-1.3-2.05-1.95-3.48-1.95-1.17,0-2.35.51-3.54,1.53-1.19,1.02-2.17,2.38-2.92,4.09-.76,1.71-1.14,3.5-1.14,5.36,0,2.9.38,5.41,1.14,7.51.76,2.1,2.54,3.9,5.36,5.39,2.82,1.5,7.04,2.24,12.68,2.24,2.95,0,6.15-.22,9.62-.65l-8.65,12.54h-26.71c-1.99-1.73-3.71-3.43-5.13-5.1Z"/><path class="uuid-39018062-29d4-4741-a6a0-90867b1b39b7" d="m113.29,39.36h18.2l.19,14.37c-1.04,1.47-2.22,3.91-3.54,7.31-1.32,3.4-2.29,6.94-2.89,10.63l3.25.33c1.43-7.71,3.72-13.63,6.86-17.75,3.14-4.12,6.9-6.17,11.28-6.17s7.39,1.46,9.55,4.39c2.17,2.92,3.25,7.16,3.25,12.71v26.2h-18.2v-26.2c0-2.34-.21-4.06-.62-5.17-.41-1.11-1.14-1.66-2.18-1.66-2.17,0-3.87,2.87-5.1,8.61-1.24,5.74-1.85,13.88-1.85,24.41h-18.2v-52Z"/><path class="uuid-39018062-29d4-4741-a6a0-90867b1b39b7" d="m160.41,49.11h18.85l2.93,16.96v12.29h3.25v-12.29l2.92-16.96h18.85l2.92,16.96v12.29h3.25v-12.29l2.93-16.96h18.85l-14.3,42.25h-18.2l-3.25-9.62v-19.63h-3.25v19.63l-3.25,9.62h-18.2l-14.3-42.25Z"/><path class="uuid-39018062-29d4-4741-a6a0-90867b1b39b7" d="m277.35,82.75c1-1.8,1.83-3.91,2.5-6.34.67-2.43,1.01-4.96,1.01-7.6l-3.38-.46c0,1.6-.27,3.63-.81,6.08-.54,2.45-1.61,4.87-3.22,7.25-2.3,3.38-5.16,6.02-8.58,7.93-3.42,1.91-6.95,2.86-10.59,2.86s-7.19-1.02-10.27-3.06c-2.86-1.86-5.05-4.29-6.56-7.28-1.52-2.99-2.27-6.22-2.27-9.68,0-2.25.33-4.51,1.01-6.76.67-2.25,1.66-4.38,2.96-6.37,2.25-3.42,5.08-6.09,8.48-8,3.4-1.91,6.92-2.86,10.56-2.86s7.24,1.04,10.4,3.12c1.17.78,2.3,1.72,3.38,2.83,1.08,1.1,1.97,2.26,2.66,3.48v-8.78h18.2v42.25h-18.2l-.19-4.62c.95-.87,1.93-2.2,2.92-4Zm-17.26,1.53c2.02-1.65,3.85-3.81,5.49-6.5,1.26-1.91,2.21-3.79,2.86-5.66.65-1.86.98-3.55.98-5.07,0-1.99-.58-3.34-1.75-4.03-.52-.3-1.06-.46-1.62-.46-1.56,0-3.36.82-5.4,2.47-2.04,1.65-3.9,3.81-5.59,6.5-1.21,1.95-2.13,3.87-2.76,5.75-.63,1.88-.94,3.56-.94,5.04,0,1.39.28,2.47.85,3.25.56.78,1.39,1.17,2.47,1.17,1.6,0,3.41-.82,5.43-2.47Z"/><path class="uuid-39018062-29d4-4741-a6a0-90867b1b39b7" d="m299.32,49.11h18.2l.19,3.96c-1,1.43-2.16,3.96-3.48,7.57-1.32,3.62-2.31,7.29-2.96,11.02l3.05.33c1.26-7.8,3.33-13.74,6.21-17.81,2.88-4.07,6.49-6.11,10.82-6.11,7.67,0,11.5,6.13,11.5,18.4h-18.2l.07-2.73c.04-.48.07-1.15.07-2.01,0-1.13-.11-1.97-.33-2.54-.22-.56-.63-.84-1.24-.84-1.04,0-1.99,1.3-2.86,3.9-.87,2.6-1.56,6.39-2.08,11.38-.52,4.98-.78,10.9-.78,17.75h-18.2v-42.25Z"/><path class="uuid-39018062-29d4-4741-a6a0-90867b1b39b7" d="m345.47,75.11l29.51-11.57-1.11-3.12-12.93,4.94h-15.47v-16.25h41.99v16.25l-28.14,11.76,1.17,3.06,12.48-5.07h14.5v16.25h-41.99v-16.25Z"/><path class="uuid-39018062-29d4-4741-a6a0-90867b1b39b7" d="m393.31,49.11h18.2l.19,4.62c-1.04,1.47-2.22,3.91-3.54,7.31-1.32,3.4-2.29,6.94-2.89,10.63l3.25.33c1.43-7.71,3.71-13.63,6.86-17.75,3.14-4.12,6.9-6.17,11.28-6.17,2.82,0,5.21.69,7.18,2.08,1.97,1.39,3.43,3.4,4.39,6.04-.39.69-.92,1.9-1.59,3.61-.67,1.71-1.31,3.5-1.92,5.36-.78,2.64-1.28,4.81-1.5,6.5l3.25.33c.48-2.64,1.02-4.92,1.62-6.83,1.69-5.55,3.94-9.78,6.76-12.71,2.82-2.92,6.07-4.39,9.75-4.39,4.2,0,7.39,1.46,9.55,4.39s3.25,7.16,3.25,12.71v26.2h-18.2v-26.2c0-2.34-.21-4.06-.62-5.17-.41-1.11-1.14-1.66-2.18-1.66-2.17,0-3.87,2.87-5.1,8.61-1.24,5.74-1.85,13.88-1.85,24.41h-18.2v-26.2c0-2.34-.21-4.06-.62-5.17-.41-1.11-1.14-1.66-2.18-1.66-2.17,0-3.87,2.87-5.1,8.61-1.24,5.74-1.85,13.88-1.85,24.41h-18.2v-42.25Z"/><path class="uuid-39018062-29d4-4741-a6a0-90867b1b39b7" d="m514.47,82.75c1-1.8,1.83-3.91,2.5-6.34.67-2.43,1.01-4.96,1.01-7.6l-3.38-.46c0,1.6-.27,3.63-.81,6.08-.54,2.45-1.61,4.87-3.22,7.25-2.3,3.38-5.16,6.02-8.58,7.93-3.42,1.91-6.96,2.86-10.6,2.86s-7.19-1.02-10.27-3.06c-2.86-1.86-5.05-4.29-6.57-7.28-1.52-2.99-2.27-6.22-2.27-9.68,0-2.25.33-4.51,1.01-6.76.67-2.25,1.66-4.38,2.96-6.37,2.25-3.42,5.08-6.09,8.48-8,3.4-1.91,6.92-2.86,10.56-2.86s7.24,1.04,10.4,3.12c1.17.78,2.3,1.72,3.38,2.83,1.08,1.1,1.97,2.26,2.67,3.48v-8.78h18.2v42.25h-18.2l-.2-4.62c.95-.87,1.93-2.2,2.92-4Zm-17.26,1.53c2.01-1.65,3.84-3.81,5.49-6.5,1.26-1.91,2.21-3.79,2.86-5.66.65-1.86.97-3.55.97-5.07,0-1.99-.58-3.34-1.75-4.03-.52-.3-1.06-.46-1.62-.46-1.56,0-3.36.82-5.4,2.47-2.04,1.65-3.9,3.81-5.59,6.5-1.21,1.95-2.13,3.87-2.76,5.75s-.94,3.56-.94,5.04c0,1.39.28,2.47.85,3.25.56.78,1.39,1.17,2.47,1.17,1.6,0,3.41-.82,5.43-2.47Z"/><path class="uuid-39018062-29d4-4741-a6a0-90867b1b39b7" d="m536.44,49.11h18.2l.19,4.62c-1.04,1.47-2.22,3.91-3.54,7.31-1.32,3.4-2.29,6.94-2.89,10.63l3.25.33c1.43-7.71,3.71-13.63,6.86-17.75,3.14-4.12,6.9-6.17,11.28-6.17s7.39,1.46,9.56,4.39c2.17,2.92,3.25,7.16,3.25,12.71v26.2h-18.2v-26.2c0-2.34-.21-4.06-.62-5.17-.41-1.11-1.14-1.66-2.18-1.66-2.17,0-3.87,2.87-5.1,8.61-1.24,5.74-1.85,13.88-1.85,24.41h-18.2v-42.25Z"/><path class="uuid-39018062-29d4-4741-a6a0-90867b1b39b7" d="m12.31,704.93h18.85l2.93,26.71v12.29h3.25v-12.29l3.57-26.71h14.95l3.57,26.71v12.29h3.25v-12.29l2.93-26.71h18.85l-13.65,52h-17.55l-3.25-11.83v-26.91h-3.25v26.91l-3.25,11.83h-17.55l-13.65-52Z"/><path class="uuid-39018062-29d4-4741-a6a0-90867b1b39b7" d="m84.14,704.93h18.2l.19,14.37c-1.04,1.47-2.22,3.91-3.54,7.31-1.32,3.4-2.29,6.94-2.89,10.63l3.25.33c1.43-7.71,3.72-13.63,6.86-17.75,3.14-4.12,6.9-6.17,11.28-6.17s7.39,1.46,9.55,4.39c2.17,2.92,3.25,7.16,3.25,12.71v26.2h-18.2v-26.2c0-2.34-.21-4.06-.62-5.17-.41-1.11-1.14-1.66-2.18-1.66-2.17,0-3.87,2.87-5.1,8.61-1.24,5.74-1.85,13.88-1.85,24.41h-18.2v-52Z"/><path class="uuid-39018062-29d4-4741-a6a0-90867b1b39b7" d="m175.72,748.31c1-1.8,1.83-3.91,2.5-6.34.67-2.43,1.01-4.96,1.01-7.6l-3.38-.46c0,1.6-.27,3.63-.81,6.08-.54,2.45-1.61,4.87-3.22,7.25-2.3,3.38-5.16,6.02-8.58,7.93-3.42,1.91-6.95,2.86-10.59,2.86s-7.19-1.02-10.27-3.06c-2.86-1.86-5.05-4.29-6.56-7.28-1.52-2.99-2.27-6.22-2.27-9.68,0-2.25.33-4.51,1.01-6.76.67-2.25,1.66-4.38,2.96-6.37,2.25-3.42,5.08-6.09,8.48-8,3.4-1.91,6.92-2.86,10.56-2.86s7.24,1.04,10.4,3.12c1.17.78,2.3,1.72,3.38,2.83,1.08,1.1,1.97,2.26,2.66,3.48v-8.78h18.2v42.25h-18.2l-.19-4.62c.95-.87,1.93-2.2,2.92-4Zm-17.26,1.53c2.02-1.65,3.85-3.81,5.49-6.5,1.26-1.91,2.21-3.79,2.86-5.66.65-1.86.98-3.55.98-5.07,0-1.99-.58-3.34-1.75-4.03-.52-.3-1.06-.46-1.62-.46-1.56,0-3.36.82-5.4,2.47-2.04,1.65-3.9,3.81-5.59,6.5-1.21,1.95-2.13,3.87-2.76,5.75-.63,1.88-.94,3.56-.94,5.04,0,1.39.28,2.47.85,3.25.56.78,1.39,1.17,2.47,1.17,1.6,0,3.41-.82,5.43-2.47Z"/><path class="uuid-39018062-29d4-4741-a6a0-90867b1b39b7" d="m208.9,755.2c-3.57-1.84-6.41-4.34-8.52-7.51-2.1-3.16-3.15-6.61-3.15-10.33,0-1.34.26-2.42.78-3.22s1.1-1.53,1.75-2.18h-6.31v-6.5c2.04,0,4.24-.5,6.6-1.5,2.36-1,4.35-2.35,5.98-4.06,1.62-1.71,2.44-3.61,2.44-5.69,0-1.78-.61-3.51-1.82-5.2h22.55c0,2.38-.96,4.69-2.89,6.92-1.93,2.23-4.53,4.22-7.8,5.98-3.27,1.76-6.92,3.17-10.95,4.26l1.04,3.05c1.69-.43,3.28-.93,4.78-1.49,1.5-.56,2.91-1.13,4.26-1.69l1.36-.58h15.93v6.5h-18.85c-.26.13-.6.51-1.01,1.14-.41.63-.62,1.27-.62,1.92,0,.69.22,1.28.65,1.75.78.95,2.67,1.43,5.66,1.43,2.21,0,4.18-.2,5.92-.58,2.82-.56,5.57-1.34,8.25-2.34v18.39c-1.99,1.39-4.2,2.45-6.63,3.18-2.43.74-4.98,1.11-7.67,1.11-4.25,0-8.16-.92-11.73-2.76Z"/><path class="uuid-39018062-29d4-4741-a6a0-90867b1b39b7" d="m260.94,704.93h17.94v52h-17.94v-52Z"/><path class="uuid-39018062-29d4-4741-a6a0-90867b1b39b7" d="m296.59,755.2c-3.58-1.84-6.41-4.34-8.52-7.51-2.1-3.16-3.15-6.61-3.15-10.33,0-1.34.26-2.42.78-3.22s1.1-1.53,1.75-2.18h-6.31v-6.5c2.04,0,4.24-.5,6.6-1.5,2.36-1,4.35-2.35,5.98-4.06,1.62-1.71,2.44-3.61,2.44-5.69,0-1.78-.61-3.51-1.82-5.2h22.56c0,2.38-.96,4.69-2.89,6.92-1.93,2.23-4.53,4.22-7.8,5.98-3.27,1.76-6.92,3.17-10.95,4.26l1.04,3.05c1.69-.43,3.28-.93,4.78-1.49,1.5-.56,2.91-1.13,4.26-1.69l1.37-.58h15.92v6.5h-18.85c-.26.13-.6.51-1.01,1.14-.41.63-.62,1.27-.62,1.92,0,.69.22,1.28.65,1.75.78.95,2.67,1.43,5.66,1.43,2.21,0,4.18-.2,5.92-.58,2.82-.56,5.57-1.34,8.25-2.34v18.39c-1.99,1.39-4.2,2.45-6.63,3.18-2.43.74-4.98,1.11-7.67,1.11-4.25,0-8.16-.92-11.73-2.76Z"/><path class="uuid-39018062-29d4-4741-a6a0-90867b1b39b7" d="m361.46,755.2c-3.58-1.84-6.41-4.34-8.52-7.51-2.1-3.16-3.15-6.61-3.15-10.33,0-.95.16-2.14.49-3.57.33-1.43.7-2.76,1.14-4,.43-1.23.74-1.94.91-2.11h-6.3v-6.5c1.86,0,3.69-.42,5.49-1.27,1.8-.84,3.27-2.01,4.42-3.51,1.15-1.5,1.72-3.17,1.72-5.04,0-2.04-.78-4.18-2.34-6.43h29.05c0,2.34-1.15,4.6-3.45,6.79s-5.29,4.15-8.97,5.88c-3.68,1.73-7.63,3.16-11.83,4.29l1.04,3.05c1.69-.43,3.28-.93,4.78-1.49s2.91-1.13,4.26-1.69l1.37-.58h15.92v6.5h-18.85c-.22.13-.54.93-.97,2.41-.43,1.47-.65,2.84-.65,4.09s.22,2.12.65,2.6c.78.95,2.67,1.43,5.66,1.43,2.21,0,4.18-.2,5.92-.58,2.82-.56,5.57-1.34,8.25-2.34v18.39c-1.99,1.39-4.2,2.45-6.63,3.18-2.43.74-4.98,1.11-7.67,1.11-4.25,0-8.16-.92-11.73-2.76Z"/><path class="uuid-39018062-29d4-4741-a6a0-90867b1b39b7" d="m431.95,748.31c1-1.8,1.83-3.91,2.5-6.34.67-2.43,1.01-4.96,1.01-7.6l-3.38-.46c0,1.6-.27,3.63-.81,6.08-.54,2.45-1.61,4.87-3.22,7.25-2.3,3.38-5.16,6.02-8.58,7.93-3.42,1.91-6.96,2.86-10.6,2.86s-7.19-1.02-10.27-3.06c-2.86-1.86-5.05-4.29-6.57-7.28-1.52-2.99-2.27-6.22-2.27-9.68,0-2.25.33-4.51,1.01-6.76.67-2.25,1.66-4.38,2.96-6.37,2.25-3.42,5.08-6.09,8.48-8,3.4-1.91,6.92-2.86,10.56-2.86s7.24,1.04,10.4,3.12c1.17.78,2.3,1.72,3.38,2.83,1.08,1.1,1.97,2.26,2.67,3.48v-8.78h18.2v42.25h-18.2l-.2-4.62c.95-.87,1.93-2.2,2.92-4Zm-17.26,1.53c2.01-1.65,3.84-3.81,5.49-6.5,1.26-1.91,2.21-3.79,2.86-5.66.65-1.86.97-3.55.97-5.07,0-1.99-.58-3.34-1.75-4.03-.52-.3-1.06-.46-1.62-.46-1.56,0-3.36.82-5.4,2.47-2.04,1.65-3.9,3.81-5.59,6.5-1.21,1.95-2.13,3.87-2.76,5.75s-.94,3.56-.94,5.04c0,1.39.28,2.47.85,3.25.56.78,1.39,1.17,2.47,1.17,1.6,0,3.41-.82,5.43-2.47Z"/><path class="uuid-39018062-29d4-4741-a6a0-90867b1b39b7" d="m452.29,704.93h17.94v10.53l-11.12,11.96,2.27,2.34,13.85-15.08h20.15l-9.55,11.38,12.16,30.88h-19.5l-6.04-16.05-2.02,2.34v13.71h-18.13v-52Z"/><path class="uuid-39018062-29d4-4741-a6a0-90867b1b39b7" d="m503.77,751.82c-1.43-1.67-2.7-3.82-3.8-6.47-1.1-2.64-1.66-5.7-1.66-9.17,0-5.68,1.31-10.23,3.93-13.65,2.62-3.42,5.76-5.82,9.42-7.18,3.66-1.37,7.18-2.05,10.56-2.05,4.77,0,8.82.63,12.16,1.88,3.34,1.26,5.85,2.96,7.54,5.1,1.69,2.15,2.53,4.56,2.53,7.25s-.74,4.93-2.21,7.12c-1.47,2.19-3.48,3.92-6.01,5.2-2.54,1.28-5.3,1.92-8.29,1.92s-5.89-.67-8.45-2.02c-2.56-1.34-4.57-3.14-6.04-5.39l-2.27,2.14c1.78,3.16,4.61,5.34,8.51,6.53,3.9,1.19,8.45,1.79,13.65,1.79,2.64,0,6.28-.15,10.92-.46l-8.65,12.54h-26.71c-1.99-1.73-3.71-3.43-5.13-5.1Zm14.75-17.91c1.04,0,2.19-.48,3.45-1.43,1.26-.95,2.34-2.23,3.25-3.83,1.17-2.04,1.75-3.96,1.75-5.78s-.54-3.01-1.62-3.58c-.43-.26-.91-.39-1.43-.39-1.08,0-2.24.48-3.48,1.43-1.23.95-2.31,2.21-3.22,3.77-1.17,1.99-1.75,3.94-1.75,5.85,0,.87.14,1.61.42,2.24.28.63.7,1.09,1.27,1.4.35.22.8.33,1.37.33Z"/><path class="uuid-39018062-29d4-4741-a6a0-90867b1b39b7" d="m552.46,742.37c2.86.56,5.46.84,7.8.84,2.08,0,4.13-.28,6.14-.84,2.02-.56,3.02-1.41,3.02-2.54,0-.87-.63-1.55-1.88-2.05-1.26-.5-3.23-1.05-5.92-1.66-3.16-.78-5.79-1.54-7.87-2.28-2.08-.74-3.88-1.82-5.39-3.25-1.52-1.43-2.28-3.29-2.28-5.59,0-3.38,1.43-6.11,4.29-8.19,2.86-2.08,7.24-3.12,13.13-3.12,4.59,0,8.66.37,12.19,1.1,3.53.74,6.23,1.45,8.09,2.15v15.14l-1.5-.65c-2.3-.95-4.3-1.68-6.01-2.18s-3.52-.75-5.43-.75c-2.04,0-3.83.2-5.36.58-1.54.39-2.31,1-2.31,1.82,0,.74.56,1.33,1.69,1.79,1.13.46,2.95.99,5.46,1.59,3.21.78,5.88,1.57,8.03,2.37,2.15.8,4.02,1.99,5.62,3.57,1.6,1.58,2.4,3.61,2.4,6.08,0,2.17-.49,4.06-1.46,5.69-.98,1.62-2.44,3.26-4.39,4.91h-25.67l-10.08-16.64c2.25.82,4.81,1.52,7.67,2.08Z"/></g></svg>