<?xml version="1.0" encoding="UTF-8"?><svg id="uuid-0fe2de57-1346-435b-bed6-7a8edb415d0e" xmlns="http://www.w3.org/2000/svg" viewBox="0 0 771.89 557.16"><defs><style>.uuid-dd3f5177-2f15-45b3-ae2f-c465490df7d9{fill:#f9c719;}.uuid-dd3f5177-2f15-45b3-ae2f-c465490df7d9,.uuid-6758ee52-7bbc-4704-9e53-32d8080507d2,.uuid-7285a694-900f-4561-b672-62f77b14fb6b,.uuid-261678c2-93f3-45ce-9636-3aecc3e6676e,.uuid-2050355d-8d40-4bf8-b17d-1e2ad946d6fe,.uuid-b6eec77a-f85f-421d-a715-8064461fd25d,.uuid-c0da2e8c-341b-4046-9635-b1f07a775438,.uuid-c5f907fd-bf5a-4555-bc49-1d365ca472d6,.uuid-cb313a3c-13e7-452a-b649-a962198ef2fd,.uuid-a3117e77-3e72-4ac3-8535-32a89a810223,.uuid-6d4f8403-1a6a-4ba7-9668-6ebd6bbc68da,.uuid-fbe2a0c7-4c80-4f08-a1b6-ee0431decdf6,.uuid-156782ce-7b05-4901-941a-d00584e378f3,.uuid-b3a044da-b663-4788-bfb7-5efa6334d083,.uuid-14160bfc-9acc-4da0-9dd7-fe9d33796e1f,.uuid-22bcd3ff-d44e-4d45-ba81-f45598fb6b42,.uuid-5b39644f-d3f2-4dfe-ac82-3f37dcb5f1f2,.uuid-6051d34b-e21e-4c35-8c9f-dde42adebbcc,.uuid-d6cb9a69-2532-490e-9b0d-79614a819485,.uuid-5cc2dd02-ebc7-4acc-abe8-4d9e58c045fe{stroke-width:0px;}.uuid-6758ee52-7bbc-4704-9e53-32d8080507d2{fill:#77bdb6;}.uuid-7285a694-900f-4561-b672-62f77b14fb6b{fill:#46adab;}.uuid-261678c2-93f3-45ce-9636-3aecc3e6676e{fill:#2755ae;}.uuid-2050355d-8d40-4bf8-b17d-1e2ad946d6fe{fill:#701516;}.uuid-b6eec77a-f85f-421d-a715-8064461fd25d{fill:#175c5d;}.uuid-c0da2e8c-341b-4046-9635-b1f07a775438{fill:#219ae8;}.uuid-c5f907fd-bf5a-4555-bc49-1d365ca472d6{fill:#221917;}.uuid-cb313a3c-13e7-452a-b649-a962198ef2fd{fill:#cafcf4;}.uuid-a3117e77-3e72-4ac3-8535-32a89a810223{fill:#dfd3cc;}.uuid-6d4f8403-1a6a-4ba7-9668-6ebd6bbc68da{fill:#fff;}.uuid-fbe2a0c7-4c80-4f08-a1b6-ee0431decdf6{fill:#e9afa1;}.uuid-156782ce-7b05-4901-941a-d00584e378f3{fill:#e9aea0;}.uuid-b3a044da-b663-4788-bfb7-5efa6334d083{fill:#e2f7fc;}.uuid-14160bfc-9acc-4da0-9dd7-fe9d33796e1f{fill:#e5dada;}.uuid-22bcd3ff-d44e-4d45-ba81-f45598fb6b42{fill:#f0ebeb;}.uuid-5b39644f-d3f2-4dfe-ac82-3f37dcb5f1f2{fill:#e9f4fe;}.uuid-6051d34b-e21e-4c35-8c9f-dde42adebbcc{fill:#eaafa1;}.uuid-d6cb9a69-2532-490e-9b0d-79614a819485{fill:#030b0b;}.uuid-5cc2dd02-ebc7-4acc-abe8-4d9e58c045fe{fill:#00767f;}</style></defs><g id="uuid-092d9ec3-2bb4-4ba1-9bd9-3399a80a42b5"><path class="uuid-6758ee52-7bbc-4704-9e53-32d8080507d2" d="m771.87,19.52c-.26-5.39-2.02-10.15-5.96-13.99-4.25-4.13-9.39-5.53-15.23-5.53-205.97.04-411.95.04-617.92.04-1.09,0-2.18-.03-3.26.06-2.17.16-4.28.55-6.28,1.5-8.13,3.84-11.8,10.34-11.8,19.24.03,126.69.02,253.38.02,380.07,0,.87-.02,1.74.02,2.6.2,4.74,1.93,8.87,5.1,12.36,4.33,4.76,9.9,6.41,16.18,6.41,75.73-.02,151.45-.02,227.17-.01,1.16,0,2.31.04,3.47.06.87-.01,1.73-.04,2.6-.04h156.04c1,0,2.03-.18,2.95.41.99-.62,2.1-.43,3.17-.43,65.23-.01,130.47-.01,195.7-.01,9.19,0,18.37.04,27.56-.01,6.82-.03,12.54-2.44,16.68-8.07,2.91-3.96,3.81-8.48,3.81-13.29V21.48c0-.66.01-1.31-.02-1.96Zm-329.35,374.97c-8.9-.02-16.41-7.33-16.31-16.03.1-9.26,7.98-16.09,16.45-16.14,8.98-.06,16.82,7.78,16.42,16.05.01,9.09-7.24,16.15-16.56,16.12Zm302.67-61.58H137.46c-.63-.71-.37-1.55-.37-2.31-.01-97.98-.01-195.96-.01-293.94,0-8.99,6.06-15.12,15.05-15.28h577.12c3.45,0,6.72.49,9.69,2.48,4.18,2.8,6.15,6.75,6.51,11.64.07.93.02,1.88.02,2.82,0,97.04,0,194.08,0,291.12,0,1.06.18,2.15-.27,3.47Z"/><path class="uuid-b3a044da-b663-4788-bfb7-5efa6334d083" d="m745.19,332.91H137.46c-.63-.71-.37-1.55-.37-2.31-.01-97.98-.01-195.96-.01-293.94,0-8.99,6.06-15.12,15.05-15.28h577.12c3.45,0,6.72.49,9.69,2.48,4.18,2.8,6.15,6.75,6.51,11.64.07.93.02,1.88.02,2.82,0,97.04,0,194.08,0,291.12,0,1.06.18,2.15-.27,3.47Z"/><path class="uuid-5cc2dd02-ebc7-4acc-abe8-4d9e58c045fe" d="m363.37,422.33c.87-.01,1.73-.04,2.6-.04,52.01,0,104.03,0,156.04,0,1,0,2.03-.18,2.95.41v52.23c15.1,2.04,24.24,16.1,24.21,30.7h-210.73c.02-14.58,9.42-29.42,24.93-30.56v-52.74Z"/><path class="uuid-cb313a3c-13e7-452a-b649-a962198ef2fd" d="m459.07,378.37c0,9.09-7.24,16.15-16.56,16.12-8.9-.02-16.41-7.34-16.31-16.04.1-9.25,7.98-16.09,16.45-16.14,8.98-.06,16.82,7.78,16.42,16.05Z"/><path class="uuid-5cc2dd02-ebc7-4acc-abe8-4d9e58c045fe" d="m483.64,252.66c.76.51,1.65,1.18,2.92,1.99,2.79,1.73,6.6,2.03,11.46,2.03s11.58-.38,15.81-.97c-.46,1.14-1.14,3.21-1.23,4.4-2.96.21-10.4.47-14.67.47-5.54,0-9.05-.47-12.18-2.33-1.78-1.1-3.26-2.58-4.19-2.58-1.31,0-3.17,2.75-4.95,5.54l-2.92-3.85c2.16-2.45,4.31-4.27,6.17-5.07v-12.39h-5.2v-3.64h8.96v16.41Zm-1.82-20.55c-1.14-2.03-3.85-5.16-6-7.48l2.96-2.03c2.11,2.16,4.86,5.24,6.17,7.19l-3.13,2.33Zm15.18,9.73c-2.58,4.27-5.96,8.29-9.09,10.78-.68-.93-1.9-2.33-2.79-3.04,3.47-2.33,7.36-6.55,9.85-10.74h-9.09v-3.64h11.12v-12.68h3.8v12.68h11.21v3.64h-9.26c3.55,3.51,7.78,7.74,10.02,10.36l-2.83,2.66c-1.99-2.58-5.75-6.55-9.13-10.06v12.9h-3.8v-12.85Zm-6.34-8.29c-.59-2.16-2.16-5.62-3.64-8.25l3.38-1.23c1.48,2.49,3.17,5.92,3.81,8.03l-3.55,1.44Zm20.85-8.25c-1.56,2.88-3.43,6.22-4.86,8.37l-3.04-1.31c1.4-2.28,3.13-5.92,4.06-8.5l3.85,1.44Z"/><path class="uuid-5cc2dd02-ebc7-4acc-abe8-4d9e58c045fe" d="m552.94,227.24c-1.31,4.4-3.42,8.16-6.05,11.29,2.58,2.33,5.62,4.27,9.22,5.54-.76.72-1.9,2.28-2.41,3.26l-.85-.34v13.74h-3.76v-1.35h-9.43v1.48h-3.59v-13.83c-.63.3-1.23.59-1.86.85-.25-.51-.68-1.14-1.1-1.73v.04h-4.95v6.68l5.24-1.23.38,3.47c-5.79,1.48-11.92,2.96-16.49,4.02l-.68-3.81c.63-.13,1.31-.25,2.03-.38v-14.25h3.21v13.57l2.79-.63v-16.49h-5.88v-13.28h13.95v10.82c3.17-3.09,5.83-7.65,7.31-12.52l3.81.93c-.38,1.1-.8,2.2-1.27,3.26h7.19l.68-.17,2.5,1.06Zm-30.74,6.51h6.89v-6.51h-6.89v6.51Zm10.91,10.7c3.17-1.35,6.26-3.38,8.92-6-1.35-1.61-2.41-3.26-3.34-4.86-1.02,1.48-2.16,2.83-3.26,3.97-.59-.63-1.82-1.65-2.71-2.33v1.9h-4.57v5.58h4.95v1.73Zm17.17,1.18c-2.2-1.27-4.14-2.83-5.83-4.48-1.78,1.73-3.76,3.26-5.83,4.48h11.67Zm-1.18,10.36v-7.02h-9.43v7.02h9.43Zm-8.08-26.3l-.38.76c.97,1.82,2.16,3.64,3.68,5.41,1.52-1.86,2.79-3.93,3.76-6.17h-7.06Z"/><path class="uuid-5cc2dd02-ebc7-4acc-abe8-4d9e58c045fe" d="m595.18,227.37c-3.72,4.1-9.34,8.5-14.54,11.46v17.38c0,2.41-.63,3.59-2.45,4.14-1.82.63-4.69.72-8.88.68-.17-1.14-.93-2.92-1.56-3.97,3.3.13,6.6.13,7.57.08.89-.04,1.23-.25,1.23-1.01v-19.28c3.68-1.9,7.82-4.86,10.78-7.65h-25.83v-3.89h29.68l.89-.21,3.13,2.28Z"/><path class="uuid-5cc2dd02-ebc7-4acc-abe8-4d9e58c045fe" d="m395.34,152.86h-10.84v24.28h-21.67v-24.28h-40.73v-16.06l33.81-56.79h28.59v55.22h10.84v17.62Zm-32.51-17.62v-14.23c0-6.14.65-15.41.91-21.54h-.52c-2.48,5.48-5.09,11.1-7.83,16.58l-11.1,19.19h18.54Z"/><path class="uuid-5cc2dd02-ebc7-4acc-abe8-4d9e58c045fe" d="m404.09,128.06c0-33.42,13.84-49.87,34.34-49.87s34.47,16.71,34.47,49.87-13.97,50.92-34.47,50.92-34.34-17.49-34.34-50.92Zm46.87,0c0-26.5-5.61-31.99-12.53-31.99s-12.4,5.48-12.4,31.99,5.48,32.9,12.4,32.9,12.53-6.27,12.53-32.9Z"/><path class="uuid-5cc2dd02-ebc7-4acc-abe8-4d9e58c045fe" d="m554.36,152.86h-10.84v24.28h-21.67v-24.28h-40.73v-16.06l33.81-56.79h28.59v55.22h10.84v17.62Zm-32.51-17.62v-14.23c0-6.14.65-15.41.91-21.54h-.52c-2.48,5.48-5.09,11.1-7.83,16.58l-11.1,19.19h18.54Z"/><path class="uuid-5cc2dd02-ebc7-4acc-abe8-4d9e58c045fe" d="m278.56,239.79c0-12.94,7.15-20.7,17.48-20.7s17.53,7.75,17.53,20.7-7.21,20.97-17.53,20.97-17.48-8.03-17.48-20.97Zm28.51,0c0-9.45-4.37-15.18-11.03-15.18s-10.98,5.73-10.98,15.18,4.31,15.46,10.98,15.46,11.03-6.01,11.03-15.46Z"/><path class="uuid-5cc2dd02-ebc7-4acc-abe8-4d9e58c045fe" d="m319.25,245.08c0-10.05,6.72-15.84,14.14-15.84s14.14,5.79,14.14,15.84-6.72,15.67-14.14,15.67-14.14-5.73-14.14-15.67Zm21.84,0c0-6.39-2.95-10.65-7.7-10.65s-7.65,4.26-7.65,10.65,2.95,10.54,7.65,10.54,7.7-4.21,7.7-10.54Z"/><path class="uuid-5cc2dd02-ebc7-4acc-abe8-4d9e58c045fe" d="m354.91,230.01h5.13l.49,3.28h.16c2.62-2.18,5.9-4.04,9.23-4.04,7.65,0,11.91,6.06,11.91,15.29,0,10.32-6.17,16.22-12.94,16.22-2.68,0-5.35-1.2-7.92-3.39l.16,5.13v9.72h-6.23v-42.21Zm20.42,14.64c0-6.28-2.02-10.16-7.04-10.16-2.35,0-4.59,1.2-7.15,3.66v14.69c2.35,2.02,4.7,2.73,6.55,2.73,4.37,0,7.65-3.88,7.65-10.92Z"/><path class="uuid-5cc2dd02-ebc7-4acc-abe8-4d9e58c045fe" d="m385.99,256.61l2.95-4.04c2.68,2.13,5.3,3.44,8.52,3.44,3.6,0,5.3-1.75,5.3-4.04,0-2.73-3.39-3.93-6.66-5.19-3.99-1.53-8.57-3.66-8.57-8.74s4.04-8.79,10.65-8.79c4.04,0,7.32,1.64,9.78,3.55l-2.95,3.88c-2.08-1.53-4.21-2.62-6.72-2.62-3.28,0-4.81,1.64-4.81,3.71,0,2.57,3.11,3.55,6.39,4.75,4.21,1.58,8.85,3.44,8.85,9.12,0,5.02-3.99,9.12-11.41,9.12-4.15,0-8.41-1.75-11.3-4.15Z"/><path class="uuid-5cc2dd02-ebc7-4acc-abe8-4d9e58c045fe" d="m414.55,256.39c0-2.57,1.86-4.48,4.21-4.48s4.21,1.91,4.21,4.48-1.86,4.37-4.21,4.37-4.21-1.8-4.21-4.37Z"/><path class="uuid-5cc2dd02-ebc7-4acc-abe8-4d9e58c045fe" d="m430.82,256.39c0-2.57,1.86-4.48,4.21-4.48s4.21,1.91,4.21,4.48-1.86,4.37-4.21,4.37-4.21-1.8-4.21-4.37Z"/><path class="uuid-5cc2dd02-ebc7-4acc-abe8-4d9e58c045fe" d="m447.09,256.39c0-2.57,1.86-4.48,4.21-4.48s4.21,1.91,4.21,4.48-1.86,4.37-4.21,4.37-4.21-1.8-4.21-4.37Z"/><g id="uuid-680c6bb8-99b2-474f-91dc-9284df6b05eb"><ellipse class="uuid-5b39644f-d3f2-4dfe-ac82-3f37dcb5f1f2" cx="182" cy="532.02" rx="182" ry="25.14"/><path class="uuid-b6eec77a-f85f-421d-a715-8064461fd25d" d="m359.35,434.91c-4.61,8.91-11.23,16.24-18.39,23.14-13.02,12.54-27.67,22.7-44.09,30.28-.96.44-1.85.99-2.77,1.5-2.91,1.16-5.75,2.49-8.54,3.93-.65.23-1.31.43-1.94.71-12.6,5.55-25.55,10.2-38.54,14.73-.72.24-1.45.48-2.17.72-1.67.45-3.34.92-4.93,1.63-1.36.4-2.72.77-4.07,1.21-1.66.54-3.53.69-4.68,2.3-.66.11-1.18-.11-1.7-.55-7.33-6.15-13.54-13.16-17.23-22.13-2.22-5.39-3.96-10.91-4.71-16.72.43-.25.89-.47,1.27-.77,5.55-4.38,11.08-8.77,16.63-13.14,9.83-7.75,19.67-15.48,29.49-23.23,11.25-8.88,22.48-17.77,33.72-26.66,2.73-2.16,5.42-4.36,8.21-6.6-1.27-1.45-1.93-.06-2.5.38-7.98,6.24-15.91,12.56-23.87,18.84-17.68,13.96-35.36,27.92-53.08,41.84-3.34,2.62-6.45,5.52-10.06,7.8-.23-.78-.26-1.63-1.11-2.43-6.82.55-11.49,5.23-16.76,8.74v1.92c-.86-.17-1.49.57-2.28.6-.63-.35-1.22-.69-1.82-1.02-.32-.28-.29-.66-.32-1.03-.17-3.53-1.51-6.5-4.13-8.92-3.51-3.23-7.67-5.33-12.1-6.91-1.28-.45-2.49-1.41-4.1-1,.35,1.79,1.03,3.43.9,5.19-.35-.14-.72-.22-1.03-.41-9.21-5.8-18.42-11.61-27.62-17.44-13.06-8.27-26.11-16.56-39.17-24.82-.53-.34-1.05-.99-1.8-.48-.37.78.2,1.03.67,1.33,1.11.7,2.23,1.4,3.34,2.11,19.06,12.11,38.12,24.25,57.21,36.32,2.85,1.8,5.55,3.85,8.65,5.24.38.63.29,1.33.29,2.01.09,7.9-1.82,15.4-4.47,22.78-.92,2.56-2.36,4.99-2.33,7.83-.62.15-1.24.3-1.85.45-11.04.41-21.78,1.12-32.81-.23-10.91-1.34-21.82-2.73-32.65-4.61-2.58-1.22-5.16-2.46-8.17-2.11-1.66.2-3.32.32-4.99.47-15.76-4.92-31.54-9.66-46.68-16.34-11.84-5.23-19.8-15.4-23.46-27.68-2.17-7.27-2.65-14.95-1.27-22.42,1.23-6.63,3.63-13.91,8.29-18.97,9.92-10.79,26.78-9.2,39.78-6.76,8.76,1.64,17.17,4.62,25.81,6.72,9.1,2.21,18.39,3.49,27.71,4.29.61.11,1.22.23,1.84.29,12.86,1.3,25.74,2.12,38.65,2.45,11.22.28,22.45.61,33.65-.38,20.25-1.79,40.29-5.02,60.17-9.23,6.24-1.32,12.5-2.58,18.61-4.44,13.81-2.81,26.53-9.23,39.38-14.76,15.37-5.26,32.46-11.02,48.08-3.35,8.88,5.86,13.84,14.3,15.87,24.55,1.63,8.22-.28,15.92-4.06,23.24Z"/><path class="uuid-dd3f5177-2f15-45b3-ae2f-c465490df7d9" d="m250.03,312.98s.02,0,.02,0c0,0,0,.02,0,.03l-.02-.04Z"/><path class="uuid-dd3f5177-2f15-45b3-ae2f-c465490df7d9" d="m322.05,311.63c-3.35,2.72-7.19,4.41-10.76,6.55-.9-.13-1.7.15-2.49.57-3.47,1.84-6.97,3.62-10.45,5.46-5.45,2.88-10.88,5.8-16.33,8.7-3.16-1.91-6.32-3.83-9.39-5.69-.54.18-.69.52-.84.86-.96-.57-1.94-1.14-2.88-1.73-5.62-3.49-11.23-7-16.84-10.5.81-1.69-1.09-1.54-1.59-2.35-.03-.26-.13-.47-.42-.51.18-.68-.22-1.2-.54-1.69-2.13-3.23-4.29-6.44-6.44-9.66-.68-8.33-1.36-16.67-2.02-25-.22-2.71-1.5-3.94-4.19-3.97-.44,0-.87,0-1.31-.02-.67-.58-1.48-.64-2.3-.57-10.75.86-21.5,1.7-32.24,2.61-2.73.23-3.9,1.82-3.67,4.62.2,2.38.38,4.75.57,7.13,1.54,18.81,3.07,37.62,4.62,56.43.26,3.11,1.68,4.26,4.86,4.01,2.13-.16,4.26-.3,6.38-.48,7.25-.61,14.49-1.23,21.74-1.85.17.08.38.11.51.22,7.16,6,14.54,11.74,21.87,17.51.45,8.57.92,17.14,1.36,25.71.29,5.76.54,11.52.81,17.27-6.11,1.86-12.37,3.12-18.61,4.44-19.88,4.2-39.92,7.43-60.17,9.23-11.2.99-22.44.66-33.65.38-12.91-.32-25.8-1.14-38.65-2.45-.62-.06-1.23-.19-1.84-.29.69-11.18.84-22.37,1.27-33.56.43-11.19,1.74-23.12,1.62-34.3.34,0,.75.61,1.09.6,1.33.57,2.72.96,4.19.94,1.48.47,3,.3,4.51.23,4.01.1,8.03.39,12.04-.05.29.08.54.02.75-.21,7.98-1.25,14.52-9.16,14.32-17.29.39-1.37.3-2.76.11-4.14.33-4.77.31-9.54.26-14.31.4-1.62.32-3.25.13-4.89v-14.76c-16.41-1.04-32.98-.75-49.43-1.05-.27-.02-.38.11-.36.38-.12,5.9-.52,11.79-.35,17.69-.02.14-.05.26-.07.39-1.13-1.82-.41-3.98-.98-6.2-2.5,1.69-5.12,2.98-6.37,5.6-.82,1.72-1.8,3.28-3.04,4.67-1.68,1.91-2.98,4-3.8,6.39-.21.62-.39,1.19-1.16,1.27-.18-.02-.37-.05-.56-.07-.45-.48-1.07-.61-1.66-.83-10.91-4-21.81-8-32.72-12.01-2.85-1.08-5.71-2.16-8.67-3.28.41-1.39,1.31-2.28,2.02-3.27,14.02-19.58,28.95-38.44,45.58-55.87,7.77-8.15,17.21-14.12,27.22-19.18.17-.08.36-.09.55-.13-.05.88-.32,1.71-.6,2.55-2.3,6.56-6.11,12.16-10.76,17.25-.62.67-1.47,1.19-1.68,2.1.1.75.56,1.2.98,1.65,2.67,2.88,6.07,3.89,9.75,3.04,4.43-1.02,8.13-.07,11.52,2.8,1,.85,2.1,1.58,3.18,2.33,3.37,2.37,6.98,2.64,10.68.96,3.79-1.72,7.66-2.07,11.74-1.45,5.28.8,10.11,2.79,14.82,5.18.64.33,1.23.99,2.25.72-3.96-5.5-3.86-11.42-2.46-17.52,6.99,5.15,15.85,7.56,24.48,7.59,8.33.03,15.43-3.31,21.04-9.39,0,.44.02.87-.04,1.31-.88,6.33-2.18,12.57-3.89,18.73-.16.57-.56,1.14-.14,1.86,2.61,1.01,5.34,1.58,8.2,1.33,2.09-.19,4-.9,5.05-2.81,1.39-2.52,3.51-3.07,6.05-2.63,2.59.44,5.14,1.14,7.74,1.55,2.76.45,5.62.63,7.89-1.33,4.01-3.45,8.2-6.57,13.25-8.73-9.84-7.4-14.8-17.11-14.91-29.25,9.17,3.42,18.73,6.21,26.54,12.35,7.67,6.02,13.5,14.33,19.59,21.86,13.17,16.28,26.59,32.77,38.13,50.25Z"/><path class="uuid-2050355d-8d40-4bf8-b17d-1e2ad946d6fe" d="m163.07,248.95c-1.4,6.1-1.5,12.02,2.46,17.52-1.02.27-1.61-.4-2.26-.73-4.71-2.39-9.54-4.38-14.82-5.18-4.08-.62-7.95-.26-11.74,1.45-3.7,1.68-7.31,1.4-10.68-.96-1.08-.75-2.18-1.48-3.18-2.33-3.38-2.87-7.09-3.83-11.52-2.8-3.67.85-7.08-.15-9.75-3.03-.42-.45-.89-.9-.98-1.65.21-.92,1.06-1.43,1.68-2.11,4.65-5.09,8.46-10.69,10.75-17.25.29-.83.55-1.66.6-2.55.97-2.37,1.1-4.88,1.01-7.39-.19-5.26-.5-10.52-.72-15.78-.29-6.71,1.49-12.78,5.73-18.05,3.59-4.46,5.14-9.69,5.76-15.26.8-7.25,3.56-13.44,9.09-18.42,3.93-3.54,6.11-8.38,8.51-12.99,3.08-5.89,5.98-11.87,9.53-17.49,2.89-4.57,6.14-8.83,10.26-12.42,8.02-6.99,17.22-8.45,27.27-6,5.85,1.42,11.15,4.12,16.27,7.21.59.35,1.14.74,1.83.92,16.8,4.41,24.44,16.71,24.21,32.71-.06,4.03-.8,7.98-1.27,11.96-1.43,12.17-.24,24.13,2.54,36,1.81,7.74,3.77,15.44,4.21,23.44.17,3.14-.33,6.26-.08,9.39.12,12.14,5.08,21.85,14.92,29.25-5.06,2.16-9.25,5.28-13.25,8.73-2.28,1.96-5.14,1.78-7.9,1.34-2.59-.42-5.14-1.11-7.73-1.55-2.54-.44-4.67.11-6.05,2.63-1.05,1.91-2.96,2.62-5.05,2.81-2.86.26-5.59-.32-8.2-1.32-.42-.72-.01-1.29.14-1.87,1.7-6.16,3.01-12.4,3.89-18.73.06-.43.03-.87.04-1.31,1.04-7.56.44-14.92-1.62-22.25-1.79-6.34-5.39-13.62-2.69-20.19,15.95-10.93,19.82-33.7,18.64-51.61-.03-1.33.25-2.68-.3-3.96-1.49-11.68-5.87-25.92-18.76-29.2-2.85,3.98-5.75,7.92-8.77,11.77-1.4,1.79-2.83,3.55-4.28,5.3-1.45,1.74-3.95,3.72-4.73,5.83-1.52,1.21-2.85,2.61-4.09,4.1-4.66,4.67-9.89,8.65-15.02,12.79-5.15,4.16-7.7,9.55-6.55,16.41.86,5.16,2.54,10.07,4.1,15.02,3.63,11.47,5.51,23.14,4.31,35.19-.45,4.48-.9,8.93-2.92,13.11-1.43,2.97-2.46,6.16-2.86,9.49Z"/><path class="uuid-fbe2a0c7-4c80-4f08-a1b6-ee0431decdf6" d="m282.03,332.91c5.44-2.9,10.88-5.81,16.33-8.7,3.47-1.84,6.97-3.63,10.44-5.46.8-.42,1.59-.7,2.5-.57,1.06,2.68,3.21,4.59,4.85,6.85,9.03,12.42,17.78,25.02,24.5,38.9,3.09,6.39,5.67,12.96,6.75,20.02.16,1.04.1,2.12.14,3.18-15.63-7.67-32.71-1.9-48.09,3.36-.15-.73-.82-.88-1.34-1.19-6.23-3.68-12.45-7.39-18.43-11.47-7.37-5.03-14.58-10.27-21.77-15.55-7.34-5.78-14.72-11.51-21.88-17.51-.14-.11-.34-.15-.51-.22-.3-.75-.94-1.13-1.6-1.48-.94-1.1-2.04-2.01-3.24-2.86-2.85.49-16.3,3.41-16.41-1.87,8.33-5.33,17.29-5.23,26.5-3.49-4.11-2.74-8.73-4.73-13.14-6.91-4.37,1.36-8.74,2.99-13.18,4.12-2.41.62-6.32-.11-6.54-3.27-.23-3.27,5.92-3.86,8.1-4.58,2.29-.76,4.56-1.55,6.84-2.33.96-.33,4.2-.85,4.66-1.95,3.46-1.66,6.72-1.85,10.02.66,2.67,2.04,5.65,3.67,8.49,5.49.42-.19.63-.46.71-1.09-2.9-1.87-5.99-3.66-8.85-5.75-3.69-2.7-7.33-2.32-11.1-.4-2.69-1.13-6.17-.85-9.04-1.05-3.17-.22-6.33-.44-9.49-.66-1.47-1.75-2.31-4.73-.74-6.7,1.64-2.07,4.08-.78,6.1-1.7,4.04.45,8.07.99,12.12,1.34,3.95.34,7.72.93,11.16,3.25,3.25,2.2,6.82,3.94,10.23,5.87.43-.21.7-.42.68-1.13-2.57-1.47-5.36-2.89-7.95-4.59-4.43-2.9-9.11-4.73-14.5-4.86-3.85-.1-7.68-.74-11.57-1.14-.1.47-.16.77-.22,1.07-1.41-2.36-.68-4.33,2.38-6.12,5.43.38,10.95.79,16.36,2.27,4.02,1.1,7.15,3.79,10.74,5.67,2.9,2.03,5.75,4.14,9.05,5.52,5.61,3.5,11.22,7.01,16.84,10.5.95.59,1.92,1.16,2.88,1.73,11.87,7.53,23.74,15.08,35.65,22.55.55-.18.77-.44.8-1.04-8.72-5.59-17.47-11.13-26.21-16.69Z"/><path class="uuid-6051d34b-e21e-4c35-8c9f-dde42adebbcc" d="m138.74,325.05c-.31-5.2-.41-5.33-4.23-5.86-.75.17-1.49.17-2.24,0-1.38.06-2.76.11-4.14.17-.2.28-.45.32-.75.22-1.51.13-2.98.63-4.51.55-.2.27-.45.32-.76.21-1.12.11-2.24.2-3.36.31-1.94,1.27-4.99,1.16-7.24,1.58-2.82.53-5.66.99-8.54,1.07-2-2.2,5.18-2.35,6.24-2.42,3.31-.2,6.6-.75,9.89-1.14,2.03.02,5.51-1.41,5.58-3.74.11-3.07-3.46-4.19-5.9-4.43-6.75-.67-13.94-.23-20.65.32-.23.29-.54.36-.89.34-1.13-1.82-.41-3.98-.98-6.2-2.5,1.69-5.12,2.98-6.37,5.6-.82,1.72-1.8,3.28-3.04,4.67-1.68,1.91-2.98,4-3.8,6.39-.21.62-.39,1.19-1.16,1.27.12.28.24.56.42.98-11.98,7.46-23.92,14.91-35.75,22.28-.53-.23-.66-.5-.73-.85.29-.69,1-.89,1.56-1.24,10.7-6.67,21.39-13.32,32.08-19.98.64-.39,1.24-.84,1.86-1.26-.45-.48-1.07-.61-1.66-.83-10.91-4-21.81-8-32.72-12.01-.95,3.36-3.04,6.26-4.66,9.31-1.68,3.15-3.31,6.32-4.91,9.51-3.12,6.21-6.09,12.52-8.74,18.95-4.76,11.56-9.73,24.49-8.99,37.2.26,4.53,2.02,8.98,5.97,11.53,4.92,3.19,11.07,2.12,16.27.27,11.37-4.05,21.33-11.88,30.46-19.58,9.64-8.13,18.59-17.08,27.16-26.32,3.66,1.57,7.52-1.55,10.54-3.25.26-.4.69-.39,1.09-.47,1.84-1.41,4.11-1.5,6.21-1.69,6.24-.55,11.07-3.56,15.15-8.05.82-.91,1.63-1.91,1.61-3.28-.41-.66-.58-1.25.39-1.57,3.18-1.87,8.96-4.69,4.24-8.56Zm-14.16,4.67c-5.21,1.14-10.56,2.03-15.69,3.49,1.36.12,1.97.87,1.86,2.22-.12,1.44.42,2.79.5,4.2,1,.4,1.97.14,2.96-.08,5.14-1.19,10.12-2.89,15.14-4.48.29-.1.57-.28.91-.07-.21.94-.88,1.51-1.73,1.8-7.6,2.63-15.36,4.61-23.39,5.42-.18.02-.37-.04-.75-.08,1.02-1.15,2.82-.34,3.55-1.68-1.5-2.11-1.42-4.47-1.11-6.87-2.45.23-4.89.79-7.38.22,12.74-2.96,25.71-4.75,38.58-8.44-3.09,3.28-9.29,3.46-13.44,4.37Z"/><path class="uuid-6d4f8403-1a6a-4ba7-9668-6ebd6bbc68da" d="m147.05,328.78c.2,1.38.29,2.76-.11,4.14.2,8.13-6.34,16.04-14.32,17.29-.2.23-.45.29-.75.21-4.01.44-8.03.14-12.04.05-1.51.07-3.03.24-4.51-.23-1.47.02-2.85-.37-4.19-.94-.34,0-.75-.61-1.09-.6.26-.4.69-.39,1.09-.47,1.84-1.41,4.11-1.5,6.21-1.69,6.24-.55,11.07-3.56,15.15-8.05.82-.91,1.63-1.91,1.61-3.28-.41-.66-.58-1.25.39-1.57,3.18-1.87,8.96-4.69,4.24-8.56-.31-5.2-.41-5.33-4.23-5.86-.75.17-1.49.17-2.24,0-1.38.06-2.76.11-4.14.17-.2.28-.45.32-.75.22-1.51.13-2.98.63-4.51.55-.2.27-.45.32-.76.21-1.12.11-2.24.2-3.36.31-1.94,1.27-4.99,1.16-7.24,1.58-2.82.53-5.66.99-8.54,1.07-2-2.2,5.18-2.35,6.24-2.42,3.31-.2,6.6-.75,9.89-1.14,2.03.02,5.51-1.41,5.58-3.74.11-3.07-3.46-4.19-5.9-4.43-6.75-.67-13.94-.23-20.65.32-.23.29-.54.36-.89.34.02-.13.05-.26.07-.39-.17-5.9.23-11.79.35-17.69-.02-.26.09-.39.36-.38,16.44.29,33.01,0,49.43,1.05v14.76c.2,1.63.27,3.27-.13,4.89.05,4.77.08,9.54-.26,14.31Z"/><path class="uuid-22bcd3ff-d44e-4d45-ba81-f45598fb6b42" d="m154.85,538.39c-5.38,5.6-12.05,6.6-19.51,6.49-8.2-.11-16.47-.85-24.66-1.33-8.41-.5-16.22.34-24.48,1.92-7.66,1.46-15.52,2.04-22.09-2.91,1.02-.2.87-1,.66-1.62-.31-.93-.25-1.85-.26-2.79-.04-4.12.54-8.18,1.12-12.25.91-6.42,3.67-11.83,8.51-16.18,3.31-2.96,6.82-5.64,10.67-7.84,1.39-.79,2.69-1.86,4.5-1.54.66.11.79-.45.79-1,10.83,1.88,21.74,3.27,32.65,4.61,11.03,1.36,21.77.64,32.81.23-2.41.69-4.81,1.36-7.34,2.09,1.81,1.69,2.18,3.89,2.55,6.09-3.64.23-5.14,3.28-7.39,5.69-.57-2.49.16-4.93-.41-7.13-2.64-1.68-4.17,3.11-3.96,4.9h-1.85c-.29-1.36.6-2.97-.85-4.29-2,1.38-3.68,2.75-3.31,5.42-1.04-.2-1.98.34-2.98.38-.12-1.63-.29-3.25-.74-4.73-1.23-.15-1.69.84-2.51,1.08-.29-.55-.08-1.34-.9-1.54-2.78.69-4.02,2.13-4.15,4.9-.03.75.04,1.5-.39,2.17-1.8-.13-3.46.75-5.25.76v-7.24c-2.2-.66-3.07.7-4.16,1.9v6.09c-1.38,0-2.7.59-4.11.39-.28-2.47.44-5.03-.42-7.47-4.26.73-3.74,4.41-3.74,7.82-.87,0-1.75.02-2.63.02.35-2.73.69-5.46,1.02-8.1-1.62-1.78-3.43,1.21-4.78,1.69-1.94-4.67-3.68-9.76-6.88-13.75.96,8.85,4.23,18.65,1.6,27.49-1.13,3.81-3.9,7.04-6.67,9.8-1.48,1.49-3.09,2.85-4.78,4.1-1.2.89-3.45,1.76-3.95,3.29,7.78-2.64,12.95-8.28,18.2-13.64h3.19c.79,2.09.49,4.84,3.3,5.67.78-.4,1.25-.88,1.61-1.63v-2.52c1.27-.16,2.51.19,3.75.37.77,1.37,1.06,3.03,2.46,4.04.79.12,1.58.32,2.27-.37.34-.94.11-1.94.18-2.91,1.13.1,2.22.56,3.38.38.99,1,1.09,2.7,2.67,3.33.64.05,1.4.26,2.01-.38.36-.71.16-1.47.22-2.2.63,0,1.24,0,1.87,0,.41,1.45.68,4.9,2.48,5.26,2.48.47,2.06-2.7,2.09-4.15,1.62.09,3.27-.19,4.84.4.66.99,1.75,3.52,3.1,3.71,2.21.32,1.65-2.09,1.81-3.34.13-.12.26-.25.38-.37.63,1.05,1.21,2.95,2.6,3.26,1.69.38,1.89-1.24,1.94-2.52.76-.09,1.6.32,2.25-.37.45.47.9.95,1.36,1.44.9.07,1.84.38,2.41-.69,2.64.15,5.27-.11,7.89-.35Z"/><path class="uuid-6051d34b-e21e-4c35-8c9f-dde42adebbcc" d="m205.99,518.78c-8.24,3.28-16.62,6.26-24.55,10.27-7.98,4.03-15.18,7.52-24.34,7.5v-.81c1.47-1.1.84-5.11.87-6.74.05-2.43-.05-4.86-.51-7.25-.75-3.8-2.37-8.52-6.67-9.39-.37-2.2-.74-4.4-2.55-6.09,2.53-.72,4.93-1.4,7.34-2.09.62-.15,1.24-.3,1.85-.45,2,1.73,6.6-1.44,8.52-2.29,2.87-1.27,5.88-2.47,8.59-4.09,5.42-3.25,7.59-7.91,8.94-13.85.6.33,1.18.66,1.73.97.84-.31,1.59-.59,2.34-.87,1.21,7.41,4.22,14.09,8.06,20.47,3.11,5.16,6.84,9.87,10.38,14.71Z"/><path class="uuid-7285a694-900f-4561-b672-62f77b14fb6b" d="m205.99,518.79c-3.55-4.84-7.27-9.55-10.38-14.71-3.84-6.38-6.86-13.06-8.06-20.47,0-.42-.01-.83-.02-1.25v-1.92c5.26-3.51,9.93-8.19,16.75-8.74.85.79.89,1.65,1.11,2.42-.13.54-.12,1.06.19,1.54.75,5.8,2.49,11.33,4.71,16.72,3.7,8.97,9.91,15.98,17.24,22.13.53.44,1.04.66,1.7.55.13,1.59.98,2.3-.06,3.8-1.06,1.54-3.41,2.79-4.89,3.93-2.21,1.02-3.89,2.65-5.37,4.53-.69.88-1.29,1.85-2.39,2.3-1.39,0-2.11-1.05-2.87-1.9-2.6-2.94-5.12-5.95-7.68-8.93Z"/><path class="uuid-14160bfc-9acc-4da0-9dd7-fe9d33796e1f" d="m281.33,522.6c-2.4,1.85-5.34,2.31-8.16,2.92-7.32,1.57-14.79,1.51-22.19,1.1-8.56-.47-17.06-1.73-25.49-3.33-.42-.08-.81-.33-1.2-.5,1.48-1.14,3.83-2.4,4.9-3.93,1.03-1.5.19-2.21.05-3.8,1.14-1.6,3.01-1.75,4.68-2.3,1.35-.44,2.71-.81,4.07-1.21.24,1.58.73,2.42,2.53,1.85,1.24-.91,2.02-2.06,2.39-3.49.72-.23,1.45-.47,2.17-.72,1.63,1.22-.17,4.81,2.66,4.7,1.97-.9,2.26-3.16,3.8-4.49.93.11,1.92-.22,2.85.2.47.99-.17,2.12.72,3.07,2.88.72,2.83-2.3,4.24-3.59.63.03,1.31-.29,1.94.32.32,1.77-.5,3.93,1.65,5.28,1.97-1.5,1.23-3.98,2.16-5.77.96-.39,1.86-.32,2.79-.11.78,2,1.05,4.26,3.01,5.58,2.03-.96,1.51-3.14,2.6-4.63,1.9,1.76,3.08,3.98,4.41,6.16,1.31,2.14,2.97,4.16,3.43,6.69Z"/><path class="uuid-6d4f8403-1a6a-4ba7-9668-6ebd6bbc68da" d="m289.8,512.04c-.47,2.7-1.63,5.2-2.09,7.9-1.95,1.3-3.9,2.6-6.37,2.65-.47-2.53-2.12-4.55-3.43-6.69-1.33-2.18-2.52-4.4-4.41-6.16-1.09,1.49-.56,3.68-2.6,4.63-1.97-1.32-2.23-3.59-3.01-5.58-.93-.2-1.84-.28-2.79.11-.93,1.79-.19,4.27-2.16,5.77-2.15-1.35-1.33-3.51-1.65-5.28-.62-.61-1.31-.29-1.94-.32-1.41,1.28-1.36,4.31-4.24,3.59-.89-.95-.24-2.08-.72-3.07-.93-.41-1.92-.09-2.85-.2-1.54,1.33-1.82,3.59-3.8,4.49-2.82.11-1.03-3.48-2.66-4.7,12.99-4.53,25.94-9.17,38.54-14.73.62-.28,1.29-.47,1.94-.71,1.33.31,1.8,1.47,2.34,2.49,2.6,5.02,2.88,10.3,1.91,15.79Z"/><path class="uuid-a3117e77-3e72-4ac3-8535-32a89a810223" d="m90.11,499.34c0,.55-.13,1.12-.79,1-1.8-.31-3.1.75-4.49,1.55-3.86,2.2-7.37,4.88-10.67,7.84-4.85,4.34-7.6,9.76-8.52,16.18-.58,4.07-1.16,8.13-1.12,12.25,0,.93-.06,1.86.25,2.78.21.62.36,1.41-.66,1.62-7.36-4.52-10.99-11.16-8.86-20.12,1.36-5.72,4.25-10.72,8.15-15.18,3.56-4.07,7.65-7.3,12.83-9.02.27-.09.49-.36.73-.55,1.66-.15,3.33-.27,4.99-.46,3-.36,5.58.88,8.16,2.11Z"/><path class="uuid-a3117e77-3e72-4ac3-8535-32a89a810223" d="m287.7,519.94c.47-2.7,1.62-5.2,2.09-7.9.96-5.48.69-10.77-1.91-15.79-.53-1.02-1-2.18-2.34-2.49,2.79-1.45,5.63-2.77,8.54-3.93,1.12,1.85,2.63,3.43,3.44,5.52,3.64,9.38-1.36,20.58-9.83,24.59Z"/><path class="uuid-14160bfc-9acc-4da0-9dd7-fe9d33796e1f" d="m157.09,535.74v.81c-.52.89-1.33,1.43-2.24,1.84-2.63.24-5.25.5-7.89.35-.05-1.53.12-3.06-.5-4.97,3.53,2.24,7.04,2.4,10.64,1.97Z"/><path class="uuid-7285a694-900f-4561-b672-62f77b14fb6b" d="m183.48,483.5c-1.36,5.94-3.52,10.6-8.94,13.85-2.7,1.62-5.71,2.81-8.59,4.09-1.92.85-6.51,4.02-8.52,2.29-.03-2.85,1.41-5.27,2.33-7.83,2.64-7.38,4.56-14.88,4.47-22.78,0-.68.09-1.38-.29-2.01.06-.64.03-1.26-.25-1.85.13-1.76-.55-3.4-.9-5.19,1.61-.41,2.82.54,4.1,1,4.43,1.59,8.59,3.68,12.1,6.91,2.62,2.42,3.96,5.39,4.13,8.92.02.37-.01.76.32,1.03-.13.53-.13,1.05.05,1.57Z"/><path class="uuid-d6cb9a69-2532-490e-9b0d-79614a819485" d="m205.58,475.65c-.32-.48-.32-1.01-.19-1.54,3.61-2.28,6.73-5.18,10.07-7.8,17.72-13.91,35.39-27.88,53.08-41.84,7.96-6.28,15.88-12.6,23.87-18.84.57-.45,1.24-1.84,2.5-.39-2.78,2.24-5.48,4.44-8.21,6.6-11.23,8.9-22.47,17.79-33.72,26.67-9.82,7.75-19.66,15.48-29.49,23.23-5.55,4.38-11.09,8.77-16.64,13.15-.39.3-.84.52-1.27.77Z"/><path class="uuid-d6cb9a69-2532-490e-9b0d-79614a819485" d="m163.68,469.25c.28.59.31,1.21.25,1.85-3.1-1.39-5.8-3.45-8.65-5.24-19.1-12.07-38.15-24.21-57.21-36.32-1.11-.7-2.22-1.4-3.34-2.1-.48-.3-1.04-.55-.67-1.33.76-.51,1.27.14,1.8.48,13.06,8.27,26.11,16.55,39.17,24.82,9.2,5.83,18.41,11.63,27.62,17.44.31.19.69.28,1.03.41Z"/><path class="uuid-6d4f8403-1a6a-4ba7-9668-6ebd6bbc68da" d="m242.9,509.91c-.38,1.42-1.15,2.58-2.39,3.49-1.8.56-2.29-.27-2.53-1.85,1.58-.72,3.25-1.18,4.93-1.63Z"/><path class="uuid-d6cb9a69-2532-490e-9b0d-79614a819485" d="m183.48,483.5c-.18-.52-.17-1.04-.05-1.57.6.34,1.19.67,1.81,1.02.79-.03,1.42-.77,2.29-.6,0,.42.01.83.02,1.25-.76.28-1.51.56-2.35.86-.55-.31-1.14-.64-1.73-.96Z"/><path class="uuid-156782ce-7b05-4901-941a-d00584e378f3" d="m186.09,142.83c.78-2.11,3.28-4.09,4.73-5.83,1.46-1.74,2.88-3.51,4.28-5.3,3.02-3.85,5.92-7.79,8.77-11.77,12.89,3.28,17.27,17.52,18.76,29.2-4.69-1.84-9.47-.98-14.05-.62-.91.86-1.14,1.65-.58,2.52.56.87,1.42.8,2.34.74,4.27-.29,8.62-1.2,12.59,1.33,1.18,17.91-2.69,40.68-18.64,51.61-2.7,6.56.9,13.84,2.69,20.19,2.07,7.33,2.66,14.69,1.62,22.25-5.61,6.08-12.72,9.42-21.05,9.39-8.63-.03-17.49-2.44-24.48-7.59.4-3.33,1.43-6.52,2.86-9.49,2.02-4.19,2.47-8.63,2.92-13.11,1.2-12.05-.67-23.72-4.31-35.19-1.57-4.95-3.24-9.86-4.1-15.02-1.15-6.86,1.39-12.26,6.55-16.41,5.12-4.13,10.35-8.12,15.02-12.79,3.29-.92,6.52-.53,9.74.43,1.39.42,4.77,2.22,6.15,1.27,2.71-1.87-1.28-3.4-2.56-3.82-3-.97-6.1-1.68-9.24-1.98Zm9.41,35.48c-1.51,2.15,4.86,2.17,6.13,1.86,2.06-.5,3.39-1.97,3.53-4.1.2-3.04-1.34-5.91-1.09-9.06.3-3.89,1.54-7.76,2.41-11.55-.34-.29-.64-.52-1.24-.2-1.47,5.48-3.82,11.84-2.12,17.51.52,1.73,1.28,3.92-.32,5.39-1.85,1.7-5.21.73-7.31.15Zm.13,29.08c-3.62.29-7.18-.29-10.69-1.29-3.08-.88-6.03-2.09-8.88-3.53-.79-.4-1.37-.57-1.61.52,5.2,3.68,20.06,7.32,21.56,5.3.12-.4.04-.73-.38-1Zm2.65-18.14c2.43-.15,2.6-3.74.13-3.81-2.47-.06-2.51,3.5-.13,3.81Zm-6.91-29.8c-2.49.39-7.45,4.06-7.37,5.51,2.58-1.88,5.26-3.3,7.37-5.51Zm-3.07-1.94c-2.04-.06-7.76,3.98-7.79,5.52,2.62-1.85,5.27-3.29,7.79-5.52Zm32.54,4.33c-2.79,1.29-5.35,2.9-7.52,5.08,2.87-1.16,5.39-2.84,7.52-5.08Zm-3.48-1.98c-1.96.38-7.19,4.17-7.32,5.3,2.16-.68,7.02-4.21,7.32-5.3Z"/><path class="uuid-c0da2e8c-341b-4046-9635-b1f07a775438" d="m227.5,319.92c-.45,1.1-3.7,1.62-4.66,1.95-2.28.78-4.55,1.58-6.84,2.33-2.17.72-8.32,1.3-8.1,4.58.22,3.15,4.12,3.88,6.54,3.27,4.43-1.13,8.81-2.76,13.18-4.12,4.41,2.19,9.03,4.18,13.14,6.91-9.21-1.73-18.17-1.84-26.5,3.49.11,5.28,13.55,2.36,16.41,1.87,1.2.86,2.3,1.76,3.24,2.86-3.42.29-6.84.55-10.26.87-4.78.44-9.56,1.03-14.37,1.04-1.97,0-3.02-1.12-3.29-3.12-.26-1.93-.28-3.86-.43-5.79-.43-5.72-.96-11.43-1.43-17.15-.29-3.54-.51-7.09-.81-10.64-.46-5.47-.96-10.93-1.44-16.39-.36-4.04-.66-8.08-1.07-12.11-.23-2.22,1.04-4.26,3.07-4.43,8.27-.67,16.55-1.21,24.81-1.98,2.29-.21,4.63-.03,6.87-.73.44,0,.87.02,1.31.02,2.69.02,3.97,1.26,4.18,3.96.67,8.34,1.35,16.67,2.02,25.01-.35,2.66.18,5.28.32,7.91-.13.26-.26.52-.38.78-3.59-1.87-6.72-4.57-10.74-5.67-5.41-1.47-10.94-1.88-16.36-2.27-3.05,1.79-3.79,3.76-2.38,6.12.05.05.07.12.05.19-2.01.92-4.45-.37-6.1,1.7-1.57,1.97-.72,4.96.74,6.7,3.17.22,6.33.44,9.49.66,2.87.2,6.35-.08,9.04,1.05.1.47.26.89.74,1.11Zm2.98-39.87c.01,4.42,6.67,4.54,6.78.13.11-4.49-6.79-4.66-6.78-.13Z"/><path class="uuid-261678c2-93f3-45ce-9636-3aecc3e6676e" d="m235.56,272.65c-2.24.7-4.59.52-6.87.73-8.26.77-16.54,1.31-24.81,1.98-2.02.16-3.3,2.21-3.07,4.43.41,4.03.72,8.07,1.07,12.11.48,5.46.98,10.93,1.44,16.39.3,3.54.52,7.09.81,10.64.47,5.72,1,11.43,1.43,17.15.15,1.93.17,3.86.43,5.79.27,1.99,1.31,3.12,3.29,3.12,4.81-.02,9.59-.6,14.37-1.04,3.42-.31,6.84-.58,10.26-.87.67.35,1.3.73,1.6,1.48-7.25.61-14.49,1.23-21.74,1.84-2.12.18-4.25.32-6.38.49-3.18.25-4.61-.9-4.86-4.01-1.55-18.81-3.09-37.62-4.63-56.43-.19-2.37-.37-4.75-.57-7.12-.23-2.81.93-4.39,3.67-4.62,10.74-.91,21.49-1.75,32.24-2.61.81-.06,1.63,0,2.3.57Z"/><path class="uuid-c5f907fd-bf5a-4555-bc49-1d365ca472d6" d="m282.03,332.91c8.74,5.56,17.49,11.1,26.21,16.69-.03.6-.24.86-.8,1.04-11.91-7.47-23.77-15.02-35.65-22.55.15-.34.3-.69.84-.87,3.07,1.86,6.23,3.78,9.39,5.69Z"/><path class="uuid-c5f907fd-bf5a-4555-bc49-1d365ca472d6" d="m81.88,323.97c.12.28.24.56.42.98-11.98,7.47-23.92,14.91-35.75,22.28-.54-.23-.66-.51-.73-.86.28-.69,1-.89,1.56-1.24,10.69-6.66,21.39-13.31,32.08-19.97.64-.4,1.24-.84,1.86-1.26.19.02.37.05.56.07Z"/><path class="uuid-156782ce-7b05-4901-941a-d00584e378f3" d="m243.4,309.55c-.15-2.64-.68-5.26-.32-7.91,2.15,3.22,4.31,6.42,6.44,9.65.34.51.74,1.03.54,1.73-1.02.02-1.61-.83-2.43-1.22-1.44-.69-2.54-2.01-4.22-2.24Z"/><path class="uuid-c5f907fd-bf5a-4555-bc49-1d365ca472d6" d="m243.4,309.55c1.68.23,2.78,1.55,4.22,2.24.82.39,1.41,1.24,2.43,1.22v-.04c-.07.35.18.43.43.52.5.8,2.4.66,1.59,2.35-3.3-1.37-6.15-3.48-9.05-5.52.13-.26.26-.52.38-.78Z"/><path class="uuid-156782ce-7b05-4901-941a-d00584e378f3" d="m250.48,313.5c-.24-.09-.5-.18-.44-.52.31.04.41.25.44.52Z"/><path class="uuid-d6cb9a69-2532-490e-9b0d-79614a819485" d="m186.09,142.83c3.15.3,6.24,1.01,9.24,1.98,1.28.41,5.27,1.95,2.56,3.82-1.38.95-4.76-.85-6.15-1.27-3.22-.96-6.45-1.35-9.74-.43,1.24-1.49,2.57-2.89,4.09-4.1Z"/><path class="uuid-d6cb9a69-2532-490e-9b0d-79614a819485" d="m222.93,153.11c-3.98-2.53-8.32-1.62-12.59-1.33-.92.06-1.78.13-2.34-.74-.56-.87-.33-1.66.58-2.52,4.58-.36,9.36-1.21,14.05.62.55,1.29.27,2.64.3,3.96Z"/><path class="uuid-c5f907fd-bf5a-4555-bc49-1d365ca472d6" d="m213.59,308.7c.02-.07,0-.14-.05-.19.06-.3.12-.59.22-1.07,3.89.4,7.73,1.04,11.57,1.14,5.39.13,10.07,1.96,14.5,4.86,2.59,1.7,5.38,3.12,7.95,4.59.02.71-.25.92-.68,1.13-3.41-1.93-6.97-3.68-10.23-5.87-3.44-2.32-7.21-2.91-11.16-3.25-4.05-.35-8.08-.88-12.12-1.34Z"/><path class="uuid-c5f907fd-bf5a-4555-bc49-1d365ca472d6" d="m227.5,319.92c-.48-.21-.64-.64-.74-1.11,3.77-1.92,7.41-2.3,11.1.4,2.86,2.1,5.95,3.88,8.85,5.75-.07.63-.29.91-.71,1.09-2.84-1.81-5.82-3.45-8.49-5.49-3.3-2.51-6.56-2.32-10.02-.66Z"/><path class="uuid-c5f907fd-bf5a-4555-bc49-1d365ca472d6" d="m106.83,333.58c-2.45.23-4.89.79-7.38.21,12.74-2.96,25.72-4.75,38.58-8.44-3.09,3.28-9.3,3.46-13.45,4.37-5.21,1.14-10.56,2.04-15.69,3.49-.69.12-1.37.25-2.06.37Z"/><path class="uuid-c5f907fd-bf5a-4555-bc49-1d365ca472d6" d="m111.25,339.63c1,.4,1.97.14,2.95-.08,5.14-1.19,10.12-2.9,15.14-4.49.29-.09.57-.27.91-.07-.21.95-.88,1.51-1.73,1.81-7.6,2.63-15.36,4.61-23.39,5.42-.18.02-.37-.04-.76-.09,1.02-1.15,2.83-.34,3.55-1.68,1.08-.37,2.36.05,3.32-.82Z"/><path class="uuid-dd3f5177-2f15-45b3-ae2f-c465490df7d9" d="m111.25,339.63c-.96.87-2.24.44-3.32.82-1.5-2.11-1.42-4.47-1.1-6.87.69-.12,1.37-.25,2.06-.37,1.36.13,1.98.88,1.86,2.22-.12,1.44.42,2.79.5,4.2Z"/><path class="uuid-14160bfc-9acc-4da0-9dd7-fe9d33796e1f" d="m97.99,532.34h-3.19c-5.25,5.36-10.42,11-18.2,13.64.5-1.53,2.75-2.4,3.95-3.29,1.69-1.25,3.3-2.61,4.78-4.1,2.76-2.76,5.54-5.99,6.67-9.8,2.62-8.84-.65-18.64-1.6-27.49,3.2,3.99,4.93,9.08,6.88,13.75-.02,1.81-.02,3.62-.03,5.42-.05,3.98-.07,7.95.75,11.87Z"/><path class="uuid-14160bfc-9acc-4da0-9dd7-fe9d33796e1f" d="m121.71,536.12c-.63,0-1.24,0-1.87,0-.58-2.8-1.75-5.42-2.63-8.12-.85-2.61-1.19-5.3-1.13-8.04,1.79,0,3.45-.89,5.25-.76.11,5.64-.32,11.3.38,16.93Z"/><path class="uuid-6d4f8403-1a6a-4ba7-9668-6ebd6bbc68da" d="m119.62,538.32c-.61.64-1.37.43-2.01.38-1.57-.63-1.68-2.33-2.67-3.33-.17-.72-.31-1.45-.53-2.15-1.33-4.07-2.02-8.27-2.49-12.52v-6.09c1.08-1.2,1.96-2.56,4.16-1.9v7.24c-.06,2.74.28,5.44,1.13,8.04.88,2.7,2.05,5.32,2.63,8.12-.06.73.14,1.49-.22,2.2Z"/><path class="uuid-14160bfc-9acc-4da0-9dd7-fe9d33796e1f" d="m114.95,535.37c-1.16.18-2.25-.29-3.38-.38-1.69-4.51-3.55-8.98-3.74-13.9,1.4.2,2.73-.4,4.11-.39.47,4.25,1.15,8.44,2.49,12.52.23.7.36,1.43.53,2.15Z"/><path class="uuid-14160bfc-9acc-4da0-9dd7-fe9d33796e1f" d="m131.12,537.63c-1.57-.59-3.22-.31-4.84-.4-.28-6.27-1.9-11.91-.47-18.21,1.14,6.4,3.13,12.53,5.31,18.61Z"/><path class="uuid-6d4f8403-1a6a-4ba7-9668-6ebd6bbc68da" d="m157.09,535.74c-3.59.43-7.1.28-10.64-1.97.63,1.91.46,3.44.5,4.97-.57,1.07-1.51.75-2.41.69-.46-.49-.9-.96-1.36-1.44-2.64-7.16-3.99-14.56-4.17-22.18-.2-1.79,1.33-6.58,3.96-4.9.56,2.19-.17,4.64.41,7.13,2.24-2.41,3.75-5.45,7.39-5.69,4.31.87,5.93,5.6,6.67,9.39.47,2.4.56,4.82.51,7.25-.04,1.63.6,5.64-.87,6.74Z"/><path class="uuid-14160bfc-9acc-4da0-9dd7-fe9d33796e1f" d="m143.19,537.99c-.66.69-1.49.28-2.25.37.02-1.98-.67-3.81-1.35-5.62-2.06-5.47-2.61-11.14-2.43-16.93h1.85c.18,7.62,1.53,15.03,4.17,22.18Z"/><path class="uuid-6d4f8403-1a6a-4ba7-9668-6ebd6bbc68da" d="m111.38,537.9c-.69.69-1.48.49-2.27.37-1.4-1.01-1.69-2.67-2.46-4.04-.38-1.31-.72-2.64-1.14-3.93-.95-2.89-1.02-5.96-1.85-8.87,0-3.41-.52-7.09,3.74-7.82.87,2.44.14,5,.42,7.47.2,4.92,2.06,9.39,3.74,13.9-.08.97.16,1.97-.18,2.91Z"/><path class="uuid-6d4f8403-1a6a-4ba7-9668-6ebd6bbc68da" d="m102.9,533.86v2.52c-.36.75-.83,1.24-1.61,1.63-2.81-.84-2.51-3.59-3.3-5.67-.81-3.92-.79-7.89-.75-11.87.02-1.81.02-3.62.03-5.42,1.34-.48,3.16-3.47,4.78-1.69-.33,2.64-.67,5.37-1.02,8.1-.33,4.28.7,8.35,1.87,12.41Z"/><path class="uuid-14160bfc-9acc-4da0-9dd7-fe9d33796e1f" d="m106.65,534.23c-1.24-.18-2.48-.53-3.75-.37-1.17-4.05-2.2-8.13-1.87-12.41.88,0,1.75-.02,2.63-.02.82,2.91.9,5.97,1.85,8.87.42,1.3.76,2.62,1.14,3.93Z"/><path class="uuid-6d4f8403-1a6a-4ba7-9668-6ebd6bbc68da" d="m140.94,538.36c-.04,1.28-.24,2.9-1.94,2.52-1.39-.32-1.97-2.21-2.6-3.26-.11-.48-.2-.97-.33-1.45-1.85-6.28-2.94-12.68-3.07-19.24-.37-2.67,1.32-4.04,3.31-5.42,1.45,1.33.56,2.94.85,4.29-.18,5.79.37,11.46,2.43,16.93.68,1.81,1.37,3.64,1.35,5.62Z"/><path class="uuid-6d4f8403-1a6a-4ba7-9668-6ebd6bbc68da" d="m136.03,537.99c-.16,1.26.41,3.66-1.81,3.34-1.36-.19-2.45-2.71-3.1-3.71-2.18-6.08-4.17-12.21-5.31-18.61-1.43,6.3.19,11.94.47,18.21-.02,1.45.39,4.62-2.09,4.15-1.8-.35-2.06-3.81-2.48-5.26-.7-5.63-.26-11.29-.38-16.93.43-.67.36-1.42.39-2.17.13-2.77,1.37-4.22,4.15-4.9.82.2.61.99.9,1.54.82-.24,1.28-1.23,2.51-1.08.45,1.48.62,3.1.74,4.73.17,1.48.35,2.96.53,4.44.71,5.79,3.56,10.86,5.48,16.24Z"/><path class="uuid-14160bfc-9acc-4da0-9dd7-fe9d33796e1f" d="m136.41,537.62c-.12.12-.25.25-.38.37-1.92-5.38-4.78-10.45-5.48-16.24-.17-1.48-.35-2.95-.53-4.44,1-.04,1.94-.58,2.98-.38.13,6.55,1.22,12.96,3.07,19.24.14.47.23.96.33,1.45Z"/><path class="uuid-c5f907fd-bf5a-4555-bc49-1d365ca472d6" d="m195.5,178.31c2.09.58,5.46,1.55,7.31-.15,1.6-1.47.84-3.66.32-5.39-1.71-5.67.65-12.02,2.12-17.51.6-.32.9-.09,1.24.2-.87,3.79-2.11,7.66-2.41,11.55-.25,3.16,1.29,6.02,1.09,9.06-.14,2.14-1.47,3.6-3.53,4.1-1.27.31-7.64.29-6.13-1.86Z"/><path class="uuid-c5f907fd-bf5a-4555-bc49-1d365ca472d6" d="m195.63,207.39c.42.27.5.6.38,1-1.5,2.02-16.36-1.62-21.56-5.31.23-1.09.81-.92,1.61-.52,2.85,1.44,5.8,2.65,8.88,3.53,3.51,1,7.07,1.58,10.69,1.29Z"/><path class="uuid-c5f907fd-bf5a-4555-bc49-1d365ca472d6" d="m198.28,189.25c-2.38-.31-2.34-3.87.13-3.81,2.47.06,2.3,3.66-.13,3.81Z"/><path class="uuid-c5f907fd-bf5a-4555-bc49-1d365ca472d6" d="m191.38,159.45c-2.11,2.21-4.79,3.62-7.37,5.51-.08-1.45,4.88-5.12,7.37-5.51Z"/><path class="uuid-c5f907fd-bf5a-4555-bc49-1d365ca472d6" d="m188.31,157.51c-2.51,2.23-5.17,3.68-7.79,5.52.03-1.54,5.75-5.58,7.79-5.52Z"/><path class="uuid-c5f907fd-bf5a-4555-bc49-1d365ca472d6" d="m220.85,161.85c-2.13,2.25-4.65,3.92-7.52,5.08,2.17-2.18,4.73-3.8,7.52-5.08Z"/><path class="uuid-c5f907fd-bf5a-4555-bc49-1d365ca472d6" d="m217.37,159.87c-.29,1.1-5.16,4.62-7.32,5.3.12-1.13,5.36-4.93,7.32-5.3Z"/><path class="uuid-261678c2-93f3-45ce-9636-3aecc3e6676e" d="m230.49,280.05c-.01-4.54,6.88-4.37,6.78.13-.1,4.41-6.76,4.29-6.78-.13Z"/></g></g></svg>