<?xml version="1.0" encoding="UTF-8"?><svg id="uuid-406d5ae0-a250-440b-b348-9bd88b9faae8" xmlns="http://www.w3.org/2000/svg" viewBox="0 0 33.77 31.59"><defs><style>.uuid-d6ccdc1f-aebb-4cb7-bffa-e87b9e24c7be{fill:#fff;stroke-width:0px;}</style></defs><g id="uuid-82bb2571-9539-4170-8574-d04d92502414"><path class="uuid-d6ccdc1f-aebb-4cb7-bffa-e87b9e24c7be" d="m5.06,16.18l4.29-9.22c.84-1.76,3.1-2.88,5.63-2.88l7.04.35c1.48,0,3.17-.56,3.94-1.55s1.27-2.88,1.27-2.88l-13.65.99c-3.52,0-6.61,1.62-7.74,4.01L.21,16.75c-.84,1.83.99,3.73,3.66,3.73h11.61l1.34-3.45-10.55.42c-.84,0-1.48-.63-1.2-1.27Z"/><path class="uuid-d6ccdc1f-aebb-4cb7-bffa-e87b9e24c7be" d="m31.03,8.3c-2.39-.14-4.29.7-5.21,2.67v.07c-.42-1.34-1.62-2.32-3.1-2.32l-9.01-.35-2.81,5,9.15-.28c.14,0,.21,0,.35.07.56.21.91.84.7,1.41l-3.73,11.68,3.38,5.35,2.74-9.92c2.53-9.22,10.27-13.16,10.27-13.16l-2.74-.21Z"/></g></svg>